<svg xmlns="http://www.w3.org/2000/svg" xmlns:xlink="http://www.w3.org/1999/xlink" width="100" height="100" viewBox="0 0 100 100">
  <defs>
    <clipPath id="clip-path">
      <rect id="Rectángulo_346489" data-name="Rectángulo 346489" width="63.278" height="71.133" fill="none"/>
    </clipPath>
  </defs>
  <g id="Grupo_987499" data-name="Grupo 987499" transform="translate(-525 -1239)">
    <circle id="Elipse_4884" data-name="Elipse 4884" cx="50" cy="50" r="50" transform="translate(525 1239)" fill="#3fe2e5"/>
    <g id="Grupo_987498" data-name="Grupo 987498" transform="translate(542.938 1253.044)">
      <g id="Grupo_987497" data-name="Grupo 987497" clip-path="url(#clip-path)">
        <path id="Trazado_727174" data-name="Trazado 727174" d="M416.773,188.642H405.816a.843.843,0,0,1-.843-.843V176.842a.843.843,0,0,1,.843-.843h10.957a.843.843,0,0,1,.843.843V187.8a.843.843,0,0,1-.843.843" transform="translate(-362.775 -157.66)" fill="#cb97e7"/>
        <path id="Trazado_727175" data-name="Trazado 727175" d="M409.419,187.8V176.842a.843.843,0,0,1,.843-.843h-4.446a.843.843,0,0,0-.843.843V187.8a.843.843,0,0,0,.843.843h4.446a.843.843,0,0,1-.843-.843" transform="translate(-362.775 -157.66)" fill="#bd80e1"/>
        <path id="Trazado_727176" data-name="Trazado 727176" d="M396.858,166h10.957a1.887,1.887,0,0,1,1.885,1.885v10.957a1.887,1.887,0,0,1-1.885,1.885H396.858a1.887,1.887,0,0,1-1.885-1.885V167.884A1.887,1.887,0,0,1,396.858,166Zm10.758,2.084H397.057v10.559h10.559Z" transform="translate(-353.817 -148.702)"/>
        <path id="Trazado_727177" data-name="Trazado 727177" d="M70.21,272.69,77.1,253.953H53.711L60.6,272.69Z" transform="translate(-48.115 -227.491)" fill="#fff0ad"/>
        <path id="Trazado_727178" data-name="Trazado 727178" d="M53.711,253.953,60.6,272.69H66.45l-6.887-18.737Z" transform="translate(-48.115 -227.491)" fill="#ffe177"/>
        <path id="Trazado_727179" data-name="Trazado 727179" d="M61.252,264.774H51.64a1.042,1.042,0,0,1-.978-.682l-6.887-18.737a1.042,1.042,0,0,1,.978-1.4H68.139a1.042,1.042,0,0,1,.978,1.4L62.23,264.091A1.042,1.042,0,0,1,61.252,264.774Zm-8.885-2.084h8.157l6.121-16.653h-20.4Z" transform="translate(-39.157 -218.533)"/>
        <path id="Trazado_727180" data-name="Trazado 727180" d="M135.645,506.656H132.39a2.084,2.084,0,0,1-2.084-2.084v-2.688a2.084,2.084,0,0,1,2.084-2.084h3.255a2.084,2.084,0,0,1,2.084,2.084v2.688a2.084,2.084,0,0,1-2.084,2.084" transform="translate(-116.728 -447.723)" fill="#02c7dd"/>
        <path id="Rectángulo_346487" data-name="Rectángulo 346487" d="M-6.874-10h3.255A3.129,3.129,0,0,1-.493-6.874v2.687A3.129,3.129,0,0,1-3.619-1.061H-6.874A3.129,3.129,0,0,1-10-4.187V-6.874A3.129,3.129,0,0,1-6.874-10Zm3.255,6.855A1.043,1.043,0,0,0-2.577-4.187V-6.874A1.043,1.043,0,0,0-3.619-7.916H-6.874A1.043,1.043,0,0,0-7.916-6.874v2.687A1.043,1.043,0,0,0-6.874-3.145Z" transform="translate(22.536 61.037)"/>
        <path id="Trazado_727181" data-name="Trazado 727181" d="M123.769,467.181h-9.526a.7.7,0,0,1-.695-.695v-5.466a.7.7,0,0,1,.695-.695h9.526a.7.7,0,0,1,.695.695v5.466a.7.7,0,0,1-.695.695" transform="translate(-101.716 -412.361)" fill="#a6e7f0"/>
        <path id="Rectángulo_346488" data-name="Rectángulo 346488" d="M-8.263-10H1.263A1.739,1.739,0,0,1,3-8.263V-2.8A1.739,1.739,0,0,1,1.263-1.061H-8.263A1.739,1.739,0,0,1-10-2.8V-8.263A1.739,1.739,0,0,1-8.263-10ZM.916-7.916H-7.916v4.771H.916Z" transform="translate(20.79 56.923)"/>
        <path id="Trazado_727182" data-name="Trazado 727182" d="M42.495,80.506A16.247,16.247,0,1,1,26.247,64.259,16.247,16.247,0,0,1,42.495,80.506" transform="translate(-8.958 -57.563)" fill="#ffe177"/>
        <path id="Trazado_727183" data-name="Trazado 727183" d="M16.994,80.506a16.253,16.253,0,0,1,12.75-15.869,16.247,16.247,0,1,0,0,31.738,16.253,16.253,0,0,1-12.75-15.869" transform="translate(-8.958 -57.563)" fill="#ffd15c"/>
        <path id="Trazado_727184" data-name="Trazado 727184" d="M17.289,88.839a17.276,17.276,0,1,1,16.1-10.975A21.582,21.582,0,0,1,30.75,82.4,17.183,17.183,0,0,1,17.289,88.839Zm0-32.495A15.205,15.205,0,1,0,29.161,81.05a19.157,19.157,0,0,0,2.3-3.985,15.217,15.217,0,0,0-14.175-20.72Z" transform="translate(0 -48.606)"/>
        <path id="Trazado_727185" data-name="Trazado 727185" d="M77.156,208.571a4.127,4.127,0,1,1,4.127-4.127,1.042,1.042,0,1,1-2.084,0,2.043,2.043,0,1,0-2.043,2.043,1.042,1.042,0,0,1,0,2.084Z" transform="translate(-65.419 -179.444)"/>
        <path id="Trazado_727186" data-name="Trazado 727186" d="M183.739,208.571a1.042,1.042,0,1,1,0-2.084,2.043,2.043,0,1,0-2.043-2.043,1.042,1.042,0,1,1-2.084,0,4.127,4.127,0,1,1,4.127,4.127Z" transform="translate(-160.897 -179.444)"/>
        <line id="Línea_215" data-name="Línea 215" x2="11.106" transform="translate(11.736 28.085)" fill="#fff"/>
        <path id="Línea_216" data-name="Línea 216" d="M2.148-7.916H-8.958A1.042,1.042,0,0,1-10-8.958,1.042,1.042,0,0,1-8.958-10H2.148A1.042,1.042,0,0,1,3.19-8.958,1.042,1.042,0,0,1,2.148-7.916Z" transform="translate(20.694 37.043)"/>
        <line id="Línea_217" data-name="Línea 217" y2="21.457" transform="translate(14.821 25)" fill="#fff"/>
        <path id="Línea_218" data-name="Línea 218" d="M-8.958,13.541A1.042,1.042,0,0,1-10,12.5V-8.958A1.042,1.042,0,0,1-8.958-10,1.042,1.042,0,0,1-7.916-8.958V12.5A1.042,1.042,0,0,1-8.958,13.541Z" transform="translate(23.779 33.958)"/>
        <line id="Línea_219" data-name="Línea 219" y2="21.457" transform="translate(19.757 25)" fill="#fff"/>
        <path id="Línea_220" data-name="Línea 220" d="M-8.958,13.541A1.042,1.042,0,0,1-10,12.5V-8.958A1.042,1.042,0,0,1-8.958-10,1.042,1.042,0,0,1-7.916-8.958V12.5A1.042,1.042,0,0,1-8.958,13.541Z" transform="translate(28.715 33.958)"/>
        <path id="Trazado_727187" data-name="Trazado 727187" d="M107.242,426.39H94.937A1.389,1.389,0,0,1,93.548,425v-4.077a1.389,1.389,0,0,1,1.389-1.389h12.305a1.389,1.389,0,0,1,1.389,1.389V425a1.389,1.389,0,0,1-1.389,1.389" transform="translate(-83.8 -375.82)" fill="#eaf9fa"/>
        <path id="Trazado_727188" data-name="Trazado 727188" d="M98.283,418.474H85.978a2.434,2.434,0,0,1-2.431-2.431v-4.077a2.434,2.434,0,0,1,2.431-2.431H98.283a2.434,2.434,0,0,1,2.431,2.431v4.077A2.434,2.434,0,0,1,98.283,418.474Zm-12.305-6.855a.348.348,0,0,0-.347.347v4.077a.348.348,0,0,0,.347.347H98.283a.348.348,0,0,0,.347-.347v-4.077a.348.348,0,0,0-.347-.347Z" transform="translate(-74.842 -366.862)"/>
        <path id="Trazado_727189" data-name="Trazado 727189" d="M319.073,383.823a4.878,4.878,0,0,1-3.109-.846.418.418,0,0,0-.66.339V390a.7.7,0,0,1-.695.695h-6.681a.418.418,0,0,0-.339.66,4.9,4.9,0,1,1-8.07-.012.416.416,0,0,0-.347-.647h-6.681A.7.7,0,0,1,291.8,390v-5.247a.69.69,0,0,1,.748-.693,4.975,4.975,0,0,0,.78.014,4.9,4.9,0,0,0-.3-9.785q-.231,0-.457.021a.7.7,0,0,1-.767-.69V367.88a.7.7,0,0,1,.695-.695h5.47a.692.692,0,0,1,.693.71c0,.049,0,.1,0,.147a4.9,4.9,0,1,0,9.794,0c0-.049,0-.1,0-.147a.692.692,0,0,1,.693-.71h5.47a.7.7,0,0,1,.695.695v6.681a.416.416,0,0,0,.647.347,4.9,4.9,0,1,1,3.121,8.916" transform="translate(-261.394 -328.925)" fill="#fe9738"/>
        <path id="Trazado_727190" data-name="Trazado 727190" d="M319.073,383.823a4.878,4.878,0,0,1-3.109-.846.418.418,0,0,0-.66.339V390a.7.7,0,0,1-.695.695h-6.681a.418.418,0,0,0-.339.66,4.9,4.9,0,1,1-8.07-.012.416.416,0,0,0-.347-.647h-6.681A.7.7,0,0,1,291.8,390v-5.247a.69.69,0,0,1,.748-.693,4.975,4.975,0,0,0,.78.014,4.9,4.9,0,0,0-.3-9.785q-.231,0-.457.021a.7.7,0,0,1-.767-.69V367.88a.7.7,0,0,1,.695-.695h5.47a.692.692,0,0,1,.693.71c0,.049,0,.1,0,.147a4.9,4.9,0,1,0,9.794,0c0-.049,0-.1,0-.147a.692.692,0,0,1,.693-.71h5.47a.7.7,0,0,1,.695.695v6.681a.416.416,0,0,0,.647.347,4.9,4.9,0,1,1,3.121,8.916" transform="translate(-261.394 -328.925)" fill="#fe9738"/>
        <path id="Trazado_727191" data-name="Trazado 727191" d="M292.566,374.306q.226-.021.457-.021a4.886,4.886,0,0,1,3.745,1.742v-8.148a.7.7,0,0,1,.695-.695h-4.969a.7.7,0,0,0-.695.695v5.737a.7.7,0,0,0,.767.69" transform="translate(-261.394 -328.924)" fill="#fe860a"/>
        <path id="Trazado_727192" data-name="Trazado 727192" d="M296.768,520.2v-7.666a4.893,4.893,0,0,1-3.442,1.741,5.005,5.005,0,0,1-.78-.014.69.69,0,0,0-.748.693V520.2a.7.7,0,0,0,.695.695h4.97a.7.7,0,0,1-.695-.695" transform="translate(-261.393 -459.127)" fill="#fe860a"/>
        <path id="Trazado_727193" data-name="Trazado 727193" d="M294.594,391.1a5.941,5.941,0,0,1-5.44-8.325h-5.618a1.739,1.739,0,0,1-1.737-1.737v-5.247a1.733,1.733,0,0,1,1.725-1.738c.033,0,.132,0,.165.008a3.943,3.943,0,0,0,.617.011,3.855,3.855,0,0,0-.24-7.7q-.183,0-.361.017c-.032,0-.131.008-.163.008a1.738,1.738,0,0,1-1.222-.5,1.718,1.718,0,0,1-.52-1.238v-5.737a1.739,1.739,0,0,1,1.737-1.737h5.47a1.747,1.747,0,0,1,1.248.528,1.715,1.715,0,0,1,.487,1.256l0,.115a3.855,3.855,0,1,0,7.71,0l0-.118a1.713,1.713,0,0,1,.487-1.253,1.747,1.747,0,0,1,1.248-.528h5.47a1.739,1.739,0,0,1,1.737,1.737v5.618a5.939,5.939,0,1,1,0,10.88v5.618a1.739,1.739,0,0,1-1.737,1.737h-5.617a5.943,5.943,0,0,1-5.023,8.311C294.871,391.095,294.732,391.1,294.594,391.1Zm-10.711-10.409h6.333a1.458,1.458,0,0,1,1.2,2.282,3.855,3.855,0,1,0,6.354.01,1.46,1.46,0,0,1,1.2-2.292H305.3v-6.333a1.461,1.461,0,0,1,2.291-1.2,3.855,3.855,0,1,0-.009-6.354,1.439,1.439,0,0,1-.822.258,1.462,1.462,0,0,1-1.46-1.461v-6.333H300.53a5.939,5.939,0,0,1-11.872,0h-4.774v5.019l.182,0a5.96,5.96,0,0,1,4.343,1.888,5.939,5.939,0,0,1-3.977,9.979c-.184.011-.367.014-.548.008Z" transform="translate(-252.436 -319.967)"/>
        <path id="Trazado_727194" data-name="Trazado 727194" d="M275.041,21.343A11.343,11.343,0,1,1,263.7,10a11.343,11.343,0,0,1,11.343,11.343" transform="translate(-226.059 -8.958)" fill="#05e39c"/>
        <path id="Trazado_727195" data-name="Trazado 727195" d="M258.213,21.343a11.346,11.346,0,0,1,8.414-10.959,11.343,11.343,0,1,0,0,21.919,11.346,11.346,0,0,1-8.414-10.959" transform="translate(-226.059 -8.958)" fill="#0ed290"/>
        <path id="Trazado_727196" data-name="Trazado 727196" d="M254.739,0a12.385,12.385,0,1,1-12.385,12.385A12.4,12.4,0,0,1,254.739,0Zm0,22.686a10.3,10.3,0,1,0-10.3-10.3A10.313,10.313,0,0,0,254.739,22.686Z" transform="translate(-217.101)"/>
        <path id="Trazado_727197" data-name="Trazado 727197" d="M301.794,88.286h-.013a1.042,1.042,0,0,1-.784-.371l-4.662-5.536a1.042,1.042,0,0,1,1.594-1.342l3.885,4.614,6.026-6.8a1.042,1.042,0,1,1,1.559,1.382l-6.826,7.7A1.042,1.042,0,0,1,301.794,88.286Z" transform="translate(-265.238 -70.322)"/>
      </g>
    </g>
  </g>
</svg>
