<svg xmlns="http://www.w3.org/2000/svg" xmlns:xlink="http://www.w3.org/1999/xlink" width="100" height="100" viewBox="0 0 100 100">
  <defs>
    <clipPath id="clip-path">
      <rect id="Rectángulo_346609" data-name="Rectángulo 346609" width="75" height="74.766" fill="#9f0925"/>
    </clipPath>
  </defs>
  <g id="Grupo_987746" data-name="Grupo 987746" transform="translate(-344 -1597)">
    <rect id="Rectángulo_33842" data-name="Rectángulo 33842" width="100" height="100" transform="translate(344 1597)" fill="#b3eeef"/>
    <g id="Grupo_987705" data-name="Grupo 987705" transform="translate(356.5 1609.617)">
      <g id="Grupo_987704" data-name="Grupo 987704" clip-path="url(#clip-path)">
        <path id="Trazado_728514" data-name="Trazado 728514" d="M48.615,7.586,61.649.8A6.794,6.794,0,0,1,62.79.336,9.12,9.12,0,0,1,69.052.86a10.01,10.01,0,0,1,4.871,4.435,8.846,8.846,0,0,1,.581,1.42,10.531,10.531,0,0,1-.349,7.312,9.872,9.872,0,0,1-3.284,4.09A9.832,9.832,0,0,1,74.155,22.2a10.531,10.531,0,0,1,.349,7.312,8.889,8.889,0,0,1-.581,1.424,10.048,10.048,0,0,1-4.871,4.435,9.142,9.142,0,0,1-6.262.519,6.794,6.794,0,0,1-1.142-.465L48.615,28.642c-.307,0-.619,0-.93,0a168.415,168.415,0,0,1-30.656-2.882C6.586,23.7,0,20.674,0,18.116c0-1.632,2.192-3.289,6.075-4.73A82.309,82.309,0,0,1,20.147,9.9a1.1,1.1,0,1,1,.369,2.159A80.405,80.405,0,0,0,6.839,15.447c-2.965,1.1-4.642,2.047-4.642,2.67,0,1.482,5.9,3.641,15.255,5.485a154.309,154.309,0,0,0,19.32,2.446l13.208-8.429L48.029,9.787c-3.837.017-7.545.154-11.074.382-4.1.27-7.981.664-11.56,1.15A1.1,1.1,0,0,1,25.1,9.147c3.641-.494,7.574-.9,11.713-1.167C40.609,7.732,44.562,7.59,48.615,7.586ZM58.95,51.5l1.022-5.415a1.1,1.1,0,0,1,2.155.4l-.972,5.145a21.429,21.429,0,0,1,3.641.714l1.756-9.33a1.1,1.1,0,0,1,2.155.4l-1.819,9.662a15.268,15.268,0,0,1,6.594,4.975A8.157,8.157,0,0,1,74.89,61.13a4.488,4.488,0,0,1-.345,3,4.755,4.755,0,0,1-3.936,2.354v7.187a1.1,1.1,0,0,1-1.1,1.1H47.689a1.1,1.1,0,0,1-1.1-1.1V66.482a4.741,4.741,0,0,1-3.932-2.354,4.5,4.5,0,0,1-.349-3,8.156,8.156,0,0,1,1.407-3.068,12.865,12.865,0,0,1,2.338-2.454l-2.047-4.788a3.6,3.6,0,1,1,2.018-.86l1.86,4.356a18.536,18.536,0,0,1,3.87-1.765L50.1,43.765a3.618,3.618,0,0,1-2.554-5.635,3.62,3.62,0,1,1,4.7,5.232l1.628,8.62A23.119,23.119,0,0,1,58.95,51.5ZM58.6,53.7a18.824,18.824,0,0,0-8.757,2.022A12.281,12.281,0,0,0,45.5,59.332a6.008,6.008,0,0,0-1.038,2.226,2.359,2.359,0,0,0,.141,1.557c.386.743,1.383,1.229,3.085,1.229h8.421a1.1,1.1,0,1,1,0,2.2H48.785v6.029H68.413V66.54H61.088a1.1,1.1,0,1,1,0-2.2h8.425c1.7,0,2.7-.486,3.081-1.229a2.346,2.346,0,0,0,.141-1.557A5.9,5.9,0,0,0,71.7,59.332C68.853,55.346,63.289,53.7,58.6,53.7Zm-7.258-14.7a1.428,1.428,0,0,0-1.985.374,1.428,1.428,0,0,0,.374,1.985,1.428,1.428,0,0,0,2.209-1.445,1.414,1.414,0,0,0-.6-.913m-7.154,6.9a1.431,1.431,0,1,0,.781.764,1.424,1.424,0,0,0-.781-.764m-39.5,3.181,9.887-5.71V41.581H4.688Zm9.887,2.562L4.688,57.343V59.98a1.1,1.1,0,0,1-2.2,0V40.73L.12,36a1.1,1.1,0,0,1,.49-1.47,1.108,1.108,0,0,1,.49-.12H35.834a1.1,1.1,0,0,1,1.1,1.1,1.116,1.116,0,0,1-.166.581L34.443,40.73V68.442l2.325,4.646a1.1,1.1,0,0,1-.934,1.678H1.1A1.1,1.1,0,0,1,.12,73.18l2.367-4.738V64.958a1.1,1.1,0,1,1,2.2,0v2.633h9.887V51.633m0-5.747L4.688,51.6v3.222L14.574,49.1Zm17.672,11.24L16.771,66.063v1.528H32.247ZM16.771,63.538,32.247,54.6V51.384L27.21,54.291a1.094,1.094,0,1,1-1.088-1.9l6.125-3.538V45.637L16.771,54.573v3.214L21.8,54.88a1.1,1.1,0,0,1,1.1,1.9L16.771,60.32Zm0-11.5,15.476-8.931V41.581H16.771ZM40.514,26.255q3.668.168,7.516.191l1.478-5.929Zm-28,10.348H2.873L4.26,39.384H13.9Zm21.55,0h-19.1l1.391,2.782H32.67ZM13.9,69.791H4.26L2.873,72.569h9.637Zm1.055,2.778h19.1L32.67,69.791H16.348Zm23.236-58.19a3.729,3.729,0,1,1-2.645,1.092,3.721,3.721,0,0,1,2.645-1.092m1.088,2.645a1.549,1.549,0,1,0,.449,1.092,1.534,1.534,0,0,0-.449-1.092m29.145,2.188H52.09l-1.935,7.756L62.662,33.48a4.707,4.707,0,0,0,.772.32,6.94,6.94,0,0,0,4.742-.436,7.782,7.782,0,0,0,3.8-3.438,6.231,6.231,0,0,0,.436-1.055,8.322,8.322,0,0,0-.261-5.8A7.524,7.524,0,0,0,68.425,19.213Zm-15.484,5.7.664-2.665a1.1,1.1,0,0,1,1.063-.835H67.582a1.091,1.091,0,0,1,.673.232,5.314,5.314,0,0,1,2.064,2.844,6.344,6.344,0,0,1-.017,3.729,4.556,4.556,0,0,1-1.113,1.823,6.1,6.1,0,0,1-3.741,1.781,3.245,3.245,0,0,1-1.769-.295l-10.2-5.307A1.1,1.1,0,0,1,52.941,24.914Zm2.583-1.3-.262,1.059,9.43,4.912a1.191,1.191,0,0,0,.577.054,3.8,3.8,0,0,0,1.171-.311,3.842,3.842,0,0,0,1.175-.81,2.4,2.4,0,0,0,.594-.938,4.183,4.183,0,0,0,.017-2.442,3.2,3.2,0,0,0-1-1.524h-11.7ZM62.662,2.749,50.155,9.26l1.935,7.756H68.425a7.532,7.532,0,0,0,3.72-3.853,8.333,8.333,0,0,0,.261-5.8,6.031,6.031,0,0,0-.436-1.051,7.772,7.772,0,0,0-3.8-3.442,6.966,6.966,0,0,0-4.742-.436A5.1,5.1,0,0,0,62.662,2.749Zm-7.4,8.811.262,1.059h11.7a3.2,3.2,0,0,0,1-1.524,4.169,4.169,0,0,0-.017-2.438,2.411,2.411,0,0,0-.594-.942,3.832,3.832,0,0,0-1.175-.81A3.689,3.689,0,0,0,65.269,6.6a1.2,1.2,0,0,0-.577.05Zm-1.657,2.421-.664-2.666a1.1,1.1,0,0,1,.54-1.3L63.679,4.7a3.248,3.248,0,0,1,1.769-.295,6.1,6.1,0,0,1,3.741,1.781A4.573,4.573,0,0,1,70.3,8.014a6.33,6.33,0,0,1,.017,3.725,5.322,5.322,0,0,1-2.064,2.848,1.087,1.087,0,0,1-.673.229H54.669a1.1,1.1,0,0,1-1.063-.835" transform="translate(0 0)" fill="#9f0925"/>
        <rect id="Rectángulo_346607" data-name="Rectángulo 346607" width="5.275" height="2.197" transform="translate(55.813 64.343)" fill="#9f0925"/>
        <rect id="Rectángulo_346608" data-name="Rectángulo 346608" width="2.201" height="4.979" transform="translate(2.487 59.979)" fill="#9f0925"/>
        <path id="Trazado_728515" data-name="Trazado 728515" d="M140.132,64.6s-3.272.457-4.879.743-.369-2.159-.369-2.159,4.153-.649,4.958-.756.291,2.172.291,2.172" transform="translate(-114.737 -53.277)" fill="#9f0925"/>
      </g>
    </g>
  </g>
</svg>
