<svg xmlns="http://www.w3.org/2000/svg" xmlns:xlink="http://www.w3.org/1999/xlink" width="100" height="100" viewBox="0 0 100 100">
  <defs>
    <clipPath id="clip-path">
      <rect id="Rectángulo_346519" data-name="Rectángulo 346519" width="67.402" height="60.674" fill="#9f0925"/>
    </clipPath>
  </defs>
  <g id="Grupo_987560" data-name="Grupo 987560" transform="translate(-220 -1157)">
    <circle id="Elipse_4717" data-name="Elipse 4717" cx="50" cy="50" r="50" transform="translate(220 1157)" fill="#b3eeef"/>
    <g id="Grupo_987559" data-name="Grupo 987559" transform="translate(236.548 1176.451)">
      <g id="Grupo_987558" data-name="Grupo 987558" clip-path="url(#clip-path)">
        <path id="Trazado_727226" data-name="Trazado 727226" d="M2.324,53.389q17.027.008,34.055,0a8.223,8.223,0,0,0,2.913,5.358H8.248a6.1,6.1,0,0,1-5.924-5.358M59.146,1.928a6.106,6.106,0,0,1,5.928,5.357H52.9a6.281,6.281,0,0,1,6.244-5.357m-42.134,0H53.847A8.135,8.135,0,0,0,50.9,8.155l-.005,44.268A6.292,6.292,0,0,1,44.6,58.746h-.031a6.291,6.291,0,0,1-6.319-6.253.919.919,0,0,0-.971-1.033H10.692V8.253A6.287,6.287,0,0,1,17.012,1.928Zm0-1.928A8.257,8.257,0,0,0,8.759,8.252V51.46H.958A.921.921,0,0,0,0,52.421a8.253,8.253,0,0,0,8.248,8.253H44.57a8.409,8.409,0,0,0,8.252-8.253V9.214H66.436a.965.965,0,0,0,.966-.961A8.257,8.257,0,0,0,59.146,0Z" fill="#9f0925" fill-rule="evenodd"/>
        <path id="Trazado_727227" data-name="Trazado 727227" d="M109.336,93.366a3.917,3.917,0,0,0-3.91,3.9V103.1a3.911,3.911,0,0,0,3.91,3.888h5.695a3.916,3.916,0,0,0,3.915-3.888v-1.579a.966.966,0,1,0-1.933,0V103.1a1.948,1.948,0,0,1-1.982,1.961h-5.695a1.942,1.942,0,0,1-1.977-1.961V97.264a1.944,1.944,0,0,1,1.977-1.964h5.331a.967.967,0,1,0,0-1.933Z" transform="translate(-89.648 -79.393)" fill="#9f0925"/>
        <path id="Trazado_727228" data-name="Trazado 727228" d="M140.31,98.7a.965.965,0,0,0-.668.288l-6.164,6.142-1.929-1.916a.966.966,0,1,0-1.366,1.363l2.615,2.6a.965.965,0,0,0,1.357,0l6.851-6.825a.967.967,0,0,0-.7-1.654" transform="translate(-110.431 -83.925)" fill="#9f0925"/>
        <path id="Trazado_727229" data-name="Trazado 727229" d="M216.321,171.47a.965.965,0,1,0,0,1.928h11.6a.965.965,0,1,0,0-1.928Z" transform="translate(-183.094 -145.808)" fill="#9f0925"/>
        <path id="Trazado_727230" data-name="Trazado 727230" d="M239.222,93.366a.967.967,0,1,0,0,1.933h8.195a.967.967,0,1,0,0-1.933Z" transform="translate(-202.595 -79.393)" fill="#9f0925"/>
        <path id="Trazado_727231" data-name="Trazado 727231" d="M216.321,145.422a.965.965,0,1,0,0,1.929h11.6a.965.965,0,1,0,0-1.929Z" transform="translate(-183.094 -123.658)" fill="#9f0925"/>
        <path id="Trazado_727232" data-name="Trazado 727232" d="M216.321,119.406a.965.965,0,1,0,0,1.929h11.6a.965.965,0,1,0,0-1.929Z" transform="translate(-183.094 -101.535)" fill="#9f0925"/>
        <path id="Trazado_727233" data-name="Trazado 727233" d="M216.523,291.294a.967.967,0,1,0,0,1.933h11.6a.967.967,0,1,0,0-1.933Z" transform="translate(-183.296 -247.7)" fill="#9f0925"/>
        <path id="Trazado_727234" data-name="Trazado 727234" d="M239.242,213.163a.968.968,0,0,0,0,1.937h8.195a.968.968,0,0,0,0-1.937Z" transform="translate(-202.615 -181.262)" fill="#9f0925"/>
        <path id="Trazado_727235" data-name="Trazado 727235" d="M216.52,265.25a.969.969,0,0,0,0,1.938h11.6a.968.968,0,0,0,0-1.937h-11.6Z" transform="translate(-183.293 -225.553)" fill="#9f0925"/>
        <path id="Trazado_727236" data-name="Trazado 727236" d="M216.52,239.207a.969.969,0,0,0,0,1.938h11.6a.968.968,0,0,0,0-1.937h-11.6Z" transform="translate(-183.293 -203.408)" fill="#9f0925"/>
        <path id="Trazado_727237" data-name="Trazado 727237" d="M109.336,213.214a3.917,3.917,0,0,0-3.91,3.9v5.832a3.912,3.912,0,0,0,3.91,3.889h5.695a3.917,3.917,0,0,0,3.915-3.889v-1.579a.966.966,0,1,0-1.933,0v1.579a1.947,1.947,0,0,1-1.982,1.959h-5.695a1.942,1.942,0,0,1-1.977-1.959v-5.832a1.943,1.943,0,0,1,1.977-1.964h5.331a.967.967,0,1,0,0-1.933Z" transform="translate(-89.648 -181.305)" fill="#9f0925"/>
        <path id="Trazado_727238" data-name="Trazado 727238" d="M140.31,218.561a.968.968,0,0,0-.668.286l-6.164,6.143-1.929-1.916a.965.965,0,1,0-1.366,1.361l2.615,2.6a.963.963,0,0,0,1.357,0l6.851-6.825a.966.966,0,0,0-.7-1.653" transform="translate(-110.431 -185.851)" fill="#9f0925"/>
      </g>
    </g>
  </g>
</svg>
