<svg xmlns="http://www.w3.org/2000/svg" width="820" height="334.598" viewBox="0 0 820 334.598">
  <g id="Grupo_987982" data-name="Grupo 987982" transform="translate(-390 -637)">
    <path id="Trazado_728736" data-name="Trazado 728736" d="M110.909,83.446,104.988,77.7a1.9,1.9,0,0,0-2.642,0l-5.921,5.743a2.576,2.576,0,0,0-.783,1.85V96.057a1.764,1.764,0,0,0,1.764,1.764h12.523a1.764,1.764,0,0,0,1.764-1.764V85.3a2.579,2.579,0,0,0-.783-1.85" transform="translate(372.384 622.787)" fill="#004998"/>
    <path id="Trazado_728737" data-name="Trazado 728737" d="M161.3,83.446,155.383,77.7a1.9,1.9,0,0,0-2.642,0l-5.921,5.743a2.576,2.576,0,0,0-.783,1.85V96.057a1.764,1.764,0,0,0,1.764,1.764h12.523a1.764,1.764,0,0,0,1.764-1.764V85.3a2.579,2.579,0,0,0-.783-1.85" transform="translate(363.102 622.787)" fill="#004998"/>
    <path id="Trazado_728738" data-name="Trazado 728738" d="M110.909,316.756l-5.921-5.743a1.9,1.9,0,0,0-2.642,0l-5.921,5.743a2.576,2.576,0,0,0-.783,1.85v10.761a1.764,1.764,0,0,0,1.764,1.764h12.523a1.764,1.764,0,0,0,1.764-1.764V318.606a2.579,2.579,0,0,0-.783-1.85" transform="translate(372.384 579.814)" fill="#004998"/>
    <path id="Trazado_728739" data-name="Trazado 728739" d="M161.3,316.756l-5.921-5.743a1.9,1.9,0,0,0-2.642,0l-5.921,5.743a2.576,2.576,0,0,0-.783,1.85v10.761a1.764,1.764,0,0,0,1.764,1.764h12.523a1.764,1.764,0,0,0,1.764-1.764V318.606a2.579,2.579,0,0,0-.783-1.85" transform="translate(363.102 579.814)" fill="#004998"/>
    <path id="Trazado_728740" data-name="Trazado 728740" d="M289.109,83.446,283.188,77.7a1.9,1.9,0,0,0-2.642,0l-5.921,5.743a2.576,2.576,0,0,0-.783,1.85V96.057a1.764,1.764,0,0,0,1.764,1.764h12.523a1.764,1.764,0,0,0,1.764-1.764V85.3a2.579,2.579,0,0,0-.783-1.85" transform="translate(339.562 622.787)" fill="#f68a00"/>
    <path id="Trazado_728741" data-name="Trazado 728741" d="M259.626,316.756l-5.921-5.743a1.9,1.9,0,0,0-2.642,0l-5.921,5.743a2.576,2.576,0,0,0-.783,1.85v10.761a1.764,1.764,0,0,0,1.764,1.764h12.523a1.764,1.764,0,0,0,1.764-1.764V318.606a2.579,2.579,0,0,0-.783-1.85" transform="translate(344.992 579.814)" fill="#f68a00"/>
    <path id="Trazado_728742" data-name="Trazado 728742" d="M339.5,83.446,333.582,77.7a1.9,1.9,0,0,0-2.642,0l-5.921,5.743a2.576,2.576,0,0,0-.783,1.85V96.057A1.764,1.764,0,0,0,326,97.821h12.523a1.764,1.764,0,0,0,1.764-1.764V85.3a2.582,2.582,0,0,0-.782-1.85" transform="translate(330.28 622.787)" fill="#f68a00"/>
    <path id="Trazado_728743" data-name="Trazado 728743" d="M444.442,63.176l-2.372-7.9a1.9,1.9,0,0,0-2.308-1.287l-7.968,2.13a2.574,2.574,0,0,0-1.585,1.234l-5.244,9.4a1.764,1.764,0,0,0,.681,2.4l10.935,6.1a1.764,1.764,0,0,0,2.4-.68l5.243-9.4a2.575,2.575,0,0,0,.218-2" transform="translate(311.769 627.067)" fill="#f68a00"/>
    <path id="Trazado_728744" data-name="Trazado 728744" d="M507.883,69.429l-2.372-7.9a1.9,1.9,0,0,0-2.308-1.287l-7.968,2.13a2.574,2.574,0,0,0-1.585,1.234L488.406,73a1.764,1.764,0,0,0,.681,2.4l10.935,6.1a1.764,1.764,0,0,0,2.4-.68l5.243-9.4a2.575,2.575,0,0,0,.218-2" transform="translate(300.083 625.916)" fill="#f68a00"/>
    <path id="Trazado_728745" data-name="Trazado 728745" d="M476.476,140.938l-2.372-7.9a1.9,1.9,0,0,0-2.308-1.287l-7.968,2.13a2.574,2.574,0,0,0-1.585,1.234l-5.243,9.4a1.763,1.763,0,0,0,.68,2.4l10.935,6.1a1.765,1.765,0,0,0,2.4-.68l5.243-9.4a2.575,2.575,0,0,0,.218-2" transform="translate(305.868 612.745)" fill="#f68a00"/>
    <path id="Trazado_728746" data-name="Trazado 728746" d="M419.708,60.243l-7.282-3.873a1.9,1.9,0,0,0-2.539.733l-4.095,7.16a2.579,2.579,0,0,0-.238,1.995L408.541,76.6a1.764,1.764,0,0,0,2.184,1.2l12.031-3.476a1.764,1.764,0,0,0,1.2-2.184L420.973,61.8a2.576,2.576,0,0,0-1.265-1.56" transform="translate(315.321 626.658)" fill="#f68a00"/>
    <path id="Trazado_728747" data-name="Trazado 728747" d="M488.778,60.979l-7.283-3.873a1.9,1.9,0,0,0-2.539.733L474.862,65a2.575,2.575,0,0,0-.239,1.995l2.987,10.339a1.764,1.764,0,0,0,2.184,1.2l12.032-3.476a1.763,1.763,0,0,0,1.2-2.184l-2.987-10.339a2.577,2.577,0,0,0-1.265-1.56" transform="translate(302.599 626.522)" fill="#f68a00"/>
    <path id="Trazado_728748" data-name="Trazado 728748" d="M452.893,132.023l-7.282-3.873a1.9,1.9,0,0,0-2.539.733l-4.095,7.16a2.579,2.579,0,0,0-.238,1.995l2.987,10.339a1.764,1.764,0,0,0,2.184,1.2l12.031-3.476a1.764,1.764,0,0,0,1.2-2.184l-2.988-10.339a2.576,2.576,0,0,0-1.265-1.56" transform="translate(309.208 613.438)" fill="#f68a00"/>
    <path id="Trazado_728749" data-name="Trazado 728749" d="M678.359,78.6l-5.921-5.743a1.9,1.9,0,0,0-2.642,0L663.875,78.6a2.576,2.576,0,0,0-.783,1.85V95.166a1.764,1.764,0,0,0,1.764,1.764h12.523a1.764,1.764,0,0,0,1.764-1.764V80.454a2.579,2.579,0,0,0-.783-1.85" transform="translate(267.867 623.679)" fill="#6ea819"/>
    <path id="Trazado_728750" data-name="Trazado 728750" d="M695.508,311.579l-5.921-5.743a1.9,1.9,0,0,0-2.642,0l-5.921,5.743a2.576,2.576,0,0,0-.783,1.85v14.712A1.764,1.764,0,0,0,682,329.905h12.523a1.764,1.764,0,0,0,1.764-1.764V313.429a2.579,2.579,0,0,0-.783-1.85" transform="translate(264.708 580.768)" fill="#6ea819"/>
    <path id="Trazado_728751" data-name="Trazado 728751" d="M743.579,311.579l-5.921-5.743a1.9,1.9,0,0,0-2.642,0l-5.921,5.743a2.576,2.576,0,0,0-.783,1.85v14.712a1.764,1.764,0,0,0,1.764,1.764H742.6a1.764,1.764,0,0,0,1.764-1.764V313.429a2.576,2.576,0,0,0-.783-1.85" transform="translate(255.854 580.768)" fill="#6ea819"/>
    <path id="Trazado_728752" data-name="Trazado 728752" d="M296.329,327.5l-5.921-5.743a1.9,1.9,0,0,0-2.642,0l-5.921,5.743a2.576,2.576,0,0,0-.783,1.85v3.95a2.577,2.577,0,0,1,.783-1.85l5.921-5.742a1.9,1.9,0,0,1,2.642,0l5.921,5.742a2.58,2.58,0,0,1,.783,1.85v-3.95a2.579,2.579,0,0,0-.783-1.85" transform="translate(338.232 577.835)" fill="#6ea819"/>
    <path id="Trazado_728753" data-name="Trazado 728753" d="M335.911,316.756l-5.921-5.743a1.9,1.9,0,0,0-2.642,0l-5.921,5.743a2.576,2.576,0,0,0-.783,1.85v10.761a1.764,1.764,0,0,0,1.764,1.764h12.523a1.764,1.764,0,0,0,1.764-1.764V318.606a2.579,2.579,0,0,0-.783-1.85" transform="translate(330.941 579.814)" fill="#f68a00"/>
    <path id="Trazado_728754" data-name="Trazado 728754" d="M377.71,327.5l-5.921-5.743a1.9,1.9,0,0,0-2.642,0l-5.921,5.743a2.576,2.576,0,0,0-.783,1.85v3.95a2.577,2.577,0,0,1,.783-1.85l5.921-5.742a1.9,1.9,0,0,1,2.642,0l5.921,5.742a2.581,2.581,0,0,1,.783,1.85v-3.95a2.579,2.579,0,0,0-.783-1.85" transform="translate(323.243 577.835)" fill="#6ea819"/>
    <path id="Trazado_728755" data-name="Trazado 728755" d="M416.51,316.756l-5.922-5.743a1.9,1.9,0,0,0-2.641,0l-5.922,5.743a2.579,2.579,0,0,0-.783,1.85v10.761a1.765,1.765,0,0,0,1.765,1.764h12.522a1.765,1.765,0,0,0,1.765-1.764V318.606a2.582,2.582,0,0,0-.783-1.85" transform="translate(316.097 579.814)" fill="#f68a00"/>
    <path id="Trazado_728756" data-name="Trazado 728756" d="M456.212,327.5l-5.921-5.743a1.9,1.9,0,0,0-2.642,0l-5.921,5.743a2.576,2.576,0,0,0-.783,1.85v3.95a2.577,2.577,0,0,1,.783-1.85l5.921-5.742a1.9,1.9,0,0,1,2.642,0l5.921,5.742A2.58,2.58,0,0,1,457,333.3v-3.95a2.579,2.579,0,0,0-.783-1.85" transform="translate(308.784 577.835)" fill="#6ea819"/>
    <path id="Trazado_728757" data-name="Trazado 728757" d="M494.109,316.756l-5.921-5.743a1.9,1.9,0,0,0-2.642,0l-5.921,5.743a2.576,2.576,0,0,0-.783,1.85v10.761a1.764,1.764,0,0,0,1.764,1.764h12.523a1.764,1.764,0,0,0,1.764-1.764V318.606a2.579,2.579,0,0,0-.783-1.85" transform="translate(301.804 579.814)" fill="#f68a00"/>
    <path id="Trazado_728758" data-name="Trazado 728758" d="M570.07,316.756l-5.921-5.743a1.9,1.9,0,0,0-2.642,0l-5.921,5.743a2.576,2.576,0,0,0-.783,1.85v10.761a1.764,1.764,0,0,0,1.764,1.764H569.09a1.764,1.764,0,0,0,1.764-1.764V318.606a2.579,2.579,0,0,0-.783-1.85" transform="translate(287.813 579.814)" fill="#f68a00"/>
    <path id="Trazado_728759" data-name="Trazado 728759" d="M530.812,327.5l-5.921-5.743a1.9,1.9,0,0,0-2.642,0l-5.921,5.743a2.576,2.576,0,0,0-.783,1.85v3.95a2.577,2.577,0,0,1,.783-1.85l5.921-5.742a1.9,1.9,0,0,1,2.642,0l5.921,5.742a2.58,2.58,0,0,1,.783,1.85v-3.95a2.579,2.579,0,0,0-.783-1.85" transform="translate(295.043 577.835)" fill="#6ea819"/>
    <path id="Trazado_728760" data-name="Trazado 728760" d="M555.586,28.254l-5.921-5.743a1.9,1.9,0,0,0-2.642,0L541.1,28.254a2.576,2.576,0,0,0-.783,1.85v3.95a2.577,2.577,0,0,1,.783-1.85l5.921-5.742a1.9,1.9,0,0,1,2.642,0l5.921,5.742a2.58,2.58,0,0,1,.783,1.85V30.1a2.579,2.579,0,0,0-.783-1.85" transform="translate(290.48 632.952)" fill="#6ea819"/>
    <path id="Trazado_728761" data-name="Trazado 728761" d="M766.563,64.918l-3.953-7.239a1.9,1.9,0,0,0-2.523-.783l-7.357,3.73a2.579,2.579,0,0,0-1.3,1.535l-1.171,3.773-2.018,6.505-1.171,3.773a1.764,1.764,0,0,0,1.162,2.208L760.2,82.13a1.764,1.764,0,0,0,2.207-1.163l1.171-3.773,2.018-6.505,1.171-3.773a2.576,2.576,0,0,0-.2-2" transform="translate(252.414 626.559)" fill="#6ea819"/>
    <path id="Trazado_728762" data-name="Trazado 728762" d="M742.8,61.756l-6.427-5.17a1.9,1.9,0,0,0-2.631.245L728.377,63.1a2.577,2.577,0,0,0-.609,1.915l.365,3.933.631,6.783.365,3.933a1.765,1.765,0,0,0,1.92,1.593l12.469-1.159a1.762,1.762,0,0,0,1.592-1.919l-.365-3.934-.63-6.782-.366-3.934a2.576,2.576,0,0,0-.95-1.769" transform="translate(255.957 626.654)" fill="#6ea819"/>
    <path id="Trazado_728763" data-name="Trazado 728763" d="M842.665,362.635l-3.953-7.239a1.9,1.9,0,0,0-2.523-.783l-7.357,3.73a2.579,2.579,0,0,0-1.3,1.535l-1.171,3.773-2.018,6.505-1.171,3.773a1.764,1.764,0,0,0,1.162,2.208l11.961,3.71a1.764,1.764,0,0,0,2.207-1.163l1.171-3.773,2.018-6.505,1.171-3.773a2.577,2.577,0,0,0-.2-2" transform="translate(238.396 571.723)" fill="#6ea819"/>
    <path id="Trazado_728764" data-name="Trazado 728764" d="M818.9,359.473l-6.427-5.17a1.9,1.9,0,0,0-2.631.245l-5.364,6.265a2.577,2.577,0,0,0-.609,1.915l.365,3.933.631,6.783.366,3.933a1.765,1.765,0,0,0,1.92,1.593l12.469-1.159a1.762,1.762,0,0,0,1.592-1.919l-.365-3.934-.63-6.782-.366-3.934a2.577,2.577,0,0,0-.951-1.77" transform="translate(241.939 571.819)" fill="#6ea819"/>
    <path id="Trazado_728765" data-name="Trazado 728765" d="M678.359,83.446,672.438,77.7a1.9,1.9,0,0,0-2.642,0l-5.921,5.743a2.576,2.576,0,0,0-.783,1.85V96.057a1.764,1.764,0,0,0,1.764,1.764h12.523a1.764,1.764,0,0,0,1.764-1.764V85.3a2.579,2.579,0,0,0-.783-1.85" transform="translate(267.867 622.787)" fill="#f68a00"/>
    <path id="Trazado_728766" data-name="Trazado 728766" d="M765.392,69.543,761.439,62.3a1.9,1.9,0,0,0-2.523-.783l-7.357,3.73a2.58,2.58,0,0,0-1.3,1.535l-3.189,10.278a1.764,1.764,0,0,0,1.162,2.208l11.961,3.71A1.764,1.764,0,0,0,762.4,81.82l3.189-10.278a2.576,2.576,0,0,0-.2-2" transform="translate(252.414 625.707)" fill="#f68a00"/>
    <path id="Trazado_728767" data-name="Trazado 728767" d="M743.247,66.578l-6.427-5.17a1.9,1.9,0,0,0-2.631.245l-5.364,6.265a2.577,2.577,0,0,0-.609,1.915l1,10.716a1.764,1.764,0,0,0,1.92,1.592L743.6,80.983a1.764,1.764,0,0,0,1.592-1.92l-1-10.716a2.576,2.576,0,0,0-.95-1.77" transform="translate(255.874 625.767)" fill="#f68a00"/>
    <path id="Trazado_728768" data-name="Trazado 728768" d="M695.508,316.422l-5.921-5.742a1.9,1.9,0,0,0-2.642,0l-5.921,5.742a2.576,2.576,0,0,0-.783,1.85v10.761A1.764,1.764,0,0,0,682,330.8h12.523a1.764,1.764,0,0,0,1.764-1.764V318.272a2.579,2.579,0,0,0-.783-1.85" transform="translate(264.708 579.876)" fill="#f68a00"/>
    <path id="Trazado_728769" data-name="Trazado 728769" d="M743.579,316.422l-5.921-5.742a1.9,1.9,0,0,0-2.642,0l-5.921,5.742a2.576,2.576,0,0,0-.783,1.85v10.761a1.764,1.764,0,0,0,1.764,1.764H742.6a1.764,1.764,0,0,0,1.764-1.764V318.272a2.579,2.579,0,0,0-.783-1.85" transform="translate(255.854 579.876)" fill="#f68a00"/>
    <path id="Trazado_728770" data-name="Trazado 728770" d="M841.5,367.26l-3.953-7.239a1.9,1.9,0,0,0-2.523-.783l-7.357,3.73a2.579,2.579,0,0,0-1.3,1.535l-3.189,10.278a1.763,1.763,0,0,0,1.162,2.207L836.3,380.7a1.764,1.764,0,0,0,2.207-1.163l3.189-10.278a2.576,2.576,0,0,0-.2-2" transform="translate(238.396 570.871)" fill="#f68a00"/>
    <path id="Trazado_728771" data-name="Trazado 728771" d="M819.35,364.3l-6.427-5.17a1.9,1.9,0,0,0-2.631.245l-5.364,6.265a2.576,2.576,0,0,0-.609,1.915l1,10.716a1.764,1.764,0,0,0,1.92,1.592L819.7,378.7a1.764,1.764,0,0,0,1.593-1.92l-1-10.716a2.576,2.576,0,0,0-.951-1.77" transform="translate(241.857 570.931)" fill="#f68a00"/>
    <path id="Trazado_728772" data-name="Trazado 728772" d="M44.039,82.123V75.766H27.691v6.358l8.174,7.266Z" transform="translate(384.9 623.045)" fill="#e29d62"/>
    <path id="Trazado_728773" data-name="Trazado 728773" d="M53.192,86.506,41.953,83.862a1.813,1.813,0,0,1-.472-.19l-9.1,5.309-8.748-5.566a1.813,1.813,0,0,1-.826.447L11.566,86.506a3.633,3.633,0,0,0-2.8,3.537v7.113a1.817,1.817,0,0,0,1.817,1.817H54.175a1.817,1.817,0,0,0,1.817-1.817V90.043a3.633,3.633,0,0,0-2.8-3.537" transform="translate(388.386 621.636)" fill="#eaeffa"/>
    <path id="Trazado_728774" data-name="Trazado 728774" d="M23.237,50.16l.791,17.412A5.451,5.451,0,0,0,26.2,71.684L29.958,74.5a5.451,5.451,0,0,0,3.27,1.09H36.86a5.449,5.449,0,0,0,3.27-1.09l3.755-2.816a5.449,5.449,0,0,0,2.174-4.113l.791-17.412Z" transform="translate(385.72 627.761)" fill="#f0b172"/>
    <path id="Trazado_728775" data-name="Trazado 728775" d="M15.433,94.065,9.547,88.779a3.627,3.627,0,0,0-.782,2.251v7.114a1.817,1.817,0,0,0,1.817,1.816h6.358V97.444a4.542,4.542,0,0,0-1.507-3.378" transform="translate(388.386 620.648)" fill="#dce6f5"/>
    <path id="Trazado_728776" data-name="Trazado 728776" d="M58.142,94.065l5.885-5.286a3.627,3.627,0,0,1,.782,2.251v7.114a1.817,1.817,0,0,1-1.817,1.816H56.635V97.444a4.542,4.542,0,0,1,1.507-3.378" transform="translate(379.568 620.648)" fill="#dce6f5"/>
    <path id="Trazado_728777" data-name="Trazado 728777" d="M39.468,100.639H34.927l.567-8.174H38.9Z" transform="translate(383.567 619.97)" fill="#484b5c"/>
    <path id="Trazado_728778" data-name="Trazado 728778" d="M39.468,90.238H34.927v1.709a1.015,1.015,0,0,0,1.015,1.016h2.51a1.015,1.015,0,0,0,1.016-1.016Z" transform="translate(383.567 620.379)" fill="#3f4251"/>
    <path id="Trazado_728779" data-name="Trazado 728779" d="M26.948,81.027l8.3,7.471a31.336,31.336,0,0,0-5.194,3.54,1.166,1.166,0,0,1-1.8-.409l-3.9-8.58L25.585,81.2a.908.908,0,0,1,1.363-.171" transform="translate(385.515 622.119)" fill="#dce6f5"/>
    <path id="Trazado_728780" data-name="Trazado 728780" d="M46.012,81.027,37.71,88.5a31.336,31.336,0,0,1,5.194,3.54,1.166,1.166,0,0,0,1.8-.409l3.9-8.58L47.375,81.2a.908.908,0,0,0-1.363-.171" transform="translate(383.054 622.119)" fill="#dce6f5"/>
    <path id="Trazado_728781" data-name="Trazado 728781" d="M44.459,42.658l.852,6.017c3.887.777,4.446,6.876,4.527,8.619a1.793,1.793,0,0,0,.287.887l1.483,2.3s-.507-3.8,1.817-6.358c0,0,.8-15.1-8.966-11.466" transform="translate(381.811 629.247)" fill="#654440"/>
    <path id="Trazado_728782" data-name="Trazado 728782" d="M53.5,63.63l-1.025,4.1a1.092,1.092,0,0,1-2.142-.129l-.525-4.195a1.881,1.881,0,0,1,1.867-2.115h0A1.881,1.881,0,0,1,53.5,63.63" transform="translate(380.829 625.711)" fill="#f0b172"/>
    <path id="Trazado_728783" data-name="Trazado 728783" d="M23.473,40.26l1.344.918c-6.074,4.485-4.939,12.176-4.939,12.176,1.817,1.816,1.817,6.358,1.817,6.358l1.816-1.817s-.7-5.247,2.725-7.266c3.178-1.873,5.96-.908,8.8-.908,7.607,0,9.735-2.867,9.366-6.358-.191-1.806-2.953-5.57-9.99-5.45-2.841.048-8.174.908-10.937,2.346" transform="translate(386.354 630.018)" fill="#563a3b"/>
    <path id="Trazado_728784" data-name="Trazado 728784" d="M21.068,63.63l1.025,4.1a1.092,1.092,0,0,0,2.143-.129l.524-4.195a1.881,1.881,0,0,0-1.867-2.115h0a1.881,1.881,0,0,0-1.825,2.337" transform="translate(386.13 625.711)" fill="#f0b172"/>
    <path id="Trazado_728785" data-name="Trazado 728785" d="M50.543,100.258H44.185a.908.908,0,0,0-.908.908v.909h8.174v-.909a.908.908,0,0,0-.908-.908" transform="translate(382.029 618.534)" fill="#dce6f5"/>
    <path id="Trazado_728786" data-name="Trazado 728786" d="M48.039,314.433v-6.358H31.691v6.358l8.174,7.266Z" transform="translate(384.163 580.257)" fill="#e29d62"/>
    <path id="Trazado_728787" data-name="Trazado 728787" d="M57.192,318.816l-11.239-2.644a1.814,1.814,0,0,1-.472-.19l-9.1,5.309-8.748-5.566a1.813,1.813,0,0,1-.826.447l-11.239,2.644a3.633,3.633,0,0,0-2.8,3.537v7.113a1.817,1.817,0,0,0,1.817,1.817H58.175a1.817,1.817,0,0,0,1.817-1.817v-7.113a3.633,3.633,0,0,0-2.8-3.537" transform="translate(387.649 578.848)" fill="#eaeffa"/>
    <path id="Trazado_728788" data-name="Trazado 728788" d="M27.237,282.47l.791,17.412a5.451,5.451,0,0,0,2.174,4.113l3.755,2.816a5.451,5.451,0,0,0,3.27,1.09H40.86a5.449,5.449,0,0,0,3.27-1.09l3.755-2.816a5.449,5.449,0,0,0,2.174-4.113l.791-17.412Z" transform="translate(384.983 584.973)" fill="#f0b172"/>
    <path id="Trazado_728789" data-name="Trazado 728789" d="M19.433,326.375l-5.885-5.286a3.627,3.627,0,0,0-.782,2.251v7.114a1.817,1.817,0,0,0,1.817,1.816h6.358v-2.516a4.542,4.542,0,0,0-1.507-3.378" transform="translate(387.649 577.859)" fill="#dce6f5"/>
    <path id="Trazado_728790" data-name="Trazado 728790" d="M62.142,326.375l5.885-5.286a3.627,3.627,0,0,1,.782,2.251v7.114a1.817,1.817,0,0,1-1.817,1.816H60.635v-2.516a4.542,4.542,0,0,1,1.507-3.378" transform="translate(378.832 577.859)" fill="#dce6f5"/>
    <path id="Trazado_728791" data-name="Trazado 728791" d="M43.468,332.948H38.927l.567-8.174H42.9Z" transform="translate(382.83 577.181)" fill="#484b5c"/>
    <path id="Trazado_728792" data-name="Trazado 728792" d="M43.468,322.548H38.927v1.709a1.015,1.015,0,0,0,1.015,1.016h2.51a1.015,1.015,0,0,0,1.016-1.016Z" transform="translate(382.83 577.591)" fill="#3f4251"/>
    <path id="Trazado_728793" data-name="Trazado 728793" d="M30.948,313.337l8.3,7.471a31.336,31.336,0,0,0-5.194,3.54,1.166,1.166,0,0,1-1.8-.409l-3.9-8.58,1.234-1.851a.908.908,0,0,1,1.363-.171" transform="translate(384.778 579.33)" fill="#dce6f5"/>
    <path id="Trazado_728794" data-name="Trazado 728794" d="M50.012,313.337l-8.3,7.471a31.336,31.336,0,0,1,5.194,3.54,1.166,1.166,0,0,0,1.8-.409l3.9-8.58-1.234-1.851a.908.908,0,0,0-1.363-.171" transform="translate(382.317 579.33)" fill="#dce6f5"/>
    <path id="Trazado_728795" data-name="Trazado 728795" d="M48.459,274.967l.852,6.017c3.887.777,4.446,6.876,4.527,8.619a1.793,1.793,0,0,0,.287.887l1.483,2.3s-.507-3.8,1.817-6.358c0,0,.8-15.1-8.966-11.466" transform="translate(381.075 586.459)" fill="#654440"/>
    <path id="Trazado_728796" data-name="Trazado 728796" d="M57.5,295.94l-1.025,4.1a1.092,1.092,0,0,1-2.142-.129l-.525-4.195a1.881,1.881,0,0,1,1.867-2.115h0A1.881,1.881,0,0,1,57.5,295.94" transform="translate(380.092 582.922)" fill="#f0b172"/>
    <path id="Trazado_728797" data-name="Trazado 728797" d="M27.473,272.57l1.344.918c-6.074,4.485-4.939,12.176-4.939,12.176,1.817,1.816,1.817,6.358,1.817,6.358l1.816-1.817s-.7-5.247,2.725-7.266c3.178-1.873,5.96-.908,8.8-.908,7.607,0,9.735-2.867,9.366-6.358-.191-1.806-2.953-5.57-9.99-5.45-2.841.048-8.174.908-10.937,2.346" transform="translate(385.617 587.229)" fill="#563a3b"/>
    <path id="Trazado_728798" data-name="Trazado 728798" d="M25.068,295.94l1.025,4.1a1.092,1.092,0,0,0,2.143-.129l.524-4.195a1.881,1.881,0,0,0-1.867-2.115h0a1.881,1.881,0,0,0-1.825,2.337" transform="translate(385.394 582.922)" fill="#f0b172"/>
    <path id="Trazado_728799" data-name="Trazado 728799" d="M54.543,332.567H48.185a.908.908,0,0,0-.908.908v.909h8.174v-.909a.908.908,0,0,0-.908-.908" transform="translate(381.292 575.745)" fill="#dce6f5"/>
    <path id="Trazado_728800" data-name="Trazado 728800" d="M621.233,82.123V75.766H604.885v6.358l8.174,7.266Z" transform="translate(278.588 623.045)" fill="#e29d62"/>
    <path id="Trazado_728801" data-name="Trazado 728801" d="M630.387,86.506l-11.239-2.644a1.812,1.812,0,0,1-.472-.19l-9.1,5.309-8.748-5.566a1.813,1.813,0,0,1-.826.447L588.76,86.506a3.633,3.633,0,0,0-2.8,3.537v7.113a1.817,1.817,0,0,0,1.817,1.817H631.37a1.817,1.817,0,0,0,1.817-1.817V90.043a3.633,3.633,0,0,0-2.8-3.537" transform="translate(282.074 621.636)" fill="#eaeffa"/>
    <path id="Trazado_728802" data-name="Trazado 728802" d="M600.432,50.16l.791,17.412a5.451,5.451,0,0,0,2.174,4.113l3.755,2.816a5.451,5.451,0,0,0,3.27,1.09h3.633a5.449,5.449,0,0,0,3.27-1.09l3.755-2.816a5.449,5.449,0,0,0,2.174-4.113l.791-17.412Z" transform="translate(279.408 627.761)" fill="#f0b172"/>
    <path id="Trazado_728803" data-name="Trazado 728803" d="M592.627,94.065l-5.885-5.286a3.627,3.627,0,0,0-.782,2.251v7.114a1.817,1.817,0,0,0,1.817,1.816h6.358V97.444a4.545,4.545,0,0,0-1.507-3.378" transform="translate(282.074 620.648)" fill="#dce6f5"/>
    <path id="Trazado_728804" data-name="Trazado 728804" d="M635.337,94.065l5.885-5.286A3.627,3.627,0,0,1,642,91.03v7.114a1.817,1.817,0,0,1-1.817,1.816H633.83V97.444a4.542,4.542,0,0,1,1.507-3.378" transform="translate(273.257 620.648)" fill="#dce6f5"/>
    <path id="Trazado_728805" data-name="Trazado 728805" d="M616.663,100.639h-4.541l.567-8.174h3.406Z" transform="translate(277.255 619.97)" fill="#484b5c"/>
    <path id="Trazado_728806" data-name="Trazado 728806" d="M616.663,90.238h-4.541v1.709a1.015,1.015,0,0,0,1.015,1.016h2.51a1.015,1.015,0,0,0,1.016-1.016Z" transform="translate(277.255 620.379)" fill="#3f4251"/>
    <path id="Trazado_728807" data-name="Trazado 728807" d="M604.143,81.027l8.3,7.471a31.335,31.335,0,0,0-5.194,3.54,1.166,1.166,0,0,1-1.8-.409l-3.9-8.58L602.78,81.2a.908.908,0,0,1,1.363-.171" transform="translate(279.203 622.119)" fill="#dce6f5"/>
    <path id="Trazado_728808" data-name="Trazado 728808" d="M623.207,81.027l-8.3,7.471a31.334,31.334,0,0,1,5.194,3.54,1.166,1.166,0,0,0,1.8-.409l3.9-8.58L624.57,81.2a.908.908,0,0,0-1.363-.171" transform="translate(276.743 622.119)" fill="#dce6f5"/>
    <path id="Trazado_728809" data-name="Trazado 728809" d="M621.654,42.658l.852,6.017c3.886.777,4.447,6.876,4.527,8.619a1.793,1.793,0,0,0,.287.887l1.483,2.3s-.507-3.8,1.817-6.358c0,0,.8-15.1-8.966-11.466" transform="translate(275.5 629.247)" fill="#654440"/>
    <path id="Trazado_728810" data-name="Trazado 728810" d="M630.7,63.63l-1.026,4.1a1.092,1.092,0,0,1-2.143-.129L627,63.408a1.881,1.881,0,0,1,1.867-2.115h0A1.881,1.881,0,0,1,630.7,63.63" transform="translate(274.517 625.711)" fill="#f0b172"/>
    <path id="Trazado_728811" data-name="Trazado 728811" d="M600.668,40.26l1.344.918c-6.074,4.485-4.939,12.176-4.939,12.176,1.817,1.816,1.817,6.358,1.817,6.358l1.816-1.817s-.7-5.247,2.725-7.266c3.178-1.873,5.96-.908,8.8-.908,7.607,0,9.735-2.867,9.366-6.358-.191-1.806-2.953-5.57-9.99-5.45-2.841.048-8.174.908-10.937,2.346" transform="translate(280.042 630.018)" fill="#563a3b"/>
    <path id="Trazado_728812" data-name="Trazado 728812" d="M598.263,63.63l1.025,4.1a1.092,1.092,0,0,0,2.142-.129l.525-4.195a1.881,1.881,0,0,0-1.867-2.115h0a1.881,1.881,0,0,0-1.825,2.337" transform="translate(279.818 625.711)" fill="#f0b172"/>
    <path id="Trazado_728813" data-name="Trazado 728813" d="M627.737,100.258h-6.358a.908.908,0,0,0-.908.908v.909h8.174v-.909a.908.908,0,0,0-.908-.908" transform="translate(275.717 618.534)" fill="#dce6f5"/>
    <path id="Trazado_728814" data-name="Trazado 728814" d="M632.233,315.433v-6.358H615.885v6.358l8.174,7.266Z" transform="translate(276.562 580.072)" fill="#e29d62"/>
    <path id="Trazado_728815" data-name="Trazado 728815" d="M641.387,319.816l-11.239-2.644a1.814,1.814,0,0,1-.472-.19l-9.1,5.309-8.748-5.566a1.813,1.813,0,0,1-.826.447l-11.239,2.644a3.633,3.633,0,0,0-2.8,3.537v7.113a1.817,1.817,0,0,0,1.817,1.817H642.37a1.817,1.817,0,0,0,1.817-1.817v-7.113a3.633,3.633,0,0,0-2.8-3.537" transform="translate(280.048 578.663)" fill="#eaeffa"/>
    <path id="Trazado_728816" data-name="Trazado 728816" d="M611.432,283.47l.791,17.412a5.451,5.451,0,0,0,2.174,4.113l3.755,2.816a5.451,5.451,0,0,0,3.27,1.09h3.633a5.449,5.449,0,0,0,3.27-1.09l3.755-2.816a5.448,5.448,0,0,0,2.174-4.113l.791-17.412Z" transform="translate(277.382 584.789)" fill="#f0b172"/>
    <path id="Trazado_728817" data-name="Trazado 728817" d="M603.627,327.375l-5.885-5.286a3.627,3.627,0,0,0-.782,2.251v7.114a1.817,1.817,0,0,0,1.817,1.816h6.358v-2.516a4.545,4.545,0,0,0-1.507-3.378" transform="translate(280.048 577.676)" fill="#dce6f5"/>
    <path id="Trazado_728818" data-name="Trazado 728818" d="M646.337,327.375l5.885-5.286A3.627,3.627,0,0,1,653,324.34v7.114a1.817,1.817,0,0,1-1.817,1.816H644.83v-2.516a4.542,4.542,0,0,1,1.507-3.378" transform="translate(271.231 577.676)" fill="#dce6f5"/>
    <path id="Trazado_728819" data-name="Trazado 728819" d="M627.663,333.948h-4.541l.567-8.174h3.406Z" transform="translate(275.229 576.997)" fill="#484b5c"/>
    <path id="Trazado_728820" data-name="Trazado 728820" d="M627.663,323.548h-4.541v1.709a1.015,1.015,0,0,0,1.015,1.016h2.51a1.015,1.015,0,0,0,1.016-1.016Z" transform="translate(275.229 577.406)" fill="#3f4251"/>
    <path id="Trazado_728821" data-name="Trazado 728821" d="M615.143,314.337l8.3,7.471a31.334,31.334,0,0,0-5.194,3.54,1.166,1.166,0,0,1-1.8-.409l-3.9-8.58,1.234-1.851a.908.908,0,0,1,1.363-.171" transform="translate(277.177 579.146)" fill="#dce6f5"/>
    <path id="Trazado_728822" data-name="Trazado 728822" d="M634.207,314.337l-8.3,7.471a31.336,31.336,0,0,1,5.194,3.54,1.166,1.166,0,0,0,1.8-.409l3.9-8.58-1.233-1.851a.908.908,0,0,0-1.363-.171" transform="translate(274.717 579.146)" fill="#dce6f5"/>
    <path id="Trazado_728823" data-name="Trazado 728823" d="M632.654,275.967l.852,6.017c3.886.777,4.447,6.876,4.527,8.619a1.793,1.793,0,0,0,.287.887l1.483,2.3s-.507-3.8,1.817-6.358c0,0,.8-15.1-8.966-11.466" transform="translate(273.474 586.274)" fill="#654440"/>
    <path id="Trazado_728824" data-name="Trazado 728824" d="M641.7,296.94l-1.026,4.1a1.092,1.092,0,0,1-2.143-.129L638,296.718a1.881,1.881,0,0,1,1.867-2.115h0a1.881,1.881,0,0,1,1.825,2.337" transform="translate(272.491 582.738)" fill="#f0b172"/>
    <path id="Trazado_728825" data-name="Trazado 728825" d="M611.668,273.57l1.344.918c-6.074,4.484-4.939,12.176-4.939,12.176,1.817,1.816,1.817,6.358,1.817,6.358l1.816-1.817s-.7-5.247,2.725-7.266c3.178-1.873,5.96-.908,8.8-.908,7.607,0,9.735-2.867,9.366-6.358-.191-1.806-2.953-5.57-9.99-5.45-2.841.048-8.174.908-10.937,2.346" transform="translate(278.017 587.045)" fill="#563a3b"/>
    <path id="Trazado_728826" data-name="Trazado 728826" d="M609.263,296.94l1.026,4.1a1.092,1.092,0,0,0,2.142-.129l.525-4.195a1.881,1.881,0,0,0-1.867-2.115h0a1.881,1.881,0,0,0-1.825,2.337" transform="translate(277.792 582.738)" fill="#f0b172"/>
    <path id="Trazado_728827" data-name="Trazado 728827" d="M638.737,333.567h-6.358a.908.908,0,0,0-.908.908v.909h8.174v-.909a.908.908,0,0,0-.908-.908" transform="translate(273.691 575.562)" fill="#dce6f5"/>
    <path id="Trazado_728828" data-name="Trazado 728828" d="M160.967,107.139H13.187a8.921,8.921,0,1,0,0,17.842h147.78a8.921,8.921,0,0,0,0-17.842" transform="translate(389.214 617.267)" fill="#313131"/>
    <path id="Trazado_728829" data-name="Trazado 728829" d="M13.187,122.724a6.657,6.657,0,0,1,0-13.313H75.942a8.858,8.858,0,0,1,5.92-2.272H13.187a8.921,8.921,0,1,0,0,17.842H81.861a8.87,8.87,0,0,1-5.9-2.257Z" transform="translate(389.214 617.267)" fill="#454344"/>
    <path id="Trazado_728830" data-name="Trazado 728830" d="M180.841,107.139H112.167a8.847,8.847,0,0,1,5.911,2.272h62.763a6.657,6.657,0,0,1,0,13.313H118.069a8.856,8.856,0,0,1-5.9,2.257h68.674a8.921,8.921,0,0,0,0-17.842" transform="translate(369.34 617.267)" fill="#454344"/>
    <path id="Trazado_728831" data-name="Trazado 728831" d="M108.481,126.243H92.153a8.871,8.871,0,0,0,5.9,2.257h10.433a8.858,8.858,0,0,0,5.9-2.257Z" transform="translate(373.027 613.748)" fill="#454344"/>
    <path id="Trazado_728832" data-name="Trazado 728832" d="M98.043,109.411h16.343a8.845,8.845,0,0,0-5.911-2.272H98.043a8.856,8.856,0,0,0-5.919,2.272Z" transform="translate(373.032 617.267)" fill="#454344"/>
    <path id="Trazado_728833" data-name="Trazado 728833" d="M118.969,116.944a5.089,5.089,0,1,1-5.089-5.089,5.087,5.087,0,0,1,5.089,5.089" transform="translate(369.962 616.397)" fill="#d7e2ec"/>
    <path id="Trazado_728834" data-name="Trazado 728834" d="M100.831,116.944a5.089,5.089,0,1,1-5.089-5.089,5.087,5.087,0,0,1,5.089,5.089" transform="translate(373.303 616.397)" fill="#d7e2ec"/>
    <path id="Trazado_728835" data-name="Trazado 728835" d="M82.693,116.944a5.089,5.089,0,1,1-5.089-5.089,5.087,5.087,0,0,1,5.089,5.089" transform="translate(376.644 616.397)" fill="#d7e2ec"/>
    <path id="Trazado_728836" data-name="Trazado 728836" d="M64.536,116.944a5.089,5.089,0,1,1-5.089-5.089,5.087,5.087,0,0,1,5.089,5.089" transform="translate(379.988 616.397)" fill="#d7e2ec"/>
    <path id="Trazado_728837" data-name="Trazado 728837" d="M46.4,116.944a5.089,5.089,0,1,1-5.089-5.089,5.087,5.087,0,0,1,5.089,5.089" transform="translate(383.329 616.397)" fill="#d7e2ec"/>
    <path id="Trazado_728838" data-name="Trazado 728838" d="M28.241,116.944a5.089,5.089,0,1,1-5.089-5.089,5.087,5.087,0,0,1,5.089,5.089" transform="translate(386.673 616.397)" fill="#d7e2ec"/>
    <path id="Trazado_728839" data-name="Trazado 728839" d="M191.56,116.944a5.089,5.089,0,1,1-5.089-5.089,5.087,5.087,0,0,1,5.089,5.089" transform="translate(356.592 616.397)" fill="#d7e2ec"/>
    <path id="Trazado_728840" data-name="Trazado 728840" d="M173.421,116.944a5.089,5.089,0,1,1-5.089-5.089,5.087,5.087,0,0,1,5.089,5.089" transform="translate(359.933 616.397)" fill="#d7e2ec"/>
    <path id="Trazado_728841" data-name="Trazado 728841" d="M155.265,116.944a5.089,5.089,0,1,1-5.09-5.089,5.088,5.088,0,0,1,5.09,5.089" transform="translate(363.277 616.397)" fill="#d7e2ec"/>
    <path id="Trazado_728842" data-name="Trazado 728842" d="M137.126,116.944a5.089,5.089,0,1,1-5.089-5.089,5.087,5.087,0,0,1,5.089,5.089" transform="translate(366.618 616.397)" fill="#d7e2ec"/>
    <path id="Trazado_728843" data-name="Trazado 728843" d="M118.969,116.944a5.089,5.089,0,1,1-5.089-5.089,5.087,5.087,0,0,1,5.089,5.089" transform="translate(369.962 616.397)" fill="#d7e2ec"/>
    <path id="Trazado_728844" data-name="Trazado 728844" d="M156.7,340.9H8.921a8.921,8.921,0,0,0,0,17.842H156.7a8.921,8.921,0,0,0,0-17.842" transform="translate(390 574.211)" fill="#313131"/>
    <path id="Trazado_728845" data-name="Trazado 728845" d="M8.921,356.484a6.657,6.657,0,0,1,0-13.313H71.676A8.858,8.858,0,0,1,77.6,340.9H8.921a8.921,8.921,0,0,0,0,17.842H77.6a8.87,8.87,0,0,1-5.9-2.257Z" transform="translate(390 574.211)" fill="#454344"/>
    <path id="Trazado_728846" data-name="Trazado 728846" d="M176.575,340.9H107.9a8.848,8.848,0,0,1,5.911,2.272h62.763a6.657,6.657,0,0,1,0,13.313H113.8a8.857,8.857,0,0,1-5.9,2.257h68.674a8.921,8.921,0,0,0,0-17.842" transform="translate(370.126 574.211)" fill="#454344"/>
    <path id="Trazado_728847" data-name="Trazado 728847" d="M104.215,360H87.887a8.871,8.871,0,0,0,5.9,2.257h10.433a8.858,8.858,0,0,0,5.9-2.257Z" transform="translate(373.813 570.692)" fill="#454344"/>
    <path id="Trazado_728848" data-name="Trazado 728848" d="M93.778,343.171H110.12a8.845,8.845,0,0,0-5.911-2.272H93.778a8.86,8.86,0,0,0-5.92,2.272Z" transform="translate(373.818 574.211)" fill="#454344"/>
    <path id="Trazado_728849" data-name="Trazado 728849" d="M114.7,350.7a5.089,5.089,0,1,1-5.089-5.089A5.087,5.087,0,0,1,114.7,350.7Z" transform="translate(370.748 573.342)" fill="#d7e2ec"/>
    <path id="Trazado_728850" data-name="Trazado 728850" d="M96.565,350.7a5.089,5.089,0,1,1-5.089-5.089A5.087,5.087,0,0,1,96.565,350.7Z" transform="translate(374.089 573.342)" fill="#d7e2ec"/>
    <path id="Trazado_728851" data-name="Trazado 728851" d="M78.427,350.7a5.089,5.089,0,1,1-5.089-5.089A5.087,5.087,0,0,1,78.427,350.7Z" transform="translate(377.43 573.342)" fill="#d7e2ec"/>
    <path id="Trazado_728852" data-name="Trazado 728852" d="M60.27,350.7a5.089,5.089,0,1,1-5.089-5.089A5.087,5.087,0,0,1,60.27,350.7Z" transform="translate(380.774 573.342)" fill="#d7e2ec"/>
    <path id="Trazado_728853" data-name="Trazado 728853" d="M42.132,350.7a5.089,5.089,0,1,1-5.089-5.089A5.087,5.087,0,0,1,42.132,350.7Z" transform="translate(384.114 573.342)" fill="#d7e2ec"/>
    <path id="Trazado_728854" data-name="Trazado 728854" d="M23.975,350.7a5.089,5.089,0,1,1-5.089-5.089A5.087,5.087,0,0,1,23.975,350.7Z" transform="translate(387.459 573.342)" fill="#d7e2ec"/>
    <path id="Trazado_728855" data-name="Trazado 728855" d="M187.294,350.7a5.089,5.089,0,1,1-5.089-5.089A5.087,5.087,0,0,1,187.294,350.7Z" transform="translate(357.377 573.342)" fill="#d7e2ec"/>
    <path id="Trazado_728856" data-name="Trazado 728856" d="M169.156,350.7a5.089,5.089,0,1,1-5.089-5.089A5.087,5.087,0,0,1,169.156,350.7Z" transform="translate(360.718 573.342)" fill="#d7e2ec"/>
    <path id="Trazado_728857" data-name="Trazado 728857" d="M151,350.7a5.089,5.089,0,1,1-5.089-5.089A5.087,5.087,0,0,1,151,350.7Z" transform="translate(364.063 573.342)" fill="#d7e2ec"/>
    <path id="Trazado_728858" data-name="Trazado 728858" d="M132.86,350.7a5.089,5.089,0,1,1-5.089-5.089A5.087,5.087,0,0,1,132.86,350.7Z" transform="translate(367.404 573.342)" fill="#d7e2ec"/>
    <path id="Trazado_728859" data-name="Trazado 728859" d="M114.7,350.7a5.089,5.089,0,1,1-5.089-5.089A5.087,5.087,0,0,1,114.7,350.7Z" transform="translate(370.748 573.342)" fill="#d7e2ec"/>
    <path id="Trazado_728860" data-name="Trazado 728860" d="M656.417,340.794H241.723a9.007,9.007,0,1,0,0,18.013H656.417a9.007,9.007,0,1,0,0-18.013m-398.81,13.893a4.846,4.846,0,1,1,4.846-4.846,4.845,4.845,0,0,1-4.846,4.846m20.9,0a4.846,4.846,0,1,1,4.846-4.846,4.846,4.846,0,0,1-4.846,4.846m21.593,0a4.846,4.846,0,1,1,4.846-4.846,4.845,4.845,0,0,1-4.846,4.846m20.824,0a4.846,4.846,0,1,1,4.846-4.846,4.845,4.845,0,0,1-4.846,4.846m20.9,0a4.846,4.846,0,1,1,4.846-4.846,4.845,4.845,0,0,1-4.846,4.846m21.592,0a4.846,4.846,0,1,1,4.846-4.846,4.846,4.846,0,0,1-4.846,4.846m21.695,0a4.846,4.846,0,1,1,4.846-4.846,4.846,4.846,0,0,1-4.846,4.846m21.888,0a4.846,4.846,0,1,1,4.846-4.846,4.846,4.846,0,0,1-4.846,4.846m20.9,0a4.846,4.846,0,1,1,4.846-4.846,4.845,4.845,0,0,1-4.846,4.846m21.593,0a4.846,4.846,0,1,1,4.846-4.846,4.845,4.845,0,0,1-4.846,4.846m21.694,0a4.846,4.846,0,1,1,4.846-4.846,4.846,4.846,0,0,1-4.846,4.846m20.958,0a4.846,4.846,0,1,1,4.846-4.846,4.846,4.846,0,0,1-4.846,4.846m20.9,0a4.846,4.846,0,1,1,4.846-4.846,4.845,4.845,0,0,1-4.846,4.846m21.593,0a4.846,4.846,0,1,1,4.846-4.846,4.845,4.845,0,0,1-4.846,4.846m23.326,0a4.846,4.846,0,1,1,4.846-4.846,4.846,4.846,0,0,1-4.846,4.846m21.67,0a4.846,4.846,0,1,1,4.846-4.846,4.846,4.846,0,0,1-4.846,4.846m20.879,0a4.846,4.846,0,1,1,4.846-4.846,4.845,4.845,0,0,1-4.846,4.846m22,0a4.846,4.846,0,1,1,4.846-4.846,4.846,4.846,0,0,1-4.846,4.846m20.879,0a4.846,4.846,0,1,1,4.846-4.846,4.845,4.845,0,0,1-4.846,4.846" transform="translate(347.137 574.23)" fill="#7d98a6"/>
    <path id="Trazado_728861" data-name="Trazado 728861" d="M655.838,340.9H397.417a8.852,8.852,0,0,0-3.661.8,8.809,8.809,0,0,0-3.66-.8H242.315a8.921,8.921,0,0,0,0,17.842H390.1a8.868,8.868,0,0,0,3.667-.8,8.809,8.809,0,0,0,3.654.8H655.838a8.921,8.921,0,0,0,0-17.842" transform="translate(347.012 574.211)" fill="#313131"/>
    <path id="Trazado_728862" data-name="Trazado 728862" d="M242.315,356.484a6.657,6.657,0,0,1,0-13.313H305.07a8.858,8.858,0,0,1,5.92-2.272H242.315a8.921,8.921,0,0,0,0,17.842h68.674a8.87,8.87,0,0,1-5.9-2.257Z" transform="translate(347.012 574.211)" fill="#454344"/>
    <path id="Trazado_728863" data-name="Trazado 728863" d="M400.764,343.171a8.856,8.856,0,0,1,5.919-2.272H341.3a8.847,8.847,0,0,1,5.911,2.272Z" transform="translate(327.138 574.211)" fill="#454344"/>
    <path id="Trazado_728864" data-name="Trazado 728864" d="M347.2,360a8.858,8.858,0,0,1-5.9,2.257h65.387a8.871,8.871,0,0,1-5.9-2.257Z" transform="translate(327.138 570.692)" fill="#454344"/>
    <path id="Trazado_728865" data-name="Trazado 728865" d="M337.609,360H321.281a8.871,8.871,0,0,0,5.9,2.257h10.433a8.858,8.858,0,0,0,5.9-2.257Z" transform="translate(330.824 570.692)" fill="#454344"/>
    <path id="Trazado_728866" data-name="Trazado 728866" d="M327.171,343.171h16.343A8.846,8.846,0,0,0,337.6,340.9H327.171a8.856,8.856,0,0,0-5.919,2.272Z" transform="translate(330.83 574.211)" fill="#454344"/>
    <path id="Trazado_728867" data-name="Trazado 728867" d="M431.375,360a8.858,8.858,0,0,1-5.9,2.257H490.86a8.871,8.871,0,0,1-5.9-2.257Z" transform="translate(311.633 570.692)" fill="#454344"/>
    <path id="Trazado_728868" data-name="Trazado 728868" d="M484.942,343.171a8.856,8.856,0,0,1,5.919-2.272H425.474a8.847,8.847,0,0,1,5.911,2.272Z" transform="translate(311.633 574.211)" fill="#454344"/>
    <path id="Trazado_728869" data-name="Trazado 728869" d="M420.109,343.171h9.2A8.846,8.846,0,0,0,423.4,340.9h-3.287a8.856,8.856,0,0,0-5.919,2.272Z" transform="translate(313.712 574.211)" fill="#454344"/>
    <path id="Trazado_728870" data-name="Trazado 728870" d="M423.4,360h-9.182a8.871,8.871,0,0,0,5.9,2.257H423.4A8.858,8.858,0,0,0,429.3,360Z" transform="translate(313.707 570.692)" fill="#454344"/>
    <path id="Trazado_728871" data-name="Trazado 728871" d="M555.44,343.171a8.856,8.856,0,0,1,5.919-2.272H518.411a8.847,8.847,0,0,1,5.911,2.272Z" transform="translate(294.516 574.211)" fill="#454344"/>
    <path id="Trazado_728872" data-name="Trazado 728872" d="M524.313,360a8.858,8.858,0,0,1-5.9,2.257h42.948a8.871,8.871,0,0,1-5.9-2.257Z" transform="translate(294.516 570.692)" fill="#454344"/>
    <path id="Trazado_728873" data-name="Trazado 728873" d="M514.725,360H498.4a8.871,8.871,0,0,0,5.9,2.257h10.433a8.858,8.858,0,0,0,5.9-2.257Z" transform="translate(298.202 570.692)" fill="#454344"/>
    <path id="Trazado_728874" data-name="Trazado 728874" d="M504.287,343.171H520.63a8.846,8.846,0,0,0-5.911-2.272H504.287a8.856,8.856,0,0,0-5.919,2.272Z" transform="translate(298.207 574.211)" fill="#454344"/>
    <path id="Trazado_728875" data-name="Trazado 728875" d="M608.492,360a8.862,8.862,0,0,1-5.9,2.257h42.948a8.868,8.868,0,0,1-5.9-2.257Z" transform="translate(279.011 570.692)" fill="#454344"/>
    <path id="Trazado_728876" data-name="Trazado 728876" d="M639.618,343.171a8.856,8.856,0,0,1,5.919-2.272H602.589a8.847,8.847,0,0,1,5.911,2.272Z" transform="translate(279.011 574.211)" fill="#454344"/>
    <path id="Trazado_728877" data-name="Trazado 728877" d="M595.451,360H563.829a8.871,8.871,0,0,0,5.9,2.257h25.727a8.858,8.858,0,0,0,5.9-2.257Z" transform="translate(286.15 570.692)" fill="#454344"/>
    <path id="Trazado_728878" data-name="Trazado 728878" d="M569.719,343.171h31.637a8.845,8.845,0,0,0-5.911-2.272H569.719a8.856,8.856,0,0,0-5.919,2.272Z" transform="translate(286.155 574.211)" fill="#454344"/>
    <path id="Trazado_728879" data-name="Trazado 728879" d="M736.7,340.9H668.021a8.848,8.848,0,0,1,5.911,2.272H736.7a6.657,6.657,0,0,1,0,13.313H673.923a8.857,8.857,0,0,1-5.9,2.257H736.7a8.921,8.921,0,0,0,0-17.842" transform="translate(266.959 574.211)" fill="#454344"/>
    <path id="Trazado_728880" data-name="Trazado 728880" d="M664.335,360H648.007a8.871,8.871,0,0,0,5.9,2.257h10.433a8.858,8.858,0,0,0,5.9-2.257Z" transform="translate(270.646 570.692)" fill="#454344"/>
    <path id="Trazado_728881" data-name="Trazado 728881" d="M653.9,343.171H670.24a8.844,8.844,0,0,0-5.911-2.272H653.9a8.856,8.856,0,0,0-5.919,2.272Z" transform="translate(270.651 574.211)" fill="#454344"/>
    <path id="Trazado_728882" data-name="Trazado 728882" d="M347.1,350.7a5.089,5.089,0,1,1-5.089-5.089A5.087,5.087,0,0,1,347.1,350.7Z" transform="translate(327.944 573.342)" fill="#d7e2ec"/>
    <path id="Trazado_728883" data-name="Trazado 728883" d="M328.959,350.7a5.089,5.089,0,1,1-5.089-5.089A5.087,5.087,0,0,1,328.959,350.7Z" transform="translate(331.285 573.342)" fill="#d7e2ec"/>
    <path id="Trazado_728884" data-name="Trazado 728884" d="M310.821,350.7a5.089,5.089,0,1,1-5.089-5.089A5.087,5.087,0,0,1,310.821,350.7Z" transform="translate(334.625 573.342)" fill="#d7e2ec"/>
    <path id="Trazado_728885" data-name="Trazado 728885" d="M292.664,350.7a5.089,5.089,0,1,1-5.089-5.089A5.087,5.087,0,0,1,292.664,350.7Z" transform="translate(337.97 573.342)" fill="#d7e2ec"/>
    <path id="Trazado_728886" data-name="Trazado 728886" d="M274.526,350.7a5.089,5.089,0,1,1-5.089-5.089A5.087,5.087,0,0,1,274.526,350.7Z" transform="translate(341.311 573.342)" fill="#d7e2ec"/>
    <path id="Trazado_728887" data-name="Trazado 728887" d="M256.369,350.7a5.089,5.089,0,1,1-5.089-5.089A5.087,5.087,0,0,1,256.369,350.7Z" transform="translate(344.655 573.342)" fill="#d7e2ec"/>
    <path id="Trazado_728888" data-name="Trazado 728888" d="M419.688,350.7a5.089,5.089,0,1,1-5.089-5.089A5.087,5.087,0,0,1,419.688,350.7Z" transform="translate(314.574 573.342)" fill="#d7e2ec"/>
    <path id="Trazado_728889" data-name="Trazado 728889" d="M401.55,350.7a5.089,5.089,0,1,1-5.09-5.089A5.087,5.087,0,0,1,401.55,350.7Z" transform="translate(317.915 573.342)" fill="#d7e2ec"/>
    <path id="Trazado_728890" data-name="Trazado 728890" d="M383.393,350.7a5.089,5.089,0,1,1-5.089-5.089A5.087,5.087,0,0,1,383.393,350.7Z" transform="translate(321.259 573.342)" fill="#d7e2ec"/>
    <path id="Trazado_728891" data-name="Trazado 728891" d="M365.254,350.7a5.089,5.089,0,1,1-5.089-5.089A5.087,5.087,0,0,1,365.254,350.7Z" transform="translate(324.6 573.342)" fill="#d7e2ec"/>
    <path id="Trazado_728892" data-name="Trazado 728892" d="M347.1,350.7a5.089,5.089,0,1,1-5.089-5.089A5.087,5.087,0,0,1,347.1,350.7Z" transform="translate(327.944 573.342)" fill="#d7e2ec"/>
    <path id="Trazado_728893" data-name="Trazado 728893" d="M529.765,350.7a5.089,5.089,0,1,1-5.089-5.089A5.087,5.087,0,0,1,529.765,350.7Z" transform="translate(294.299 573.342)" fill="#d7e2ec"/>
    <path id="Trazado_728894" data-name="Trazado 728894" d="M511.627,350.7a5.089,5.089,0,1,1-5.089-5.089A5.087,5.087,0,0,1,511.627,350.7Z" transform="translate(297.64 573.342)" fill="#d7e2ec"/>
    <path id="Trazado_728895" data-name="Trazado 728895" d="M493.489,350.7a5.089,5.089,0,1,1-5.089-5.089A5.087,5.087,0,0,1,493.489,350.7Z" transform="translate(300.98 573.342)" fill="#d7e2ec"/>
    <path id="Trazado_728896" data-name="Trazado 728896" d="M475.332,350.7a5.089,5.089,0,1,1-5.089-5.089A5.087,5.087,0,0,1,475.332,350.7Z" transform="translate(304.325 573.342)" fill="#d7e2ec"/>
    <path id="Trazado_728897" data-name="Trazado 728897" d="M457.194,350.7a5.089,5.089,0,1,1-5.089-5.089A5.087,5.087,0,0,1,457.194,350.7Z" transform="translate(307.666 573.342)" fill="#d7e2ec"/>
    <path id="Trazado_728898" data-name="Trazado 728898" d="M439.037,350.7a5.089,5.089,0,1,1-5.089-5.089A5.087,5.087,0,0,1,439.037,350.7Z" transform="translate(311.01 573.342)" fill="#d7e2ec"/>
    <path id="Trazado_728899" data-name="Trazado 728899" d="M602.356,350.7a5.089,5.089,0,1,1-5.09-5.089A5.088,5.088,0,0,1,602.356,350.7Z" transform="translate(280.929 573.342)" fill="#d7e2ec"/>
    <path id="Trazado_728900" data-name="Trazado 728900" d="M584.217,350.7a5.089,5.089,0,1,1-5.089-5.089A5.087,5.087,0,0,1,584.217,350.7Z" transform="translate(284.27 573.342)" fill="#d7e2ec"/>
    <path id="Trazado_728901" data-name="Trazado 728901" d="M566.06,350.7a5.089,5.089,0,1,1-5.089-5.089A5.087,5.087,0,0,1,566.06,350.7Z" transform="translate(287.614 573.342)" fill="#d7e2ec"/>
    <path id="Trazado_728902" data-name="Trazado 728902" d="M547.922,350.7a5.089,5.089,0,1,1-5.089-5.089A5.087,5.087,0,0,1,547.922,350.7Z" transform="translate(290.955 573.342)" fill="#d7e2ec"/>
    <path id="Trazado_728903" data-name="Trazado 728903" d="M529.765,350.7a5.089,5.089,0,1,1-5.089-5.089A5.087,5.087,0,0,1,529.765,350.7Z" transform="translate(294.299 573.342)" fill="#d7e2ec"/>
    <path id="Trazado_728904" data-name="Trazado 728904" d="M711.628,350.7a5.089,5.089,0,1,1-5.089-5.089A5.087,5.087,0,0,1,711.628,350.7Z" transform="translate(260.802 573.342)" fill="#d7e2ec"/>
    <path id="Trazado_728905" data-name="Trazado 728905" d="M693.49,350.7a5.089,5.089,0,1,1-5.089-5.089A5.087,5.087,0,0,1,693.49,350.7Z" transform="translate(264.143 573.342)" fill="#d7e2ec"/>
    <path id="Trazado_728906" data-name="Trazado 728906" d="M675.351,350.7a5.089,5.089,0,1,1-5.089-5.089A5.087,5.087,0,0,1,675.351,350.7Z" transform="translate(267.484 573.342)" fill="#d7e2ec"/>
    <path id="Trazado_728907" data-name="Trazado 728907" d="M657.2,350.7a5.089,5.089,0,1,1-5.089-5.089A5.087,5.087,0,0,1,657.2,350.7Z" transform="translate(270.828 573.342)" fill="#d7e2ec"/>
    <path id="Trazado_728908" data-name="Trazado 728908" d="M639.056,350.7a5.089,5.089,0,1,1-5.089-5.089A5.087,5.087,0,0,1,639.056,350.7Z" transform="translate(274.169 573.342)" fill="#d7e2ec"/>
    <path id="Trazado_728909" data-name="Trazado 728909" d="M620.9,350.7a5.089,5.089,0,1,1-5.09-5.089A5.088,5.088,0,0,1,620.9,350.7Z" transform="translate(277.513 573.342)" fill="#d7e2ec"/>
    <path id="Trazado_728910" data-name="Trazado 728910" d="M747.923,350.7a5.089,5.089,0,1,1-5.089-5.089A5.087,5.087,0,0,1,747.923,350.7Z" transform="translate(254.117 573.342)" fill="#d7e2ec"/>
    <path id="Trazado_728911" data-name="Trazado 728911" d="M729.785,350.7a5.089,5.089,0,1,1-5.089-5.089A5.087,5.087,0,0,1,729.785,350.7Z" transform="translate(257.458 573.342)" fill="#d7e2ec"/>
    <path id="Trazado_728912" data-name="Trazado 728912" d="M711.628,350.7a5.089,5.089,0,1,1-5.089-5.089A5.087,5.087,0,0,1,711.628,350.7Z" transform="translate(260.802 573.342)" fill="#d7e2ec"/>
    <path id="Trazado_728913" data-name="Trazado 728913" d="M334.291,116.046a8.9,8.9,0,0,1-8.916,8.931h-79.2a8.931,8.931,0,0,1,0-17.861h79.2a8.943,8.943,0,0,1,8.916,8.931" transform="translate(346.302 617.271)" fill="#313131"/>
    <path id="Trazado_728914" data-name="Trazado 728914" d="M325.375,109.388a6.664,6.664,0,0,1,0,13.329h-79.2a6.648,6.648,0,0,1-4.686-11.372,6.6,6.6,0,0,1,4.686-1.956Zm0-2.274h-79.2a8.931,8.931,0,1,0,0,17.862h79.2a8.931,8.931,0,0,0,0-17.862" transform="translate(346.302 617.271)" fill="#454344"/>
    <path id="Trazado_728915" data-name="Trazado 728915" d="M346.076,116.93a5.095,5.095,0,1,1-5.095-5.095,5.093,5.093,0,0,1,5.095,5.095" transform="translate(328.134 616.401)" fill="#d7e2ec"/>
    <path id="Trazado_728916" data-name="Trazado 728916" d="M327.917,116.93a5.095,5.095,0,1,1-5.095-5.095,5.093,5.093,0,0,1,5.095,5.095" transform="translate(331.479 616.401)" fill="#d7e2ec"/>
    <path id="Trazado_728917" data-name="Trazado 728917" d="M309.758,116.93a5.095,5.095,0,1,1-5.095-5.095,5.093,5.093,0,0,1,5.095,5.095" transform="translate(334.824 616.401)" fill="#d7e2ec"/>
    <path id="Trazado_728918" data-name="Trazado 728918" d="M291.58,116.93a5.095,5.095,0,1,1-5.095-5.095,5.093,5.093,0,0,1,5.095,5.095" transform="translate(338.172 616.401)" fill="#d7e2ec"/>
    <path id="Trazado_728919" data-name="Trazado 728919" d="M273.421,116.93a5.095,5.095,0,1,1-5.095-5.095,5.093,5.093,0,0,1,5.095,5.095" transform="translate(341.516 616.401)" fill="#d7e2ec"/>
    <path id="Trazado_728920" data-name="Trazado 728920" d="M255.244,116.93a5.095,5.095,0,1,1-5.095-5.095,5.093,5.093,0,0,1,5.095,5.095" transform="translate(344.864 616.401)" fill="#d7e2ec"/>
    <path id="Trazado_728921" data-name="Trazado 728921" d="M676.455,116.046a8.9,8.9,0,0,1-8.916,8.931h-79.2a8.931,8.931,0,0,1,0-17.861h79.2a8.943,8.943,0,0,1,8.916,8.931" transform="translate(283.28 617.271)" fill="#313131"/>
    <path id="Trazado_728922" data-name="Trazado 728922" d="M667.539,109.388a6.664,6.664,0,0,1,0,13.329h-79.2a6.664,6.664,0,0,1,0-13.329Zm0-2.274h-79.2a8.931,8.931,0,1,0,0,17.862h79.2a8.931,8.931,0,0,0,0-17.862" transform="translate(283.28 617.271)" fill="#454344"/>
    <path id="Trazado_728923" data-name="Trazado 728923" d="M688.24,116.93a5.095,5.095,0,1,1-5.095-5.095,5.093,5.093,0,0,1,5.095,5.095" transform="translate(265.112 616.401)" fill="#d7e2ec"/>
    <path id="Trazado_728924" data-name="Trazado 728924" d="M670.081,116.93a5.095,5.095,0,1,1-5.095-5.095,5.093,5.093,0,0,1,5.095,5.095" transform="translate(268.457 616.401)" fill="#d7e2ec"/>
    <path id="Trazado_728925" data-name="Trazado 728925" d="M651.922,116.93a5.095,5.095,0,1,1-5.095-5.095,5.093,5.093,0,0,1,5.095,5.095" transform="translate(271.801 616.401)" fill="#d7e2ec"/>
    <path id="Trazado_728926" data-name="Trazado 728926" d="M633.744,116.93a5.095,5.095,0,1,1-5.095-5.095,5.093,5.093,0,0,1,5.095,5.095" transform="translate(275.149 616.401)" fill="#d7e2ec"/>
    <path id="Trazado_728927" data-name="Trazado 728927" d="M615.585,116.93a5.095,5.095,0,1,1-5.095-5.095,5.093,5.093,0,0,1,5.095,5.095" transform="translate(278.494 616.401)" fill="#d7e2ec"/>
    <path id="Trazado_728928" data-name="Trazado 728928" d="M597.408,116.93a5.095,5.095,0,1,1-5.095-5.095,5.093,5.093,0,0,1,5.095,5.095" transform="translate(281.842 616.401)" fill="#d7e2ec"/>
    <path id="Trazado_728929" data-name="Trazado 728929" d="M234.558,109.889a6.994,6.994,0,1,1-6.994,6.994,6.994,6.994,0,0,1,6.994-6.994" transform="translate(348.086 616.76)" fill="#fff"/>
    <path id="Trazado_728930" data-name="Trazado 728930" d="M235.3,113.9a3.724,3.724,0,1,1-3.724,3.724A3.724,3.724,0,0,1,235.3,113.9" transform="translate(347.348 616.021)" fill="#0b233a"/>
    <path id="Trazado_728931" data-name="Trazado 728931" d="M206.316,109.889a6.994,6.994,0,1,1-6.994,6.994,6.994,6.994,0,0,1,6.994-6.994" transform="translate(353.288 616.76)" fill="#fff"/>
    <path id="Trazado_728932" data-name="Trazado 728932" d="M207.054,113.9a3.724,3.724,0,1,1-3.724,3.724,3.724,3.724,0,0,1,3.724-3.724" transform="translate(352.549 616.021)" fill="#0b233a"/>
    <path id="Trazado_728933" data-name="Trazado 728933" d="M212.122,139.953H202.1a2.256,2.256,0,0,1-2.256-2.257v-5.313h14.535V137.7a2.257,2.257,0,0,1-2.257,2.257" transform="translate(353.191 612.616)" fill="#dededc"/>
    <path id="Trazado_728934" data-name="Trazado 728934" d="M239.443,148.514H195.511V66.27a7.185,7.185,0,0,1,7.185-7.185h29.562a7.185,7.185,0,0,1,7.185,7.185Z" transform="translate(353.989 626.117)" fill="#d3d3eb"/>
    <path id="Trazado_728935" data-name="Trazado 728935" d="M240.506,140.29v11.848a1.887,1.887,0,0,1-3.774,0V140.29a1.887,1.887,0,0,1,3.774,0" transform="translate(346.397 611.508)" fill="#a1a5d4"/>
    <path id="Trazado_728936" data-name="Trazado 728936" d="M232.2,140.29v11.848a1.887,1.887,0,1,1-3.774,0V140.29a1.887,1.887,0,1,1,3.774,0" transform="translate(347.927 611.508)" fill="#a1a5d4"/>
    <path id="Trazado_728937" data-name="Trazado 728937" d="M215.59,140.29v11.848a1.887,1.887,0,0,1-3.774,0V140.29a1.887,1.887,0,1,1,3.774,0" transform="translate(350.986 611.508)" fill="#a1a5d4"/>
    <path id="Trazado_728938" data-name="Trazado 728938" d="M223.895,140.29v11.848a1.887,1.887,0,1,1-3.774,0V140.29a1.887,1.887,0,1,1,3.774,0" transform="translate(349.457 611.508)" fill="#a1a5d4"/>
    <path id="Trazado_728939" data-name="Trazado 728939" d="M207.285,140.29v11.848a1.887,1.887,0,0,1-3.775,0V140.29a1.887,1.887,0,0,1,3.775,0" transform="translate(352.516 611.508)" fill="#a1a5d4"/>
    <path id="Trazado_728940" data-name="Trazado 728940" d="M233.721,90.252V71.684a3.338,3.338,0,0,0-3.338-3.338H207.908a3.338,3.338,0,0,0-3.338,3.338V90.252a3.338,3.338,0,0,0,3.338,3.338h22.475a3.338,3.338,0,0,0,3.338-3.338" transform="translate(352.321 624.411)" fill="#59a6de"/>
    <path id="Trazado_728941" data-name="Trazado 728941" d="M207.416,104.535a2.939,2.939,0,1,1-2.939,2.939,2.938,2.938,0,0,1,2.939-2.939" transform="translate(352.338 617.746)" fill="#fda62a"/>
    <path id="Trazado_728942" data-name="Trazado 728942" d="M218.1,104.535a2.939,2.939,0,1,1-2.939,2.939,2.938,2.938,0,0,1,2.939-2.939" transform="translate(350.37 617.746)" fill="#de2650"/>
    <path id="Trazado_728943" data-name="Trazado 728943" d="M228.78,104.535a2.939,2.939,0,1,1-2.939,2.939,2.938,2.938,0,0,1,2.939-2.939" transform="translate(348.403 617.746)" fill="#5aa855"/>
    <path id="Trazado_728944" data-name="Trazado 728944" d="M233.573,125.453H203.921a1.513,1.513,0,0,1-1.513-1.514v-3.965a1.513,1.513,0,0,1,1.513-1.514h29.652a1.514,1.514,0,0,1,1.514,1.514v3.965a1.514,1.514,0,0,1-1.514,1.514" transform="translate(352.719 615.182)" fill="#b5b8de"/>
    <path id="Trazado_728945" data-name="Trazado 728945" d="M231.781,349.879a6.994,6.994,0,1,1-6.994,6.994,6.994,6.994,0,0,1,6.994-6.994" transform="translate(348.597 572.557)" fill="#fff"/>
    <path id="Trazado_728946" data-name="Trazado 728946" d="M232.519,353.887a3.724,3.724,0,1,1-3.724,3.724,3.724,3.724,0,0,1,3.724-3.724" transform="translate(347.859 571.818)" fill="#0b233a"/>
    <path id="Trazado_728947" data-name="Trazado 728947" d="M203.54,349.879a6.994,6.994,0,1,1-6.994,6.994,6.994,6.994,0,0,1,6.994-6.994" transform="translate(353.799 572.557)" fill="#fff"/>
    <path id="Trazado_728948" data-name="Trazado 728948" d="M204.278,353.887a3.724,3.724,0,1,1-3.724,3.724,3.724,3.724,0,0,1,3.724-3.724" transform="translate(353.061 571.818)" fill="#0b233a"/>
    <path id="Trazado_728949" data-name="Trazado 728949" d="M209.345,379.943H199.323a2.256,2.256,0,0,1-2.256-2.257v-5.313H211.6v5.313a2.257,2.257,0,0,1-2.257,2.257" transform="translate(353.703 568.414)" fill="#dededc"/>
    <path id="Trazado_728950" data-name="Trazado 728950" d="M236.667,388.5H192.735V306.26a7.185,7.185,0,0,1,7.185-7.185h29.562a7.185,7.185,0,0,1,7.185,7.185Z" transform="translate(354.501 581.914)" fill="#d3d3eb"/>
    <path id="Trazado_728951" data-name="Trazado 728951" d="M237.73,380.28v11.848a1.887,1.887,0,0,1-3.774,0V380.28a1.887,1.887,0,0,1,3.774,0" transform="translate(346.908 567.305)" fill="#a1a5d4"/>
    <path id="Trazado_728952" data-name="Trazado 728952" d="M229.424,380.28v11.848a1.887,1.887,0,0,1-3.774,0V380.28a1.887,1.887,0,0,1,3.774,0" transform="translate(348.438 567.305)" fill="#a1a5d4"/>
    <path id="Trazado_728953" data-name="Trazado 728953" d="M212.813,380.28v11.848a1.887,1.887,0,0,1-3.774,0V380.28a1.887,1.887,0,0,1,3.774,0" transform="translate(351.498 567.305)" fill="#a1a5d4"/>
    <path id="Trazado_728954" data-name="Trazado 728954" d="M221.119,380.28v11.848a1.887,1.887,0,0,1-3.774,0V380.28a1.887,1.887,0,0,1,3.774,0" transform="translate(349.968 567.305)" fill="#a1a5d4"/>
    <path id="Trazado_728955" data-name="Trazado 728955" d="M204.508,380.28v11.848a1.887,1.887,0,0,1-3.774,0V380.28a1.887,1.887,0,0,1,3.774,0" transform="translate(353.027 567.305)" fill="#a1a5d4"/>
    <path id="Trazado_728956" data-name="Trazado 728956" d="M230.945,330.242V311.674a3.338,3.338,0,0,0-3.338-3.338H205.132a3.338,3.338,0,0,0-3.338,3.338v18.568a3.338,3.338,0,0,0,3.338,3.338h22.475a3.338,3.338,0,0,0,3.338-3.338" transform="translate(352.832 580.209)" fill="#59a6de"/>
    <path id="Trazado_728957" data-name="Trazado 728957" d="M204.639,344.525a2.939,2.939,0,1,1-2.939,2.939,2.938,2.938,0,0,1,2.939-2.939" transform="translate(352.85 573.543)" fill="#fda62a"/>
    <path id="Trazado_728958" data-name="Trazado 728958" d="M215.323,344.525a2.939,2.939,0,1,1-2.939,2.939,2.938,2.938,0,0,1,2.939-2.939" transform="translate(350.882 573.543)" fill="#de2650"/>
    <path id="Trazado_728959" data-name="Trazado 728959" d="M226,344.525a2.939,2.939,0,1,1-2.939,2.939A2.938,2.938,0,0,1,226,344.525" transform="translate(348.915 573.543)" fill="#5aa855"/>
    <path id="Trazado_728960" data-name="Trazado 728960" d="M230.8,365.443H201.144a1.514,1.514,0,0,1-1.514-1.514v-3.965a1.514,1.514,0,0,1,1.514-1.514H230.8a1.514,1.514,0,0,1,1.514,1.514v3.965a1.514,1.514,0,0,1-1.514,1.514" transform="translate(353.231 570.979)" fill="#b5b8de"/>
    <path id="Trazado_728961" data-name="Trazado 728961" d="M439.054,98.734H403.3a3.465,3.465,0,0,1-3.4-3.523l-.267-7.439L398.8,86.71l.748-1.194L398.8,64.709l22.855-.132,21.9.132-.745,20.807.859,1.253-.941,1.03-.266,7.412a3.465,3.465,0,0,1-3.4,3.523" transform="translate(316.547 625.105)" fill="#a7b8c5"/>
    <path id="Trazado_728962" data-name="Trazado 728962" d="M430.133,89.3H419.382a1.433,1.433,0,0,1-1.433-1.433V81.411a1.434,1.434,0,0,1,1.433-1.433h10.751a1.433,1.433,0,0,1,1.433,1.433v6.457a1.432,1.432,0,0,1-1.433,1.433" transform="translate(313.02 622.27)" fill="#fef0ed"/>
    <path id="Trazado_728963" data-name="Trazado 728963" d="M506.574,98.734H470.816a3.465,3.465,0,0,1-3.4-3.523l-.267-7.439-.829-1.062.748-1.194-.745-20.807,22.855-.132,21.9.132-.745,20.807.859,1.253-.941,1.03-.266,7.412a3.465,3.465,0,0,1-3.4,3.523" transform="translate(304.111 625.105)" fill="#a7b8c5"/>
    <path id="Trazado_728964" data-name="Trazado 728964" d="M497.654,89.3H486.9a1.434,1.434,0,0,1-1.434-1.433V81.411a1.434,1.434,0,0,1,1.434-1.433h10.751a1.433,1.433,0,0,1,1.432,1.433v6.457a1.432,1.432,0,0,1-1.432,1.433" transform="translate(300.583 622.27)" fill="#fef0ed"/>
    <path id="Trazado_728965" data-name="Trazado 728965" d="M761.8,99.734H726.039a3.465,3.465,0,0,1-3.4-3.523l-.267-7.439-.829-1.062.748-1.194-.745-20.807,22.855-.132,21.9.132-.745,20.807.859,1.253-.941,1.03-.266,7.412a3.465,3.465,0,0,1-3.4,3.523" transform="translate(257.102 624.922)" fill="#a7b8c5"/>
    <path id="Trazado_728966" data-name="Trazado 728966" d="M752.877,90.3H742.126a1.433,1.433,0,0,1-1.433-1.433V82.411a1.434,1.434,0,0,1,1.433-1.433h10.751a1.433,1.433,0,0,1,1.433,1.433v6.457a1.432,1.432,0,0,1-1.433,1.433" transform="translate(253.574 622.085)" fill="#fef0ed"/>
    <path id="Trazado_728967" data-name="Trazado 728967" d="M837.856,397.191H802.1a3.465,3.465,0,0,1-3.4-3.523l-.267-7.439-.829-1.062.748-1.194-.744-20.807,22.855-.132,21.9.132-.744,20.807.858,1.253-.941,1.03-.266,7.412A3.464,3.464,0,0,1,837.856,397.191Z" transform="translate(243.093 570.134)" fill="#a7b8c5"/>
    <path id="Trazado_728968" data-name="Trazado 728968" d="M828.935,387.758H818.184a1.433,1.433,0,0,1-1.433-1.433v-6.457a1.434,1.434,0,0,1,1.433-1.433h10.751a1.433,1.433,0,0,1,1.433,1.433v6.457a1.432,1.432,0,0,1-1.433,1.433" transform="translate(239.565 567.297)" fill="#fef0ed"/>
    <path id="Trazado_728969" data-name="Trazado 728969" d="M472.695,170.775H436.937a3.465,3.465,0,0,1-3.4-3.523l-.267-7.439-.829-1.062.748-1.194-.745-20.807,22.855-.132,21.9.132-.745,20.807.859,1.253-.941,1.03-.266,7.412A3.465,3.465,0,0,1,472.695,170.775Z" transform="translate(310.351 611.837)" fill="#a7b8c5"/>
    <path id="Trazado_728970" data-name="Trazado 728970" d="M463.774,161.343H453.023a1.433,1.433,0,0,1-1.433-1.433v-6.457a1.434,1.434,0,0,1,1.433-1.433h10.751a1.433,1.433,0,0,1,1.433,1.433v6.457a1.432,1.432,0,0,1-1.433,1.433" transform="translate(306.823 609)" fill="#fef0ed"/>
    <path id="Trazado_728971" data-name="Trazado 728971" d="M74.019,178.662l30.444,3.38-2.658,4.546a1.419,1.419,0,0,0,2.149,1.793L116.177,177.9a1.421,1.421,0,0,0,0-2.155l-12.223-10.476a1.417,1.417,0,0,0-2.149,1.787l2.652,4.551-30.438,3.375A1.849,1.849,0,0,0,74.019,178.662Z" transform="translate(376.668 606.625)" fill="#84b343"/>
    <path id="Trazado_728972" data-name="Trazado 728972" d="M74.019,394.69l30.444,3.38-2.658,4.546a1.419,1.419,0,0,0,2.149,1.793l12.223-10.476a1.421,1.421,0,0,0,0-2.155L103.954,381.3a1.417,1.417,0,0,0-2.149,1.787l2.652,4.551-30.438,3.375A1.849,1.849,0,0,0,74.019,394.69Z" transform="translate(376.668 566.835)" fill="#84b343"/>
    <path id="Trazado_728975" data-name="Trazado 728975" d="M521.32,23.968a23.9,23.9,0,0,0,6.968,16.944,23.678,23.678,0,0,0,29.475,3.364,10.309,10.309,0,0,0,15.034-.589l0,0c.022-.025.042-.051.062-.078l.02-.029c.011-.017.022-.034.033-.052s.016-.026.023-.04.015-.028.021-.042a1.138,1.138,0,0,0,.061-.15c.011-.034.02-.069.027-.1,0-.011,0-.023.006-.034a.7.7,0,0,0,.011-.071c0-.017,0-.034,0-.051s0-.038,0-.055,0-.038,0-.055,0-.035,0-.052,0-.034-.007-.051,0-.038-.007-.056-.007-.029-.01-.043-.009-.042-.015-.063l-.011-.034c-.007-.023-.015-.046-.024-.069s-.008-.019-.012-.028-.02-.047-.031-.07l-.016-.029c-.012-.021-.024-.042-.037-.064s-.017-.024-.025-.037-.023-.034-.036-.051-.031-.038-.048-.056l-.021-.025a1.123,1.123,0,0,0-.228-.184,1.078,1.078,0,0,0-.139-.073,10.592,10.592,0,0,1-6.043-7.149,24.173,24.173,0,0,0,2.562-10.821,23.9,23.9,0,0,0-6.968-16.944,23.681,23.681,0,0,0-33.664,0,23.9,23.9,0,0,0-6.968,16.944m2.224,0a21.576,21.576,0,1,1,43.152,0,21.923,21.923,0,0,1-2.477,10.124,1.106,1.106,0,0,0-.124.781,12.831,12.831,0,0,0,5.976,8.364,8.082,8.082,0,0,1-11.281-1.122,1.112,1.112,0,0,0-1.484-.2h0a21.336,21.336,0,0,1-12.185,3.8,21.685,21.685,0,0,1-21.576-21.744" transform="translate(293.979 637)" fill="#437382"/>
    <rect id="Rectngulo_346729" data-name="Rectngulo 346729" width="820" height="334.598" transform="translate(390 637)" fill="none"/>
    <circle id="Elipse_4888" data-name="Elipse 4888" cx="42.5" cy="42.5" r="42.5" transform="translate(1125 858)" fill="#d9eaf1"/>
    <path id="Trazado_728974" data-name="Trazado 728974" d="M937.331,296.591a2.522,2.522,0,0,0-3.569,0l-17.4,17.4-6.436,6.436-8.941-8.941a2.524,2.524,0,1,0-3.569,3.569l10.725,10.725a2.522,2.522,0,0,0,3.569,0l25.616-25.616a2.527,2.527,0,0,0,0-3.569" transform="translate(250.93 587.104)" fill="#1da4a7"/>
    <circle id="Elipse_4889" data-name="Elipse 4889" cx="42.5" cy="42.5" r="42.5" transform="translate(1125 668)" fill="#ffe5db"/>
    <path id="Trazado_728973" data-name="Trazado 728973" d="M929.875,66.942a2.712,2.712,0,0,1-2.178-.987l-4.417-6.017c-2.095-2.679-3.412-4.419-4.668-6.252h-.12c-1.137,1.833-2.274,3.526-4.369,6.3l-4.129,5.932a2.7,2.7,0,0,1-2.2,1.025h-.048c-1.963,0-3.16-1.683-2.155-3l10.031-13.031-9.588-12.664c-.994-1.316.216-2.99,2.167-2.99h.156a2.689,2.689,0,0,1,2.19,1.006l4.608,6.421c1.5,2.068,2.633,3.667,3.711,5.359h.18a64.42,64.42,0,0,1,3.651-5.359l4.776-6.449a2.706,2.706,0,0,1,2.179-.978c1.975,0,3.184,1.711,2.131,3.027l-9.863,12.391,10.246,13.266c1.018,1.316-.192,3-2.155,3Z" transform="translate(249.429 659.01)" fill="#ff6e33"/>
  </g>
</svg>
