<svg xmlns="http://www.w3.org/2000/svg" xmlns:xlink="http://www.w3.org/1999/xlink" width="100" height="100" viewBox="0 0 100 100">
  <defs>
    <clipPath id="clip-path">
      <rect id="Rectángulo_346537" data-name="Rectángulo 346537" width="63.021" height="61.734" fill="#9f0925"/>
    </clipPath>
  </defs>
  <g id="Grupo_987591" data-name="Grupo 987591" transform="translate(-6078 10024)">
    <circle id="Elipse_4711" data-name="Elipse 4711" cx="50" cy="50" r="50" transform="translate(6078 -10024)" fill="#0ce6ea"/>
    <g id="Grupo_987590" data-name="Grupo 987590" transform="translate(6096 -10004.867)">
      <g id="Grupo_987589" data-name="Grupo 987589" clip-path="url(#clip-path)">
        <path id="Trazado_727313" data-name="Trazado 727313" d="M114.97,127.486h-3.461a3.163,3.163,0,0,1-3.17-3.147v-1.464a.655.655,0,0,0-.428-.588.669.669,0,0,0-.734.1l-1.048,1.04a3.2,3.2,0,0,1-4.485,0L99.2,121a3.133,3.133,0,0,1,0-4.449l1.048-1.04a.637.637,0,0,0,.114-.7.669.669,0,0,0-.6-.451H98.28a3.163,3.163,0,0,1-3.172-3.147v-3.435a3.162,3.162,0,0,1,3.172-3.146h1.475a.658.658,0,0,0,.593-.427.651.651,0,0,0-.1-.728L99.2,102.434a3.134,3.134,0,0,1,0-4.45l2.448-2.428a3.264,3.264,0,0,1,4.485,0l1.048,1.041a.649.649,0,0,0,.709.113.665.665,0,0,0,.455-.6V94.646a3.163,3.163,0,0,1,3.17-3.147h3.461a3.163,3.163,0,0,1,3.172,3.147v1.465a.653.653,0,0,0,.428.588.663.663,0,0,0,.734-.1l1.048-1.041a3.262,3.262,0,0,1,4.483,0l2.448,2.428a3.133,3.133,0,0,1,0,4.45l-1.048,1.041a.635.635,0,0,0-.113.7.669.669,0,0,0,.6.451H128.2a3.163,3.163,0,0,1,3.172,3.146v3.435a3.163,3.163,0,0,1-3.172,3.147h-1.475a.656.656,0,0,0-.592.424.643.643,0,0,0,.1.729l1.048,1.04a3.13,3.13,0,0,1,0,4.449l-2.448,2.43a3.193,3.193,0,0,1-4.483,0l-1.048-1.04a.636.636,0,0,0-.707-.112l-.027.01a.664.664,0,0,0-.428.588v1.464A3.167,3.167,0,0,1,114.97,127.486ZM107.6,119.7a3.307,3.307,0,0,1,1.25.247,3.17,3.17,0,0,1,2.027,2.929v1.464a.628.628,0,0,0,.63.625h3.461a.628.628,0,0,0,.63-.625v-1.464a3.164,3.164,0,0,1,2-2.92l.072-.03a3.193,3.193,0,0,1,3.424.68l1.048,1.04a.633.633,0,0,0,.891,0l2.448-2.43a.622.622,0,0,0,0-.884l-1.048-1.04a3.133,3.133,0,0,1-.7-3.372l.051-.124a3.175,3.175,0,0,1,2.93-1.963H128.2a.629.629,0,0,0,.63-.625v-3.435a.629.629,0,0,0-.63-.625h-1.475a3.183,3.183,0,0,1-2.941-1.99,3.143,3.143,0,0,1,.656-3.469l1.048-1.041a.623.623,0,0,0,0-.885l-2.448-2.428a.63.63,0,0,0-.89,0L121.1,98.378a3.253,3.253,0,0,1-5.5-2.267V94.646a.629.629,0,0,0-.63-.625H111.51a.629.629,0,0,0-.63.625v1.465a3.163,3.163,0,0,1-2.005,2.921,3.206,3.206,0,0,1-3.494-.652l-1.048-1.041a.632.632,0,0,0-.891,0l-2.448,2.428a.624.624,0,0,0,0,.885l1.048,1.041a3.134,3.134,0,0,1,.666,3.447,3.2,3.2,0,0,1-2.952,2.011H98.281a.628.628,0,0,0-.63.625v3.435a.629.629,0,0,0,.63.625h1.475a3.187,3.187,0,0,1,2.943,1.988,3.145,3.145,0,0,1-.657,3.47l-1.048,1.04a.622.622,0,0,0,0,.884l2.448,2.429a.633.633,0,0,0,.891,0l1.048-1.04A3.139,3.139,0,0,1,107.6,119.7Z" transform="translate(-81.729 -78.628)" fill="#9f0925"/>
        <path id="Trazado_727314" data-name="Trazado 727314" d="M180.846,183.617a7.01,7.01,0,1,1,7.063-7.011,7.045,7.045,0,0,1-7.063,7.011m0-11.5a4.489,4.489,0,1,0,4.523,4.489,4.511,4.511,0,0,0-4.523-4.489" transform="translate(-149.337 -145.74)" fill="#9f0925"/>
        <path id="Trazado_727315" data-name="Trazado 727315" d="M27.221,45.953a1.267,1.267,0,0,1-1.259-1.44,28.123,28.123,0,0,1,21.8-23.254A1.261,1.261,0,1,1,48.3,23.72,25.583,25.583,0,0,0,28.477,44.873a1.267,1.267,0,0,1-1.255,1.08" transform="translate(-22.299 -18.241)" fill="#9f0925"/>
        <path id="Trazado_727316" data-name="Trazado 727316" d="M47.605,255.433a1.342,1.342,0,0,1-.274-.03,28.03,28.03,0,0,1-21.871-23.8,1.271,1.271,0,0,1,2.522-.312,25.5,25.5,0,0,0,19.9,21.648,1.259,1.259,0,0,1-.273,2.491Z" transform="translate(-21.871 -197.81)" fill="#9f0925"/>
        <path id="Trazado_727317" data-name="Trazado 727317" d="M249.64,255.637a1.26,1.26,0,0,1-.217-2.5,25.66,25.66,0,0,0,20.952-21.855,1.271,1.271,0,0,1,2.522.313,28.209,28.209,0,0,1-23.034,24.027A1.474,1.474,0,0,1,249.64,255.637Z" transform="translate(-213.432 -197.797)" fill="#9f0925"/>
        <path id="Trazado_727318" data-name="Trazado 727318" d="M271.564,44.616a1.266,1.266,0,0,1-1.255-1.08,25.424,25.424,0,0,0-20.884-21.361,1.261,1.261,0,1,1,.438-2.484,27.943,27.943,0,0,1,22.959,23.483,1.261,1.261,0,0,1-1.074,1.428A1.093,1.093,0,0,1,271.564,44.616Z" transform="translate(-213.435 -16.904)" fill="#9f0925"/>
        <path id="Trazado_727319" data-name="Trazado 727319" d="M143.078,10.308a1.267,1.267,0,0,1-1.195-1.691l1.645-4.5-4.645-1.669A1.26,1.26,0,0,1,138.12.831a1.275,1.275,0,0,1,1.627-.756l5.84,2.1a1.277,1.277,0,0,1,.719.651,1.252,1.252,0,0,1,.044.963l-2.076,5.687A1.27,1.27,0,0,1,143.078,10.308Z" transform="translate(-118.626 0)" fill="#9f0925"/>
        <path id="Trazado_727320" data-name="Trazado 727320" d="M376.973,153.106a1.261,1.261,0,0,1-.628-.166l-5.295-3a1.252,1.252,0,0,1-.473-1.72,1.272,1.272,0,0,1,1.732-.471l4.192,2.373,2.449-4.26a1.273,1.273,0,0,1,1.732-.471,1.252,1.252,0,0,1,.473,1.72l-3.078,5.354A1.272,1.272,0,0,1,376.973,153.106Z" transform="translate(-318.303 -124.8)" fill="#9f0925"/>
        <path id="Trazado_727321" data-name="Trazado 727321" d="M247.855,370.95a1.27,1.27,0,0,1-.815-.295l-4.76-3.96a1.255,1.255,0,0,1-.157-1.776l3.918-4.635a1.281,1.281,0,0,1,1.79-.157,1.255,1.255,0,0,1,.158,1.776l-3.1,3.669,3.786,3.151a1.255,1.255,0,0,1,.158,1.776A1.285,1.285,0,0,1,247.855,370.95Z" transform="translate(-207.809 -309.216)" fill="#9f0925"/>
        <path id="Trazado_727322" data-name="Trazado 727322" d="M1.269,234.242a1.263,1.263,0,0,1-1.026-2L3.9,227.254a1.276,1.276,0,0,1,1.775-.277l4.929,3.559a1.257,1.257,0,0,1,.28,1.762,1.278,1.278,0,0,1-1.775.277l-3.9-2.818L2.3,233.722a1.269,1.269,0,0,1-1.028.52" transform="translate(0 -194.84)" fill="#9f0925"/>
      </g>
    </g>
  </g>
</svg>
