<svg xmlns="http://www.w3.org/2000/svg" xmlns:xlink="http://www.w3.org/1999/xlink" width="100" height="100" viewBox="0 0 100 100">
  <defs>
    <clipPath id="clip-path">
      <rect id="Rectángulo_346538" data-name="Rectángulo 346538" width="57" height="57" fill="#9f0925"/>
    </clipPath>
  </defs>
  <g id="Grupo_987595" data-name="Grupo 987595" transform="translate(-6078 9664)">
    <circle id="Elipse_4713" data-name="Elipse 4713" cx="50" cy="50" r="50" transform="translate(6078 -9664)" fill="#0ce6ea"/>
    <g id="Grupo_987594" data-name="Grupo 987594" transform="translate(6100 -9642)">
      <g id="Grupo_987593" data-name="Grupo 987593" clip-path="url(#clip-path)">
        <path id="Trazado_727323" data-name="Trazado 727323" d="M1.106,56.618H55.511a1.106,1.106,0,0,0,.782-1.888L1.888.325A1.106,1.106,0,0,0,0,1.107v54.4a1.106,1.106,0,0,0,1.106,1.106M2.212,3.777l8.895,8.895L8.76,15.016a1.106,1.106,0,0,0,1.564,1.564l2.346-2.346,4.691,4.692-2.346,2.345a1.106,1.106,0,1,0,1.564,1.564l2.346-2.346,4.691,4.691-2.346,2.346a1.106,1.106,0,0,0,1.564,1.564l2.346-2.346,4.691,4.692-2.346,2.346a1.106,1.106,0,0,0,1.564,1.564L31.436,33l4.691,4.691-2.346,2.346A1.106,1.106,0,1,0,35.346,41.6l2.345-2.346,4.691,4.691-2.346,2.346A1.106,1.106,0,0,0,41.6,47.858l2.345-2.346,8.894,8.894H2.212Z" transform="translate(0 -0.001)" fill="#9f0925"/>
        <path id="Trazado_727324" data-name="Trazado 727324" d="M87.888,205.314A1.106,1.106,0,0,0,86,206.1v22.227a1.106,1.106,0,0,0,1.106,1.106h22.227a1.106,1.106,0,0,0,.782-1.888Zm.324,21.9V208.766l18.452,18.452Z" transform="translate(-76.49 -182.322)" fill="#9f0925"/>
        <path id="Trazado_727325" data-name="Trazado 727325" d="M124.041,11.271l31.04,31.04a3.316,3.316,0,0,0,4.692,0l3.127-3.127a3.323,3.323,0,0,0,0-4.692L131.86,3.451a1.1,1.1,0,0,0-.432-.267L122.045.057a1.106,1.106,0,0,0-1.4,1.4l3.127,9.383a1.107,1.107,0,0,0,.267.432m37.295,24.784a1.108,1.108,0,0,1,0,1.564l-3.127,3.127a1.106,1.106,0,0,1-1.564,0l-2.4-2.4,4.691-4.692Zm-3.959-3.96-4.692,4.692-1.564-1.564,4.692-4.691ZM131.81,6.529l22.438,22.438-4.691,4.692L127.118,11.221Zm-1.682-1.447-4.457,4.456-2.228-6.684Z" transform="translate(-107.255 0)" fill="#9f0925"/>
      </g>
    </g>
  </g>
</svg>
