<svg xmlns="http://www.w3.org/2000/svg" xmlns:xlink="http://www.w3.org/1999/xlink" width="216" height="216" viewBox="0 0 216 216">
  <defs>
    <filter id="Trazado_113935" x="0" y="0" width="216" height="216" filterUnits="userSpaceOnUse">
      <feOffset input="SourceAlpha"/>
      <feGaussianBlur stdDeviation="20" result="blur"/>
      <feFlood flood-color="#402d27" flood-opacity="0.263"/>
      <feComposite operator="in" in2="blur"/>
      <feComposite in="SourceGraphic"/>
    </filter>
    <clipPath id="clip-path">
      <rect id="Rect치ngulo_346642" data-name="Rect치ngulo 346642" width="77.22" height="27.746" fill="none"/>
    </clipPath>
  </defs>
  <g id="Grupo_987952" data-name="Grupo 987952" transform="translate(-831.333 -335.001)">
    <g id="Grupo_987763" data-name="Grupo 987763">
      <g transform="matrix(1, 0, 0, 1, 831.33, 335)" filter="url(#Trazado_113935)">
        <path id="Trazado_113935-2" data-name="Trazado 113935" d="M48,0A48,48,0,1,1,0,48,48,48,0,0,1,48,0Z" transform="translate(60 60)" fill="#ea526f"/>
      </g>
    </g>
    <g id="Grupo_987762" data-name="Grupo 987762" transform="translate(900.333 429.152)">
      <rect id="Rect치ngulo_346641" data-name="Rect치ngulo 346641" width="30.532" height="9.487" transform="translate(46.688 4.227)" fill="#d48820"/>
      <g id="Grupo_987761" data-name="Grupo 987761" transform="translate(0 0.001)">
        <g id="Grupo_987760" data-name="Grupo 987760" clip-path="url(#clip-path)">
          <path id="Trazado_728657" data-name="Trazado 728657" d="M67.382,4.227c0,2.334-6.835,4.225-15.266,4.225S36.85,6.56,36.85,4.227,43.684,0,52.116,0,67.382,1.893,67.382,4.227" transform="translate(9.838 -0.001)" fill="#ffe2b8"/>
          <path id="Trazado_728658" data-name="Trazado 728658" d="M67.382,11.5c0,2.334-6.835,4.225-15.266,4.225S36.85,13.831,36.85,11.5s6.834-4.227,15.266-4.227S67.382,9.163,67.382,11.5" transform="translate(9.838 1.941)" fill="#d48820"/>
          <path id="Trazado_728659" data-name="Trazado 728659" d="M53.069,3.537c0,.526-1.542.953-3.444.953s-3.445-.427-3.445-.953,1.542-.954,3.445-.954,3.444.427,3.444.954" transform="translate(12.329 0.689)" fill="#d48820"/>
          <path id="Trazado_728660" data-name="Trazado 728660" d="M77.212,3.341V14.148a10.517,10.517,0,0,1-1.966,1.082,10.88,10.88,0,0,1-1.319.449,26.074,26.074,0,0,1-3.418.541c-.422.053-.858.119-1.32.2a17.5,17.5,0,0,0-3.746,1.044c-.423.158-.858.356-1.32.579a27.166,27.166,0,0,0-3.3,1.888c-.422.29-.87.594-1.319.924-.172.119-.329.238-.5.369a21.967,21.967,0,0,0-2.481,2.311c-.423.435-.858.87-1.319,1.278a6.981,6.981,0,0,1-3.682,2.006A4.914,4.914,0,0,1,50.2,26.8c-.052-.013-.105-.013-.171-.027a16.2,16.2,0,0,1-4.552-1.584c-.45-.236-.884-.474-1.32-.725-1.346-.778-2.666-1.637-4.13-2.455-.092-.052-.2-.119-.3-.171-.343-.185-.674-.369-1.017-.527A14.162,14.162,0,0,0,34.115,19.8a7.428,7.428,0,0,0-1.32-.052,7.953,7.953,0,0,0-3.4.883c-.237.119-.488.252-.739.4-.422.237-.858.5-1.319.779a25.2,25.2,0,0,1-4.5,2.349,9.764,9.764,0,0,1-1.319.342,5.282,5.282,0,0,1-1.571.041,10.709,10.709,0,0,1-3.417-1.109c-.436-.21-.884-.449-1.32-.713-1.267-.739-2.507-1.6-3.748-2.4-.436-.289-.87-.566-1.319-.83A15.647,15.647,0,0,0,6.8,17.909a7.678,7.678,0,0,0-1.32-.289,6.217,6.217,0,0,0-1.121-.067A7.065,7.065,0,0,0,.465,18.912C1.641,18.12,0,13.159,0,10.534c0-.726.119-1.281.461-1.518A7.269,7.269,0,0,1,4.359,7.6c6.109-.2,10.53,8.973,17.26,6.849,3.232-1.016,6.07-3.682,9.369-4.328C35,9.358,38.06,10.8,41.359,12.975c2.678,1.767,6.994,4.948,10.478,3.839a7.848,7.848,0,0,0,1.648-.753c2.692-1.6,4.144-4.433,7.1-5.819a30.123,30.123,0,0,1,5.727-1.756h.014c3.43-.792,6.98-1.477,9.249-3.245a.029.029,0,0,1,.027-.027,6.278,6.278,0,0,0,1.61-1.874" transform="translate(0.001 0.891)" fill="#ffe2b8"/>
          <path id="Trazado_728661" data-name="Trazado 728661" d="M4.362,17.057,0,18.623V7.738L4.362,6.17Z" transform="translate(0 1.647)" fill="#dadada"/>
          <path id="Trazado_728662" data-name="Trazado 728662" d="M9.322,13.624v4.116c-.436-.29-.87-.566-1.32-.83V13.624a.66.66,0,1,1,1.32,0" transform="translate(2.136 3.46)" fill="#3c3c3b"/>
          <path id="Trazado_728663" data-name="Trazado 728663" d="M5.646,11.218v4.764a7.539,7.539,0,0,0-1.32-.29V11.218a.663.663,0,0,1,.66-.66.671.671,0,0,1,.66.66" transform="translate(1.155 2.818)" fill="#3c3c3b"/>
          <path id="Trazado_728664" data-name="Trazado 728664" d="M13.322,15.906v4.341c-.436-.21-.884-.449-1.32-.713V15.906a.671.671,0,0,1,.66-.66.662.662,0,0,1,.66.66" transform="translate(3.204 4.07)" fill="#3c3c3b"/>
          <path id="Trazado_728665" data-name="Trazado 728665" d="M18.3,17.02v3.655a9.732,9.732,0,0,1-1.32.342v-4a.662.662,0,0,1,.66-.66.653.653,0,0,1,.66.66" transform="translate(4.533 4.367)" fill="#3c3c3b"/>
          <path id="Trazado_728666" data-name="Trazado 728666" d="M22.894,14.8V18.14c-.422.237-.858.5-1.319.779V14.8a.659.659,0,1,1,1.319,0" transform="translate(5.76 3.775)" fill="#3c3c3b"/>
          <path id="Trazado_728667" data-name="Trazado 728667" d="M27.205,13.062v4.314a7.428,7.428,0,0,0-1.32-.052V13.062a.66.66,0,0,1,1.32,0" transform="translate(6.911 3.31)" fill="#3c3c3b"/>
          <path id="Trazado_728668" data-name="Trazado 728668" d="M31.871,14.8v4.328c-.092-.052-.2-.119-.3-.171-.343-.185-.674-.37-1.017-.528V14.8a.671.671,0,0,1,.66-.66.662.662,0,0,1,.66.66" transform="translate(8.156 3.775)" fill="#3c3c3b"/>
          <path id="Trazado_728669" data-name="Trazado 728669" d="M36.173,17.02v4.7c-.45-.236-.884-.474-1.32-.725V17.02a.66.66,0,0,1,1.32,0" transform="translate(9.305 4.367)" fill="#3c3c3b"/>
          <path id="Trazado_728670" data-name="Trazado 728670" d="M40.943,18.405v4.566a5.02,5.02,0,0,1-1.32-.013V18.405a.663.663,0,0,1,.66-.66.654.654,0,0,1,.66.66" transform="translate(10.578 4.737)" fill="#3c3c3b"/>
          <path id="Trazado_728671" data-name="Trazado 728671" d="M44.89,16.322v3.92c-.423.436-.858.87-1.32,1.28v-5.2a.662.662,0,0,1,.66-.659.653.653,0,0,1,.66.659" transform="translate(11.632 4.181)" fill="#3c3c3b"/>
          <path id="Trazado_728672" data-name="Trazado 728672" d="M48.286,13.582v3.787c-.422.291-.87.594-1.32.925V13.582a.662.662,0,0,1,.66-.659.67.67,0,0,1,.66.659" transform="translate(12.539 3.45)" fill="#3c3c3b"/>
          <path id="Trazado_728673" data-name="Trazado 728673" d="M51.931,11.573V15.44c-.422.158-.858.356-1.32.58V11.573a.653.653,0,0,1,.66-.659.66.66,0,0,1,.66.659" transform="translate(13.512 2.913)" fill="#3c3c3b"/>
          <path id="Trazado_728674" data-name="Trazado 728674" d="M55.93,10.249v4.3c-.422.054-.858.119-1.32.2v-4.5a.655.655,0,0,1,.66-.66.663.663,0,0,1,.66.66" transform="translate(14.58 2.559)" fill="#3c3c3b"/>
          <path id="Trazado_728675" data-name="Trazado 728675" d="M59.67,9.063v4.816a10.972,10.972,0,0,1-1.32.449V9.063a.586.586,0,0,1,.172-.423A.607.607,0,0,1,59.01,8.4a.654.654,0,0,1,.66.66" transform="translate(15.578 2.243)" fill="#3c3c3b"/>
        </g>
      </g>
    </g>
  </g>
</svg>
