<svg xmlns="http://www.w3.org/2000/svg" width="1030" height="510" viewBox="0 0 1030 510">
  <g id="Grupo_1042477" data-name="Grupo 1042477" transform="translate(-285 -1334)">
    <g id="Grupo_1042476" data-name="Grupo 1042476">
      <path id="Trazado_729065" data-name="Trazado 729065" d="M0,0H1030V510H0Z" transform="translate(285 1334)" fill="#fff"/>
      <path id="Trazado_729073" data-name="Trazado 729073" d="M8.82,15V3.625h3.719a4.317,4.317,0,0,1,2.785.766,2.759,2.759,0,0,1,.934,2.266,2.31,2.31,0,0,1-.453,1.41,2.937,2.937,0,0,1-1.234.949,2.638,2.638,0,0,1,1.457.98,2.814,2.814,0,0,1,.535,1.723,3.042,3.042,0,0,1-.992,2.406,4.1,4.1,0,0,1-2.8.875Zm1.5-5.32v4.094H12.8a2.385,2.385,0,0,0,1.652-.543,1.907,1.907,0,0,0,.605-1.5q0-2.055-2.234-2.055Zm0-1.2h2.266a2.378,2.378,0,0,0,1.574-.492,1.649,1.649,0,0,0,.59-1.336A1.621,1.621,0,0,0,14.2,5.285a2.69,2.69,0,0,0-1.664-.426H10.32Zm13.453,5.688a3.07,3.07,0,0,1-2.477.992,2.628,2.628,0,0,1-2.059-.785,3.4,3.4,0,0,1-.715-2.324v-5.5h1.445v5.461q0,1.922,1.563,1.922a2.163,2.163,0,0,0,2.2-1.234V6.547H25.18V15H23.8Zm4.961-.344H33.68V15H26.969V13.938l4.664-6.2H27.039v-1.2h6.406V7.57ZM34.8,10.7a4.993,4.993,0,0,1,.488-2.234A3.643,3.643,0,0,1,36.645,6.93a3.7,3.7,0,0,1,1.988-.539,3.565,3.565,0,0,1,2.793,1.2,4.6,4.6,0,0,1,1.066,3.18v.1a5.036,5.036,0,0,1-.473,2.215,3.589,3.589,0,0,1-1.352,1.527,3.743,3.743,0,0,1-2.02.547,3.556,3.556,0,0,1-2.785-1.2A4.575,4.575,0,0,1,34.8,10.8Zm1.453.172a3.616,3.616,0,0,0,.652,2.258,2.211,2.211,0,0,0,3.5-.012,3.955,3.955,0,0,0,.648-2.418,3.61,3.61,0,0,0-.66-2.254,2.1,2.1,0,0,0-1.754-.863,2.075,2.075,0,0,0-1.727.852A3.925,3.925,0,0,0,36.25,10.867ZM39.289,3h1.75L38.945,5.3H37.781Zm6.383,3.547.047,1.063A3.08,3.08,0,0,1,48.25,6.391q2.68,0,2.7,3.023V15H49.508V9.406a1.946,1.946,0,0,0-.418-1.352,1.675,1.675,0,0,0-1.277-.437,2.086,2.086,0,0,0-1.234.375,2.546,2.546,0,0,0-.828.984V15H44.3V6.547ZM56.742,10.7a4.952,4.952,0,0,1,.922-3.129,3.137,3.137,0,0,1,4.766-.168V3h1.445V15H62.547l-.07-.906a2.943,2.943,0,0,1-2.414,1.063,2.887,2.887,0,0,1-2.395-1.2,5.008,5.008,0,0,1-.926-3.141Zm1.445.164a3.749,3.749,0,0,0,.594,2.25,1.92,1.92,0,0,0,1.641.813A2.108,2.108,0,0,0,62.43,12.7V8.813a2.125,2.125,0,0,0-1.992-1.2,1.929,1.929,0,0,0-1.656.82A4.128,4.128,0,0,0,58.188,10.867Zm11.438,4.289a3.693,3.693,0,0,1-2.8-1.129,4.19,4.19,0,0,1-1.078-3.02v-.266A5.073,5.073,0,0,1,66.23,8.5a3.748,3.748,0,0,1,1.344-1.547,3.378,3.378,0,0,1,1.871-.559,3.166,3.166,0,0,1,2.563,1.086,4.7,4.7,0,0,1,.914,3.109v.6H67.2a3,3,0,0,0,.73,2.02,2.3,2.3,0,0,0,1.777.77,2.517,2.517,0,0,0,1.3-.312,3.259,3.259,0,0,0,.93-.828l.883.688A3.55,3.55,0,0,1,69.625,15.156Zm-.18-7.578a1.928,1.928,0,0,0-1.469.637A3.1,3.1,0,0,0,67.242,10h4.234V9.891a2.753,2.753,0,0,0-.594-1.707A1.815,1.815,0,0,0,69.445,7.578ZM8.84,34.867a5.062,5.062,0,0,1-.883,3.109,2.829,2.829,0,0,1-2.391,1.18,3.1,3.1,0,0,1-2.422-.977v4.07H1.7v-11.7H3.02l.07.938a2.977,2.977,0,0,1,2.453-1.094,2.882,2.882,0,0,1,2.41,1.148,5.117,5.117,0,0,1,.887,3.2ZM7.395,34.7a3.735,3.735,0,0,0-.609-2.258,1.963,1.963,0,0,0-1.672-.828,2.125,2.125,0,0,0-1.969,1.164V36.82a2.129,2.129,0,0,0,1.984,1.156,1.954,1.954,0,0,0,1.652-.824A4.077,4.077,0,0,0,7.395,34.7Zm7.367-2.859a4.331,4.331,0,0,0-.711-.055A1.9,1.9,0,0,0,12.121,33v6H10.676V30.547h1.406l.023.977a2.251,2.251,0,0,1,2.016-1.133,1.477,1.477,0,0,1,.641.109Zm.789,2.852a4.993,4.993,0,0,1,.488-2.234A3.643,3.643,0,0,1,17.4,30.93a3.7,3.7,0,0,1,1.988-.539,3.565,3.565,0,0,1,2.793,1.2,4.6,4.6,0,0,1,1.066,3.18v.1a5.036,5.036,0,0,1-.473,2.215,3.589,3.589,0,0,1-1.352,1.527,3.743,3.743,0,0,1-2.02.547,3.556,3.556,0,0,1-2.785-1.2A4.575,4.575,0,0,1,15.551,34.8ZM17,34.867a3.616,3.616,0,0,0,.652,2.258,2.211,2.211,0,0,0,3.5-.012A3.955,3.955,0,0,0,21.8,34.7a3.61,3.61,0,0,0-.66-2.254,2.1,2.1,0,0,0-1.754-.863,2.075,2.075,0,0,0-1.727.852A3.925,3.925,0,0,0,17,34.867Zm7.7-.164a4.952,4.952,0,0,1,.922-3.129,3.137,3.137,0,0,1,4.766-.168V27H31.84V39H30.512l-.07-.906a2.943,2.943,0,0,1-2.414,1.063,2.887,2.887,0,0,1-2.395-1.2,5.008,5.008,0,0,1-.926-3.141Zm1.445.164a3.749,3.749,0,0,0,.594,2.25,1.92,1.92,0,0,0,1.641.813A2.108,2.108,0,0,0,30.395,36.7V32.813a2.125,2.125,0,0,0-1.992-1.2,1.929,1.929,0,0,0-1.656.82A4.128,4.128,0,0,0,26.152,34.867Zm13.148,3.3a3.07,3.07,0,0,1-2.477.992,2.628,2.628,0,0,1-2.059-.785,3.4,3.4,0,0,1-.715-2.324v-5.5H35.5v5.461q0,1.922,1.563,1.922a2.163,2.163,0,0,0,2.2-1.234V30.547h1.445V39H39.332Zm6.992-.187a2.082,2.082,0,0,0,1.352-.469,1.649,1.649,0,0,0,.641-1.172h1.367a2.621,2.621,0,0,1-.5,1.383,3.293,3.293,0,0,1-1.23,1.047,3.55,3.55,0,0,1-1.629.391A3.482,3.482,0,0,1,43.547,38a4.59,4.59,0,0,1-1.02-3.152v-.242a5.089,5.089,0,0,1,.453-2.2,3.451,3.451,0,0,1,1.3-1.492,3.7,3.7,0,0,1,2-.531,3.39,3.39,0,0,1,2.363.852,3.043,3.043,0,0,1,1,2.211H48.285a1.992,1.992,0,0,0-.621-1.348,1.932,1.932,0,0,0-1.379-.527,2.023,2.023,0,0,0-1.707.793,3.724,3.724,0,0,0-.605,2.293v.273a3.65,3.65,0,0,0,.6,2.25A2.033,2.033,0,0,0,46.293,37.977Zm8.375,0a2.082,2.082,0,0,0,1.352-.469,1.649,1.649,0,0,0,.641-1.172h1.367a2.621,2.621,0,0,1-.5,1.383,3.293,3.293,0,0,1-1.23,1.047,3.55,3.55,0,0,1-1.629.391A3.482,3.482,0,0,1,51.922,38a4.59,4.59,0,0,1-1.02-3.152v-.242a5.089,5.089,0,0,1,.453-2.2,3.451,3.451,0,0,1,1.3-1.492,3.7,3.7,0,0,1,2-.531,3.39,3.39,0,0,1,2.363.852,3.043,3.043,0,0,1,1,2.211H56.66a1.992,1.992,0,0,0-.621-1.348,1.932,1.932,0,0,0-1.379-.527,2.023,2.023,0,0,0-1.707.793,3.724,3.724,0,0,0-.605,2.293v.273a3.65,3.65,0,0,0,.6,2.25A2.033,2.033,0,0,0,54.668,37.977ZM61.223,39H59.777V30.547h1.445ZM59.66,28.3a.863.863,0,0,1,.215-.594.807.807,0,0,1,.637-.242.819.819,0,0,1,.641.242.854.854,0,0,1,.219.594.826.826,0,0,1-.219.586.834.834,0,0,1-.641.234.821.821,0,0,1-.637-.234A.834.834,0,0,1,59.66,28.3ZM63.152,34.7a4.993,4.993,0,0,1,.488-2.234A3.643,3.643,0,0,1,65,30.93a3.7,3.7,0,0,1,1.988-.539,3.565,3.565,0,0,1,2.793,1.2,4.6,4.6,0,0,1,1.066,3.18v.1a5.036,5.036,0,0,1-.473,2.215,3.589,3.589,0,0,1-1.352,1.527,3.743,3.743,0,0,1-2.02.547,3.556,3.556,0,0,1-2.785-1.2A4.575,4.575,0,0,1,63.152,34.8Zm1.453.172a3.616,3.616,0,0,0,.652,2.258,2.211,2.211,0,0,0,3.5-.012A3.955,3.955,0,0,0,69.4,34.7a3.61,3.61,0,0,0-.66-2.254,2.1,2.1,0,0,0-1.754-.863,2.075,2.075,0,0,0-1.727.852A3.925,3.925,0,0,0,64.605,34.867ZM67.645,27h1.75L67.3,29.3H66.137Zm6.383,3.547.047,1.063a3.08,3.08,0,0,1,2.531-1.219q2.68,0,2.7,3.023V39H77.863V33.406a1.946,1.946,0,0,0-.418-1.352,1.675,1.675,0,0,0-1.277-.437,2.086,2.086,0,0,0-1.234.375,2.546,2.546,0,0,0-.828.984V39H72.66V30.547ZM13.633,57.727l-1.664,1.492L11.313,63H9.844L11.82,51.625h1.469l-.969,5.539,5.8-5.539h1.891l-5.289,5.094L18.258,63H16.625Zm12.656,2.3H21.68L20.125,63h-1.57l6.18-11.375h1.289L28.273,63H26.828ZM22.328,58.8H26.07l-.945-5.3ZM38.344,63H36.922l-4.062-8.828L31.328,63H29.852l1.977-11.375H33.25l4.07,8.867,1.539-8.867H40.32Zm2.648,0,1.977-11.375,3.336.008a3.793,3.793,0,0,1,2.609.781,2.5,2.5,0,0,1,.758,2.18,2.957,2.957,0,0,1-2.055,2.461,2.117,2.117,0,0,1,1.145,1.016,2.839,2.839,0,0,1,.309,1.586A3.318,3.318,0,0,1,47.836,62.1a4.456,4.456,0,0,1-2.891.9Zm2.391-5.32-.711,4.094,2.32.008a2.776,2.776,0,0,0,1.781-.57,2.223,2.223,0,0,0,.836-1.539,1.827,1.827,0,0,0-.32-1.437,1.743,1.743,0,0,0-1.352-.547Zm.211-1.2,2.117.008a2.731,2.731,0,0,0,1.676-.508,1.989,1.989,0,0,0,.8-1.4,1.426,1.426,0,0,0-.324-1.25,2.078,2.078,0,0,0-1.41-.461l-2.234-.008Zm13.781,3.555H52.766L51.211,63h-1.57l6.18-11.375h1.289L59.359,63H57.914ZM53.414,58.8h3.742l-.945-5.3ZM69.43,63H68.008l-4.062-8.828L62.414,63H60.938l1.977-11.375h1.422l4.07,8.867,1.539-8.867h1.461Z" transform="translate(427.736 1497.26)" fill="#12263f"/>
      <path id="Trazado_729071" data-name="Trazado 729071" d="M8.82,15V3.625h3.719a4.317,4.317,0,0,1,2.785.766,2.759,2.759,0,0,1,.934,2.266,2.31,2.31,0,0,1-.453,1.41,2.937,2.937,0,0,1-1.234.949,2.638,2.638,0,0,1,1.457.98,2.814,2.814,0,0,1,.535,1.723,3.042,3.042,0,0,1-.992,2.406,4.1,4.1,0,0,1-2.8.875Zm1.5-5.32v4.094H12.8a2.385,2.385,0,0,0,1.652-.543,1.907,1.907,0,0,0,.605-1.5q0-2.055-2.234-2.055Zm0-1.2h2.266a2.378,2.378,0,0,0,1.574-.492,1.649,1.649,0,0,0,.59-1.336A1.621,1.621,0,0,0,14.2,5.285a2.69,2.69,0,0,0-1.664-.426H10.32Zm13.453,5.688a3.07,3.07,0,0,1-2.477.992,2.628,2.628,0,0,1-2.059-.785,3.4,3.4,0,0,1-.715-2.324v-5.5h1.445v5.461q0,1.922,1.563,1.922a2.163,2.163,0,0,0,2.2-1.234V6.547H25.18V15H23.8Zm4.961-.344H33.68V15H26.969V13.938l4.664-6.2H27.039v-1.2h6.406V7.57ZM34.8,10.7a4.993,4.993,0,0,1,.488-2.234A3.643,3.643,0,0,1,36.645,6.93a3.7,3.7,0,0,1,1.988-.539,3.565,3.565,0,0,1,2.793,1.2,4.6,4.6,0,0,1,1.066,3.18v.1a5.036,5.036,0,0,1-.473,2.215,3.589,3.589,0,0,1-1.352,1.527,3.743,3.743,0,0,1-2.02.547,3.556,3.556,0,0,1-2.785-1.2A4.575,4.575,0,0,1,34.8,10.8Zm1.453.172a3.616,3.616,0,0,0,.652,2.258,2.211,2.211,0,0,0,3.5-.012,3.955,3.955,0,0,0,.648-2.418,3.61,3.61,0,0,0-.66-2.254,2.1,2.1,0,0,0-1.754-.863,2.075,2.075,0,0,0-1.727.852A3.925,3.925,0,0,0,36.25,10.867ZM39.289,3h1.75L38.945,5.3H37.781Zm6.383,3.547.047,1.063A3.08,3.08,0,0,1,48.25,6.391q2.68,0,2.7,3.023V15H49.508V9.406a1.946,1.946,0,0,0-.418-1.352,1.675,1.675,0,0,0-1.277-.437,2.086,2.086,0,0,0-1.234.375,2.546,2.546,0,0,0-.828.984V15H44.3V6.547ZM56.742,10.7a4.952,4.952,0,0,1,.922-3.129,3.137,3.137,0,0,1,4.766-.168V3h1.445V15H62.547l-.07-.906a2.943,2.943,0,0,1-2.414,1.063,2.887,2.887,0,0,1-2.395-1.2,5.008,5.008,0,0,1-.926-3.141Zm1.445.164a3.749,3.749,0,0,0,.594,2.25,1.92,1.92,0,0,0,1.641.813A2.108,2.108,0,0,0,62.43,12.7V8.813a2.125,2.125,0,0,0-1.992-1.2,1.929,1.929,0,0,0-1.656.82A4.128,4.128,0,0,0,58.188,10.867Zm11.438,4.289a3.693,3.693,0,0,1-2.8-1.129,4.19,4.19,0,0,1-1.078-3.02v-.266A5.073,5.073,0,0,1,66.23,8.5a3.748,3.748,0,0,1,1.344-1.547,3.378,3.378,0,0,1,1.871-.559,3.166,3.166,0,0,1,2.563,1.086,4.7,4.7,0,0,1,.914,3.109v.6H67.2a3,3,0,0,0,.73,2.02,2.3,2.3,0,0,0,1.777.77,2.517,2.517,0,0,0,1.3-.312,3.259,3.259,0,0,0,.93-.828l.883.688A3.55,3.55,0,0,1,69.625,15.156Zm-.18-7.578a1.928,1.928,0,0,0-1.469.637A3.1,3.1,0,0,0,67.242,10h4.234V9.891a2.753,2.753,0,0,0-.594-1.707A1.815,1.815,0,0,0,69.445,7.578ZM10.789,31.844a4.331,4.331,0,0,0-.711-.055A1.9,1.9,0,0,0,8.148,33v6H6.7V30.547H8.109l.023.977a2.251,2.251,0,0,1,2.016-1.133,1.477,1.477,0,0,1,.641.109Zm4.688,7.313a3.693,3.693,0,0,1-2.8-1.129,4.19,4.19,0,0,1-1.078-3.02v-.266a5.073,5.073,0,0,1,.48-2.246,3.748,3.748,0,0,1,1.344-1.547,3.378,3.378,0,0,1,1.871-.559,3.166,3.166,0,0,1,2.563,1.086,4.7,4.7,0,0,1,.914,3.109v.6H13.047a3,3,0,0,0,.73,2.02,2.3,2.3,0,0,0,1.777.77,2.517,2.517,0,0,0,1.3-.312,3.259,3.259,0,0,0,.93-.828l.883.688A3.55,3.55,0,0,1,15.477,39.156Zm-.18-7.578a1.928,1.928,0,0,0-1.469.637A3.1,3.1,0,0,0,13.094,34h4.234v-.109a2.753,2.753,0,0,0-.594-1.707A1.815,1.815,0,0,0,15.3,31.578Zm8.539,6.4a2.082,2.082,0,0,0,1.352-.469,1.649,1.649,0,0,0,.641-1.172H27.2a2.621,2.621,0,0,1-.5,1.383,3.293,3.293,0,0,1-1.23,1.047,3.55,3.55,0,0,1-1.629.391A3.482,3.482,0,0,1,21.09,38a4.59,4.59,0,0,1-1.02-3.152v-.242a5.089,5.089,0,0,1,.453-2.2,3.451,3.451,0,0,1,1.3-1.492,3.7,3.7,0,0,1,2-.531,3.39,3.39,0,0,1,2.363.852,3.043,3.043,0,0,1,1,2.211H25.828a1.992,1.992,0,0,0-.621-1.348,1.932,1.932,0,0,0-1.379-.527,2.023,2.023,0,0,0-1.707.793,3.724,3.724,0,0,0-.605,2.293v.273a3.65,3.65,0,0,0,.6,2.25A2.033,2.033,0,0,0,23.836,37.977Zm8.492,1.18a3.693,3.693,0,0,1-2.8-1.129,4.19,4.19,0,0,1-1.078-3.02v-.266a5.073,5.073,0,0,1,.48-2.246,3.748,3.748,0,0,1,1.344-1.547,3.378,3.378,0,0,1,1.871-.559,3.166,3.166,0,0,1,2.563,1.086,4.7,4.7,0,0,1,.914,3.109v.6H29.9a3,3,0,0,0,.73,2.02,2.3,2.3,0,0,0,1.777.77,2.517,2.517,0,0,0,1.3-.312,3.258,3.258,0,0,0,.93-.828l.883.688A3.55,3.55,0,0,1,32.328,39.156Zm-.18-7.578a1.928,1.928,0,0,0-1.469.637A3.1,3.1,0,0,0,29.945,34H34.18v-.109a2.753,2.753,0,0,0-.594-1.707A1.815,1.815,0,0,0,32.148,31.578Zm12.289,3.289a5.062,5.062,0,0,1-.883,3.109,2.829,2.829,0,0,1-2.391,1.18,3.1,3.1,0,0,1-2.422-.977v4.07H37.3v-11.7h1.32l.07.938a2.977,2.977,0,0,1,2.453-1.094,2.882,2.882,0,0,1,2.41,1.148,5.117,5.117,0,0,1,.887,3.2ZM42.992,34.7a3.735,3.735,0,0,0-.609-2.258,1.963,1.963,0,0,0-1.672-.828,2.125,2.125,0,0,0-1.969,1.164V36.82a2.129,2.129,0,0,0,1.984,1.156,1.954,1.954,0,0,0,1.652-.824A4.077,4.077,0,0,0,42.992,34.7Zm6.672,3.273a2.082,2.082,0,0,0,1.352-.469,1.649,1.649,0,0,0,.641-1.172h1.367a2.621,2.621,0,0,1-.5,1.383,3.293,3.293,0,0,1-1.23,1.047,3.55,3.55,0,0,1-1.629.391A3.482,3.482,0,0,1,46.918,38a4.59,4.59,0,0,1-1.02-3.152v-.242a5.089,5.089,0,0,1,.453-2.2,3.451,3.451,0,0,1,1.3-1.492,3.7,3.7,0,0,1,2-.531,3.39,3.39,0,0,1,2.363.852,3.043,3.043,0,0,1,1,2.211H51.656a1.992,1.992,0,0,0-.621-1.348,1.932,1.932,0,0,0-1.379-.527,2.023,2.023,0,0,0-1.707.793,3.724,3.724,0,0,0-.605,2.293v.273a3.65,3.65,0,0,0,.6,2.25A2.033,2.033,0,0,0,49.664,37.977ZM56.219,39H54.773V30.547h1.445ZM54.656,28.3a.863.863,0,0,1,.215-.594.807.807,0,0,1,.637-.242.819.819,0,0,1,.641.242.854.854,0,0,1,.219.594.826.826,0,0,1-.219.586.834.834,0,0,1-.641.234.821.821,0,0,1-.637-.234A.834.834,0,0,1,54.656,28.3ZM58.148,34.7a4.993,4.993,0,0,1,.488-2.234A3.643,3.643,0,0,1,60,30.93a3.7,3.7,0,0,1,1.988-.539,3.565,3.565,0,0,1,2.793,1.2,4.6,4.6,0,0,1,1.066,3.18v.1a5.036,5.036,0,0,1-.473,2.215,3.589,3.589,0,0,1-1.352,1.527,3.743,3.743,0,0,1-2.02.547,3.556,3.556,0,0,1-2.785-1.2A4.575,4.575,0,0,1,58.148,34.8Zm1.453.172a3.616,3.616,0,0,0,.652,2.258,2.211,2.211,0,0,0,3.5-.012A3.955,3.955,0,0,0,64.4,34.7a3.61,3.61,0,0,0-.66-2.254,2.1,2.1,0,0,0-1.754-.863,2.075,2.075,0,0,0-1.727.852A3.925,3.925,0,0,0,59.6,34.867ZM62.641,27h1.75L62.3,29.3H61.133Zm6.383,3.547.047,1.063A3.08,3.08,0,0,1,71.6,30.391q2.68,0,2.7,3.023V39H72.859V33.406a1.946,1.946,0,0,0-.418-1.352,1.675,1.675,0,0,0-1.277-.437,2.086,2.086,0,0,0-1.234.375,2.546,2.546,0,0,0-.828.984V39H67.656V30.547ZM13.633,57.727l-1.664,1.492L11.313,63H9.844L11.82,51.625h1.469l-.969,5.539,5.8-5.539h1.891l-5.289,5.094L18.258,63H16.625Zm12.656,2.3H21.68L20.125,63h-1.57l6.18-11.375h1.289L28.273,63H26.828ZM22.328,58.8H26.07l-.945-5.3ZM38.344,63H36.922l-4.062-8.828L31.328,63H29.852l1.977-11.375H33.25l4.07,8.867,1.539-8.867H40.32Zm2.648,0,1.977-11.375,3.336.008a3.793,3.793,0,0,1,2.609.781,2.5,2.5,0,0,1,.758,2.18,2.957,2.957,0,0,1-2.055,2.461,2.117,2.117,0,0,1,1.145,1.016,2.839,2.839,0,0,1,.309,1.586A3.318,3.318,0,0,1,47.836,62.1a4.456,4.456,0,0,1-2.891.9Zm2.391-5.32-.711,4.094,2.32.008a2.776,2.776,0,0,0,1.781-.57,2.223,2.223,0,0,0,.836-1.539,1.827,1.827,0,0,0-.32-1.437,1.743,1.743,0,0,0-1.352-.547Zm.211-1.2,2.117.008a2.731,2.731,0,0,0,1.676-.508,1.989,1.989,0,0,0,.8-1.4,1.426,1.426,0,0,0-.324-1.25,2.078,2.078,0,0,0-1.41-.461l-2.234-.008Zm13.781,3.555H52.766L51.211,63h-1.57l6.18-11.375h1.289L59.359,63H57.914ZM53.414,58.8h3.742l-.945-5.3ZM69.43,63H68.008l-4.062-8.828L62.414,63H60.938l1.977-11.375h1.422l4.07,8.867,1.539-8.867h1.461Z" transform="translate(583.897 1491.304)" fill="#12263f"/>
      <path id="Trazado_729074" data-name="Trazado 729074" d="M6.422,9.727,4.758,11.219,4.1,15H2.633L4.609,3.625H6.078L5.109,9.164l5.8-5.539H12.8L7.508,8.719,11.047,15H9.414Zm12.656,2.3H14.469L12.914,15h-1.57l6.18-11.375h1.289L21.063,15H19.617ZM15.117,10.8h3.742l-.945-5.3ZM31.133,15H29.711L25.648,6.172,24.117,15H22.641L24.617,3.625h1.422l4.07,8.867,1.539-8.867h1.461Zm2.648,0L35.758,3.625l3.336.008a3.793,3.793,0,0,1,2.609.781,2.5,2.5,0,0,1,.758,2.18,2.957,2.957,0,0,1-2.055,2.461,2.117,2.117,0,0,1,1.145,1.016,2.839,2.839,0,0,1,.309,1.586A3.318,3.318,0,0,1,40.625,14.1a4.456,4.456,0,0,1-2.891.9Zm2.391-5.32-.711,4.094,2.32.008a2.776,2.776,0,0,0,1.781-.57,2.223,2.223,0,0,0,.836-1.539,1.827,1.827,0,0,0-.32-1.437,1.743,1.743,0,0,0-1.352-.547Zm.211-1.2,2.117.008a2.731,2.731,0,0,0,1.676-.508,1.989,1.989,0,0,0,.8-1.4,1.426,1.426,0,0,0-.324-1.25,2.078,2.078,0,0,0-1.41-.461l-2.234-.008Zm13.781,3.555H45.555L44,15H42.43l6.18-11.375H49.9L52.148,15H50.7ZM46.2,10.8h3.742L49,5.492ZM62.219,15H60.8L56.734,6.172,55.2,15H53.727L55.7,3.625h1.422l4.07,8.867,1.539-8.867H64.2Zm6.852-4.3a4.952,4.952,0,0,1,.922-3.129,3.137,3.137,0,0,1,4.766-.168V3H76.2V15H74.875l-.07-.906a2.943,2.943,0,0,1-2.414,1.063A2.887,2.887,0,0,1,70,13.953a5.008,5.008,0,0,1-.926-3.141Zm1.445.164a3.749,3.749,0,0,0,.594,2.25,1.92,1.92,0,0,0,1.641.813A2.108,2.108,0,0,0,74.758,12.7V8.813a2.125,2.125,0,0,0-1.992-1.2,1.929,1.929,0,0,0-1.656.82A4.128,4.128,0,0,0,70.516,10.867Zm11.438,4.289a3.693,3.693,0,0,1-2.8-1.129,4.19,4.19,0,0,1-1.078-3.02v-.266a5.073,5.073,0,0,1,.48-2.246A3.748,3.748,0,0,1,79.9,6.949a3.378,3.378,0,0,1,1.871-.559,3.166,3.166,0,0,1,2.563,1.086,4.7,4.7,0,0,1,.914,3.109v.6H79.523a3,3,0,0,0,.73,2.02,2.3,2.3,0,0,0,1.777.77,2.517,2.517,0,0,0,1.3-.312,3.259,3.259,0,0,0,.93-.828l.883.688A3.55,3.55,0,0,1,81.953,15.156Zm-.18-7.578a1.928,1.928,0,0,0-1.469.637A3.1,3.1,0,0,0,79.57,10H83.8V9.891a2.753,2.753,0,0,0-.594-1.707A1.815,1.815,0,0,0,81.773,7.578ZM12.34,34.867a5.062,5.062,0,0,1-.883,3.109,2.829,2.829,0,0,1-2.391,1.18,3.1,3.1,0,0,1-2.422-.977v4.07H5.2v-11.7H6.52l.07.938a2.977,2.977,0,0,1,2.453-1.094,2.882,2.882,0,0,1,2.41,1.148,5.117,5.117,0,0,1,.887,3.2ZM10.895,34.7a3.735,3.735,0,0,0-.609-2.258,1.963,1.963,0,0,0-1.672-.828,2.125,2.125,0,0,0-1.969,1.164V36.82a2.129,2.129,0,0,0,1.984,1.156,1.954,1.954,0,0,0,1.652-.824A4.077,4.077,0,0,0,10.895,34.7Zm7.367-2.859a4.331,4.331,0,0,0-.711-.055A1.9,1.9,0,0,0,15.621,33v6H14.176V30.547h1.406l.023.977a2.251,2.251,0,0,1,2.016-1.133,1.477,1.477,0,0,1,.641.109Zm.789,2.852a4.993,4.993,0,0,1,.488-2.234A3.643,3.643,0,0,1,20.9,30.93a3.7,3.7,0,0,1,1.988-.539,3.565,3.565,0,0,1,2.793,1.2,4.6,4.6,0,0,1,1.066,3.18v.1a5.036,5.036,0,0,1-.473,2.215,3.589,3.589,0,0,1-1.352,1.527,3.743,3.743,0,0,1-2.02.547,3.556,3.556,0,0,1-2.785-1.2A4.575,4.575,0,0,1,19.051,34.8Zm1.453.172a3.616,3.616,0,0,0,.652,2.258,2.211,2.211,0,0,0,3.5-.012A3.955,3.955,0,0,0,25.3,34.7a3.61,3.61,0,0,0-.66-2.254,2.1,2.1,0,0,0-1.754-.863,2.075,2.075,0,0,0-1.727.852A3.925,3.925,0,0,0,20.5,34.867Zm7.7-.164a4.952,4.952,0,0,1,.922-3.129,3.137,3.137,0,0,1,4.766-.168V27H35.34V39H34.012l-.07-.906a2.943,2.943,0,0,1-2.414,1.063,2.887,2.887,0,0,1-2.395-1.2,5.008,5.008,0,0,1-.926-3.141Zm1.445.164a3.749,3.749,0,0,0,.594,2.25,1.92,1.92,0,0,0,1.641.813A2.108,2.108,0,0,0,33.895,36.7V32.813a2.125,2.125,0,0,0-1.992-1.2,1.929,1.929,0,0,0-1.656.82A4.128,4.128,0,0,0,29.652,34.867Zm13.148,3.3a3.07,3.07,0,0,1-2.477.992,2.628,2.628,0,0,1-2.059-.785,3.4,3.4,0,0,1-.715-2.324v-5.5H39v5.461q0,1.922,1.563,1.922a2.163,2.163,0,0,0,2.2-1.234V30.547h1.445V39H42.832Zm6.992-.187a2.082,2.082,0,0,0,1.352-.469,1.649,1.649,0,0,0,.641-1.172h1.367a2.621,2.621,0,0,1-.5,1.383,3.293,3.293,0,0,1-1.23,1.047,3.55,3.55,0,0,1-1.629.391A3.482,3.482,0,0,1,47.047,38a4.59,4.59,0,0,1-1.02-3.152v-.242a5.089,5.089,0,0,1,.453-2.2,3.451,3.451,0,0,1,1.3-1.492,3.7,3.7,0,0,1,2-.531,3.39,3.39,0,0,1,2.363.852,3.043,3.043,0,0,1,1,2.211H51.785a1.992,1.992,0,0,0-.621-1.348,1.932,1.932,0,0,0-1.379-.527,2.023,2.023,0,0,0-1.707.793,3.724,3.724,0,0,0-.605,2.293v.273a3.65,3.65,0,0,0,.6,2.25A2.033,2.033,0,0,0,49.793,37.977Zm8.375,0a2.082,2.082,0,0,0,1.352-.469,1.649,1.649,0,0,0,.641-1.172h1.367a2.621,2.621,0,0,1-.5,1.383,3.293,3.293,0,0,1-1.23,1.047,3.55,3.55,0,0,1-1.629.391A3.482,3.482,0,0,1,55.422,38a4.59,4.59,0,0,1-1.02-3.152v-.242a5.089,5.089,0,0,1,.453-2.2,3.451,3.451,0,0,1,1.3-1.492,3.7,3.7,0,0,1,2-.531,3.39,3.39,0,0,1,2.363.852,3.043,3.043,0,0,1,1,2.211H60.16a1.992,1.992,0,0,0-.621-1.348,1.932,1.932,0,0,0-1.379-.527,2.023,2.023,0,0,0-1.707.793,3.724,3.724,0,0,0-.605,2.293v.273a3.65,3.65,0,0,0,.6,2.25A2.033,2.033,0,0,0,58.168,37.977ZM64.723,39H63.277V30.547h1.445ZM63.16,28.3a.863.863,0,0,1,.215-.594.807.807,0,0,1,.637-.242.819.819,0,0,1,.641.242.854.854,0,0,1,.219.594.826.826,0,0,1-.219.586.834.834,0,0,1-.641.234.821.821,0,0,1-.637-.234A.834.834,0,0,1,63.16,28.3ZM66.652,34.7a4.993,4.993,0,0,1,.488-2.234A3.643,3.643,0,0,1,68.5,30.93a3.7,3.7,0,0,1,1.988-.539,3.565,3.565,0,0,1,2.793,1.2,4.6,4.6,0,0,1,1.066,3.18v.1a5.036,5.036,0,0,1-.473,2.215,3.589,3.589,0,0,1-1.352,1.527,3.743,3.743,0,0,1-2.02.547,3.556,3.556,0,0,1-2.785-1.2A4.575,4.575,0,0,1,66.652,34.8Zm1.453.172a3.616,3.616,0,0,0,.652,2.258,2.211,2.211,0,0,0,3.5-.012A3.955,3.955,0,0,0,72.9,34.7a3.61,3.61,0,0,0-.66-2.254,2.1,2.1,0,0,0-1.754-.863,2.075,2.075,0,0,0-1.727.852A3.925,3.925,0,0,0,68.105,34.867ZM71.145,27h1.75L70.8,29.3H69.637Zm6.383,3.547.047,1.063a3.08,3.08,0,0,1,2.531-1.219q2.68,0,2.7,3.023V39H81.363V33.406a1.946,1.946,0,0,0-.418-1.352,1.675,1.675,0,0,0-1.277-.437,2.086,2.086,0,0,0-1.234.375,2.546,2.546,0,0,0-.828.984V39H76.16V30.547Z" transform="translate(869.5 1429.957)" fill="#12263f"/>
      <path id="Trazado_729077" data-name="Trazado 729077" d="M6.422,9.727,4.758,11.219,4.1,15H2.633L4.609,3.625H6.078L5.109,9.164l5.8-5.539H12.8L7.508,8.719,11.047,15H9.414Zm12.656,2.3H14.469L12.914,15h-1.57l6.18-11.375h1.289L21.063,15H19.617ZM15.117,10.8h3.742l-.945-5.3ZM31.133,15H29.711L25.648,6.172,24.117,15H22.641L24.617,3.625h1.422l4.07,8.867,1.539-8.867h1.461Zm2.648,0L35.758,3.625l3.336.008a3.793,3.793,0,0,1,2.609.781,2.5,2.5,0,0,1,.758,2.18,2.957,2.957,0,0,1-2.055,2.461,2.117,2.117,0,0,1,1.145,1.016,2.839,2.839,0,0,1,.309,1.586A3.318,3.318,0,0,1,40.625,14.1a4.456,4.456,0,0,1-2.891.9Zm2.391-5.32-.711,4.094,2.32.008a2.776,2.776,0,0,0,1.781-.57,2.223,2.223,0,0,0,.836-1.539,1.827,1.827,0,0,0-.32-1.437,1.743,1.743,0,0,0-1.352-.547Zm.211-1.2,2.117.008a2.731,2.731,0,0,0,1.676-.508,1.989,1.989,0,0,0,.8-1.4,1.426,1.426,0,0,0-.324-1.25,2.078,2.078,0,0,0-1.41-.461l-2.234-.008Zm13.781,3.555H45.555L44,15H42.43l6.18-11.375H49.9L52.148,15H50.7ZM46.2,10.8h3.742L49,5.492ZM62.219,15H60.8L56.734,6.172,55.2,15H53.727L55.7,3.625h1.422l4.07,8.867,1.539-8.867H64.2Zm6.852-4.3a4.952,4.952,0,0,1,.922-3.129,3.137,3.137,0,0,1,4.766-.168V3H76.2V15H74.875l-.07-.906a2.943,2.943,0,0,1-2.414,1.063A2.887,2.887,0,0,1,70,13.953a5.008,5.008,0,0,1-.926-3.141Zm1.445.164a3.749,3.749,0,0,0,.594,2.25,1.92,1.92,0,0,0,1.641.813A2.108,2.108,0,0,0,74.758,12.7V8.813a2.125,2.125,0,0,0-1.992-1.2,1.929,1.929,0,0,0-1.656.82A4.128,4.128,0,0,0,70.516,10.867Zm11.438,4.289a3.693,3.693,0,0,1-2.8-1.129,4.19,4.19,0,0,1-1.078-3.02v-.266a5.073,5.073,0,0,1,.48-2.246A3.748,3.748,0,0,1,79.9,6.949a3.378,3.378,0,0,1,1.871-.559,3.166,3.166,0,0,1,2.563,1.086,4.7,4.7,0,0,1,.914,3.109v.6H79.523a3,3,0,0,0,.73,2.02,2.3,2.3,0,0,0,1.777.77,2.517,2.517,0,0,0,1.3-.312,3.259,3.259,0,0,0,.93-.828l.883.688A3.55,3.55,0,0,1,81.953,15.156Zm-.18-7.578a1.928,1.928,0,0,0-1.469.637A3.1,3.1,0,0,0,79.57,10H83.8V9.891a2.753,2.753,0,0,0-.594-1.707A1.815,1.815,0,0,0,81.773,7.578ZM10.2,28.5v2.047h1.578v1.117H10.2v5.242a1.171,1.171,0,0,0,.211.762.888.888,0,0,0,.719.254,3.5,3.5,0,0,0,.688-.094V39a4.19,4.19,0,0,1-1.109.156,1.8,1.8,0,0,1-1.461-.586,2.517,2.517,0,0,1-.492-1.664V31.664H7.211V30.547H8.75V28.5Zm7.352,3.344a4.331,4.331,0,0,0-.711-.055A1.9,1.9,0,0,0,14.906,33v6H13.461V30.547h1.406l.023.977a2.251,2.251,0,0,1,2.016-1.133,1.477,1.477,0,0,1,.641.109ZM23.781,39a3.036,3.036,0,0,1-.2-.891,3.225,3.225,0,0,1-2.406,1.047,2.984,2.984,0,0,1-2.051-.707,2.287,2.287,0,0,1-.8-1.793,2.39,2.39,0,0,1,1-2.051,4.733,4.733,0,0,1,2.824-.73h1.406v-.664A1.623,1.623,0,0,0,23.1,32a1.821,1.821,0,0,0-1.336-.449,2.108,2.108,0,0,0-1.3.391,1.151,1.151,0,0,0-.523.945H18.492a2,2,0,0,1,.449-1.223,3.066,3.066,0,0,1,1.219-.934,4.1,4.1,0,0,1,1.691-.344,3.342,3.342,0,0,1,2.289.73A2.635,2.635,0,0,1,25,33.133v3.891a4.757,4.757,0,0,0,.3,1.852V39Zm-2.4-1.1a2.54,2.54,0,0,0,1.289-.352,2.127,2.127,0,0,0,.883-.914V34.9H22.422q-2.656,0-2.656,1.555a1.316,1.316,0,0,0,.453,1.063A1.742,1.742,0,0,0,21.383,37.9Zm7.25-7.352.047,1.063a3.08,3.08,0,0,1,2.531-1.219q2.68,0,2.7,3.023V39H32.469V33.406a1.946,1.946,0,0,0-.418-1.352,1.675,1.675,0,0,0-1.277-.437,2.086,2.086,0,0,0-1.234.375,2.546,2.546,0,0,0-.828.984V39H27.266V30.547Zm12.383,6.211a1.064,1.064,0,0,0-.441-.91,4.249,4.249,0,0,0-1.539-.559,7.277,7.277,0,0,1-1.742-.562,2.479,2.479,0,0,1-.953-.781,1.869,1.869,0,0,1-.309-1.078,2.193,2.193,0,0,1,.879-1.758,3.432,3.432,0,0,1,2.246-.719,3.532,3.532,0,0,1,2.332.742,2.357,2.357,0,0,1,.895,1.9H40.93a1.3,1.3,0,0,0-.5-1.023,1.888,1.888,0,0,0-1.27-.43,1.976,1.976,0,0,0-1.234.344,1.082,1.082,0,0,0-.445.9.877.877,0,0,0,.414.789,5.1,5.1,0,0,0,1.5.508,7.8,7.8,0,0,1,1.754.578,2.558,2.558,0,0,1,1,.809,1.988,1.988,0,0,1,.324,1.152,2.163,2.163,0,0,1-.906,1.816,3.8,3.8,0,0,1-2.352.684,4.257,4.257,0,0,1-1.8-.359,2.922,2.922,0,0,1-1.223-1,2.42,2.42,0,0,1-.441-1.395h1.445a1.5,1.5,0,0,0,.582,1.152,2.258,2.258,0,0,0,1.434.426,2.331,2.331,0,0,0,1.316-.332A1.02,1.02,0,0,0,41.016,36.758Zm10.469-1.891a5.062,5.062,0,0,1-.883,3.109,2.829,2.829,0,0,1-2.391,1.18,3.1,3.1,0,0,1-2.422-.977v4.07H44.344v-11.7h1.32l.07.938a2.977,2.977,0,0,1,2.453-1.094,2.882,2.882,0,0,1,2.41,1.148,5.117,5.117,0,0,1,.887,3.2ZM50.039,34.7a3.735,3.735,0,0,0-.609-2.258,1.963,1.963,0,0,0-1.672-.828,2.125,2.125,0,0,0-1.969,1.164V36.82a2.129,2.129,0,0,0,1.984,1.156,1.954,1.954,0,0,0,1.652-.824A4.077,4.077,0,0,0,50.039,34.7Zm2.9-.008a4.993,4.993,0,0,1,.488-2.234,3.643,3.643,0,0,1,1.359-1.531,3.7,3.7,0,0,1,1.988-.539,3.565,3.565,0,0,1,2.793,1.2,4.6,4.6,0,0,1,1.066,3.18v.1a5.036,5.036,0,0,1-.473,2.215,3.589,3.589,0,0,1-1.352,1.527,3.743,3.743,0,0,1-2.02.547A3.556,3.556,0,0,1,54,37.961,4.575,4.575,0,0,1,52.938,34.8Zm1.453.172a3.616,3.616,0,0,0,.652,2.258,2.211,2.211,0,0,0,3.5-.012,3.955,3.955,0,0,0,.648-2.418,3.61,3.61,0,0,0-.66-2.254,2.1,2.1,0,0,0-1.754-.863,2.075,2.075,0,0,0-1.727.852A3.925,3.925,0,0,0,54.391,34.867Zm12.141-3.023a4.331,4.331,0,0,0-.711-.055A1.9,1.9,0,0,0,63.891,33v6H62.445V30.547h1.406l.023.977a2.251,2.251,0,0,1,2.016-1.133,1.477,1.477,0,0,1,.641.109Zm3.68-3.344v2.047h1.578v1.117H70.211v5.242a1.171,1.171,0,0,0,.211.762.888.888,0,0,0,.719.254,3.5,3.5,0,0,0,.688-.094V39a4.19,4.19,0,0,1-1.109.156,1.8,1.8,0,0,1-1.461-.586,2.517,2.517,0,0,1-.492-1.664V31.664H67.227V30.547h1.539V28.5Zm6.773,10.656a3.693,3.693,0,0,1-2.8-1.129,4.19,4.19,0,0,1-1.078-3.02v-.266a5.073,5.073,0,0,1,.48-2.246,3.748,3.748,0,0,1,1.344-1.547,3.378,3.378,0,0,1,1.871-.559,3.166,3.166,0,0,1,2.563,1.086,4.7,4.7,0,0,1,.914,3.109v.6H74.555a3,3,0,0,0,.73,2.02,2.3,2.3,0,0,0,1.777.77,2.517,2.517,0,0,0,1.3-.312,3.259,3.259,0,0,0,.93-.828l.883.688A3.55,3.55,0,0,1,76.984,39.156Zm-.18-7.578a1.928,1.928,0,0,0-1.469.637A3.1,3.1,0,0,0,74.6,34h4.234v-.109a2.753,2.753,0,0,0-.594-1.707A1.815,1.815,0,0,0,76.8,31.578Z" transform="translate(852.5 1585)" fill="#12263f"/>
      <path id="Trazado_729085" data-name="Trazado 729085" d="M23.422,9.727l-1.664,1.492L21.1,15H19.633L21.609,3.625h1.469l-.969,5.539,5.8-5.539H29.8L24.508,8.719,28.047,15H26.414Zm12.656,2.3H31.469L29.914,15h-1.57l6.18-11.375h1.289L38.063,15H36.617ZM32.117,10.8h3.742l-.945-5.3ZM48.133,15H46.711L42.648,6.172,41.117,15H39.641L41.617,3.625h1.422l4.07,8.867,1.539-8.867h1.461Zm2.648,0L52.758,3.625l3.336.008a3.793,3.793,0,0,1,2.609.781,2.5,2.5,0,0,1,.758,2.18,2.957,2.957,0,0,1-2.055,2.461,2.117,2.117,0,0,1,1.145,1.016,2.839,2.839,0,0,1,.309,1.586A3.318,3.318,0,0,1,57.625,14.1a4.456,4.456,0,0,1-2.891.9Zm2.391-5.32-.711,4.094,2.32.008a2.776,2.776,0,0,0,1.781-.57,2.223,2.223,0,0,0,.836-1.539,1.827,1.827,0,0,0-.32-1.437,1.743,1.743,0,0,0-1.352-.547Zm.211-1.2,2.117.008a2.731,2.731,0,0,0,1.676-.508,1.989,1.989,0,0,0,.8-1.4,1.426,1.426,0,0,0-.324-1.25,2.078,2.078,0,0,0-1.41-.461l-2.234-.008Zm13.781,3.555H62.555L61,15H59.43l6.18-11.375H66.9L69.148,15H67.7ZM63.2,10.8h3.742L66,5.492ZM79.219,15H77.8L73.734,6.172,72.2,15H70.727L72.7,3.625h1.422l4.07,8.867,1.539-8.867H81.2Zm6.852-4.3a4.952,4.952,0,0,1,.922-3.129,3.137,3.137,0,0,1,4.766-.168V3H93.2V15H91.875l-.07-.906a2.943,2.943,0,0,1-2.414,1.063A2.887,2.887,0,0,1,87,13.953a5.008,5.008,0,0,1-.926-3.141Zm1.445.164a3.749,3.749,0,0,0,.594,2.25,1.92,1.92,0,0,0,1.641.813A2.108,2.108,0,0,0,91.758,12.7V8.813a2.125,2.125,0,0,0-1.992-1.2,1.929,1.929,0,0,0-1.656.82A4.128,4.128,0,0,0,87.516,10.867Zm11.438,4.289a3.693,3.693,0,0,1-2.8-1.129,4.19,4.19,0,0,1-1.078-3.02v-.266a5.073,5.073,0,0,1,.48-2.246A3.748,3.748,0,0,1,96.9,6.949a3.378,3.378,0,0,1,1.871-.559,3.166,3.166,0,0,1,2.563,1.086,4.7,4.7,0,0,1,.914,3.109v.6H96.523a3,3,0,0,0,.73,2.02,2.3,2.3,0,0,0,1.777.77,2.517,2.517,0,0,0,1.3-.312,3.259,3.259,0,0,0,.93-.828l.883.688A3.55,3.55,0,0,1,98.953,15.156Zm-.18-7.578a1.928,1.928,0,0,0-1.469.637A3.1,3.1,0,0,0,96.57,10H100.8V9.891a2.753,2.753,0,0,0-.594-1.707A1.815,1.815,0,0,0,98.773,7.578ZM21.43,28.5v2.047h1.578v1.117H21.43v5.242a1.171,1.171,0,0,0,.211.762.888.888,0,0,0,.719.254,3.5,3.5,0,0,0,.688-.094V39a4.19,4.19,0,0,1-1.109.156,1.8,1.8,0,0,1-1.461-.586,2.517,2.517,0,0,1-.492-1.664V31.664H18.445V30.547h1.539V28.5Zm7.352,3.344a4.331,4.331,0,0,0-.711-.055A1.9,1.9,0,0,0,26.141,33v6H24.7V30.547H26.1l.023.977a2.251,2.251,0,0,1,2.016-1.133,1.477,1.477,0,0,1,.641.109ZM35.016,39a3.036,3.036,0,0,1-.2-.891,3.225,3.225,0,0,1-2.406,1.047,2.984,2.984,0,0,1-2.051-.707,2.287,2.287,0,0,1-.8-1.793,2.39,2.39,0,0,1,1-2.051,4.733,4.733,0,0,1,2.824-.73h1.406v-.664A1.623,1.623,0,0,0,34.336,32,1.821,1.821,0,0,0,33,31.555a2.107,2.107,0,0,0-1.3.391,1.151,1.151,0,0,0-.523.945H29.727a2,2,0,0,1,.449-1.223,3.066,3.066,0,0,1,1.219-.934,4.1,4.1,0,0,1,1.691-.344,3.342,3.342,0,0,1,2.289.73,2.635,2.635,0,0,1,.859,2.012v3.891a4.757,4.757,0,0,0,.3,1.852V39Zm-2.4-1.1a2.54,2.54,0,0,0,1.289-.352,2.127,2.127,0,0,0,.883-.914V34.9H33.656Q31,34.9,31,36.453a1.316,1.316,0,0,0,.453,1.063A1.742,1.742,0,0,0,32.617,37.9Zm7.25-7.352.047,1.063a3.08,3.08,0,0,1,2.531-1.219q2.68,0,2.7,3.023V39H43.7V33.406a1.946,1.946,0,0,0-.418-1.352,1.675,1.675,0,0,0-1.277-.437,2.086,2.086,0,0,0-1.234.375,2.546,2.546,0,0,0-.828.984V39H38.5V30.547ZM52.25,36.758a1.064,1.064,0,0,0-.441-.91,4.249,4.249,0,0,0-1.539-.559,7.277,7.277,0,0,1-1.742-.562,2.479,2.479,0,0,1-.953-.781,1.869,1.869,0,0,1-.309-1.078,2.193,2.193,0,0,1,.879-1.758,3.432,3.432,0,0,1,2.246-.719,3.532,3.532,0,0,1,2.332.742,2.357,2.357,0,0,1,.895,1.9H52.164a1.3,1.3,0,0,0-.5-1.023,1.888,1.888,0,0,0-1.27-.43,1.976,1.976,0,0,0-1.234.344,1.082,1.082,0,0,0-.445.9.877.877,0,0,0,.414.789,5.1,5.1,0,0,0,1.5.508,7.8,7.8,0,0,1,1.754.578,2.558,2.558,0,0,1,1,.809,1.988,1.988,0,0,1,.324,1.152,2.163,2.163,0,0,1-.906,1.816,3.8,3.8,0,0,1-2.352.684,4.257,4.257,0,0,1-1.8-.359,2.922,2.922,0,0,1-1.223-1,2.42,2.42,0,0,1-.441-1.395h1.445A1.5,1.5,0,0,0,49,37.551a2.258,2.258,0,0,0,1.434.426,2.331,2.331,0,0,0,1.316-.332A1.02,1.02,0,0,0,52.25,36.758Zm10.469-1.891a5.062,5.062,0,0,1-.883,3.109,2.829,2.829,0,0,1-2.391,1.18,3.1,3.1,0,0,1-2.422-.977v4.07H55.578v-11.7H56.9l.07.938a2.977,2.977,0,0,1,2.453-1.094,2.882,2.882,0,0,1,2.41,1.148,5.117,5.117,0,0,1,.887,3.2ZM61.273,34.7a3.735,3.735,0,0,0-.609-2.258,1.963,1.963,0,0,0-1.672-.828,2.125,2.125,0,0,0-1.969,1.164V36.82a2.129,2.129,0,0,0,1.984,1.156,1.954,1.954,0,0,0,1.652-.824A4.077,4.077,0,0,0,61.273,34.7Zm2.9-.008a4.993,4.993,0,0,1,.488-2.234A3.643,3.643,0,0,1,66.02,30.93a3.7,3.7,0,0,1,1.988-.539,3.565,3.565,0,0,1,2.793,1.2,4.6,4.6,0,0,1,1.066,3.18v.1a5.036,5.036,0,0,1-.473,2.215,3.589,3.589,0,0,1-1.352,1.527,3.743,3.743,0,0,1-2.02.547,3.556,3.556,0,0,1-2.785-1.2A4.575,4.575,0,0,1,64.172,34.8Zm1.453.172a3.616,3.616,0,0,0,.652,2.258,2.211,2.211,0,0,0,3.5-.012,3.955,3.955,0,0,0,.648-2.418,3.61,3.61,0,0,0-.66-2.254,2.1,2.1,0,0,0-1.754-.863,2.075,2.075,0,0,0-1.727.852A3.925,3.925,0,0,0,65.625,34.867Zm12.141-3.023a4.331,4.331,0,0,0-.711-.055A1.9,1.9,0,0,0,75.125,33v6H73.68V30.547h1.406l.023.977a2.251,2.251,0,0,1,2.016-1.133,1.477,1.477,0,0,1,.641.109Zm3.68-3.344v2.047h1.578v1.117H81.445v5.242a1.171,1.171,0,0,0,.211.762.888.888,0,0,0,.719.254,3.5,3.5,0,0,0,.688-.094V39a4.19,4.19,0,0,1-1.109.156,1.8,1.8,0,0,1-1.461-.586A2.517,2.517,0,0,1,80,36.906V31.664H78.461V30.547H80V28.5Zm6.773,10.656a3.693,3.693,0,0,1-2.8-1.129,4.19,4.19,0,0,1-1.078-3.02v-.266a5.073,5.073,0,0,1,.48-2.246,3.748,3.748,0,0,1,1.344-1.547,3.378,3.378,0,0,1,1.871-.559A3.166,3.166,0,0,1,90.6,31.477a4.7,4.7,0,0,1,.914,3.109v.6H85.789a3,3,0,0,0,.73,2.02,2.3,2.3,0,0,0,1.777.77,2.517,2.517,0,0,0,1.3-.312,3.259,3.259,0,0,0,.93-.828l.883.688A3.55,3.55,0,0,1,88.219,39.156Zm-.18-7.578a1.928,1.928,0,0,0-1.469.637A3.1,3.1,0,0,0,85.836,34H90.07v-.109a2.753,2.753,0,0,0-.594-1.707A1.815,1.815,0,0,0,88.039,31.578Zm11.875,5.3,1.969-6.336h1.547l-3.4,9.758q-.789,2.109-2.508,2.109l-.273-.023-.539-.1V41.117l.391.031a1.923,1.923,0,0,0,1.145-.3,2.149,2.149,0,0,0,.676-1.086l.32-.859-3.016-8.359H97.8ZM9.344,62.164a3.07,3.07,0,0,1-2.477.992,2.628,2.628,0,0,1-2.059-.785,3.4,3.4,0,0,1-.715-2.324v-5.5H5.539v5.461q0,1.922,1.563,1.922A2.163,2.163,0,0,0,9.3,60.7V54.547H10.75V63H9.375Zm4.969-7.617.047,1.063a3.08,3.08,0,0,1,2.531-1.219q2.68,0,2.7,3.023V63H18.148V57.406a1.946,1.946,0,0,0-.418-1.352,1.675,1.675,0,0,0-1.277-.437,2.086,2.086,0,0,0-1.234.375,2.546,2.546,0,0,0-.828.984V63H12.945V54.547ZM23.344,63H21.9V54.547h1.445ZM21.781,52.3A.863.863,0,0,1,22,51.711a.807.807,0,0,1,.637-.242.819.819,0,0,1,.641.242.854.854,0,0,1,.219.594.826.826,0,0,1-.219.586.834.834,0,0,1-.641.234A.821.821,0,0,1,22,52.891.834.834,0,0,1,21.781,52.3ZM25.3,58.7a4.952,4.952,0,0,1,.922-3.129,3.137,3.137,0,0,1,4.766-.168V51h1.445V63H31.109l-.07-.906a2.943,2.943,0,0,1-2.414,1.063,2.887,2.887,0,0,1-2.395-1.2,5.008,5.008,0,0,1-.926-3.141Zm1.445.164a3.749,3.749,0,0,0,.594,2.25,1.92,1.92,0,0,0,1.641.813A2.108,2.108,0,0,0,30.992,60.7V56.813A2.125,2.125,0,0,0,29,55.617a1.929,1.929,0,0,0-1.656.82A4.128,4.128,0,0,0,26.75,58.867ZM39.9,63a3.036,3.036,0,0,1-.2-.891,3.225,3.225,0,0,1-2.406,1.047,2.984,2.984,0,0,1-2.051-.707,2.287,2.287,0,0,1-.8-1.793,2.39,2.39,0,0,1,1-2.051,4.733,4.733,0,0,1,2.824-.73h1.406v-.664A1.623,1.623,0,0,0,39.219,56a1.821,1.821,0,0,0-1.336-.449,2.107,2.107,0,0,0-1.3.391,1.151,1.151,0,0,0-.523.945H34.609a2,2,0,0,1,.449-1.223,3.066,3.066,0,0,1,1.219-.934,4.1,4.1,0,0,1,1.691-.344,3.342,3.342,0,0,1,2.289.73,2.635,2.635,0,0,1,.859,2.012v3.891a4.757,4.757,0,0,0,.3,1.852V63Zm-2.4-1.1a2.54,2.54,0,0,0,1.289-.352,2.127,2.127,0,0,0,.883-.914V58.9H38.539q-2.656,0-2.656,1.555a1.316,1.316,0,0,0,.453,1.063A1.742,1.742,0,0,0,37.5,61.9Zm5.531-3.2a4.952,4.952,0,0,1,.922-3.129,3.137,3.137,0,0,1,4.766-.168V51h1.445V63H48.836l-.07-.906a2.943,2.943,0,0,1-2.414,1.063,2.887,2.887,0,0,1-2.395-1.2,5.008,5.008,0,0,1-.926-3.141Zm1.445.164a3.749,3.749,0,0,0,.594,2.25,1.919,1.919,0,0,0,1.641.813A2.108,2.108,0,0,0,48.719,60.7V56.813a2.125,2.125,0,0,0-1.992-1.2,1.929,1.929,0,0,0-1.656.82A4.128,4.128,0,0,0,44.477,58.867Zm11.438,4.289a3.693,3.693,0,0,1-2.8-1.129,4.19,4.19,0,0,1-1.078-3.02v-.266a5.073,5.073,0,0,1,.48-2.246,3.748,3.748,0,0,1,1.344-1.547,3.378,3.378,0,0,1,1.871-.559A3.166,3.166,0,0,1,58.3,55.477a4.7,4.7,0,0,1,.914,3.109v.6H53.484a3,3,0,0,0,.73,2.02,2.3,2.3,0,0,0,1.777.77,2.517,2.517,0,0,0,1.3-.312,3.258,3.258,0,0,0,.93-.828l.883.688A3.55,3.55,0,0,1,55.914,63.156Zm-.18-7.578a1.928,1.928,0,0,0-1.469.637A3.1,3.1,0,0,0,53.531,58h4.234v-.109a2.753,2.753,0,0,0-.594-1.707A1.815,1.815,0,0,0,55.734,55.578Zm10.07,5.18a1.064,1.064,0,0,0-.441-.91,4.249,4.249,0,0,0-1.539-.559,7.277,7.277,0,0,1-1.742-.562,2.479,2.479,0,0,1-.953-.781,1.869,1.869,0,0,1-.309-1.078,2.193,2.193,0,0,1,.879-1.758,3.432,3.432,0,0,1,2.246-.719,3.532,3.532,0,0,1,2.332.742,2.357,2.357,0,0,1,.895,1.9H65.719a1.3,1.3,0,0,0-.5-1.023,1.888,1.888,0,0,0-1.27-.43,1.976,1.976,0,0,0-1.234.344,1.082,1.082,0,0,0-.445.9.877.877,0,0,0,.414.789,5.1,5.1,0,0,0,1.5.508,7.8,7.8,0,0,1,1.754.578,2.558,2.558,0,0,1,1,.809,1.988,1.988,0,0,1,.324,1.152,2.163,2.163,0,0,1-.906,1.816,3.8,3.8,0,0,1-2.352.684,4.257,4.257,0,0,1-1.8-.359,2.922,2.922,0,0,1-1.223-1,2.42,2.42,0,0,1-.441-1.395h1.445a1.5,1.5,0,0,0,.582,1.152,2.258,2.258,0,0,0,1.434.426,2.331,2.331,0,0,0,1.316-.332A1.02,1.02,0,0,0,65.8,60.758ZM73.8,63V55.664H72.469V54.547H73.8V53.68a2.878,2.878,0,0,1,.727-2.1,2.745,2.745,0,0,1,2.055-.742,3.793,3.793,0,0,1,.992.133L77.5,52.141a4.151,4.151,0,0,0-.781-.07,1.413,1.413,0,0,0-1.086.41,1.66,1.66,0,0,0-.383,1.176v.891h1.8v1.117h-1.8V63Zm6.414,0H78.766V54.547h1.453Zm.016-11.992h1.75l-2.094,2.3H78.727Zm7.289,9.75a1.064,1.064,0,0,0-.441-.91,4.249,4.249,0,0,0-1.539-.559,7.277,7.277,0,0,1-1.742-.562,2.479,2.479,0,0,1-.953-.781,1.869,1.869,0,0,1-.309-1.078,2.193,2.193,0,0,1,.879-1.758,3.432,3.432,0,0,1,2.246-.719A3.532,3.532,0,0,1,88,55.133a2.357,2.357,0,0,1,.895,1.9H87.438a1.3,1.3,0,0,0-.5-1.023,1.888,1.888,0,0,0-1.27-.43,1.976,1.976,0,0,0-1.234.344,1.082,1.082,0,0,0-.445.9.877.877,0,0,0,.414.789,5.1,5.1,0,0,0,1.5.508,7.8,7.8,0,0,1,1.754.578,2.558,2.558,0,0,1,1,.809,1.988,1.988,0,0,1,.324,1.152,2.163,2.163,0,0,1-.906,1.816,3.8,3.8,0,0,1-2.352.684,4.257,4.257,0,0,1-1.8-.359,2.922,2.922,0,0,1-1.223-1A2.42,2.42,0,0,1,82.25,60.4H83.7a1.5,1.5,0,0,0,.582,1.152,2.258,2.258,0,0,0,1.434.426,2.331,2.331,0,0,0,1.316-.332A1.02,1.02,0,0,0,87.523,60.758ZM92.422,63H90.977V54.547h1.445ZM90.859,52.3a.863.863,0,0,1,.215-.594.807.807,0,0,1,.637-.242.819.819,0,0,1,.641.242.854.854,0,0,1,.219.594.826.826,0,0,1-.219.586.834.834,0,0,1-.641.234.821.821,0,0,1-.637-.234A.834.834,0,0,1,90.859,52.3Zm7.266,9.672a2.082,2.082,0,0,0,1.352-.469,1.649,1.649,0,0,0,.641-1.172h1.367a2.621,2.621,0,0,1-.5,1.383,3.293,3.293,0,0,1-1.23,1.047,3.55,3.55,0,0,1-1.629.391A3.482,3.482,0,0,1,95.379,62a4.59,4.59,0,0,1-1.02-3.152v-.242a5.089,5.089,0,0,1,.453-2.2,3.451,3.451,0,0,1,1.3-1.492,3.7,3.7,0,0,1,2-.531,3.39,3.39,0,0,1,2.363.852,3.043,3.043,0,0,1,1,2.211h-1.367a1.992,1.992,0,0,0-.621-1.348,1.932,1.932,0,0,0-1.379-.527,2.023,2.023,0,0,0-1.707.793,3.724,3.724,0,0,0-.605,2.293v.273a3.65,3.65,0,0,0,.6,2.25A2.033,2.033,0,0,0,98.125,61.977ZM108.328,63a3.036,3.036,0,0,1-.2-.891,3.225,3.225,0,0,1-2.406,1.047,2.984,2.984,0,0,1-2.051-.707,2.288,2.288,0,0,1-.8-1.793,2.39,2.39,0,0,1,1-2.051,4.733,4.733,0,0,1,2.824-.73H108.1v-.664A1.623,1.623,0,0,0,107.648,56a1.821,1.821,0,0,0-1.336-.449,2.107,2.107,0,0,0-1.3.391,1.151,1.151,0,0,0-.523.945h-1.453a2,2,0,0,1,.449-1.223,3.066,3.066,0,0,1,1.219-.934,4.1,4.1,0,0,1,1.691-.344,3.342,3.342,0,0,1,2.289.73,2.635,2.635,0,0,1,.859,2.012v3.891a4.757,4.757,0,0,0,.3,1.852V63Zm-2.4-1.1a2.54,2.54,0,0,0,1.289-.352,2.127,2.127,0,0,0,.883-.914V58.9h-1.133q-2.656,0-2.656,1.555a1.316,1.316,0,0,0,.453,1.063A1.742,1.742,0,0,0,105.93,61.9Zm10.8-1.141a1.064,1.064,0,0,0-.441-.91,4.249,4.249,0,0,0-1.539-.559,7.277,7.277,0,0,1-1.742-.562,2.479,2.479,0,0,1-.953-.781,1.869,1.869,0,0,1-.309-1.078,2.193,2.193,0,0,1,.879-1.758,3.432,3.432,0,0,1,2.246-.719,3.532,3.532,0,0,1,2.332.742,2.357,2.357,0,0,1,.895,1.9h-1.453a1.3,1.3,0,0,0-.5-1.023,1.888,1.888,0,0,0-1.27-.43,1.976,1.976,0,0,0-1.234.344,1.082,1.082,0,0,0-.445.9.877.877,0,0,0,.414.789,5.1,5.1,0,0,0,1.5.508,7.8,7.8,0,0,1,1.754.578,2.558,2.558,0,0,1,1,.809,1.988,1.988,0,0,1,.324,1.152,2.163,2.163,0,0,1-.906,1.816,3.8,3.8,0,0,1-2.352.684,4.257,4.257,0,0,1-1.8-.359,2.922,2.922,0,0,1-1.223-1,2.42,2.42,0,0,1-.441-1.395h1.445a1.5,1.5,0,0,0,.582,1.152,2.258,2.258,0,0,0,1.434.426,2.331,2.331,0,0,0,1.316-.332A1.02,1.02,0,0,0,116.734,60.758Z" transform="translate(1105.5 1403)" fill="#12263f"/>
      <path id="Trazado_729093" data-name="Trazado 729093" d="M1.32,15V3.625H5.039a4.317,4.317,0,0,1,2.785.766,2.759,2.759,0,0,1,.934,2.266A2.31,2.31,0,0,1,8.3,8.066a2.937,2.937,0,0,1-1.234.949A2.638,2.638,0,0,1,8.527,10a2.814,2.814,0,0,1,.535,1.723,3.042,3.042,0,0,1-.992,2.406,4.1,4.1,0,0,1-2.8.875Zm1.5-5.32v4.094H5.3a2.385,2.385,0,0,0,1.652-.543,1.907,1.907,0,0,0,.605-1.5q0-2.055-2.234-2.055Zm0-1.2H5.086A2.378,2.378,0,0,0,6.66,7.984a1.649,1.649,0,0,0,.59-1.336A1.621,1.621,0,0,0,6.7,5.285a2.69,2.69,0,0,0-1.664-.426H2.82Zm13.453,5.688a3.07,3.07,0,0,1-2.477.992,2.628,2.628,0,0,1-2.059-.785,3.4,3.4,0,0,1-.715-2.324v-5.5h1.445v5.461q0,1.922,1.563,1.922a2.163,2.163,0,0,0,2.2-1.234V6.547H17.68V15H16.3Zm4.961-.344H26.18V15H19.469V13.938l4.664-6.2H19.539v-1.2h6.406V7.57ZM27.3,10.7a4.993,4.993,0,0,1,.488-2.234A3.643,3.643,0,0,1,29.145,6.93a3.7,3.7,0,0,1,1.988-.539,3.565,3.565,0,0,1,2.793,1.2,4.6,4.6,0,0,1,1.066,3.18v.1a5.036,5.036,0,0,1-.473,2.215,3.589,3.589,0,0,1-1.352,1.527,3.743,3.743,0,0,1-2.02.547,3.556,3.556,0,0,1-2.785-1.2A4.575,4.575,0,0,1,27.3,10.8Zm1.453.172a3.616,3.616,0,0,0,.652,2.258,2.211,2.211,0,0,0,3.5-.012,3.955,3.955,0,0,0,.648-2.418,3.61,3.61,0,0,0-.66-2.254,2.1,2.1,0,0,0-1.754-.863,2.075,2.075,0,0,0-1.727.852A3.925,3.925,0,0,0,28.75,10.867ZM31.789,3h1.75L31.445,5.3H30.281Zm6.383,3.547.047,1.063A3.08,3.08,0,0,1,40.75,6.391q2.68,0,2.7,3.023V15H42.008V9.406a1.946,1.946,0,0,0-.418-1.352,1.675,1.675,0,0,0-1.277-.437,2.086,2.086,0,0,0-1.234.375,2.546,2.546,0,0,0-.828.984V15H36.8V6.547ZM49.242,10.7a4.952,4.952,0,0,1,.922-3.129,3.137,3.137,0,0,1,4.766-.168V3h1.445V15H55.047l-.07-.906a2.943,2.943,0,0,1-2.414,1.063,2.887,2.887,0,0,1-2.395-1.2,5.008,5.008,0,0,1-.926-3.141Zm1.445.164a3.749,3.749,0,0,0,.594,2.25,1.92,1.92,0,0,0,1.641.813A2.108,2.108,0,0,0,54.93,12.7V8.813a2.125,2.125,0,0,0-1.992-1.2,1.929,1.929,0,0,0-1.656.82A4.128,4.128,0,0,0,50.688,10.867Zm11.438,4.289a3.693,3.693,0,0,1-2.8-1.129,4.19,4.19,0,0,1-1.078-3.02v-.266A5.073,5.073,0,0,1,58.73,8.5a3.748,3.748,0,0,1,1.344-1.547,3.378,3.378,0,0,1,1.871-.559,3.166,3.166,0,0,1,2.563,1.086,4.7,4.7,0,0,1,.914,3.109v.6H59.7a3,3,0,0,0,.73,2.02,2.3,2.3,0,0,0,1.777.77,2.517,2.517,0,0,0,1.3-.312,3.259,3.259,0,0,0,.93-.828l.883.688A3.55,3.55,0,0,1,62.125,15.156Zm-.18-7.578a1.928,1.928,0,0,0-1.469.637A3.1,3.1,0,0,0,59.742,10h4.234V9.891a2.753,2.753,0,0,0-.594-1.707A1.815,1.815,0,0,0,61.945,7.578ZM3.055,28.5v2.047H4.633v1.117H3.055v5.242a1.171,1.171,0,0,0,.211.762.888.888,0,0,0,.719.254,3.5,3.5,0,0,0,.688-.094V39a4.19,4.19,0,0,1-1.109.156A1.8,1.8,0,0,1,2.1,38.57a2.517,2.517,0,0,1-.492-1.664V31.664H.07V30.547H1.609V28.5Zm7.352,3.344a4.331,4.331,0,0,0-.711-.055A1.9,1.9,0,0,0,7.766,33v6H6.32V30.547H7.727l.023.977a2.251,2.251,0,0,1,2.016-1.133,1.477,1.477,0,0,1,.641.109ZM16.641,39a3.036,3.036,0,0,1-.2-.891,3.225,3.225,0,0,1-2.406,1.047,2.984,2.984,0,0,1-2.051-.707,2.287,2.287,0,0,1-.8-1.793,2.39,2.39,0,0,1,1-2.051,4.733,4.733,0,0,1,2.824-.73h1.406v-.664A1.623,1.623,0,0,0,15.961,32a1.821,1.821,0,0,0-1.336-.449,2.108,2.108,0,0,0-1.3.391,1.151,1.151,0,0,0-.523.945H11.352a2,2,0,0,1,.449-1.223,3.066,3.066,0,0,1,1.219-.934,4.1,4.1,0,0,1,1.691-.344,3.342,3.342,0,0,1,2.289.73,2.635,2.635,0,0,1,.859,2.012v3.891a4.757,4.757,0,0,0,.3,1.852V39Zm-2.4-1.1a2.54,2.54,0,0,0,1.289-.352,2.127,2.127,0,0,0,.883-.914V34.9H15.281q-2.656,0-2.656,1.555a1.316,1.316,0,0,0,.453,1.063A1.742,1.742,0,0,0,14.242,37.9Zm7.25-7.352.047,1.063a3.08,3.08,0,0,1,2.531-1.219q2.68,0,2.7,3.023V39H25.328V33.406a1.946,1.946,0,0,0-.418-1.352,1.675,1.675,0,0,0-1.277-.437,2.086,2.086,0,0,0-1.234.375,2.546,2.546,0,0,0-.828.984V39H20.125V30.547Zm12.383,6.211a1.064,1.064,0,0,0-.441-.91,4.249,4.249,0,0,0-1.539-.559,7.277,7.277,0,0,1-1.742-.562,2.479,2.479,0,0,1-.953-.781,1.869,1.869,0,0,1-.309-1.078,2.193,2.193,0,0,1,.879-1.758,3.432,3.432,0,0,1,2.246-.719,3.532,3.532,0,0,1,2.332.742,2.357,2.357,0,0,1,.895,1.9H33.789a1.3,1.3,0,0,0-.5-1.023,1.888,1.888,0,0,0-1.27-.43,1.976,1.976,0,0,0-1.234.344,1.082,1.082,0,0,0-.445.9.877.877,0,0,0,.414.789,5.1,5.1,0,0,0,1.5.508A7.8,7.8,0,0,1,34,34.7a2.558,2.558,0,0,1,1,.809,1.988,1.988,0,0,1,.324,1.152,2.163,2.163,0,0,1-.906,1.816,3.8,3.8,0,0,1-2.352.684,4.257,4.257,0,0,1-1.8-.359,2.922,2.922,0,0,1-1.223-1A2.42,2.42,0,0,1,28.6,36.4h1.445a1.5,1.5,0,0,0,.582,1.152,2.258,2.258,0,0,0,1.434.426,2.331,2.331,0,0,0,1.316-.332A1.02,1.02,0,0,0,33.875,36.758Zm10.469-1.891a5.062,5.062,0,0,1-.883,3.109,2.829,2.829,0,0,1-2.391,1.18,3.1,3.1,0,0,1-2.422-.977v4.07H37.2v-11.7h1.32l.07.938a2.977,2.977,0,0,1,2.453-1.094,2.882,2.882,0,0,1,2.41,1.148,5.117,5.117,0,0,1,.887,3.2ZM42.9,34.7a3.735,3.735,0,0,0-.609-2.258,1.963,1.963,0,0,0-1.672-.828,2.125,2.125,0,0,0-1.969,1.164V36.82a2.129,2.129,0,0,0,1.984,1.156,1.954,1.954,0,0,0,1.652-.824A4.077,4.077,0,0,0,42.9,34.7Zm2.9-.008a4.993,4.993,0,0,1,.488-2.234,3.643,3.643,0,0,1,1.359-1.531,3.7,3.7,0,0,1,1.988-.539,3.565,3.565,0,0,1,2.793,1.2,4.6,4.6,0,0,1,1.066,3.18v.1a5.036,5.036,0,0,1-.473,2.215,3.589,3.589,0,0,1-1.352,1.527,3.743,3.743,0,0,1-2.02.547,3.556,3.556,0,0,1-2.785-1.2A4.575,4.575,0,0,1,45.8,34.8Zm1.453.172a3.616,3.616,0,0,0,.652,2.258,2.211,2.211,0,0,0,3.5-.012,3.955,3.955,0,0,0,.648-2.418,3.61,3.61,0,0,0-.66-2.254,2.1,2.1,0,0,0-1.754-.863,2.075,2.075,0,0,0-1.727.852A3.925,3.925,0,0,0,47.25,34.867Zm12.141-3.023a4.331,4.331,0,0,0-.711-.055A1.9,1.9,0,0,0,56.75,33v6H55.3V30.547h1.406l.023.977a2.251,2.251,0,0,1,2.016-1.133,1.477,1.477,0,0,1,.641.109ZM63.07,28.5v2.047h1.578v1.117H63.07v5.242a1.171,1.171,0,0,0,.211.762.888.888,0,0,0,.719.254,3.5,3.5,0,0,0,.688-.094V39a4.19,4.19,0,0,1-1.109.156,1.8,1.8,0,0,1-1.461-.586,2.517,2.517,0,0,1-.492-1.664V31.664H60.086V30.547h1.539V28.5Zm6.773,10.656a3.693,3.693,0,0,1-2.8-1.129,4.19,4.19,0,0,1-1.078-3.02v-.266a5.073,5.073,0,0,1,.48-2.246,3.748,3.748,0,0,1,1.344-1.547,3.378,3.378,0,0,1,1.871-.559,3.166,3.166,0,0,1,2.563,1.086,4.7,4.7,0,0,1,.914,3.109v.6H67.414a3,3,0,0,0,.73,2.02,2.3,2.3,0,0,0,1.777.77,2.517,2.517,0,0,0,1.3-.312,3.259,3.259,0,0,0,.93-.828l.883.688A3.55,3.55,0,0,1,69.844,39.156Zm-.18-7.578a1.928,1.928,0,0,0-1.469.637A3.1,3.1,0,0,0,67.461,34H71.7v-.109a2.753,2.753,0,0,0-.594-1.707A1.815,1.815,0,0,0,69.664,31.578ZM4.25,57.727,2.586,59.219,1.93,63H.461L2.438,51.625H3.906l-.969,5.539,5.8-5.539h1.891L5.336,56.719,8.875,63H7.242Zm12.656,2.3H12.3L10.742,63H9.172l6.18-11.375h1.289L18.891,63H17.445ZM12.945,58.8h3.742l-.945-5.3ZM28.961,63H27.539l-4.062-8.828L21.945,63H20.469l1.977-11.375h1.422l4.07,8.867,1.539-8.867h1.461Zm2.648,0,1.977-11.375,3.336.008a3.793,3.793,0,0,1,2.609.781,2.5,2.5,0,0,1,.758,2.18,2.957,2.957,0,0,1-2.055,2.461,2.117,2.117,0,0,1,1.145,1.016,2.839,2.839,0,0,1,.309,1.586A3.318,3.318,0,0,1,38.453,62.1a4.456,4.456,0,0,1-2.891.9ZM34,57.68l-.711,4.094,2.32.008a2.776,2.776,0,0,0,1.781-.57,2.223,2.223,0,0,0,.836-1.539,1.827,1.827,0,0,0-.32-1.437,1.743,1.743,0,0,0-1.352-.547Zm.211-1.2,2.117.008A2.731,2.731,0,0,0,38,55.977a1.989,1.989,0,0,0,.8-1.4,1.426,1.426,0,0,0-.324-1.25,2.078,2.078,0,0,0-1.41-.461l-2.234-.008Zm13.781,3.555H43.383L41.828,63h-1.57l6.18-11.375h1.289L49.977,63H48.531ZM44.031,58.8h3.742l-.945-5.3ZM60.047,63H58.625l-4.062-8.828L53.031,63H51.555l1.977-11.375h1.422l4.07,8.867,1.539-8.867h1.461Z" transform="translate(948.5 1765.352)" fill="#12263f"/>
      <path id="Trazado_729099" data-name="Trazado 729099" d="M2.82,10.547V15H1.32V3.625h4.2a4.215,4.215,0,0,1,2.926.953A3.231,3.231,0,0,1,9.5,7.1,3.189,3.189,0,0,1,8.465,9.652a4.4,4.4,0,0,1-2.965.895Zm0-1.227h2.7a2.7,2.7,0,0,0,1.844-.566A2.069,2.069,0,0,0,8,7.117a2.138,2.138,0,0,0-.641-1.625A2.528,2.528,0,0,0,5.6,4.859H2.82ZM15.273,7.844a4.331,4.331,0,0,0-.711-.055A1.9,1.9,0,0,0,12.633,9v6H11.188V6.547h1.406l.023.977a2.251,2.251,0,0,1,2.016-1.133,1.477,1.477,0,0,1,.641.109Zm.789,2.852a4.993,4.993,0,0,1,.488-2.234A3.643,3.643,0,0,1,17.91,6.93,3.7,3.7,0,0,1,19.9,6.391a3.565,3.565,0,0,1,2.793,1.2,4.6,4.6,0,0,1,1.066,3.18v.1a5.036,5.036,0,0,1-.473,2.215,3.589,3.589,0,0,1-1.352,1.527,3.743,3.743,0,0,1-2.02.547,3.556,3.556,0,0,1-2.785-1.2A4.575,4.575,0,0,1,16.063,10.8Zm1.453.172a3.616,3.616,0,0,0,.652,2.258,2.211,2.211,0,0,0,3.5-.012,3.955,3.955,0,0,0,.648-2.418,3.61,3.61,0,0,0-.66-2.254A2.1,2.1,0,0,0,19.9,7.578a2.075,2.075,0,0,0-1.727.852A3.925,3.925,0,0,0,17.516,10.867Zm11.445,3.109a2.082,2.082,0,0,0,1.352-.469,1.649,1.649,0,0,0,.641-1.172H32.32a2.621,2.621,0,0,1-.5,1.383,3.293,3.293,0,0,1-1.23,1.047,3.55,3.55,0,0,1-1.629.391A3.482,3.482,0,0,1,26.215,14a4.59,4.59,0,0,1-1.02-3.152v-.242a5.089,5.089,0,0,1,.453-2.2,3.451,3.451,0,0,1,1.3-1.492,3.7,3.7,0,0,1,2-.531,3.39,3.39,0,0,1,2.363.852,3.043,3.043,0,0,1,1,2.211H30.953a1.992,1.992,0,0,0-.621-1.348,1.932,1.932,0,0,0-1.379-.527,2.023,2.023,0,0,0-1.707.793,3.724,3.724,0,0,0-.605,2.293v.273a3.65,3.65,0,0,0,.6,2.25A2.033,2.033,0,0,0,28.961,13.977Zm8.492,1.18a3.693,3.693,0,0,1-2.8-1.129,4.19,4.19,0,0,1-1.078-3.02v-.266a5.073,5.073,0,0,1,.48-2.246A3.748,3.748,0,0,1,35.4,6.949a3.378,3.378,0,0,1,1.871-.559,3.166,3.166,0,0,1,2.563,1.086,4.7,4.7,0,0,1,.914,3.109v.6H35.023a3,3,0,0,0,.73,2.02,2.3,2.3,0,0,0,1.777.77,2.517,2.517,0,0,0,1.3-.312,3.259,3.259,0,0,0,.93-.828l.883.688A3.55,3.55,0,0,1,37.453,15.156Zm-.18-7.578a1.928,1.928,0,0,0-1.469.637A3.1,3.1,0,0,0,35.07,10H39.3V9.891a2.753,2.753,0,0,0-.594-1.707A1.815,1.815,0,0,0,37.273,7.578Zm10.07,5.18a1.064,1.064,0,0,0-.441-.91,4.249,4.249,0,0,0-1.539-.559,7.277,7.277,0,0,1-1.742-.562,2.479,2.479,0,0,1-.953-.781,1.869,1.869,0,0,1-.309-1.078,2.193,2.193,0,0,1,.879-1.758,3.432,3.432,0,0,1,2.246-.719,3.532,3.532,0,0,1,2.332.742,2.357,2.357,0,0,1,.895,1.9H47.258a1.3,1.3,0,0,0-.5-1.023,1.888,1.888,0,0,0-1.27-.43,1.976,1.976,0,0,0-1.234.344,1.082,1.082,0,0,0-.445.9.877.877,0,0,0,.414.789,5.1,5.1,0,0,0,1.5.508,7.8,7.8,0,0,1,1.754.578,2.558,2.558,0,0,1,1,.809,1.988,1.988,0,0,1,.324,1.152,2.163,2.163,0,0,1-.906,1.816,3.8,3.8,0,0,1-2.352.684,4.257,4.257,0,0,1-1.8-.359,2.922,2.922,0,0,1-1.223-1A2.42,2.42,0,0,1,42.07,12.4h1.445a1.5,1.5,0,0,0,.582,1.152,2.258,2.258,0,0,0,1.434.426,2.331,2.331,0,0,0,1.316-.332A1.02,1.02,0,0,0,47.344,12.758ZM50.289,10.7a4.993,4.993,0,0,1,.488-2.234A3.643,3.643,0,0,1,52.137,6.93a3.7,3.7,0,0,1,1.988-.539,3.565,3.565,0,0,1,2.793,1.2,4.6,4.6,0,0,1,1.066,3.18v.1a5.036,5.036,0,0,1-.473,2.215,3.589,3.589,0,0,1-1.352,1.527,3.743,3.743,0,0,1-2.02.547,3.556,3.556,0,0,1-2.785-1.2A4.575,4.575,0,0,1,50.289,10.8Zm1.453.172a3.616,3.616,0,0,0,.652,2.258,2.211,2.211,0,0,0,3.5-.012,3.955,3.955,0,0,0,.648-2.418,3.61,3.61,0,0,0-.66-2.254,2.1,2.1,0,0,0-1.754-.863A2.075,2.075,0,0,0,52.4,8.43,3.925,3.925,0,0,0,51.742,10.867ZM68.977,15a3.036,3.036,0,0,1-.2-.891,3.225,3.225,0,0,1-2.406,1.047,2.984,2.984,0,0,1-2.051-.707,2.287,2.287,0,0,1-.8-1.793,2.39,2.39,0,0,1,1-2.051,4.733,4.733,0,0,1,2.824-.73H68.75V9.211A1.623,1.623,0,0,0,68.3,8a1.821,1.821,0,0,0-1.336-.449,2.108,2.108,0,0,0-1.3.391,1.151,1.151,0,0,0-.523.945H63.688a2,2,0,0,1,.449-1.223,3.066,3.066,0,0,1,1.219-.934,4.1,4.1,0,0,1,1.691-.344,3.342,3.342,0,0,1,2.289.73A2.635,2.635,0,0,1,70.2,9.133v3.891a4.757,4.757,0,0,0,.3,1.852V15Zm-2.4-1.1a2.54,2.54,0,0,0,1.289-.352,2.127,2.127,0,0,0,.883-.914V10.9H67.617q-2.656,0-2.656,1.555a1.316,1.316,0,0,0,.453,1.063A1.742,1.742,0,0,0,66.578,13.9Zm7.25-7.352.047,1.063a3.08,3.08,0,0,1,2.531-1.219q2.68,0,2.7,3.023V15H77.664V9.406a1.946,1.946,0,0,0-.418-1.352,1.675,1.675,0,0,0-1.277-.437,2.086,2.086,0,0,0-1.234.375,2.546,2.546,0,0,0-.828.984V15H72.461V6.547ZM83.25,4.5V6.547h1.578V7.664H83.25v5.242a1.171,1.171,0,0,0,.211.762.888.888,0,0,0,.719.254,3.5,3.5,0,0,0,.688-.094V15a4.19,4.19,0,0,1-1.109.156A1.8,1.8,0,0,1,82.3,14.57a2.517,2.517,0,0,1-.492-1.664V7.664H80.266V6.547H81.8V4.5Zm6.773,10.656a3.693,3.693,0,0,1-2.8-1.129,4.19,4.19,0,0,1-1.078-3.02v-.266a5.073,5.073,0,0,1,.48-2.246,3.748,3.748,0,0,1,1.344-1.547,3.378,3.378,0,0,1,1.871-.559,3.166,3.166,0,0,1,2.563,1.086,4.7,4.7,0,0,1,.914,3.109v.6H87.594a3,3,0,0,0,.73,2.02,2.3,2.3,0,0,0,1.777.77,2.517,2.517,0,0,0,1.3-.312,3.259,3.259,0,0,0,.93-.828l.883.688A3.55,3.55,0,0,1,90.023,15.156Zm-.18-7.578a1.928,1.928,0,0,0-1.469.637A3.1,3.1,0,0,0,87.641,10h4.234V9.891a2.753,2.753,0,0,0-.594-1.707A1.815,1.815,0,0,0,89.844,7.578Zm9.234.266a4.331,4.331,0,0,0-.711-.055A1.9,1.9,0,0,0,96.438,9v6H94.992V6.547H96.4l.023.977a2.251,2.251,0,0,1,2.016-1.133,1.477,1.477,0,0,1,.641.109Zm2.9,7.156h-1.445V6.547h1.445ZM100.414,4.3a.863.863,0,0,1,.215-.594.807.807,0,0,1,.637-.242.819.819,0,0,1,.641.242.854.854,0,0,1,.219.594.826.826,0,0,1-.219.586.834.834,0,0,1-.641.234.821.821,0,0,1-.637-.234A.834.834,0,0,1,100.414,4.3Zm3.492,6.391a4.993,4.993,0,0,1,.488-2.234,3.643,3.643,0,0,1,1.359-1.531,3.7,3.7,0,0,1,1.988-.539,3.565,3.565,0,0,1,2.793,1.2,4.6,4.6,0,0,1,1.066,3.18v.1a5.036,5.036,0,0,1-.473,2.215,3.589,3.589,0,0,1-1.352,1.527,3.743,3.743,0,0,1-2.02.547,3.556,3.556,0,0,1-2.785-1.2,4.575,4.575,0,0,1-1.066-3.164Zm1.453.172a3.616,3.616,0,0,0,.652,2.258,2.211,2.211,0,0,0,3.5-.012,3.955,3.955,0,0,0,.648-2.418,3.61,3.61,0,0,0-.66-2.254,2.1,2.1,0,0,0-1.754-.863,2.075,2.075,0,0,0-1.727.852A3.925,3.925,0,0,0,105.359,10.867ZM117.5,7.844a4.331,4.331,0,0,0-.711-.055A1.9,1.9,0,0,0,114.859,9v6h-1.445V6.547h1.406l.023.977a2.251,2.251,0,0,1,2.016-1.133,1.477,1.477,0,0,1,.641.109Z" transform="translate(471.5 1794)" fill="#12263f"/>
      <path id="Trazado_727372" data-name="Trazado 727372" d="M7695-10214.7v210.7h21.886" transform="translate(-6619.386 11710)" fill="none" stroke="#167b7d" stroke-width="2"/>
      <path id="Trazado_727373" data-name="Trazado 727373" d="M7681-10214.7v220.092h-20" transform="translate(-6623.5 11711.962)" fill="none" stroke="#167b7d" stroke-width="2"/>
      <path id="Trazado_727374" data-name="Trazado 727374" d="M7564.755-10005H7515.7" transform="translate(-6641.255 11722.352)" fill="none" stroke="#167b7d" stroke-width="2"/>
      <path id="Trazado_727378" data-name="Trazado 727378" d="M7528.778-10005H7515.7" transform="translate(8749.256 -8299) rotate(180)" fill="none" stroke="#167b7d" stroke-width="2"/>
      <path id="Trazado_727375" data-name="Trazado 727375" d="M7184.342-9940.373h30.5" transform="translate(-6633.5 11710)" fill="none" stroke="#167b7d" stroke-width="2"/>
      <path id="Trazado_727376" data-name="Trazado 727376" d="M7184.342-9940.373h30.5" transform="translate(-6708.5 11710)" fill="none" stroke="#167b7d" stroke-width="2"/>
      <path id="Trazado_727377" data-name="Trazado 727377" d="M7445.6-10137v36.868H7335V-10137" transform="translate(-6629.5 11710)" fill="none" stroke="#00104e" stroke-width="3"/>
      <path id="Trazado_729086" data-name="Trazado 729086" d="M3,0,6,5H0Z" transform="translate(1102.5 1703) rotate(90)" fill="#167b7d"/>
      <path id="Trazado_729087" data-name="Trazado 729087" d="M3,0,6,5H0Z" transform="translate(1032.5 1720.352) rotate(-90)" fill="#167b7d"/>
      <path id="Trazado_729088" data-name="Trazado 729088" d="M3,0,6,5H0Z" transform="translate(869.5 1720.352) rotate(-90)" fill="#167b7d"/>
      <path id="Trazado_729078" data-name="Trazado 729078" d="M3,0,6,5H0Z" transform="translate(777.987 1618.824)" fill="#167b7d"/>
      <path id="Trazado_729079" data-name="Trazado 729079" d="M3,0,6,5H0Z" transform="translate(714.152 1618.597)" fill="#167b7d"/>
      <path id="Trazado_729094" data-name="Trazado 729094" d="M3,0,6,5H0Z" transform="translate(586.338 1766.627) rotate(90)" fill="#167b7d"/>
      <path id="Trazado_729095" data-name="Trazado 729095" d="M3,0,6,5H0Z" transform="translate(511.338 1766.627) rotate(90)" fill="#167b7d"/>
      <path id="Trazado_729096" data-name="Trazado 729096" d="M3,0,6,5H0Z" transform="translate(426.338 1766.337) rotate(90)" fill="#167b7d"/>
      <path id="Trazado_729066" data-name="Trazado 729066" d="M3,0,6,5H0Z" transform="translate(478 1394.5) rotate(180)" fill="#167b7d"/>
      <path id="Trazado_729069" data-name="Trazado 729069" d="M3,0,6,5H0Z" transform="translate(680.5 1458.574) rotate(-90)" fill="#167b7d"/>
      <path id="Trazado_729080" data-name="Trazado 729080" d="M3,0,6,5H0Z" transform="translate(1012.5 1400.871) rotate(90)" fill="#167b7d"/>
      <g id="Trazado_729089" data-name="Trazado 729089" transform="translate(877 1725.852)" fill="#ffd6c5">
        <path d="M 19 37 C 14.19202995300293 37 9.671830177307129 35.12767028808594 6.272079944610596 31.72792053222656 C 2.872329950332642 28.32817077636719 1 23.80797004699707 1 19 C 1 14.19202995300293 2.872329950332642 9.671830177307129 6.272079944610596 6.272079944610596 C 9.671830177307129 2.872329950332642 14.19202995300293 1 19 1 C 23.80797004699707 1 28.32817077636719 2.872329950332642 31.72792053222656 6.272079944610596 C 35.12767028808594 9.671830177307129 37 14.19202995300293 37 19 C 37 23.80797004699707 35.12767028808594 28.32817077636719 31.72792053222656 31.72792053222656 C 28.32817077636719 35.12767028808594 23.80797004699707 37 19 37 Z" stroke="none"/>
        <path d="M 19 2 C 14.45914077758789 2 10.19005966186523 3.768310546875 6.979179382324219 6.979179382324219 C 3.768310546875 10.19005966186523 2 14.45914077758789 2 19 C 2 23.54085922241211 3.768310546875 27.80994033813477 6.979179382324219 31.02082061767578 C 10.19005966186523 34.231689453125 14.45914077758789 36 19 36 C 23.54085922241211 36 27.80994033813477 34.231689453125 31.02082061767578 31.02082061767578 C 34.231689453125 27.80994033813477 36 23.54085922241211 36 19 C 36 14.45914077758789 34.231689453125 10.19005966186523 31.02082061767578 6.979179382324219 C 27.80994033813477 3.768310546875 23.54085922241211 2 19 2 M 19 0 C 29.49341011047363 0 38 8.506589889526367 38 19 C 38 29.49341011047363 29.49341011047363 38 19 38 C 8.506589889526367 38 0 29.49341011047363 0 19 C 0 8.506589889526367 8.506589889526367 0 19 0 Z" stroke="none" fill="#9f0925"/>
      </g>
      <path id="Trazado_729091" data-name="Trazado 729091" d="M6.258,15H4V6.3l-2.7.836V5.3L6.016,3.609h.242Z" transform="translate(891.5 1734.352)"/>
      <path id="Trazado_728976" data-name="Trazado 728976" d="M30.517,80.268a9.092,9.092,0,1,0,9.092,9.092,9.092,9.092,0,0,0-9.092-9.092m0,13.9A4.813,4.813,0,1,1,35.33,89.36a4.813,4.813,0,0,1-4.813,4.813" transform="translate(748.375 1665.126)" fill="#818387"/>
      <path id="Trazado_728977" data-name="Trazado 728977" d="M30.517,82.488a6.872,6.872,0,1,0,6.872,6.872,6.872,6.872,0,0,0-6.872-6.872m0,11.685A4.813,4.813,0,1,1,35.33,89.36a4.813,4.813,0,0,1-4.813,4.813" transform="translate(748.375 1665.126)" fill="#6d6f73"/>
      <path id="Trazado_728978" data-name="Trazado 728978" d="M30.517,91.969a3.333,3.333,0,0,1-3.254-2.61l-2.532-11.4H36.3l-2.532,11.4a3.334,3.334,0,0,1-3.254,2.61" transform="translate(748.375 1665.126)" fill="#e1e2e3"/>
      <path id="Trazado_728979" data-name="Trazado 728979" d="M81.789,80.268a9.092,9.092,0,1,0,9.092,9.092,9.092,9.092,0,0,0-9.092-9.092m0,13.9A4.813,4.813,0,1,1,86.6,89.36a4.813,4.813,0,0,1-4.813,4.813" transform="translate(748.375 1665.126)" fill="#818387"/>
      <path id="Trazado_728980" data-name="Trazado 728980" d="M81.789,82.488a6.872,6.872,0,1,0,6.872,6.872,6.872,6.872,0,0,0-6.872-6.872m0,11.685A4.813,4.813,0,1,1,86.6,89.36a4.813,4.813,0,0,1-4.813,4.813" transform="translate(748.375 1665.126)" fill="#6d6f73"/>
      <path id="Trazado_728981" data-name="Trazado 728981" d="M81.789,86.75a2.61,2.61,0,1,1-2.609,2.609,2.609,2.609,0,0,1,2.609-2.609" transform="translate(748.375 1665.126)" fill="#afb1b2"/>
      <path id="Trazado_728982" data-name="Trazado 728982" d="M81.789,87.771A1.588,1.588,0,1,1,80.2,89.359a1.588,1.588,0,0,1,1.588-1.588" transform="translate(748.375 1665.126)" fill="#c6c8ca"/>
      <path id="Trazado_728983" data-name="Trazado 728983" d="M81.789,91.969a3.333,3.333,0,0,1-3.254-2.61L76,77.958H87.575l-2.532,11.4A3.334,3.334,0,0,1,81.789,91.969Z" transform="translate(748.375 1665.126)" fill="#eeefef"/>
      <path id="Trazado_728984" data-name="Trazado 728984" d="M90.738,73.425H24.968V13.264a3.8,3.8,0,0,0-2.252-3.471L10.547,4.363,8.7,8.5l10.606,4.725a1.9,1.9,0,0,1,1.127,1.736V75.691A2.266,2.266,0,0,0,22.7,77.957H90.836a2.266,2.266,0,0,0,2.255-2.489,2.332,2.332,0,0,0-2.353-2.043" transform="translate(748.375 1665.126)" fill="#e1e2e3"/>
      <path id="Trazado_728985" data-name="Trazado 728985" d="M.336,2.3A3.867,3.867,0,0,1,5.442.336L17.21,5.579a3.867,3.867,0,1,1-3.148,7.065L2.3,7.4A3.867,3.867,0,0,1,.336,2.3" transform="translate(748.375 1665.126)" fill="#c10d20"/>
      <path id="Trazado_728986" data-name="Trazado 728986" d="M90.881,43.462V54.989c0,5.736-2.654,8.5-8.132,8.5H37.667c-5.479,0-8.132-2.8-8.132-8.5V43.462c0-5.735,2.653-8.5,8.132-8.5H82.749c5.478,0,8.132,2.8,8.132,8.5" transform="translate(748.375 1665.126)" fill="#c9dba3"/>
      <path id="Trazado_729196" data-name="Trazado 729196" d="M0,0H93.1V98.451H0Z" transform="translate(748.375 1665.126)" fill="none"/>
      <path id="Trazado_728987" data-name="Trazado 728987" d="M65.672,8.5V20.03c0,5.736-2.655,8.5-8.132,8.5H12.458c-5.479,0-8.132-2.8-8.132-8.5V8.5c0-5.735,2.653-8.5,8.132-8.5H57.54c5.477,0,8.132,2.8,8.132,8.5" transform="translate(725.003 1522.704)" fill="#a0d8f0"/>
      <path id="Trazado_728988" data-name="Trazado 728988" d="M15.731,54.517l-3.813-7.941a2.358,2.358,0,0,1,0-2.039L15.731,36.6a2.352,2.352,0,0,1,2.122-1.336h11.04A2.355,2.355,0,0,1,31.017,36.6l3.811,7.941a2.358,2.358,0,0,1,0,2.039l-3.811,7.941a2.355,2.355,0,0,1-2.124,1.336H17.853a2.352,2.352,0,0,1-2.122-1.336" transform="translate(725.003 1522.704)" fill="#273a4c"/>
      <path id="Trazado_728989" data-name="Trazado 728989" d="M50.667,75.11l-3.812-7.941a2.358,2.358,0,0,1,0-2.039l3.812-7.941a2.354,2.354,0,0,1,2.123-1.336H63.83a2.355,2.355,0,0,1,2.123,1.336l3.812,7.941a2.358,2.358,0,0,1,0,2.039L65.953,75.11a2.355,2.355,0,0,1-2.123,1.336H52.79a2.354,2.354,0,0,1-2.123-1.336" transform="translate(725.003 1522.704)" fill="#273a4c"/>
      <path id="Trazado_728990" data-name="Trazado 728990" d="M39.042,54.517,35.23,46.576a2.358,2.358,0,0,1,0-2.039L39.042,36.6a2.354,2.354,0,0,1,2.123-1.336h11.04A2.355,2.355,0,0,1,54.328,36.6l3.812,7.941a2.358,2.358,0,0,1,0,2.039l-3.812,7.941a2.355,2.355,0,0,1-2.123,1.336H41.165a2.354,2.354,0,0,1-2.123-1.336" transform="translate(725.003 1522.704)" fill="#273a4c"/>
      <path id="Trazado_728991" data-name="Trazado 728991" d="M4.044,75.11.232,67.169a2.358,2.358,0,0,1,0-2.039l3.812-7.941a2.354,2.354,0,0,1,2.123-1.336h11.04a2.355,2.355,0,0,1,2.123,1.336l3.812,7.941a2.358,2.358,0,0,1,0,2.039L19.33,75.11a2.355,2.355,0,0,1-2.123,1.336H6.167A2.354,2.354,0,0,1,4.044,75.11" transform="translate(725.003 1522.704)" fill="#273a4c"/>
      <path id="Trazado_728992" data-name="Trazado 728992" d="M27.355,75.11l-3.812-7.941a2.358,2.358,0,0,1,0-2.039l3.812-7.941a2.354,2.354,0,0,1,2.123-1.336h11.04a2.355,2.355,0,0,1,2.123,1.336l3.812,7.941a2.358,2.358,0,0,1,0,2.039L42.641,75.11a2.355,2.355,0,0,1-2.123,1.336H29.478a2.354,2.354,0,0,1-2.123-1.336" transform="translate(725.003 1522.704)" fill="#273a4c"/>
      <path id="Trazado_729197" data-name="Trazado 729197" d="M0,0H70V76.446H0Z" transform="translate(725.003 1522.704)" fill="none"/>
      <path id="Trazado_728993" data-name="Trazado 728993" d="M53.144,52.49l-9.475,6.565c-4.715,3.266-8.5,2.661-11.621-1.842L6.373,20.156c-3.12-4.5-2.332-8.277,2.358-11.527l9.476-6.565C22.921-1.2,26.707-.6,29.827,3.906L55.5,40.963c3.12,4.5,2.333,8.277-2.358,11.527" transform="translate(934.206 1680.352)" fill="#c9dba3"/>
      <path id="Trazado_728994" data-name="Trazado 728994" d="M64.934,53.114l-9.475,6.565c-4.715,3.266-8.5,2.661-11.621-1.842L18.163,20.78c-3.12-4.5-2.332-8.277,2.358-11.527L30,2.688C34.711-.578,38.5.027,41.617,4.53L67.292,41.587c3.12,4.5,2.333,8.277-2.358,11.527" transform="translate(934.206 1680.352)" fill="#aab986"/>
      <path id="Trazado_728995" data-name="Trazado 728995" d="M76.577,52.49,67.1,59.055c-4.715,3.266-8.5,2.661-11.621-1.842L29.806,20.156c-3.12-4.5-2.332-8.277,2.358-11.527L41.64,2.064C46.354-1.2,50.14-.6,53.26,3.906L78.935,40.963c3.12,4.5,2.333,8.277-2.358,11.527" transform="translate(934.206 1680.352)" fill="#c9dba3"/>
      <path id="Trazado_728996" data-name="Trazado 728996" d="M72.8,73.079H16a5.5,5.5,0,0,1-5.506-4.72L5.55,29.97h77.7L78.3,68.359a5.5,5.5,0,0,1-5.507,4.72" transform="translate(934.206 1680.352)" fill="#94ba48"/>
      <path id="Trazado_729198" data-name="Trazado 729198" d="M0,0H88.794V5.55H0Z" transform="translate(934.206 1709.034)" fill="#76a12d"/>
      <path id="Trazado_728997" data-name="Trazado 728997" d="M58.922,56.43H29.873a5.55,5.55,0,0,1-5.507-4.861L22.2,34.231H66.6L64.429,51.569a5.55,5.55,0,0,1-5.507,4.861" transform="translate(934.206 1680.352)" fill="#76a12d"/>
      <path id="Trazado_728998" data-name="Trazado 728998" d="M54.109,49.493H34.685a4.162,4.162,0,1,1,0-8.324H54.109a4.162,4.162,0,0,1,0,8.324" transform="translate(934.206 1680.352)" fill="#94ba48"/>
      <path id="Trazado_729199" data-name="Trazado 729199" d="M0,0H88.794V73.079H0Z" transform="translate(934.206 1680.352)" fill="none"/>
      <path id="Trazado_728999" data-name="Trazado 728999" d="M65.362,8.5V20.03c0,5.736-2.654,8.5-8.132,8.5H12.148c-5.479,0-8.132-2.8-8.132-8.5V8.5c0-5.735,2.653-8.5,8.132-8.5H57.23c5.478,0,8.132,2.8,8.132,8.5" transform="translate(1025.5 1392)" fill="#c9dba3"/>
      <path id="Trazado_729000" data-name="Trazado 729000" d="M15.731,53.984l-3.813-7.941a2.358,2.358,0,0,1,0-2.039l3.813-7.941a2.352,2.352,0,0,1,2.122-1.336h11.04a2.355,2.355,0,0,1,2.124,1.336L34.828,44a2.358,2.358,0,0,1,0,2.039l-3.811,7.941a2.355,2.355,0,0,1-2.124,1.336H17.853a2.352,2.352,0,0,1-2.122-1.336" transform="translate(1025.5 1392)" fill="#273a4c"/>
      <path id="Trazado_729001" data-name="Trazado 729001" d="M50.667,74.577l-3.812-7.941a2.358,2.358,0,0,1,0-2.039l3.812-7.941A2.354,2.354,0,0,1,52.79,55.32H63.83a2.355,2.355,0,0,1,2.123,1.336L69.765,64.6a2.358,2.358,0,0,1,0,2.039l-3.812,7.941a2.355,2.355,0,0,1-2.123,1.336H52.79a2.354,2.354,0,0,1-2.123-1.336" transform="translate(1025.5 1392)" fill="#273a4c"/>
      <path id="Trazado_729002" data-name="Trazado 729002" d="M39.042,53.984,35.23,46.043a2.358,2.358,0,0,1,0-2.039l3.812-7.941a2.354,2.354,0,0,1,2.123-1.336h11.04a2.355,2.355,0,0,1,2.123,1.336L58.14,44a2.358,2.358,0,0,1,0,2.039l-3.812,7.941a2.355,2.355,0,0,1-2.123,1.336H41.165a2.354,2.354,0,0,1-2.123-1.336" transform="translate(1025.5 1392)" fill="#273a4c"/>
      <path id="Trazado_729003" data-name="Trazado 729003" d="M4.044,74.577.232,66.636a2.358,2.358,0,0,1,0-2.039l3.812-7.941A2.354,2.354,0,0,1,6.167,55.32h11.04a2.355,2.355,0,0,1,2.123,1.336L23.142,64.6a2.358,2.358,0,0,1,0,2.039L19.33,74.577a2.355,2.355,0,0,1-2.123,1.336H6.167a2.354,2.354,0,0,1-2.123-1.336" transform="translate(1025.5 1392)" fill="#273a4c"/>
      <path id="Trazado_729004" data-name="Trazado 729004" d="M27.355,74.577l-3.812-7.941a2.358,2.358,0,0,1,0-2.039l3.812-7.941a2.354,2.354,0,0,1,2.123-1.336h11.04a2.355,2.355,0,0,1,2.123,1.336L46.453,64.6a2.358,2.358,0,0,1,0,2.039l-3.812,7.941a2.355,2.355,0,0,1-2.123,1.336H29.478a2.354,2.354,0,0,1-2.123-1.336" transform="translate(1025.5 1392)" fill="#273a4c"/>
      <path id="Trazado_729200" data-name="Trazado 729200" d="M0,0H70V75.913H0Z" transform="translate(1025.5 1392)" fill="none"/>
      <path id="Trazado_729005" data-name="Trazado 729005" d="M53.144,52.49l-9.475,6.565c-4.715,3.266-8.5,2.661-11.621-1.842L6.373,20.156c-3.12-4.5-2.332-8.277,2.358-11.527l9.476-6.565C22.921-1.2,26.707-.6,29.827,3.906L55.5,40.963c3.12,4.5,2.333,8.277-2.358,11.527" transform="translate(580 1409.548)" fill="#a0d8f0"/>
      <path id="Trazado_729006" data-name="Trazado 729006" d="M64.934,53.114l-9.475,6.565c-4.715,3.266-8.5,2.661-11.621-1.842L18.163,20.78c-3.12-4.5-2.332-8.277,2.358-11.527L30,2.688C34.711-.578,38.5.027,41.617,4.53L67.292,41.587c3.12,4.5,2.333,8.277-2.358,11.527" transform="translate(580 1409.548)" fill="#7bbee0"/>
      <path id="Trazado_729007" data-name="Trazado 729007" d="M76.577,52.49,67.1,59.055c-4.715,3.266-8.5,2.661-11.621-1.842L29.806,20.156c-3.12-4.5-2.332-8.277,2.358-11.527L41.64,2.064C46.354-1.2,50.14-.6,53.26,3.906L78.935,40.963c3.12,4.5,2.333,8.277-2.358,11.527" transform="translate(580 1409.548)" fill="#a0d8f0"/>
      <path id="Trazado_729008" data-name="Trazado 729008" d="M72.8,73.079H16a5.5,5.5,0,0,1-5.506-4.72L5.55,29.97h77.7L78.3,68.359a5.5,5.5,0,0,1-5.507,4.72" transform="translate(580 1409.548)" fill="#94ba48"/>
      <path id="Trazado_729201" data-name="Trazado 729201" d="M0,0H88.794V5.55H0Z" transform="translate(580 1438.23)" fill="#76a12d"/>
      <path id="Trazado_729009" data-name="Trazado 729009" d="M58.922,56.43H29.873a5.55,5.55,0,0,1-5.507-4.861L22.2,34.231H66.6L64.429,51.569a5.55,5.55,0,0,1-5.507,4.861" transform="translate(580 1409.548)" fill="#76a12d"/>
      <path id="Trazado_729010" data-name="Trazado 729010" d="M54.109,49.493H34.685a4.162,4.162,0,1,1,0-8.324H54.109a4.162,4.162,0,0,1,0,8.324" transform="translate(580 1409.548)" fill="#94ba48"/>
      <path id="Trazado_729202" data-name="Trazado 729202" d="M0,0H88.794V73.079H0Z" transform="translate(580 1409.548)" fill="none"/>
      <path id="Trazado_729011" data-name="Trazado 729011" d="M58.782,53.114l-9.475,6.565c-4.715,3.266-8.5,2.661-11.621-1.842L12.011,20.78c-3.12-4.5-2.332-8.277,2.358-11.527l9.476-6.565c4.714-3.266,8.5-2.661,11.62,1.842L61.14,41.587c3.12,4.5,2.333,8.277-2.358,11.527" transform="translate(423.839 1409.133)" fill="#7bbee0"/>
      <path id="Trazado_729012" data-name="Trazado 729012" d="M70.425,52.49,60.95,59.055c-4.715,3.266-8.5,2.661-11.621-1.842L23.654,20.156c-3.12-4.5-2.332-8.277,2.358-11.527l9.476-6.565C40.2-1.2,43.988-.6,47.108,3.906L72.783,40.963c3.12,4.5,2.333,8.277-2.358,11.527" transform="translate(423.839 1409.133)" fill="#a0d8f0"/>
      <path id="Trazado_729013" data-name="Trazado 729013" d="M72.8,73.494H16a5.5,5.5,0,0,1-5.506-4.723L5.55,30.356h77.7L78.3,68.771A5.5,5.5,0,0,1,72.8,73.494" transform="translate(423.839 1409.133)" fill="#c32949"/>
      <path id="Trazado_729203" data-name="Trazado 729203" d="M0,0H88.794V5.55H0Z" transform="translate(423.839 1438.23)" fill="#980d3b"/>
      <path id="Trazado_729014" data-name="Trazado 729014" d="M58.922,56.845H29.873a5.55,5.55,0,0,1-5.507-4.861L22.2,34.646H66.6L64.429,51.984a5.55,5.55,0,0,1-5.507,4.861" transform="translate(423.839 1409.133)" fill="#980d3b"/>
      <path id="Trazado_729015" data-name="Trazado 729015" d="M54.109,49.908H34.685a4.162,4.162,0,1,1,0-8.324H54.109a4.162,4.162,0,0,1,0,8.324" transform="translate(423.839 1409.133)" fill="#c32949"/>
      <path id="Trazado_729204" data-name="Trazado 729204" d="M0,0H88.794V73.494H0Z" transform="translate(423.839 1409.133)" fill="none"/>
      <path id="Trazado_729016" data-name="Trazado 729016" d="M61.346,8.5V20.03c0,5.736-2.654,8.5-8.132,8.5H8.132c-5.479,0-8.132-2.8-8.132-8.5V8.5C0,2.768,2.653,0,8.132,0H53.214c5.478,0,8.132,2.8,8.132,8.5" transform="translate(431.22 1710.229)" fill="#a0d8f0"/>
      <path id="Trazado_729017" data-name="Trazado 729017" d="M132.453,8.5V20.03c0,5.736-2.654,8.5-8.132,8.5H79.239c-5.479,0-8.132-2.8-8.132-8.5V8.5c0-5.735,2.653-8.5,8.132-8.5h45.082c5.478,0,8.132,2.8,8.132,8.5" transform="translate(431.22 1710.229)" fill="#a0d8f0"/>
      <path id="Trazado_729018" data-name="Trazado 729018" d="M203.56,8.5V20.03c0,5.736-2.654,8.5-8.132,8.5H150.346c-5.479,0-8.132-2.8-8.132-8.5V8.5c0-5.735,2.653-8.5,8.132-8.5h45.082c5.478,0,8.132,2.8,8.132,8.5" transform="translate(431.22 1710.229)" fill="#a0d8f0"/>
      <path id="Trazado_729019" data-name="Trazado 729019" d="M165.244,66.727l-3.812-7.941a2.358,2.358,0,0,1,0-2.039l3.812-7.941a2.354,2.354,0,0,1,2.123-1.336h11.04a2.355,2.355,0,0,1,2.123,1.336l3.812,7.941a2.358,2.358,0,0,1,0,2.039l-3.812,7.941a2.355,2.355,0,0,1-2.123,1.336h-11.04a2.354,2.354,0,0,1-2.123-1.336" transform="translate(431.22 1710.229)" fill="#273a4c"/>
      <path id="Trazado_729020" data-name="Trazado 729020" d="M23.03,66.727l-3.812-7.941a2.358,2.358,0,0,1,0-2.039l3.812-7.941a2.354,2.354,0,0,1,2.123-1.336h11.04a2.355,2.355,0,0,1,2.123,1.336l3.812,7.941a2.358,2.358,0,0,1,0,2.039l-3.812,7.941a2.355,2.355,0,0,1-2.123,1.336H25.153a2.354,2.354,0,0,1-2.123-1.336" transform="translate(431.22 1710.229)" fill="#273a4c"/>
      <path id="Trazado_729021" data-name="Trazado 729021" d="M94.137,66.727l-3.812-7.941a2.358,2.358,0,0,1,0-2.039l3.812-7.941A2.354,2.354,0,0,1,96.26,47.47H107.3a2.355,2.355,0,0,1,2.123,1.336l3.812,7.941a2.358,2.358,0,0,1,0,2.039l-3.812,7.941a2.355,2.355,0,0,1-2.123,1.336H96.26a2.354,2.354,0,0,1-2.123-1.336" transform="translate(431.22 1710.229)" fill="#273a4c"/>
      <path id="Trazado_729205" data-name="Trazado 729205" d="M0,0H203.56V68.063H0Z" transform="translate(431.22 1710.229)" fill="none"/>
      <path id="Trazado_729022" data-name="Trazado 729022" d="M65.487,23.544l-4.661-9.709a2.883,2.883,0,0,1,0-2.493l4.661-9.709A2.878,2.878,0,0,1,68.083,0h13.5a2.879,2.879,0,0,1,2.6,1.633l4.661,9.709a2.883,2.883,0,0,1,0,2.493l-4.661,9.709a2.879,2.879,0,0,1-2.6,1.633h-13.5a2.878,2.878,0,0,1-2.6-1.633" transform="translate(1125.685 1693.658)" fill="#273a4c"/>
      <path id="Trazado_729023" data-name="Trazado 729023" d="M4.944,23.544.284,13.835a2.883,2.883,0,0,1,0-2.493L4.944,1.633A2.878,2.878,0,0,1,7.54,0h13.5a2.879,2.879,0,0,1,2.6,1.633l4.661,9.709a2.883,2.883,0,0,1,0,2.493l-4.661,9.709a2.879,2.879,0,0,1-2.6,1.633H7.54a2.878,2.878,0,0,1-2.6-1.633" transform="translate(1112.206 1693.658)" fill="#273a4c"/>
      <path id="Trazado_729024" data-name="Trazado 729024" d="M35.215,23.544l-4.661-9.709a2.883,2.883,0,0,1,0-2.493l4.661-9.709A2.878,2.878,0,0,1,37.811,0h13.5a2.879,2.879,0,0,1,2.6,1.633l4.661,9.709a2.883,2.883,0,0,1,0,2.493L53.9,23.544a2.879,2.879,0,0,1-2.6,1.633h-13.5a2.878,2.878,0,0,1-2.6-1.633" transform="translate(1118.945 1693.658)" fill="#273a4c"/>
      <path id="Trazado_729206" data-name="Trazado 729206" d="M0,0H102.6V25.178H0Z" transform="translate(1112.206 1693.658)" fill="none"/>
      <path id="Trazado_729100" data-name="Trazado 729100" d="M3,0,6,5H0Z" transform="translate(1236 1703) rotate(90)" fill="#167b7d"/>
      <path id="Trazado_729025" data-name="Trazado 729025" d="M7439.987-10178.309v-112.82h229.444" transform="translate(-6661 11695)" fill="none" stroke="#167b7d" stroke-width="2"/>
      <path id="Trazado_729026" data-name="Trazado 729026" d="M7403.435-10178.309v-61.117H7346" transform="translate(-6661 11695)" fill="none" stroke="#167b7d" stroke-width="2"/>
      <path id="Trazado_729027" data-name="Trazado 729027" d="M7282-10294.129v-46.394H7136v35.9" transform="translate(-6661 11695)" fill="none" stroke="#167b7d" stroke-width="2"/>
      <path id="Trazado_729028" data-name="Trazado 729028" d="M7471-10011.3v-36.393h-29.082v-24.708" transform="translate(-6661 11695)" fill="none" stroke="#167b7d" stroke-width="2"/>
      <path id="Trazado_729029" data-name="Trazado 729029" d="M7295.78-9925.373h82.373v-147.03" transform="translate(-6661 11695)" fill="none" stroke="#167b7d" stroke-width="2"/>
      <path id="Trazado_729030" data-name="Trazado 729030" d="M7083.613-9925.6l-43.911.229v-322.8h35.49" transform="translate(-6661 11695)" fill="none" stroke="#167b7d" stroke-width="2"/>
      <g id="Trazado_729070" data-name="Trazado 729070" transform="translate(695.152 1406.871)" fill="#ffd6c5">
        <path d="M 19 37 C 14.19202995300293 37 9.671830177307129 35.12767028808594 6.272079944610596 31.72792053222656 C 2.872329950332642 28.32817077636719 1 23.80797004699707 1 19 C 1 14.19202995300293 2.872329950332642 9.671830177307129 6.272079944610596 6.272079944610596 C 9.671830177307129 2.872329950332642 14.19202995300293 1 19 1 C 23.80797004699707 1 28.32817077636719 2.872329950332642 31.72792053222656 6.272079944610596 C 35.12767028808594 9.671830177307129 37 14.19202995300293 37 19 C 37 23.80797004699707 35.12767028808594 28.32817077636719 31.72792053222656 31.72792053222656 C 28.32817077636719 35.12767028808594 23.80797004699707 37 19 37 Z" stroke="none"/>
        <path d="M 19 2 C 14.45914077758789 2 10.19005966186523 3.768310546875 6.979179382324219 6.979179382324219 C 3.768310546875 10.19005966186523 2 14.45914077758789 2 19 C 2 23.54085922241211 3.768310546875 27.80994033813477 6.979179382324219 31.02082061767578 C 10.19005966186523 34.231689453125 14.45914077758789 36 19 36 C 23.54085922241211 36 27.80994033813477 34.231689453125 31.02082061767578 31.02082061767578 C 34.231689453125 27.80994033813477 36 23.54085922241211 36 19 C 36 14.45914077758789 34.231689453125 10.19005966186523 31.02082061767578 6.979179382324219 C 27.80994033813477 3.768310546875 23.54085922241211 2 19 2 M 19 0 C 29.49341011047363 0 38 8.506589889526367 38 19 C 38 29.49341011047363 29.49341011047363 38 19 38 C 8.506589889526367 38 0 29.49341011047363 0 19 C 0 8.506589889526367 8.506589889526367 0 19 0 Z" stroke="none" fill="#9f0925"/>
      </g>
      <path id="Trazado_729072" data-name="Trazado 729072" d="M8.57,15H.773V13.453l3.68-3.922A9.078,9.078,0,0,0,5.574,8.086a2.322,2.322,0,0,0,.363-1.172,1.738,1.738,0,0,0-.383-1.191,1.382,1.382,0,0,0-1.094-.434,1.49,1.49,0,0,0-1.207.527A2.089,2.089,0,0,0,2.813,7.2H.547a3.729,3.729,0,0,1,.5-1.9,3.5,3.5,0,0,1,1.4-1.348A4.262,4.262,0,0,1,4.5,3.469a4.036,4.036,0,0,1,2.73.844A2.985,2.985,0,0,1,8.2,6.7a3.825,3.825,0,0,1-.437,1.719,9.551,9.551,0,0,1-1.5,2.039L3.68,13.18H8.57Z" transform="translate(709.435 1415.155)"/>
      <g id="Trazado_729075" data-name="Trazado 729075" transform="translate(885.5 1357.371)" fill="#ffd6c5">
        <path d="M 19 37 C 14.19202995300293 37 9.671830177307129 35.12767028808594 6.272079944610596 31.72792053222656 C 2.872329950332642 28.32817077636719 1 23.80797004699707 1 19 C 1 14.19202995300293 2.872329950332642 9.671830177307129 6.272079944610596 6.272079944610596 C 9.671830177307129 2.872329950332642 14.19202995300293 1 19 1 C 23.80797004699707 1 28.32817077636719 2.872329950332642 31.72792053222656 6.272079944610596 C 35.12767028808594 9.671830177307129 37 14.19202995300293 37 19 C 37 23.80797004699707 35.12767028808594 28.32817077636719 31.72792053222656 31.72792053222656 C 28.32817077636719 35.12767028808594 23.80797004699707 37 19 37 Z" stroke="none"/>
        <path d="M 19 2 C 14.45914077758789 2 10.19005966186523 3.768310546875 6.979179382324219 6.979179382324219 C 3.768310546875 10.19005966186523 2 14.45914077758789 2 19 C 2 23.54085922241211 3.768310546875 27.80994033813477 6.979179382324219 31.02082061767578 C 10.19005966186523 34.231689453125 14.45914077758789 36 19 36 C 23.54085922241211 36 27.80994033813477 34.231689453125 31.02082061767578 31.02082061767578 C 34.231689453125 27.80994033813477 36 23.54085922241211 36 19 C 36 14.45914077758789 34.231689453125 10.19005966186523 31.02082061767578 6.979179382324219 C 27.80994033813477 3.768310546875 23.54085922241211 2 19 2 M 19 0 C 29.49341011047363 0 38 8.506589889526367 38 19 C 38 29.49341011047363 29.49341011047363 38 19 38 C 8.506589889526367 38 0 29.49341011047363 0 19 C 0 8.506589889526367 8.506589889526367 0 19 0 Z" stroke="none" fill="#9f0925"/>
      </g>
      <path id="Trazado_729076" data-name="Trazado 729076" d="M3.07,8.313h1.2a1.7,1.7,0,0,0,1.273-.43,1.574,1.574,0,0,0,.414-1.141,1.392,1.392,0,0,0-.41-1.07,1.59,1.59,0,0,0-1.129-.383,1.666,1.666,0,0,0-1.086.355A1.137,1.137,0,0,0,2.9,6.57H.641a2.777,2.777,0,0,1,.48-1.6A3.2,3.2,0,0,1,2.465,3.867a4.485,4.485,0,0,1,1.9-.4A4.253,4.253,0,0,1,7.2,4.332,2.945,2.945,0,0,1,8.219,6.711a2.394,2.394,0,0,1-.477,1.438,3.1,3.1,0,0,1-1.25,1.008,2.826,2.826,0,0,1,1.434,1.031A2.8,2.8,0,0,1,8.4,11.813a2.994,2.994,0,0,1-1.105,2.43,4.445,4.445,0,0,1-2.926.914,4.214,4.214,0,0,1-2.785-.9A2.934,2.934,0,0,1,.5,11.883H2.758a1.308,1.308,0,0,0,.48,1.047,1.771,1.771,0,0,0,1.184.406,1.779,1.779,0,0,0,1.262-.426,1.47,1.47,0,0,0,.457-1.129q0-1.7-1.875-1.7H3.07Z" transform="translate(900 1366.697)"/>
      <g id="Trazado_729090" data-name="Trazado 729090" transform="translate(1067 1725.852)" fill="#ffd6c5">
        <path d="M 19 37 C 14.19202995300293 37 9.671830177307129 35.12767028808594 6.272079944610596 31.72792053222656 C 2.872329950332642 28.32817077636719 1 23.80797004699707 1 19 C 1 14.19202995300293 2.872329950332642 9.671830177307129 6.272079944610596 6.272079944610596 C 9.671830177307129 2.872329950332642 14.19202995300293 1 19 1 C 23.80797004699707 1 28.32817077636719 2.872329950332642 31.72792053222656 6.272079944610596 C 35.12767028808594 9.671830177307129 37 14.19202995300293 37 19 C 37 23.80797004699707 35.12767028808594 28.32817077636719 31.72792053222656 31.72792053222656 C 28.32817077636719 35.12767028808594 23.80797004699707 37 19 37 Z" stroke="none"/>
        <path d="M 19 2 C 14.45914077758789 2 10.19005966186523 3.768310546875 6.979179382324219 6.979179382324219 C 3.768310546875 10.19005966186523 2 14.45914077758789 2 19 C 2 23.54085922241211 3.768310546875 27.80994033813477 6.979179382324219 31.02082061767578 C 10.19005966186523 34.231689453125 14.45914077758789 36 19 36 C 23.54085922241211 36 27.80994033813477 34.231689453125 31.02082061767578 31.02082061767578 C 34.231689453125 27.80994033813477 36 23.54085922241211 36 19 C 36 14.45914077758789 34.231689453125 10.19005966186523 31.02082061767578 6.979179382324219 C 27.80994033813477 3.768310546875 23.54085922241211 2 19 2 M 19 0 C 29.49341011047363 0 38 8.506589889526367 38 19 C 38 29.49341011047363 29.49341011047363 38 19 38 C 8.506589889526367 38 0 29.49341011047363 0 19 C 0 8.506589889526367 8.506589889526367 0 19 0 Z" stroke="none" fill="#9f0925"/>
      </g>
      <path id="Trazado_729092" data-name="Trazado 729092" d="M7.453,10.719H8.742v1.82H7.453V15H5.2V12.539H.531l-.1-1.422L5.172,3.625H7.453Zm-4.773,0H5.2V6.7l-.148.258Z" transform="translate(1081.5 1735.178)"/>
      <g id="Trazado_729067" data-name="Trazado 729067" transform="translate(523.5 1362.871)" fill="#ffd6c5">
        <path d="M 19 37 C 14.19202995300293 37 9.671830177307129 35.12767028808594 6.272079944610596 31.72792053222656 C 2.872329950332642 28.32817077636719 1 23.80797004699707 1 19 C 1 14.19202995300293 2.872329950332642 9.671830177307129 6.272079944610596 6.272079944610596 C 9.671830177307129 2.872329950332642 14.19202995300293 1 19 1 C 23.80797004699707 1 28.32817077636719 2.872329950332642 31.72792053222656 6.272079944610596 C 35.12767028808594 9.671830177307129 37 14.19202995300293 37 19 C 37 23.80797004699707 35.12767028808594 28.32817077636719 31.72792053222656 31.72792053222656 C 28.32817077636719 35.12767028808594 23.80797004699707 37 19 37 Z" stroke="none"/>
        <path d="M 19 2 C 14.45914077758789 2 10.19005966186523 3.768310546875 6.979179382324219 6.979179382324219 C 3.768310546875 10.19005966186523 2 14.45914077758789 2 19 C 2 23.54085922241211 3.768310546875 27.80994033813477 6.979179382324219 31.02082061767578 C 10.19005966186523 34.231689453125 14.45914077758789 36 19 36 C 23.54085922241211 36 27.80994033813477 34.231689453125 31.02082061767578 31.02082061767578 C 34.231689453125 27.80994033813477 36 23.54085922241211 36 19 C 36 14.45914077758789 34.231689453125 10.19005966186523 31.02082061767578 6.979179382324219 C 27.80994033813477 3.768310546875 23.54085922241211 2 19 2 M 19 0 C 29.49341011047363 0 38 8.506589889526367 38 19 C 38 29.49341011047363 29.49341011047363 38 19 38 C 8.506589889526367 38 0 29.49341011047363 0 19 C 0 8.506589889526367 8.506589889526367 0 19 0 Z" stroke="none" fill="#9f0925"/>
      </g>
      <path id="Trazado_729068" data-name="Trazado 729068" d="M1.109,9.406l.656-5.781H8.141V5.508H3.617L3.336,7.953a3.58,3.58,0,0,1,1.711-.43A3.279,3.279,0,0,1,7.594,8.531a4.026,4.026,0,0,1,.922,2.82,4.124,4.124,0,0,1-.465,1.973,3.281,3.281,0,0,1-1.332,1.352,4.158,4.158,0,0,1-2.047.48,4.416,4.416,0,0,1-1.914-.418,3.4,3.4,0,0,1-1.395-1.176A3.2,3.2,0,0,1,.82,11.836H3.055a1.669,1.669,0,0,0,.5,1.105,1.573,1.573,0,0,0,1.113.395,1.388,1.388,0,0,0,1.18-.551,2.551,2.551,0,0,0,.414-1.559,2.11,2.11,0,0,0-.477-1.484A1.749,1.749,0,0,0,4.43,9.227a1.954,1.954,0,0,0-1.3.422l-.219.2Z" transform="translate(538 1372.197)"/>
      <g id="Trazado_729081" data-name="Trazado 729081" transform="translate(332 1642.352)" fill="#ffd6c5">
        <path d="M 19 37 C 14.19202995300293 37 9.671830177307129 35.12767028808594 6.272079944610596 31.72792053222656 C 2.872329950332642 28.32817077636719 1 23.80797004699707 1 19 C 1 14.19202995300293 2.872329950332642 9.671830177307129 6.272079944610596 6.272079944610596 C 9.671830177307129 2.872329950332642 14.19202995300293 1 19 1 C 23.80797004699707 1 28.32817077636719 2.872329950332642 31.72792053222656 6.272079944610596 C 35.12767028808594 9.671830177307129 37 14.19202995300293 37 19 C 37 23.80797004699707 35.12767028808594 28.32817077636719 31.72792053222656 31.72792053222656 C 28.32817077636719 35.12767028808594 23.80797004699707 37 19 37 Z" stroke="none"/>
        <path d="M 19 2 C 14.45914077758789 2 10.19005966186523 3.768310546875 6.979179382324219 6.979179382324219 C 3.768310546875 10.19005966186523 2 14.45914077758789 2 19 C 2 23.54085922241211 3.768310546875 27.80994033813477 6.979179382324219 31.02082061767578 C 10.19005966186523 34.231689453125 14.45914077758789 36 19 36 C 23.54085922241211 36 27.80994033813477 34.231689453125 31.02082061767578 31.02082061767578 C 34.231689453125 27.80994033813477 36 23.54085922241211 36 19 C 36 14.45914077758789 34.231689453125 10.19005966186523 31.02082061767578 6.979179382324219 C 27.80994033813477 3.768310546875 23.54085922241211 2 19 2 M 19 0 C 29.49341011047363 0 38 8.506589889526367 38 19 C 38 29.49341011047363 29.49341011047363 38 19 38 C 8.506589889526367 38 0 29.49341011047363 0 19 C 0 8.506589889526367 8.506589889526367 0 19 0 Z" stroke="none" fill="#9f0925"/>
      </g>
      <path id="Trazado_729082" data-name="Trazado 729082" d="M6.9,3.508V5.367H6.68a3.836,3.836,0,0,0-2.465.8A3.238,3.238,0,0,0,3.094,8.313a3.075,3.075,0,0,1,2.289-.922A2.9,2.9,0,0,1,7.742,8.453a4.259,4.259,0,0,1,.875,2.8,4.19,4.19,0,0,1-.48,2.008,3.446,3.446,0,0,1-1.359,1.4,3.949,3.949,0,0,1-1.988.5,3.689,3.689,0,0,1-2.9-1.25A4.852,4.852,0,0,1,.781,10.57V9.758a7.3,7.3,0,0,1,.7-3.27,5.127,5.127,0,0,1,2.008-2.2,5.884,5.884,0,0,1,3.035-.785ZM4.7,9.2a1.8,1.8,0,0,0-.992.285,1.717,1.717,0,0,0-.656.754v.688a3.05,3.05,0,0,0,.445,1.77,1.438,1.438,0,0,0,1.25.637,1.422,1.422,0,0,0,1.176-.574,2.345,2.345,0,0,0,.449-1.488,2.34,2.34,0,0,0-.453-1.5A1.476,1.476,0,0,0,4.7,9.2Z" transform="translate(346.5 1651.678)"/>
      <g id="Trazado_729083" data-name="Trazado 729083" transform="translate(519 1658.111)" fill="#ffd6c5">
        <path d="M 19 37 C 14.19202995300293 37 9.671830177307129 35.12767028808594 6.272079944610596 31.72792053222656 C 2.872329950332642 28.32817077636719 1 23.80797004699707 1 19 C 1 14.19202995300293 2.872329950332642 9.671830177307129 6.272079944610596 6.272079944610596 C 9.671830177307129 2.872329950332642 14.19202995300293 1 19 1 C 23.80797004699707 1 28.32817077636719 2.872329950332642 31.72792053222656 6.272079944610596 C 35.12767028808594 9.671830177307129 37 14.19202995300293 37 19 C 37 23.80797004699707 35.12767028808594 28.32817077636719 31.72792053222656 31.72792053222656 C 28.32817077636719 35.12767028808594 23.80797004699707 37 19 37 Z" stroke="none"/>
        <path d="M 19 2 C 14.45914077758789 2 10.19005966186523 3.768310546875 6.979179382324219 6.979179382324219 C 3.768310546875 10.19005966186523 2 14.45914077758789 2 19 C 2 23.54085922241211 3.768310546875 27.80994033813477 6.979179382324219 31.02082061767578 C 10.19005966186523 34.231689453125 14.45914077758789 36 19 36 C 23.54085922241211 36 27.80994033813477 34.231689453125 31.02082061767578 31.02082061767578 C 34.231689453125 27.80994033813477 36 23.54085922241211 36 19 C 36 14.45914077758789 34.231689453125 10.19005966186523 31.02082061767578 6.979179382324219 C 27.80994033813477 3.768310546875 23.54085922241211 2 19 2 M 19 0 C 29.49341011047363 0 38 8.506589889526367 38 19 C 38 29.49341011047363 29.49341011047363 38 19 38 C 8.506589889526367 38 0 29.49341011047363 0 19 C 0 8.506589889526367 8.506589889526367 0 19 0 Z" stroke="none" fill="#9f0925"/>
      </g>
      <path id="Trazado_729084" data-name="Trazado 729084" d="M8.508,4.891,4.109,15H1.727L6.133,5.453H.477V3.625H8.508Z" transform="translate(533.5 1667.438)"/>
      <g id="Trazado_729097" data-name="Trazado 729097" transform="translate(657.152 1778.292)" fill="#ffd6c5">
        <path d="M 19 37 C 14.19202995300293 37 9.671830177307129 35.12767028808594 6.272079944610596 31.72792053222656 C 2.872329950332642 28.32817077636719 1 23.80797004699707 1 19 C 1 14.19202995300293 2.872329950332642 9.671830177307129 6.272079944610596 6.272079944610596 C 9.671830177307129 2.872329950332642 14.19202995300293 1 19 1 C 23.80797004699707 1 28.32817077636719 2.872329950332642 31.72792053222656 6.272079944610596 C 35.12767028808594 9.671830177307129 37 14.19202995300293 37 19 C 37 23.80797004699707 35.12767028808594 28.32817077636719 31.72792053222656 31.72792053222656 C 28.32817077636719 35.12767028808594 23.80797004699707 37 19 37 Z" stroke="none"/>
        <path d="M 19 2 C 14.45914077758789 2 10.19005966186523 3.768310546875 6.979179382324219 6.979179382324219 C 3.768310546875 10.19005966186523 2 14.45914077758789 2 19 C 2 23.54085922241211 3.768310546875 27.80994033813477 6.979179382324219 31.02082061767578 C 10.19005966186523 34.231689453125 14.45914077758789 36 19 36 C 23.54085922241211 36 27.80994033813477 34.231689453125 31.02082061767578 31.02082061767578 C 34.231689453125 27.80994033813477 36 23.54085922241211 36 19 C 36 14.45914077758789 34.231689453125 10.19005966186523 31.02082061767578 6.979179382324219 C 27.80994033813477 3.768310546875 23.54085922241211 2 19 2 M 19 0 C 29.49341011047363 0 38 8.506589889526367 38 19 C 38 29.49341011047363 29.49341011047363 38 19 38 C 8.506589889526367 38 0 29.49341011047363 0 19 C 0 8.506589889526367 8.506589889526367 0 19 0 Z" stroke="none" fill="#9f0925"/>
      </g>
      <path id="Trazado_729098" data-name="Trazado 729098" d="M8.188,6.648a2.646,2.646,0,0,1-.414,1.469A2.98,2.98,0,0,1,6.633,9.141a3.3,3.3,0,0,1,1.313,1.1,2.816,2.816,0,0,1,.484,1.645A2.981,2.981,0,0,1,7.4,14.277a4.183,4.183,0,0,1-2.8.879,4.2,4.2,0,0,1-2.812-.883A2.974,2.974,0,0,1,.742,11.883a2.834,2.834,0,0,1,.484-1.648,3.239,3.239,0,0,1,1.3-1.094A2.95,2.95,0,0,1,1.395,8.117a2.664,2.664,0,0,1-.41-1.469,2.948,2.948,0,0,1,.969-2.316,3.814,3.814,0,0,1,2.633-.863,3.839,3.839,0,0,1,2.629.855A2.937,2.937,0,0,1,8.188,6.648Zm-2.023,5.07a1.638,1.638,0,0,0-.43-1.187,1.532,1.532,0,0,0-1.156-.445,1.529,1.529,0,0,0-1.148.441A1.635,1.635,0,0,0,3,11.719a1.634,1.634,0,0,0,.422,1.172,1.537,1.537,0,0,0,1.172.445,1.533,1.533,0,0,0,1.152-.43A1.631,1.631,0,0,0,6.164,11.719ZM5.93,6.758a1.563,1.563,0,0,0-.352-1.066,1.247,1.247,0,0,0-.992-.4A1.256,1.256,0,0,0,3.6,5.68,1.553,1.553,0,0,0,3.25,6.758,1.633,1.633,0,0,0,3.6,7.852a1.23,1.23,0,0,0,.992.414,1.219,1.219,0,0,0,.988-.414A1.645,1.645,0,0,0,5.93,6.758Z" transform="translate(671.652 1787.618)"/>
    </g>
  </g>
</svg>
