<svg xmlns="http://www.w3.org/2000/svg" width="820.813" height="557.479" viewBox="0 0 820.813 557.479">
  <g id="Grupo_1042473" data-name="Grupo 1042473" transform="translate(-389.507 -1522.187)">
    <path id="Trazado_729113" data-name="Trazado 729113" d="M20.153,4.2l2.856,8.9,2.848-8.9h4.061V17H26.824V14.012l.3-6.117L24.029,17H21.99l-3.1-9.114.3,6.126V17H16.1V4.2ZM36.343,17.176A4.889,4.889,0,0,1,32.8,15.871a4.507,4.507,0,0,1-1.354-3.4v-.246a5.84,5.84,0,0,1,.541-2.575,3.955,3.955,0,0,1,1.578-1.727,4.763,4.763,0,0,1,2.461-.611A4.117,4.117,0,0,1,39.19,8.558a4.887,4.887,0,0,1,1.16,3.467v1.151H34.462a2.135,2.135,0,0,0,.694,1.257,2.066,2.066,0,0,0,1.389.457,2.662,2.662,0,0,0,2.2-.984l1.354,1.6a3.784,3.784,0,0,1-1.569,1.217A5.3,5.3,0,0,1,36.343,17.176ZM36.009,9.6q-1.3,0-1.547,1.723H37.45v-.229a1.467,1.467,0,0,0-.36-1.1A1.434,1.434,0,0,0,36.009,9.6ZM44.728,7.49v9.835a3.452,3.452,0,0,1-.967,2.6,3.714,3.714,0,0,1-2.672.914,6.308,6.308,0,0,1-1.4-.149V18.45a5.667,5.667,0,0,0,.835.079,1.084,1.084,0,0,0,1.23-1.222V7.49Zm-3.19-2.461a1.334,1.334,0,0,1,.457-1.043,1.934,1.934,0,0,1,2.373,0,1.334,1.334,0,0,1,.457,1.043,1.334,1.334,0,0,1-.457,1.043,1.934,1.934,0,0,1-2.373,0A1.334,1.334,0,0,1,41.537,5.029Zm4.491,7.128a5.613,5.613,0,0,1,.554-2.536,3.96,3.96,0,0,1,1.591-1.709,4.791,4.791,0,0,1,2.435-.6,4.373,4.373,0,0,1,3.366,1.323,5.076,5.076,0,0,1,1.23,3.6v.105a4.925,4.925,0,0,1-1.235,3.529,4.384,4.384,0,0,1-3.344,1.305,4.434,4.434,0,0,1-3.261-1.217,4.761,4.761,0,0,1-1.327-3.3Zm2.962.185a3.538,3.538,0,0,0,.413,1.934,1.376,1.376,0,0,0,1.222.615q1.582,0,1.617-2.435v-.3q0-2.558-1.635-2.558Q49.122,9.6,49,11.806Zm13.271-2.171-.976-.07a1.752,1.752,0,0,0-1.793.879V17H56.531V7.49h2.777l.1,1.222a2.294,2.294,0,0,1,2.083-1.4,2.888,2.888,0,0,1,.826.105ZM68.423,17a3.344,3.344,0,0,1-.281-.853,2.754,2.754,0,0,1-2.285,1.028,3.374,3.374,0,0,1-2.285-.813,2.588,2.588,0,0,1-.94-2.043,2.66,2.66,0,0,1,1.143-2.338A5.821,5.821,0,0,1,67.1,11.19h.914v-.5q0-1.316-1.134-1.316a.927.927,0,0,0-1.055,1.042H62.859a2.655,2.655,0,0,1,1.173-2.239,4.931,4.931,0,0,1,2.993-.86A4.323,4.323,0,0,1,69.9,8.2a3.086,3.086,0,0,1,1.081,2.435v4.21a4.311,4.311,0,0,0,.4,2V17Zm-1.854-1.934a1.652,1.652,0,0,0,.918-.237,1.487,1.487,0,0,0,.523-.536V12.772h-.861q-1.547,0-1.547,1.389a.848.848,0,0,0,.272.655A.986.986,0,0,0,66.568,15.066Zm14.555-.176a1.317,1.317,0,0,0,.967-.338,1.241,1.241,0,0,0,.334-.945H85.2a3.288,3.288,0,0,1-1.121,2.566,4.168,4.168,0,0,1-2.887,1,4.22,4.22,0,0,1-3.27-1.3,5.125,5.125,0,0,1-1.2-3.6v-.123A5.792,5.792,0,0,1,77.26,9.6a3.872,3.872,0,0,1,1.534-1.7,4.573,4.573,0,0,1,2.373-.593,4.116,4.116,0,0,1,2.944,1.028,3.647,3.647,0,0,1,1.09,2.786H82.424A1.626,1.626,0,0,0,82.063,10a1.244,1.244,0,0,0-.967-.4q-1.151,0-1.345,1.468a10.357,10.357,0,0,0-.062,1.283,4.068,4.068,0,0,0,.343,1.986A1.187,1.187,0,0,0,81.123,14.891Zm4.957-2.733a5.613,5.613,0,0,1,.554-2.536,3.96,3.96,0,0,1,1.591-1.709,4.791,4.791,0,0,1,2.435-.6,4.373,4.373,0,0,1,3.366,1.323,5.076,5.076,0,0,1,1.23,3.6v.105a4.925,4.925,0,0,1-1.235,3.529,4.384,4.384,0,0,1-3.344,1.305,4.434,4.434,0,0,1-3.261-1.217,4.761,4.761,0,0,1-1.327-3.3Zm2.962.185a3.538,3.538,0,0,0,.413,1.934,1.376,1.376,0,0,0,1.222.615q1.582,0,1.617-2.435v-.3q0-2.558-1.635-2.558-1.485,0-1.608,2.206ZM99.281,7.49l.1,1.116a3.225,3.225,0,0,1,2.716-1.292,2.713,2.713,0,0,1,2.219.888,4.226,4.226,0,0,1,.76,2.672V17H102.1V11a1.6,1.6,0,0,0-.29-1.059,1.342,1.342,0,0,0-1.055-.338,1.413,1.413,0,0,0-1.292.686V17H96.5V7.49Zm10.881-2.364V7.49h1.564V9.547h-1.564V13.9a1.111,1.111,0,0,0,.193.747,1.037,1.037,0,0,0,.765.211,4.345,4.345,0,0,0,.738-.053v2.118a5.466,5.466,0,0,1-1.67.255,3.1,3.1,0,0,1-2.259-.721,2.954,2.954,0,0,1-.729-2.188V9.547h-1.213V7.49H107.2V5.126ZM116.016,17h-2.971V7.49h2.971ZM112.869,5.029a1.334,1.334,0,0,1,.457-1.043,1.934,1.934,0,0,1,2.373,0,1.334,1.334,0,0,1,.457,1.043,1.334,1.334,0,0,1-.457,1.043,1.934,1.934,0,0,1-2.373,0A1.334,1.334,0,0,1,112.869,5.029Zm7.69,2.461.1,1.116a3.225,3.225,0,0,1,2.716-1.292,2.713,2.713,0,0,1,2.219.888,4.226,4.226,0,0,1,.76,2.672V17h-2.971V11a1.6,1.6,0,0,0-.29-1.059,1.342,1.342,0,0,0-1.055-.338,1.413,1.413,0,0,0-1.292.686V17h-2.962V7.49Zm13.1,8.481a3.054,3.054,0,0,1-2.54,1.2,3,3,0,0,1-2.369-.91,3.826,3.826,0,0,1-.8-2.615V7.49H130.9v6.179a1.065,1.065,0,0,0,1.187,1.222,1.548,1.548,0,0,0,1.45-.729V7.49h2.979V17h-2.777ZM143.5,17a3.344,3.344,0,0,1-.281-.853,2.754,2.754,0,0,1-2.285,1.028,3.374,3.374,0,0,1-2.285-.813,2.588,2.588,0,0,1-.94-2.043,2.66,2.66,0,0,1,1.143-2.338,5.821,5.821,0,0,1,3.322-.791h.914v-.5q0-1.316-1.134-1.316a.927.927,0,0,0-1.055,1.042h-2.962a2.655,2.655,0,0,1,1.173-2.239,4.931,4.931,0,0,1,2.993-.86,4.323,4.323,0,0,1,2.874.888,3.086,3.086,0,0,1,1.081,2.435v4.21a4.311,4.311,0,0,0,.4,2V17Zm-1.854-1.934a1.652,1.652,0,0,0,.918-.237,1.487,1.487,0,0,0,.523-.536V12.772h-.861q-1.547,0-1.547,1.389a.848.848,0,0,0,.272.655A.986.986,0,0,0,141.645,15.066ZM64.191,38.6a1.268,1.268,0,0,0-.479-1.055,5.954,5.954,0,0,0-1.683-.782,16.147,16.147,0,0,1-1.969-.782q-2.487-1.222-2.487-3.357a3.011,3.011,0,0,1,.62-1.876,4.008,4.008,0,0,1,1.753-1.266,6.823,6.823,0,0,1,2.549-.453,5.969,5.969,0,0,1,2.474.492,3.917,3.917,0,0,1,1.7,1.4A3.661,3.661,0,0,1,67.276,33H64.2a1.547,1.547,0,0,0-.479-1.213,1.867,1.867,0,0,0-1.3-.431,2.106,2.106,0,0,0-1.305.365,1.074,1.074,0,0,0,.048,1.819,6.65,6.65,0,0,0,1.854.826,11.36,11.36,0,0,1,2.18.918,3.663,3.663,0,0,1,2.074,3.3,3.125,3.125,0,0,1-1.266,2.637,5.629,5.629,0,0,1-3.472.958,6.888,6.888,0,0,1-2.817-.558,4.247,4.247,0,0,1-1.9-1.529,3.985,3.985,0,0,1-.637-2.237H60.28a1.963,1.963,0,0,0,.532,1.516,2.513,2.513,0,0,0,1.727.488,1.985,1.985,0,0,0,1.208-.33A1.088,1.088,0,0,0,64.191,38.6Zm8.719-9.4,2.856,8.9,2.848-8.9h4.061V42H79.581V39.012l.3-6.117L76.786,42H74.747l-3.1-9.114.3,6.126V42H68.858V29.2Zm19.661,7.365H87.719v3.059h5.73V42H84.634V29.2h8.833v2.382H87.719v2.7h4.852ZM94.707,42V29.2h4.122a6.064,6.064,0,0,1,3.05.769,5.406,5.406,0,0,1,2.114,2.171,6.554,6.554,0,0,1,.769,3.142v.589a6.592,6.592,0,0,1-.743,3.151,5.429,5.429,0,0,1-2.092,2.18,5.93,5.93,0,0,1-3.01.8Zm3.085-10.415v8.042h1.072a2.4,2.4,0,0,0,2.039-.945,4.63,4.63,0,0,0,.712-2.808V35.32a4.592,4.592,0,0,0-.712-2.795,2.442,2.442,0,0,0-2.074-.94Z" transform="translate(438 1527.152)" fill="#12263f"/>
    <path id="Trazado_729104" data-name="Trazado 729104" d="M13.867,17H10.791V4.2h3.076ZM18.6,7.49l.1,1.116a3.225,3.225,0,0,1,2.716-1.292,2.713,2.713,0,0,1,2.219.888,4.226,4.226,0,0,1,.76,2.672V17H21.417V11a1.6,1.6,0,0,0-.29-1.059A1.342,1.342,0,0,0,20.072,9.6a1.413,1.413,0,0,0-1.292.686V17H15.818V7.49ZM29.476,5.126V7.49h1.564V9.547H29.476V13.9a1.111,1.111,0,0,0,.193.747,1.037,1.037,0,0,0,.765.211,4.345,4.345,0,0,0,.738-.053v2.118a5.466,5.466,0,0,1-1.67.255,3.1,3.1,0,0,1-2.259-.721,2.954,2.954,0,0,1-.729-2.188V9.547H25.3V7.49h1.213V5.126Zm8.481,5.045-.976-.07a1.752,1.752,0,0,0-1.793.879V17H32.227V7.49H35l.1,1.222a2.294,2.294,0,0,1,2.083-1.4,2.888,2.888,0,0,1,.826.105Zm.378,1.986a5.613,5.613,0,0,1,.554-2.536A3.96,3.96,0,0,1,40.48,7.912a4.791,4.791,0,0,1,2.435-.6,4.373,4.373,0,0,1,3.366,1.323,5.076,5.076,0,0,1,1.23,3.6v.105a4.925,4.925,0,0,1-1.235,3.529,4.384,4.384,0,0,1-3.344,1.305,4.434,4.434,0,0,1-3.261-1.217,4.761,4.761,0,0,1-1.327-3.3Zm2.962.185a3.538,3.538,0,0,0,.413,1.934,1.376,1.376,0,0,0,1.222.615q1.582,0,1.617-2.435v-.3q0-2.558-1.635-2.558-1.485,0-1.608,2.206Zm7.146-.167a5.809,5.809,0,0,1,.976-3.56,3.211,3.211,0,0,1,2.725-1.3,2.731,2.731,0,0,1,2.145,1V3.5h2.971V17H54.6l-.149-1.02a2.8,2.8,0,0,1-2.32,1.2,3.205,3.205,0,0,1-2.689-1.3A5.993,5.993,0,0,1,48.443,12.175Zm2.962.185q0,2.531,1.477,2.531a1.458,1.458,0,0,0,1.406-.826V10.443A1.419,1.419,0,0,0,52.9,9.6q-1.371,0-1.485,2.215Zm13.2,3.612a3.054,3.054,0,0,1-2.54,1.2,3,3,0,0,1-2.369-.91,3.826,3.826,0,0,1-.8-2.615V7.49h2.962v6.179a1.065,1.065,0,0,0,1.187,1.222,1.548,1.548,0,0,0,1.45-.729V7.49h2.979V17H64.694Zm8.508-1.081a1.317,1.317,0,0,0,.967-.338,1.241,1.241,0,0,0,.334-.945h2.777a3.288,3.288,0,0,1-1.121,2.566,4.168,4.168,0,0,1-2.887,1,4.22,4.22,0,0,1-3.27-1.3,5.125,5.125,0,0,1-1.2-3.6v-.123A5.792,5.792,0,0,1,69.251,9.6a3.872,3.872,0,0,1,1.534-1.7,4.573,4.573,0,0,1,2.373-.593A4.116,4.116,0,0,1,76.1,8.343a3.647,3.647,0,0,1,1.09,2.786H74.415A1.626,1.626,0,0,0,74.054,10a1.244,1.244,0,0,0-.967-.4q-1.151,0-1.345,1.468a10.357,10.357,0,0,0-.062,1.283,4.068,4.068,0,0,0,.343,1.986A1.187,1.187,0,0,0,73.114,14.891Zm9.352,0a1.317,1.317,0,0,0,.967-.338,1.241,1.241,0,0,0,.334-.945h2.777a3.288,3.288,0,0,1-1.121,2.566,4.168,4.168,0,0,1-2.887,1,4.22,4.22,0,0,1-3.27-1.3,5.125,5.125,0,0,1-1.2-3.6v-.123A5.792,5.792,0,0,1,78.6,9.6a3.872,3.872,0,0,1,1.534-1.7,4.573,4.573,0,0,1,2.373-.593,4.116,4.116,0,0,1,2.944,1.028,3.647,3.647,0,0,1,1.09,2.786H83.766A1.626,1.626,0,0,0,83.406,10a1.244,1.244,0,0,0-.967-.4q-1.151,0-1.345,1.468a10.357,10.357,0,0,0-.062,1.283,4.068,4.068,0,0,0,.343,1.986A1.187,1.187,0,0,0,82.465,14.891ZM90.92,17H87.95V7.49H90.92ZM87.774,5.029a1.334,1.334,0,0,1,.457-1.043,1.934,1.934,0,0,1,2.373,0,1.334,1.334,0,0,1,.457,1.043A1.334,1.334,0,0,1,90.6,6.073a1.934,1.934,0,0,1-2.373,0A1.334,1.334,0,0,1,87.774,5.029Zm4.6,7.128a5.613,5.613,0,0,1,.554-2.536,3.96,3.96,0,0,1,1.591-1.709,4.791,4.791,0,0,1,2.435-.6,4.373,4.373,0,0,1,3.366,1.323,5.076,5.076,0,0,1,1.23,3.6v.105a4.925,4.925,0,0,1-1.235,3.529,4.384,4.384,0,0,1-3.344,1.305,4.434,4.434,0,0,1-3.261-1.217,4.761,4.761,0,0,1-1.327-3.3Zm2.962.185a3.538,3.538,0,0,0,.413,1.934,1.376,1.376,0,0,0,1.222.615q1.582,0,1.617-2.435v-.3q0-2.558-1.635-2.558-1.485,0-1.608,2.206ZM97.354,3.5h3.129L98.04,6.26l-2.417,0Zm8.218,3.99.1,1.116a3.225,3.225,0,0,1,2.716-1.292A2.713,2.713,0,0,1,110.6,8.2a4.226,4.226,0,0,1,.76,2.672V17h-2.971V11a1.6,1.6,0,0,0-.29-1.059,1.342,1.342,0,0,0-1.055-.338,1.413,1.413,0,0,0-1.292.686V17h-2.962V7.49ZM16.345,37.175a5.809,5.809,0,0,1,.976-3.56,3.211,3.211,0,0,1,2.725-1.3,2.731,2.731,0,0,1,2.145,1V28.5h2.971V42H22.5l-.149-1.02a2.8,2.8,0,0,1-2.32,1.2,3.205,3.205,0,0,1-2.689-1.3A5.993,5.993,0,0,1,16.345,37.175Zm2.962.185q0,2.531,1.477,2.531a1.458,1.458,0,0,0,1.406-.826V35.443A1.419,1.419,0,0,0,20.8,34.6q-1.371,0-1.485,2.215Zm12.138,4.816A4.889,4.889,0,0,1,27.9,40.871a4.507,4.507,0,0,1-1.354-3.4v-.246a5.84,5.84,0,0,1,.541-2.575,3.955,3.955,0,0,1,1.578-1.727,4.763,4.763,0,0,1,2.461-.611,4.117,4.117,0,0,1,3.164,1.244,4.887,4.887,0,0,1,1.16,3.467v1.151H29.564a2.135,2.135,0,0,0,.694,1.257,2.066,2.066,0,0,0,1.389.457,2.662,2.662,0,0,0,2.2-.984l1.354,1.6a3.784,3.784,0,0,1-1.569,1.217A5.3,5.3,0,0,1,31.445,42.176ZM31.111,34.6q-1.3,0-1.547,1.723h2.988v-.229a1.467,1.467,0,0,0-.36-1.1A1.434,1.434,0,0,0,31.111,34.6ZM43.925,32.49l.1,1.116a3.27,3.27,0,0,1,2.716-1.292,2.407,2.407,0,0,1,2.435,1.433,3.165,3.165,0,0,1,2.795-1.433q2.892,0,2.971,3.5V42H51.967V36a1.813,1.813,0,0,0-.246-1.063,1.048,1.048,0,0,0-.9-.334,1.4,1.4,0,0,0-1.31.782l.009.123V42H46.553V36.015a1.906,1.906,0,0,0-.237-1.081,1.045,1.045,0,0,0-.905-.334,1.42,1.42,0,0,0-1.3.782V42H41.148V32.49Zm17.306,9.686a4.889,4.889,0,0,1-3.542-1.305,4.507,4.507,0,0,1-1.354-3.4v-.246a5.84,5.84,0,0,1,.541-2.575,3.955,3.955,0,0,1,1.578-1.727,4.763,4.763,0,0,1,2.461-.611,4.116,4.116,0,0,1,3.164,1.244,4.887,4.887,0,0,1,1.16,3.467v1.151H59.35a2.135,2.135,0,0,0,.694,1.257,2.066,2.066,0,0,0,1.389.457,2.662,2.662,0,0,0,2.2-.984l1.354,1.6a3.784,3.784,0,0,1-1.569,1.217A5.3,5.3,0,0,1,61.231,42.176ZM60.9,34.6q-1.3,0-1.547,1.723h2.988v-.229a1.467,1.467,0,0,0-.36-1.1A1.434,1.434,0,0,0,60.9,34.6Zm8.719-2.109v9.835a3.452,3.452,0,0,1-.967,2.6,3.714,3.714,0,0,1-2.672.914,6.308,6.308,0,0,1-1.4-.149V43.45a5.667,5.667,0,0,0,.835.079,1.084,1.084,0,0,0,1.23-1.222V32.49Zm-3.19-2.461a1.334,1.334,0,0,1,.457-1.043,1.934,1.934,0,0,1,2.373,0,1.42,1.42,0,0,1,0,2.087,1.934,1.934,0,0,1-2.373,0A1.334,1.334,0,0,1,66.425,30.029Zm4.491,7.128a5.613,5.613,0,0,1,.554-2.536,3.96,3.96,0,0,1,1.591-1.709,4.791,4.791,0,0,1,2.435-.6,4.373,4.373,0,0,1,3.366,1.323,5.076,5.076,0,0,1,1.23,3.6v.105a4.925,4.925,0,0,1-1.235,3.529,4.384,4.384,0,0,1-3.344,1.305,4.434,4.434,0,0,1-3.261-1.217,4.761,4.761,0,0,1-1.327-3.3Zm2.962.185a3.538,3.538,0,0,0,.413,1.934,1.376,1.376,0,0,0,1.222.615q1.582,0,1.617-2.435v-.3q0-2.558-1.635-2.558-1.485,0-1.608,2.206ZM87.15,35.171l-.976-.07a1.752,1.752,0,0,0-1.793.879V42H81.419V32.49H84.2l.1,1.222a2.294,2.294,0,0,1,2.083-1.4,2.888,2.888,0,0,1,.826.105ZM93.311,42a3.344,3.344,0,0,1-.281-.853,2.754,2.754,0,0,1-2.285,1.028,3.374,3.374,0,0,1-2.285-.813,2.588,2.588,0,0,1-.94-2.043,2.66,2.66,0,0,1,1.143-2.338,5.821,5.821,0,0,1,3.322-.791H92.9v-.5q0-1.316-1.134-1.316a.927.927,0,0,0-1.055,1.042H87.748a2.655,2.655,0,0,1,1.173-2.239,4.931,4.931,0,0,1,2.993-.86,4.323,4.323,0,0,1,2.874.888,3.086,3.086,0,0,1,1.081,2.435v4.21a4.311,4.311,0,0,0,.4,2V42Zm-1.854-1.934a1.652,1.652,0,0,0,.918-.237,1.487,1.487,0,0,0,.523-.536V37.772h-.861q-1.547,0-1.547,1.389a.848.848,0,0,0,.272.655A.986.986,0,0,0,91.457,40.066Zm11.03-.738a.684.684,0,0,0-.4-.606,6.016,6.016,0,0,0-1.5-.475A6.853,6.853,0,0,1,98.76,37.6a3.062,3.062,0,0,1-1.1-.971,2.319,2.319,0,0,1-.378-1.31,2.628,2.628,0,0,1,1.081-2.158,4.453,4.453,0,0,1,2.83-.848,4.934,4.934,0,0,1,3.023.853,2.666,2.666,0,0,1,1.143,2.241H102.39q0-1.143-1.2-1.143a1.194,1.194,0,0,0-.782.259.8.8,0,0,0-.316.646.737.737,0,0,0,.387.642,3.654,3.654,0,0,0,1.235.4,10.671,10.671,0,0,1,1.49.378,2.706,2.706,0,0,1,2.145,2.646,2.491,2.491,0,0,1-1.156,2.118,5.068,5.068,0,0,1-2.993.817,5.172,5.172,0,0,1-2.18-.439,3.645,3.645,0,0,1-1.494-1.2,2.707,2.707,0,0,1-.536-1.591h2.769a1.145,1.145,0,0,0,.439.962,1.808,1.808,0,0,0,1.081.3,1.422,1.422,0,0,0,.91-.246A.787.787,0,0,0,102.487,39.328Z" transform="translate(903.881 1619.416)" fill="#12263f"/>
    <path id="Trazado_729105" data-name="Trazado 729105" d="M-23.757-2.637H-28.38L-29.259,0h-2.8L-27.3-12.8h2.443L-20.065,0h-2.8Zm-3.911-2.136h3.2l-1.608-4.79ZM-17.121-9.51l.079,1.1a3.32,3.32,0,0,1,2.733-1.274,2.759,2.759,0,0,1,2.25.888A4.142,4.142,0,0,1-11.3-6.144V0h-2.54V-6.1a1.654,1.654,0,0,0-.352-1.176,1.572,1.572,0,0,0-1.169-.366,1.747,1.747,0,0,0-1.608.916V0h-2.54V-9.51ZM-3.867,0a2.821,2.821,0,0,1-.255-.853A3.073,3.073,0,0,1-6.521.176,3.376,3.376,0,0,1-8.837-.633a2.6,2.6,0,0,1-.918-2.039,2.687,2.687,0,0,1,1.121-2.32A5.529,5.529,0,0,1-5.4-5.81h1.169v-.545a1.567,1.567,0,0,0-.338-1.055,1.331,1.331,0,0,0-1.068-.4A1.513,1.513,0,0,0-6.64-7.5,1.045,1.045,0,0,0-7-6.653h-2.54a2.551,2.551,0,0,1,.51-1.529,3.37,3.37,0,0,1,1.441-1.1,5.253,5.253,0,0,1,2.092-.4A4.15,4.15,0,0,1-2.711-8.8,3.09,3.09,0,0,1-1.679-6.319V-2.2A4.546,4.546,0,0,0-1.3-.149V0Zm-2.1-1.767a2.188,2.188,0,0,0,1.037-.25,1.645,1.645,0,0,0,.7-.672V-4.324h-.949q-1.907,0-2.03,1.318l-.009.149a1.017,1.017,0,0,0,.334.782A1.3,1.3,0,0,0-5.968-1.767ZM-5-13.5h2.769l-2.435,2.725H-6.732ZM2.953,0H.4V-13.5H2.953ZM7.726,0H5.177V-9.51H7.726Zm-2.7-11.971a1.251,1.251,0,0,1,.382-.94,1.436,1.436,0,0,1,1.042-.369,1.44,1.44,0,0,1,1.037.369,1.244,1.244,0,0,1,.387.94,1.247,1.247,0,0,1-.391.949,1.443,1.443,0,0,1-1.033.369,1.443,1.443,0,0,1-1.033-.369A1.247,1.247,0,0,1,5.027-11.971Zm9.94,9.343a.818.818,0,0,0-.461-.734,5.241,5.241,0,0,0-1.481-.479Q9.633-4.553,9.633-6.724a2.613,2.613,0,0,1,1.05-2.114,4.237,4.237,0,0,1,2.747-.848,4.56,4.56,0,0,1,2.9.853,2.687,2.687,0,0,1,1.085,2.215h-2.54a1.229,1.229,0,0,0-.352-.9,1.488,1.488,0,0,0-1.1-.356,1.52,1.52,0,0,0-.993.29.916.916,0,0,0-.352.738.783.783,0,0,0,.4.681,4.114,4.114,0,0,0,1.349.448,11.019,11.019,0,0,1,1.6.426,2.628,2.628,0,0,1,2.013,2.558,2.481,2.481,0,0,1-1.116,2.1,4.815,4.815,0,0,1-2.883.8A5.029,5.029,0,0,1,11.316-.25,3.561,3.561,0,0,1,9.861-1.419a2.716,2.716,0,0,1-.527-1.6h2.408a1.326,1.326,0,0,0,.5,1.037,1.987,1.987,0,0,0,1.248.36,1.839,1.839,0,0,0,1.1-.277A.861.861,0,0,0,14.968-2.628ZM21.753,0H19.2V-9.51h2.549Zm-2.7-11.971a1.251,1.251,0,0,1,.382-.94,1.436,1.436,0,0,1,1.042-.369,1.44,1.44,0,0,1,1.037.369,1.244,1.244,0,0,1,.387.94,1.247,1.247,0,0,1-.391.949,1.443,1.443,0,0,1-1.033.369,1.443,1.443,0,0,1-1.033-.369A1.247,1.247,0,0,1,19.055-11.971ZM29-2.628a.818.818,0,0,0-.461-.734,5.241,5.241,0,0,0-1.481-.479Q23.66-4.553,23.66-6.724a2.613,2.613,0,0,1,1.05-2.114,4.237,4.237,0,0,1,2.747-.848,4.56,4.56,0,0,1,2.9.853,2.687,2.687,0,0,1,1.085,2.215H28.9a1.229,1.229,0,0,0-.352-.9,1.488,1.488,0,0,0-1.1-.356,1.52,1.52,0,0,0-.993.29.916.916,0,0,0-.352.738.783.783,0,0,0,.4.681,4.114,4.114,0,0,0,1.349.448,11.019,11.019,0,0,1,1.6.426,2.628,2.628,0,0,1,2.013,2.558,2.481,2.481,0,0,1-1.116,2.1,4.815,4.815,0,0,1-2.883.8A5.029,5.029,0,0,1,25.343-.25a3.561,3.561,0,0,1-1.455-1.169,2.716,2.716,0,0,1-.527-1.6H25.77a1.326,1.326,0,0,0,.5,1.037,1.987,1.987,0,0,0,1.248.36,1.839,1.839,0,0,0,1.1-.277A.861.861,0,0,0,29-2.628Z" transform="translate(705.638 1803.143)" fill="#12263f"/>
    <path id="Trazado_729101" data-name="Trazado 729101" d="M22,17H18.929L14.394,9.037V17H11.309V4.2h3.085l4.526,7.963V4.2H22Zm7.479-1.028a3.054,3.054,0,0,1-2.54,1.2,3,3,0,0,1-2.369-.91,3.826,3.826,0,0,1-.8-2.615V7.49h2.962v6.179a1.065,1.065,0,0,0,1.187,1.222,1.548,1.548,0,0,0,1.45-.729V7.49h2.979V17H29.564Zm9.088,1.2a4.889,4.889,0,0,1-3.542-1.305,4.507,4.507,0,0,1-1.354-3.4v-.246a5.84,5.84,0,0,1,.541-2.575,3.955,3.955,0,0,1,1.578-1.727,4.763,4.763,0,0,1,2.461-.611,4.117,4.117,0,0,1,3.164,1.244,4.887,4.887,0,0,1,1.16,3.467v1.151H36.683a2.135,2.135,0,0,0,.694,1.257,2.066,2.066,0,0,0,1.389.457,2.662,2.662,0,0,0,2.2-.984l1.354,1.6a3.784,3.784,0,0,1-1.569,1.217A5.3,5.3,0,0,1,38.564,17.176ZM38.23,9.6q-1.3,0-1.547,1.723h2.988v-.229a1.467,1.467,0,0,0-.36-1.1A1.434,1.434,0,0,0,38.23,9.6Zm9.211,3.876,1.5-5.985h3.12L48.961,17H45.938l-3.1-9.51h3.129Zm5-1.318A5.613,5.613,0,0,1,53,9.622a3.96,3.96,0,0,1,1.591-1.709,4.791,4.791,0,0,1,2.435-.6,4.373,4.373,0,0,1,3.366,1.323,5.076,5.076,0,0,1,1.23,3.6v.105a4.925,4.925,0,0,1-1.235,3.529,4.384,4.384,0,0,1-3.344,1.305,4.434,4.434,0,0,1-3.261-1.217,4.761,4.761,0,0,1-1.327-3.3Zm2.962.185a3.538,3.538,0,0,0,.413,1.934,1.376,1.376,0,0,0,1.222.615q1.582,0,1.617-2.435v-.3q0-2.558-1.635-2.558-1.485,0-1.608,2.206ZM11.269,39.891a1.317,1.317,0,0,0,.967-.338,1.241,1.241,0,0,0,.334-.945h2.777a3.288,3.288,0,0,1-1.121,2.566,4.168,4.168,0,0,1-2.887,1,4.22,4.22,0,0,1-3.27-1.3,5.125,5.125,0,0,1-1.2-3.6v-.123A5.792,5.792,0,0,1,7.407,34.6a3.872,3.872,0,0,1,1.534-1.7,4.573,4.573,0,0,1,2.373-.593,4.116,4.116,0,0,1,2.944,1.028,3.647,3.647,0,0,1,1.09,2.786H12.57A1.626,1.626,0,0,0,12.21,35a1.244,1.244,0,0,0-.967-.4q-1.151,0-1.345,1.468a10.357,10.357,0,0,0-.062,1.283,4.068,4.068,0,0,0,.343,1.986A1.187,1.187,0,0,0,11.269,39.891ZM21.957,42a3.344,3.344,0,0,1-.281-.853,2.754,2.754,0,0,1-2.285,1.028,3.374,3.374,0,0,1-2.285-.813,2.588,2.588,0,0,1-.94-2.043,2.66,2.66,0,0,1,1.143-2.338,5.821,5.821,0,0,1,3.322-.791h.914v-.5q0-1.316-1.134-1.316a.927.927,0,0,0-1.055,1.042H16.393a2.655,2.655,0,0,1,1.173-2.239,4.931,4.931,0,0,1,2.993-.86,4.323,4.323,0,0,1,2.874.888,3.086,3.086,0,0,1,1.081,2.435v4.21a4.311,4.311,0,0,0,.4,2V42ZM20.1,40.066a1.652,1.652,0,0,0,.918-.237,1.487,1.487,0,0,0,.523-.536V37.772h-.861q-1.547,0-1.547,1.389a.848.848,0,0,0,.272.655A.986.986,0,0,0,20.1,40.066Zm8.851-7.576.1,1.116a3.27,3.27,0,0,1,2.716-1.292A2.407,2.407,0,0,1,34.2,33.747,3.165,3.165,0,0,1,37,32.314q2.892,0,2.971,3.5V42H37V36a1.813,1.813,0,0,0-.246-1.063,1.048,1.048,0,0,0-.9-.334,1.4,1.4,0,0,0-1.31.782l.009.123V42H31.581V36.015a1.906,1.906,0,0,0-.237-1.081,1.045,1.045,0,0,0-.905-.334,1.42,1.42,0,0,0-1.3.782V42H26.176V32.49Zm21.533,4.834a5.8,5.8,0,0,1-.967,3.595,3.238,3.238,0,0,1-2.725,1.257,2.81,2.81,0,0,1-2.338-1.151L44.334,42H41.68V28.5h2.962v4.755a2.711,2.711,0,0,1,2.136-.94,3.239,3.239,0,0,1,2.742,1.274,5.826,5.826,0,0,1,.967,3.586Zm-2.971-.189a3.866,3.866,0,0,0-.365-1.952A1.229,1.229,0,0,0,46.03,34.6a1.418,1.418,0,0,0-1.389.763v3.773a1.426,1.426,0,0,0,1.406.755,1.258,1.258,0,0,0,1.327-1.018A7.309,7.309,0,0,0,47.516,37.135ZM54.916,42H51.945V32.49h2.971ZM51.769,30.029a1.334,1.334,0,0,1,.457-1.043,1.934,1.934,0,0,1,2.373,0,1.42,1.42,0,0,1,0,2.087,1.934,1.934,0,0,1-2.373,0A1.334,1.334,0,0,1,51.769,30.029Zm4.6,7.128a5.613,5.613,0,0,1,.554-2.536,3.96,3.96,0,0,1,1.591-1.709,4.791,4.791,0,0,1,2.435-.6,4.373,4.373,0,0,1,3.366,1.323,5.076,5.076,0,0,1,1.23,3.6v.105a4.925,4.925,0,0,1-1.235,3.529,4.384,4.384,0,0,1-3.344,1.305A4.434,4.434,0,0,1,57.7,40.958a4.761,4.761,0,0,1-1.327-3.3Zm2.962.185a3.538,3.538,0,0,0,.413,1.934,1.376,1.376,0,0,0,1.222.615q1.582,0,1.617-2.435v-.3q0-2.558-1.635-2.558-1.485,0-1.608,2.206Z" transform="translate(920.293 1960.943)" fill="#12263f"/>
    <path id="Trazado_729106" data-name="Trazado 729106" d="M14.6,14.176V19H11.168V4.781h5.674a6.608,6.608,0,0,1,2.886.6,4.526,4.526,0,0,1,1.943,1.709,4.667,4.667,0,0,1,.688,2.515,4.114,4.114,0,0,1-1.489,3.325,6.179,6.179,0,0,1-4.087,1.245Zm0-2.646h2.246a2.118,2.118,0,0,0,1.519-.5,1.85,1.85,0,0,0,.522-1.406,2.287,2.287,0,0,0-.537-1.592,1.9,1.9,0,0,0-1.465-.605H14.6Zm14.873,2.441H27.613V19H24.186V4.781h5.6A6.246,6.246,0,0,1,33.736,5.9a3.8,3.8,0,0,1,1.426,3.17,4.616,4.616,0,0,1-.6,2.458,4.263,4.263,0,0,1-1.88,1.58l2.969,5.741V19H31.979Zm-1.855-2.637h2.168a1.946,1.946,0,0,0,1.47-.514,1.987,1.987,0,0,0,.493-1.434,2.01,2.01,0,0,0-.5-1.444,1.928,1.928,0,0,0-1.465-.524H27.613Zm21.66.85a8.385,8.385,0,0,1-.771,3.682,5.7,5.7,0,0,1-2.192,2.466,6.1,6.1,0,0,1-3.237.864,6.191,6.191,0,0,1-3.223-.835,5.692,5.692,0,0,1-2.192-2.388,8.144,8.144,0,0,1-.825-3.564v-.8A8.422,8.422,0,0,1,37.6,7.921a5.688,5.688,0,0,1,2.2-2.466,6.5,6.5,0,0,1,6.479-.01,5.79,5.79,0,0,1,2.2,2.446,8.18,8.18,0,0,1,.8,3.638Zm-3.486-.6a5.979,5.979,0,0,0-.708-3.218,2.271,2.271,0,0,0-2.026-1.1q-2.578,0-2.725,3.867l-.01,1.045a6.149,6.149,0,0,0,.693,3.213,2.268,2.268,0,0,0,2.061,1.123,2.24,2.24,0,0,0,2-1.1,5.982,5.982,0,0,0,.713-3.174Zm16.758,2.6a5.193,5.193,0,0,1-.8,2.622,4.833,4.833,0,0,1-2.056,1.763,7,7,0,0,1-3.022.625,5.584,5.584,0,0,1-4.414-1.826,7.54,7.54,0,0,1-1.611-5.156v-.7a8.607,8.607,0,0,1,.728-3.657,5.513,5.513,0,0,1,2.095-2.422,5.844,5.844,0,0,1,3.164-.854,6.129,6.129,0,0,1,4.16,1.362,5.383,5.383,0,0,1,1.787,3.755H59.156A2.547,2.547,0,0,0,58.5,7.828a2.691,2.691,0,0,0-1.875-.566,2.048,2.048,0,0,0-1.875.957,6.151,6.151,0,0,0-.625,3.057v1.006a6.806,6.806,0,0,0,.571,3.252,2.091,2.091,0,0,0,1.968.977,2.632,2.632,0,0,0,1.807-.557,2.363,2.363,0,0,0,.664-1.768Zm10.439-1.221H67.594v3.4h6.367V19H64.166V4.781H73.98V7.428H67.594v3h5.391ZM75.357,19V4.781h4.58a6.737,6.737,0,0,1,3.389.854,6.006,6.006,0,0,1,2.349,2.412,7.283,7.283,0,0,1,.854,3.491v.654a7.325,7.325,0,0,1-.825,3.5,6.032,6.032,0,0,1-2.324,2.422A6.589,6.589,0,0,1,80.035,19ZM78.785,7.428v8.936h1.191a2.666,2.666,0,0,0,2.266-1.05,5.145,5.145,0,0,0,.791-3.12v-.615a5.1,5.1,0,0,0-.791-3.105,2.713,2.713,0,0,0-2.3-1.045ZM91.939,19H88.521V4.781h3.418ZM98.824,4.781,102,14.674l3.164-9.893h4.512V19h-3.437V15.68l.332-6.8L103.131,19h-2.266L97.418,8.873l.332,6.807V19H94.322V4.781ZM115.5,19h-3.418V4.781H115.5Zm11.2-6.035h-5.391v3.4h6.367V19h-9.795V4.781H127.7V7.428h-6.387v3h5.391ZM140.953,19h-3.408l-5.039-8.848V19h-3.428V4.781h3.428l5.029,8.848V4.781h3.418ZM154,7.428h-4.268V19H146.3V7.428h-4.189V4.781H154Zm13.213,4.756a8.385,8.385,0,0,1-.771,3.682,5.7,5.7,0,0,1-2.192,2.466,6.1,6.1,0,0,1-3.237.864,6.191,6.191,0,0,1-3.223-.835,5.692,5.692,0,0,1-2.192-2.388,8.144,8.144,0,0,1-.825-3.564v-.8a8.422,8.422,0,0,1,.767-3.687,5.688,5.688,0,0,1,2.2-2.466,6.5,6.5,0,0,1,6.479-.01,5.79,5.79,0,0,1,2.2,2.446,8.18,8.18,0,0,1,.8,3.638Zm-3.486-.6a5.979,5.979,0,0,0-.708-3.218,2.271,2.271,0,0,0-2.026-1.1q-2.578,0-2.725,3.867l-.01,1.045a6.15,6.15,0,0,0,.693,3.213,2.268,2.268,0,0,0,2.061,1.123,2.24,2.24,0,0,0,2-1.1,5.982,5.982,0,0,0,.713-3.174Z" transform="translate(876.266 1792.622)" fill="#12263f"/>
    <path id="Trazado_729107" data-name="Trazado 729107" d="M32.87,12.658V17H29.785V4.2h5.106a5.948,5.948,0,0,1,2.6.541,4.074,4.074,0,0,1,1.749,1.538,4.2,4.2,0,0,1,.62,2.263,3.7,3.7,0,0,1-1.34,2.993,5.561,5.561,0,0,1-3.678,1.121Zm0-2.382h2.021a1.906,1.906,0,0,0,1.367-.448,1.665,1.665,0,0,0,.47-1.266,2.059,2.059,0,0,0-.483-1.433,1.712,1.712,0,0,0-1.318-.545H32.87Zm14.247-.105-.976-.07a1.752,1.752,0,0,0-1.793.879V17H41.386V7.49h2.777l.1,1.222a2.294,2.294,0,0,1,2.083-1.4,2.888,2.888,0,0,1,.826.105Zm.378,1.986a5.613,5.613,0,0,1,.554-2.536,3.96,3.96,0,0,1,1.591-1.709,4.791,4.791,0,0,1,2.435-.6A4.373,4.373,0,0,1,55.44,8.637a5.076,5.076,0,0,1,1.23,3.6v.105a4.925,4.925,0,0,1-1.235,3.529,4.384,4.384,0,0,1-3.344,1.305,4.434,4.434,0,0,1-3.261-1.217,4.761,4.761,0,0,1-1.327-3.3Zm2.962.185a3.538,3.538,0,0,0,.413,1.934,1.376,1.376,0,0,0,1.222.615q1.582,0,1.617-2.435v-.3q0-2.558-1.635-2.558-1.485,0-1.608,2.206ZM62,14.891a1.317,1.317,0,0,0,.967-.338,1.241,1.241,0,0,0,.334-.945h2.777a3.288,3.288,0,0,1-1.121,2.566,4.168,4.168,0,0,1-2.887,1,4.22,4.22,0,0,1-3.27-1.3,5.125,5.125,0,0,1-1.2-3.6v-.123A5.792,5.792,0,0,1,58.134,9.6a3.872,3.872,0,0,1,1.534-1.7,4.573,4.573,0,0,1,2.373-.593,4.116,4.116,0,0,1,2.944,1.028,3.647,3.647,0,0,1,1.09,2.786H63.3A1.626,1.626,0,0,0,62.937,10a1.244,1.244,0,0,0-.967-.4q-1.151,0-1.345,1.468a10.357,10.357,0,0,0-.062,1.283,4.068,4.068,0,0,0,.343,1.986A1.187,1.187,0,0,0,62,14.891Zm9.932,2.285a4.889,4.889,0,0,1-3.542-1.305,4.507,4.507,0,0,1-1.354-3.4v-.246a5.84,5.84,0,0,1,.541-2.575,3.955,3.955,0,0,1,1.578-1.727,4.763,4.763,0,0,1,2.461-.611,4.117,4.117,0,0,1,3.164,1.244,4.887,4.887,0,0,1,1.16,3.467v1.151H70.047a2.135,2.135,0,0,0,.694,1.257,2.066,2.066,0,0,0,1.389.457,2.662,2.662,0,0,0,2.2-.984l1.354,1.6a3.784,3.784,0,0,1-1.569,1.217A5.3,5.3,0,0,1,71.928,17.176ZM71.594,9.6q-1.3,0-1.547,1.723h2.988v-.229a1.467,1.467,0,0,0-.36-1.1A1.434,1.434,0,0,0,71.594,9.6Zm10.512,4.729a.684.684,0,0,0-.4-.606,6.016,6.016,0,0,0-1.5-.475,6.853,6.853,0,0,1-1.828-.646,3.062,3.062,0,0,1-1.1-.971,2.319,2.319,0,0,1-.378-1.31,2.628,2.628,0,0,1,1.081-2.158,4.453,4.453,0,0,1,2.83-.848,4.934,4.934,0,0,1,3.023.853,2.666,2.666,0,0,1,1.143,2.241H82.009q0-1.143-1.2-1.143a1.194,1.194,0,0,0-.782.259.8.8,0,0,0-.316.646.737.737,0,0,0,.387.642,3.654,3.654,0,0,0,1.235.4,10.671,10.671,0,0,1,1.49.378,2.706,2.706,0,0,1,2.145,2.646,2.491,2.491,0,0,1-1.156,2.118,5.068,5.068,0,0,1-2.993.817,5.172,5.172,0,0,1-2.18-.439,3.645,3.645,0,0,1-1.494-1.2A2.707,2.707,0,0,1,76.6,13.95h2.769a1.145,1.145,0,0,0,.439.962,1.808,1.808,0,0,0,1.081.3,1.422,1.422,0,0,0,.91-.246A.787.787,0,0,0,82.106,14.328Zm3.867-2.171a5.613,5.613,0,0,1,.554-2.536,3.96,3.96,0,0,1,1.591-1.709,4.791,4.791,0,0,1,2.435-.6,4.373,4.373,0,0,1,3.366,1.323,5.076,5.076,0,0,1,1.23,3.6v.105a4.925,4.925,0,0,1-1.235,3.529,4.384,4.384,0,0,1-3.344,1.305,4.434,4.434,0,0,1-3.261-1.217,4.761,4.761,0,0,1-1.327-3.3Zm2.962.185a3.538,3.538,0,0,0,.413,1.934,1.376,1.376,0,0,0,1.222.615q1.582,0,1.617-2.435v-.3q0-2.558-1.635-2.558-1.485,0-1.608,2.206Zm11.628-.167a5.809,5.809,0,0,1,.976-3.56,3.211,3.211,0,0,1,2.725-1.3,2.731,2.731,0,0,1,2.145,1V3.5h2.971V17h-2.663l-.149-1.02a2.8,2.8,0,0,1-2.32,1.2,3.205,3.205,0,0,1-2.689-1.3A5.993,5.993,0,0,1,100.563,12.175Zm2.962.185q0,2.531,1.477,2.531a1.458,1.458,0,0,0,1.406-.826V10.443a1.419,1.419,0,0,0-1.389-.844q-1.371,0-1.485,2.215Zm12.138,4.816a4.889,4.889,0,0,1-3.542-1.305,4.507,4.507,0,0,1-1.354-3.4v-.246a5.84,5.84,0,0,1,.541-2.575,3.955,3.955,0,0,1,1.578-1.727,4.763,4.763,0,0,1,2.461-.611,4.117,4.117,0,0,1,3.164,1.244,4.887,4.887,0,0,1,1.16,3.467v1.151h-5.889a2.135,2.135,0,0,0,.694,1.257,2.066,2.066,0,0,0,1.389.457,2.662,2.662,0,0,0,2.2-.984l1.354,1.6a3.784,3.784,0,0,1-1.569,1.217A5.3,5.3,0,0,1,115.663,17.176ZM115.329,9.6q-1.3,0-1.547,1.723h2.988v-.229a1.467,1.467,0,0,0-.36-1.1A1.434,1.434,0,0,0,115.329,9.6ZM22.367,39.891a1.317,1.317,0,0,0,.967-.338,1.241,1.241,0,0,0,.334-.945h2.777a3.288,3.288,0,0,1-1.121,2.566,4.168,4.168,0,0,1-2.887,1,4.22,4.22,0,0,1-3.27-1.3,5.125,5.125,0,0,1-1.2-3.6v-.123A5.792,5.792,0,0,1,18.5,34.6a3.872,3.872,0,0,1,1.534-1.7,4.573,4.573,0,0,1,2.373-.593,4.116,4.116,0,0,1,2.944,1.028,3.647,3.647,0,0,1,1.09,2.786H23.667A1.626,1.626,0,0,0,23.307,35a1.244,1.244,0,0,0-.967-.4q-1.151,0-1.345,1.468a10.357,10.357,0,0,0-.062,1.283,4.068,4.068,0,0,0,.343,1.986A1.187,1.187,0,0,0,22.367,39.891ZM33.054,42a3.344,3.344,0,0,1-.281-.853,2.754,2.754,0,0,1-2.285,1.028,3.374,3.374,0,0,1-2.285-.813,2.588,2.588,0,0,1-.94-2.043A2.66,2.66,0,0,1,28.4,36.981a5.821,5.821,0,0,1,3.322-.791h.914v-.5q0-1.316-1.134-1.316a.927.927,0,0,0-1.055,1.042H27.491a2.655,2.655,0,0,1,1.173-2.239,4.931,4.931,0,0,1,2.993-.86,4.323,4.323,0,0,1,2.874.888,3.086,3.086,0,0,1,1.081,2.435v4.21a4.311,4.311,0,0,0,.4,2V42ZM31.2,40.066a1.652,1.652,0,0,0,.918-.237,1.487,1.487,0,0,0,.523-.536V37.772H31.78q-1.547,0-1.547,1.389a.848.848,0,0,0,.272.655A.986.986,0,0,0,31.2,40.066ZM40.05,32.49l.1,1.116a3.27,3.27,0,0,1,2.716-1.292A2.407,2.407,0,0,1,45.3,33.747a3.165,3.165,0,0,1,2.795-1.433q2.892,0,2.971,3.5V42H48.092V36a1.813,1.813,0,0,0-.246-1.063,1.048,1.048,0,0,0-.9-.334,1.4,1.4,0,0,0-1.31.782l.009.123V42H42.678V36.015a1.906,1.906,0,0,0-.237-1.081,1.045,1.045,0,0,0-.905-.334,1.42,1.42,0,0,0-1.3.782V42H37.273V32.49Zm21.533,4.834a5.8,5.8,0,0,1-.967,3.595,3.238,3.238,0,0,1-2.725,1.257,2.81,2.81,0,0,1-2.338-1.151L55.431,42H52.777V28.5h2.962v4.755a2.711,2.711,0,0,1,2.136-.94,3.239,3.239,0,0,1,2.742,1.274,5.826,5.826,0,0,1,.967,3.586Zm-2.971-.189a3.866,3.866,0,0,0-.365-1.952,1.229,1.229,0,0,0-1.121-.584,1.418,1.418,0,0,0-1.389.763v3.773a1.426,1.426,0,0,0,1.406.755,1.258,1.258,0,0,0,1.327-1.018A7.309,7.309,0,0,0,58.613,37.135ZM66.013,42H63.042V32.49h2.971ZM62.867,30.029a1.334,1.334,0,0,1,.457-1.043,1.934,1.934,0,0,1,2.373,0,1.42,1.42,0,0,1,0,2.087,1.934,1.934,0,0,1-2.373,0A1.334,1.334,0,0,1,62.867,30.029Zm4.6,7.128a5.613,5.613,0,0,1,.554-2.536,3.96,3.96,0,0,1,1.591-1.709,4.791,4.791,0,0,1,2.435-.6,4.373,4.373,0,0,1,3.366,1.323,5.076,5.076,0,0,1,1.23,3.6v.105A4.925,4.925,0,0,1,75.4,40.871a4.384,4.384,0,0,1-3.344,1.305A4.434,4.434,0,0,1,68.8,40.958a4.761,4.761,0,0,1-1.327-3.3Zm2.962.185a3.538,3.538,0,0,0,.413,1.934,1.376,1.376,0,0,0,1.222.615q1.582,0,1.617-2.435v-.3q0-2.558-1.635-2.558-1.485,0-1.608,2.206ZM87.784,42a3.344,3.344,0,0,1-.281-.853,2.754,2.754,0,0,1-2.285,1.028,3.374,3.374,0,0,1-2.285-.813,2.588,2.588,0,0,1-.94-2.043,2.66,2.66,0,0,1,1.143-2.338,5.821,5.821,0,0,1,3.322-.791h.914v-.5q0-1.316-1.134-1.316a.927.927,0,0,0-1.055,1.042H82.22a2.655,2.655,0,0,1,1.173-2.239,4.931,4.931,0,0,1,2.993-.86,4.323,4.323,0,0,1,2.874.888,3.086,3.086,0,0,1,1.081,2.435v4.21a4.311,4.311,0,0,0,.4,2V42Zm-1.854-1.934a1.652,1.652,0,0,0,.918-.237,1.487,1.487,0,0,0,.523-.536V37.772h-.861q-1.547,0-1.547,1.389a.848.848,0,0,0,.272.655A.986.986,0,0,0,85.929,40.066ZM96,39.891a1.317,1.317,0,0,0,.967-.338,1.241,1.241,0,0,0,.334-.945h2.777a3.288,3.288,0,0,1-1.121,2.566,4.168,4.168,0,0,1-2.887,1,4.22,4.22,0,0,1-3.27-1.3,5.125,5.125,0,0,1-1.2-3.6v-.123a5.792,5.792,0,0,1,.532-2.544,3.872,3.872,0,0,1,1.534-1.7,4.573,4.573,0,0,1,2.373-.593,4.116,4.116,0,0,1,2.944,1.028,3.647,3.647,0,0,1,1.09,2.786H97.3A1.626,1.626,0,0,0,96.942,35a1.244,1.244,0,0,0-.967-.4q-1.151,0-1.345,1.468a10.357,10.357,0,0,0-.062,1.283,4.068,4.068,0,0,0,.343,1.986A1.187,1.187,0,0,0,96,39.891Zm8.78-9.765V32.49h1.564v2.057h-1.564V38.9a1.111,1.111,0,0,0,.193.747,1.037,1.037,0,0,0,.765.211,4.345,4.345,0,0,0,.738-.053v2.118a5.466,5.466,0,0,1-1.67.255,3.1,3.1,0,0,1-2.259-.721,2.954,2.954,0,0,1-.729-2.188v-4.72h-1.213V32.49h1.213V30.126Zm8.394,10.846a3.054,3.054,0,0,1-2.54,1.2,3,3,0,0,1-2.369-.91,3.826,3.826,0,0,1-.8-2.615V32.49h2.962v6.179a1.065,1.065,0,0,0,1.187,1.222,1.548,1.548,0,0,0,1.45-.729V32.49h2.979V42h-2.777ZM123.019,42a3.344,3.344,0,0,1-.281-.853,2.754,2.754,0,0,1-2.285,1.028,3.374,3.374,0,0,1-2.285-.813,2.588,2.588,0,0,1-.94-2.043,2.66,2.66,0,0,1,1.143-2.338,5.821,5.821,0,0,1,3.322-.791h.914v-.5q0-1.316-1.134-1.316a.927.927,0,0,0-1.055,1.042h-2.962a2.655,2.655,0,0,1,1.173-2.239,4.931,4.931,0,0,1,2.993-.86,4.323,4.323,0,0,1,2.874.888,3.086,3.086,0,0,1,1.081,2.435v4.21a4.311,4.311,0,0,0,.4,2V42Zm-1.854-1.934a1.652,1.652,0,0,0,.918-.237,1.487,1.487,0,0,0,.523-.536V37.772h-.861q-1.547,0-1.547,1.389a.848.848,0,0,0,.272.655A.986.986,0,0,0,121.165,40.066ZM130.34,42H127.37V28.5h2.971Z" transform="translate(421.21 1800.01)" fill="#12263f"/>
    <path id="Trazado_729108" data-name="Trazado 729108" d="M-50.25-5.258h-4.93v4.031h5.727V0H-56.68V-11.375h7.148v1.227H-55.18v3.664h4.93Zm4.4-5.242v2.047h1.578v1.117h-1.578v5.249a1.173,1.173,0,0,0,.211.763.888.888,0,0,0,.719.254,3.5,3.5,0,0,0,.688-.094V0a4.215,4.215,0,0,1-1.109.155A1.8,1.8,0,0,1-46.8-.43,2.517,2.517,0,0,1-47.3-2.094V-7.336h-1.539V-8.453H-47.3V-10.5ZM-37.367,0a3.036,3.036,0,0,1-.2-.891A3.225,3.225,0,0,1-39.977.156a2.984,2.984,0,0,1-2.051-.707,2.287,2.287,0,0,1-.8-1.793,2.39,2.39,0,0,1,1-2.051A4.733,4.733,0,0,1-39-5.125h1.406v-.664A1.623,1.623,0,0,0-38.047-7a1.821,1.821,0,0,0-1.336-.449,2.107,2.107,0,0,0-1.3.391,1.151,1.151,0,0,0-.523.945h-1.453a2,2,0,0,1,.449-1.223,3.066,3.066,0,0,1,1.219-.934A4.1,4.1,0,0,1-39.3-8.609a3.342,3.342,0,0,1,2.289.73,2.635,2.635,0,0,1,.859,2.012v3.891a4.757,4.757,0,0,0,.3,1.852V0Zm-2.4-1.1a2.54,2.54,0,0,0,1.289-.352,2.127,2.127,0,0,0,.883-.914V-4.1h-1.133q-2.656,0-2.656,1.555a1.316,1.316,0,0,0,.453,1.063A1.742,1.742,0,0,0-39.766-1.1Zm13.023-3.031a5.062,5.062,0,0,1-.883,3.109A2.829,2.829,0,0,1-30.016.156,3.1,3.1,0,0,1-32.437-.82V3.25h-1.445v-11.7h1.32l.07.938a2.977,2.977,0,0,1,2.453-1.094,2.882,2.882,0,0,1,2.41,1.148,5.117,5.117,0,0,1,.887,3.2ZM-28.187-4.3A3.735,3.735,0,0,0-28.8-6.555a1.963,1.963,0,0,0-1.672-.828,2.125,2.125,0,0,0-1.969,1.164V-2.18a2.129,2.129,0,0,0,1.984,1.156A1.954,1.954,0,0,0-28.8-1.848,4.077,4.077,0,0,0-28.187-4.3Zm8.5,4.3a3.036,3.036,0,0,1-.2-.891A3.225,3.225,0,0,1-22.3.156a2.984,2.984,0,0,1-2.051-.707,2.287,2.287,0,0,1-.8-1.793,2.39,2.39,0,0,1,1-2.051,4.733,4.733,0,0,1,2.824-.73h1.406v-.664A1.623,1.623,0,0,0-20.367-7,1.821,1.821,0,0,0-21.7-7.445a2.108,2.108,0,0,0-1.3.391,1.151,1.151,0,0,0-.523.945h-1.453a2,2,0,0,1,.449-1.223,3.066,3.066,0,0,1,1.219-.934,4.1,4.1,0,0,1,1.691-.344,3.342,3.342,0,0,1,2.289.73,2.635,2.635,0,0,1,.859,2.012v3.891a4.757,4.757,0,0,0,.3,1.852V0Zm-2.4-1.1A2.54,2.54,0,0,0-20.8-1.453a2.127,2.127,0,0,0,.883-.914V-4.1h-1.133Q-23.7-4.1-23.7-2.547a1.316,1.316,0,0,0,.453,1.063A1.742,1.742,0,0,0-22.086-1.1ZM-5.1-4.133a5.062,5.062,0,0,1-.883,3.109A2.829,2.829,0,0,1-8.375.156,3.1,3.1,0,0,1-10.8-.82V3.25h-1.445v-11.7h1.32l.07.938A2.977,2.977,0,0,1-8.4-8.609a2.882,2.882,0,0,1,2.41,1.148,5.117,5.117,0,0,1,.887,3.2ZM-6.547-4.3a3.735,3.735,0,0,0-.609-2.258,1.963,1.963,0,0,0-1.672-.828A2.125,2.125,0,0,0-10.8-6.219V-2.18A2.129,2.129,0,0,0-8.812-1.023,1.954,1.954,0,0,0-7.16-1.848,4.077,4.077,0,0,0-6.547-4.3ZM.82-7.156a4.331,4.331,0,0,0-.711-.055A1.9,1.9,0,0,0-1.82-6V0H-3.266V-8.453h1.406l.023.977A2.251,2.251,0,0,1,.18-8.609,1.477,1.477,0,0,1,.82-8.5ZM5.508.156a3.693,3.693,0,0,1-2.8-1.129,4.19,4.19,0,0,1-1.078-3.02v-.266A5.073,5.073,0,0,1,2.113-6.5,3.748,3.748,0,0,1,3.457-8.051a3.378,3.378,0,0,1,1.871-.559A3.166,3.166,0,0,1,7.891-7.523,4.7,4.7,0,0,1,8.8-4.414v.6H3.078a3,3,0,0,0,.73,2.02,2.3,2.3,0,0,0,1.777.77,2.517,2.517,0,0,0,1.3-.312,3.259,3.259,0,0,0,.93-.828l.883.688A3.55,3.55,0,0,1,5.508.156Zm-.18-7.578a1.928,1.928,0,0,0-1.469.637A3.1,3.1,0,0,0,3.125-5H7.359v-.109a2.753,2.753,0,0,0-.594-1.707A1.815,1.815,0,0,0,5.328-7.422ZM12.047,0H10.6V-12h1.445ZM15.93,0H14.484V-8.453H15.93ZM14.367-10.7a.863.863,0,0,1,.215-.594.807.807,0,0,1,.637-.242.819.819,0,0,1,.641.242.854.854,0,0,1,.219.594.826.826,0,0,1-.219.586.834.834,0,0,1-.641.234.821.821,0,0,1-.637-.234A.834.834,0,0,1,14.367-10.7ZM19.6-8.453l.039.938a3.122,3.122,0,0,1,2.508-1.094A2.417,2.417,0,0,1,24.563-7.25a3.2,3.2,0,0,1,1.1-.984,3.242,3.242,0,0,1,1.6-.375q2.781,0,2.828,2.945V0H28.641V-5.578a1.941,1.941,0,0,0-.414-1.355,1.823,1.823,0,0,0-1.391-.449A1.916,1.916,0,0,0,25.5-6.9a1.949,1.949,0,0,0-.617,1.293V0H23.43V-5.539a1.613,1.613,0,0,0-1.8-1.844A1.934,1.934,0,0,0,19.68-6.172V0H18.234V-8.453ZM33.836,0H32.391V-8.453h1.445ZM32.273-10.7a.863.863,0,0,1,.215-.594.807.807,0,0,1,.637-.242.819.819,0,0,1,.641.242.854.854,0,0,1,.219.594.826.826,0,0,1-.219.586.834.834,0,0,1-.641.234.821.821,0,0,1-.637-.234A.834.834,0,0,1,32.273-10.7Zm5.242,2.242.047,1.063a3.08,3.08,0,0,1,2.531-1.219q2.68,0,2.7,3.023V0H41.352V-5.594a1.946,1.946,0,0,0-.418-1.352,1.675,1.675,0,0,0-1.277-.437,2.086,2.086,0,0,0-1.234.375,2.546,2.546,0,0,0-.828.984V0H36.148V-8.453ZM50.2,0a3.036,3.036,0,0,1-.2-.891A3.225,3.225,0,0,1,47.586.156a2.984,2.984,0,0,1-2.051-.707,2.287,2.287,0,0,1-.8-1.793,2.39,2.39,0,0,1,1-2.051,4.733,4.733,0,0,1,2.824-.73h1.406v-.664A1.623,1.623,0,0,0,49.516-7a1.821,1.821,0,0,0-1.336-.449,2.107,2.107,0,0,0-1.3.391,1.151,1.151,0,0,0-.523.945H44.906a2,2,0,0,1,.449-1.223,3.066,3.066,0,0,1,1.219-.934,4.1,4.1,0,0,1,1.691-.344,3.342,3.342,0,0,1,2.289.73,2.635,2.635,0,0,1,.859,2.012v3.891a4.757,4.757,0,0,0,.3,1.852V0ZM47.8-1.1a2.54,2.54,0,0,0,1.289-.352,2.127,2.127,0,0,0,.883-.914V-4.1H48.836q-2.656,0-2.656,1.555a1.316,1.316,0,0,0,.453,1.063A1.742,1.742,0,0,0,47.8-1.1Zm9.969-6.055a4.331,4.331,0,0,0-.711-.055A1.9,1.9,0,0,0,55.125-6V0H53.68V-8.453h1.406l.023.977a2.251,2.251,0,0,1,2.016-1.133,1.477,1.477,0,0,1,.641.109Z" transform="translate(497.708 1877.121)" fill="#12263f"/>
    <g id="Trazado_727243" data-name="Trazado 727243" transform="translate(390 1522.391)" fill="none">
      <path d="M0,0H267.085V54.139H0Z" stroke="none"/>
      <path d="M 2 1.999992370605469 L 2 52.13877868652344 L 265.0846252441406 52.13877868652344 L 265.0846252441406 1.999992370605469 L 2 1.999992370605469 M 0 -7.62939453125e-06 L 267.0846252441406 -7.62939453125e-06 L 267.0846252441406 54.13877868652344 L 0 54.13877868652344 L 0 -7.62939453125e-06 Z" stroke="none" fill="#167b7d"/>
    </g>
    <g id="Trazado_729109" data-name="Trazado 729109" transform="translate(413.46 1758.797)" fill="none">
      <path d="M0,0H166.026V206.63H0Z" stroke="none"/>
      <path d="M 2.000015258789062 2 L 2.000015258789062 204.6296539306641 L 164.0255584716797 204.6296539306641 L 164.0255584716797 2 L 2.000015258789062 2 M 1.52587890625e-05 0 L 166.0255584716797 0 L 166.0255584716797 206.6296539306641 L 1.52587890625e-05 206.6296539306641 L 1.52587890625e-05 0 Z" stroke="none" fill="#167b7d"/>
    </g>
    <g id="Trazado_729110" data-name="Trazado 729110" transform="translate(647.159 1779.55)" fill="none">
      <path d="M0,0H129.031V51.432H0Z" stroke="none"/>
      <path d="M 1.999992370605469 1.999992370605469 L 1.999992370605469 49.43184661865234 L 127.0307388305664 49.43184661865234 L 127.0307388305664 1.999992370605469 L 1.999992370605469 1.999992370605469 M -1.52587890625e-05 -7.62939453125e-06 L 129.0307312011719 -7.62939453125e-06 L 129.0307312011719 51.43184661865234 L -1.52587890625e-05 51.43184661865234 L -1.52587890625e-05 -7.62939453125e-06 Z" stroke="none" fill="#167b7d"/>
    </g>
    <g id="Trazado_729111" data-name="Trazado 729111" transform="translate(882.663 1604.501)" fill="none">
      <path d="M0,0H157.9V83.013H0Z" stroke="none"/>
      <path d="M 2.000015258789062 2 L 2.000015258789062 81.01278686523438 L 155.9047393798828 81.01278686523438 L 155.9047393798828 2 L 2.000015258789062 2 M 1.52587890625e-05 0 L 157.9047393798828 0 L 157.9047393798828 83.01278686523438 L 1.52587890625e-05 83.01278686523438 L 1.52587890625e-05 0 Z" stroke="none" fill="#167b7d"/>
    </g>
    <g id="Trazado_729102" data-name="Trazado 729102" transform="translate(911.537 1942.867)" fill="none">
      <path d="M0,0H106.473V82.11H0Z" stroke="none"/>
      <path d="M 2 1.999992370605469 L 2 80.11046600341797 L 104.4729232788086 80.11046600341797 L 104.4729232788086 1.999992370605469 L 2 1.999992370605469 M 0 -7.62939453125e-06 L 106.4729232788086 -7.62939453125e-06 L 106.4729232788086 82.11046600341797 L 0 82.11046600341797 L 0 -7.62939453125e-06 Z" stroke="none" fill="#167b7d"/>
    </g>
    <g id="Trazado_729112" data-name="Trazado 729112" transform="translate(842.961 1779.55)" fill="none">
      <path d="M0,0H237.308V51.432H0Z" stroke="none"/>
      <path d="M 1.999984741210938 2.000011444091797 L 1.999984741210938 49.43182373046875 L 235.3082733154297 49.43182373046875 L 235.3082733154297 2.000011444091797 L 1.999984741210938 2.000011444091797 M -1.52587890625e-05 1.1444091796875e-05 L 237.3082733154297 1.1444091796875e-05 L 237.3082733154297 51.43182754516602 L -1.52587890625e-05 51.43182754516602 L -1.52587890625e-05 1.1444091796875e-05 Z" stroke="none" fill="#167b7d"/>
    </g>
    <path id="Trazado_727239" data-name="Trazado 727239" d="M-526.4-9853.281h128.146v347.416H-548.59" transform="translate(1566.97 11490.012)" fill="none" stroke="#167b7d" stroke-width="2"/>
    <path id="Trazado_727240" data-name="Trazado 727240" d="M-689.076-9484.949H-892.982v-151.944" transform="translate(1600.612 11468.874)" fill="none" stroke="#167b7d" stroke-width="2"/>
    <path id="Trazado_727241" data-name="Trazado 727241" d="M-892.982-9710.461v-142.82h174.167" transform="translate(1600.612 11490.012)" fill="none" stroke="#167b7d" stroke-width="2"/>
    <g id="Trazado_729103" data-name="Trazado 729103" transform="translate(805.966 1741)" fill="none">
      <path d="M151.137,0c83.471,0,151.137,29.435,151.137,65.744s-67.667,65.744-151.137,65.744S0,102.054,0,65.744,67.667,0,151.137,0Z" stroke="none"/>
      <path d="M 151.1374053955078 2.000015258789062 C 130.8550567626953 2.000015258789062 111.1837158203125 3.7271728515625 92.66978454589844 7.133514404296875 C 83.78213500976562 8.768745422363281 75.2125244140625 10.79193878173828 67.19894409179688 13.14694213867188 C 59.27528381347656 15.47555541992188 51.82832336425781 18.14797973632812 45.06491088867188 21.09005737304688 C 38.32424926757812 24.02220916748047 32.21090698242188 27.24455261230469 26.89459228515625 30.66759490966797 C 21.56344604492188 34.10025024414062 16.99325561523438 37.76090240478516 13.31103515625 41.54789733886719 C 9.60797119140625 45.35628509521484 6.771484375 49.32570648193359 4.880340576171875 53.34586334228516 C 2.96905517578125 57.40874481201172 1.999969482421875 61.58016967773438 1.999969482421875 65.74428558349609 C 1.999969482421875 69.90840148925781 2.96905517578125 74.07981872558594 4.880340576171875 78.14270782470703 C 6.771484375 82.16285705566406 9.60797119140625 86.13228607177734 13.31103515625 89.940673828125 C 16.99325561523438 93.72766876220703 21.56344604492188 97.38832092285156 26.89459228515625 100.8209762573242 C 32.21090698242188 104.2440185546875 38.32424926757812 107.4663619995117 45.06491088867188 110.3985137939453 C 51.82832336425781 113.3405914306641 59.27528381347656 116.0130157470703 67.19894409179688 118.3416290283203 C 75.2125244140625 120.6966323852539 83.78213500976562 122.7198257446289 92.66978454589844 124.3550567626953 C 111.1837158203125 127.7613983154297 130.8550567626953 129.4885559082031 151.1374053955078 129.4885559082031 C 171.4197540283203 129.4885559082031 191.0910949707031 127.7613983154297 209.60498046875 124.3550567626953 C 218.49267578125 122.7198257446289 227.0622863769531 120.6966323852539 235.0758666992188 118.3416290283203 C 242.9994812011719 116.0130157470703 250.4464416503906 113.3405914306641 257.2098999023438 110.3985137939453 C 263.9505310058594 107.4663619995117 270.0639038085938 104.2440185546875 275.3801879882812 100.8209762573242 C 280.7113342285156 97.38832092285156 285.2815246582031 93.72766876220703 288.9637451171875 89.940673828125 C 292.6668395996094 86.13228607177734 295.5032958984375 82.16290283203125 297.3944396972656 78.14270782470703 C 299.3057250976562 74.07981872558594 300.2747802734375 69.90840148925781 300.2747802734375 65.74428558349609 C 300.2747802734375 61.58016967773438 299.3057250976562 57.40874481201172 297.3944396972656 53.34586334228516 C 295.5032958984375 49.32566833496094 292.6668395996094 45.35628509521484 288.9637451171875 41.54789733886719 C 285.2815246582031 37.76090240478516 280.7113342285156 34.10025024414062 275.3801879882812 30.66759490966797 C 270.0639038085938 27.24455261230469 263.9505310058594 24.02220916748047 257.2098999023438 21.09005737304688 C 250.4464416503906 18.14797973632812 242.9994812011719 15.47555541992188 235.0758666992188 13.14694213867188 C 227.0622863769531 10.79193878173828 218.49267578125 8.768745422363281 209.60498046875 7.133514404296875 C 191.0910949707031 3.7271728515625 171.4197540283203 2.000015258789062 151.1374053955078 2.000015258789062 M 151.1374053955078 1.52587890625e-05 C 234.6082916259766 1.52587890625e-05 302.2747802734375 29.43470764160156 302.2747802734375 65.74428558349609 C 302.2747802734375 102.0538635253906 234.6082916259766 131.4885559082031 151.1374053955078 131.4885559082031 C 67.66651916503906 131.4885559082031 -3.0517578125e-05 102.0538635253906 -3.0517578125e-05 65.74428558349609 C -3.0517578125e-05 29.43470764160156 67.66651916503906 1.52587890625e-05 151.1374053955078 1.52587890625e-05 Z" stroke="none" fill="#9f0925"/>
    </g>
    <path id="Trazado_727242" data-name="Trazado 727242" d="M-977.861-9979.895h467.4s83.948,4.918,84.564,122.59,0,336.417,0,336.417,4.122,97.165-84.564,96.249-645.154,0-645.154,0-87.808,8.74-88.513-93.5,0-368.078,0-368.078" transform="translate(1634.946 11503.081)" fill="none" stroke="#167b7d" stroke-width="2" stroke-dasharray="6"/>
    <path id="Rectangle" d="M19,0A19,19,0,1,1,0,19,19,19,0,0,1,19,0Z" transform="translate(516 1741) rotate(90)" fill="#1448d3"/>
    <path id="Trazado_729114" data-name="Trazado 729114" d="M11.136,17H8.165V7.543L5.247,8.4V6.146L10.863,4.2h.272Z" transform="translate(488 1751)" fill="#fff"/>
    <path id="Rectangle-2" data-name="Rectangle" d="M19,0A19,19,0,1,1,0,19,19,19,0,0,1,19,0Z" transform="translate(724 1816) rotate(90)" fill="#1448d3"/>
    <path id="Trazado_729115" data-name="Trazado 729115" d="M13.5,17H4.57V15.066l4.113-4.324A4.909,4.909,0,0,0,10.2,7.991a1.913,1.913,0,0,0-.36-1.257A1.287,1.287,0,0,0,8.8,6.3a1.3,1.3,0,0,0-1.1.576,2.366,2.366,0,0,0-.422,1.437H4.307A4.2,4.2,0,0,1,4.9,6.141,4.129,4.129,0,0,1,6.53,4.581a4.856,4.856,0,0,1,2.338-.562,4.777,4.777,0,0,1,3.195.958,3.42,3.42,0,0,1,1.121,2.751A4,4,0,0,1,12.9,9.2a6.456,6.456,0,0,1-.875,1.5,22.029,22.029,0,0,1-1.912,2.1L8.464,14.715H13.5Z" transform="translate(696 1826)" fill="#fff"/>
    <path id="Rectangle-3" data-name="Rectangle" d="M19,0A19,19,0,1,1,0,19,19,19,0,0,1,19,0Z" transform="translate(901 1618) rotate(90)" fill="#1448d3"/>
    <path id="Trazado_729116" data-name="Trazado 729116" d="M7.277,9.362h1.4a1.453,1.453,0,0,0,1.661-1.626A1.406,1.406,0,0,0,9.94,6.7a1.5,1.5,0,0,0-1.116-.4A1.606,1.606,0,0,0,7.8,6.646a1.046,1.046,0,0,0-.435.853H4.4a3.032,3.032,0,0,1,.563-1.8,3.715,3.715,0,0,1,1.56-1.235,5.334,5.334,0,0,1,2.193-.444,5.241,5.241,0,0,1,3.357.976A3.243,3.243,0,0,1,13.3,7.675a2.7,2.7,0,0,1-.505,1.56,3.6,3.6,0,0,1-1.472,1.191,3.441,3.441,0,0,1,1.6,1.121,2.951,2.951,0,0,1,.58,1.859,3.3,3.3,0,0,1-1.318,2.742,5.472,5.472,0,0,1-3.463,1.028A5.675,5.675,0,0,1,6.385,16.7a3.656,3.656,0,0,1-1.63-1.327A3.45,3.45,0,0,1,4.2,13.44H7.181a1.334,1.334,0,0,0,.475,1.02,1.676,1.676,0,0,0,1.169.431,1.755,1.755,0,0,0,1.248-.435,1.454,1.454,0,0,0,.466-1.112,1.7,1.7,0,0,0-.483-1.371,2.021,2.021,0,0,0-1.336-.4H7.277Z" transform="translate(873 1627)" fill="#fff"/>
    <path id="Rectangle-4" data-name="Rectangle" d="M19,0A19,19,0,1,1,0,19,19,19,0,0,1,19,0Z" transform="translate(1036 1966) rotate(90)" fill="#1448d3"/>
    <path id="Trazado_729117" data-name="Trazado 729117" d="M12.393,12h1.3v2.285h-1.3V17H9.431V14.284H4.482l-.176-1.811L9.431,4.229V4.2h2.962ZM7.128,12h2.3V8.062l-.185.3Z" transform="translate(1008 1975)" fill="#fff"/>
  </g>
</svg>
