<svg xmlns="http://www.w3.org/2000/svg" width="133" height="133" viewBox="0 0 133 133">
  <g id="Grupo_987981" data-name="Grupo 987981" transform="translate(-315 -1918)">
    <rect id="Rectángulo_346741" data-name="Rectángulo 346741" width="133" height="133" rx="18" transform="translate(315 1918)" fill="#fff"/>
    <g id="planificacion" transform="translate(336.602 1939.602)">
      <circle id="Elipse_4887" data-name="Elipse 4887" cx="44.898" cy="44.898" r="44.898" transform="translate(0 0)" fill="#0ce6ea"/>
      <g id="Grupo_987979" data-name="Grupo 987979" transform="translate(9.26 2.385)">
        <rect id="Rectángulo_346742" data-name="Rectángulo 346742" width="2.806" height="2.806" transform="translate(51.493 32.411)" fill="#183651"/>
        <rect id="Rectángulo_346743" data-name="Rectángulo 346743" width="2.806" height="2.806" transform="translate(60.051 32.411)" fill="#183651"/>
        <rect id="Rectángulo_346744" data-name="Rectángulo 346744" width="2.806" height="2.806" transform="translate(68.47 32.411)" fill="#183651"/>
        <rect id="Rectángulo_346745" data-name="Rectángulo 346745" width="2.806" height="2.806" transform="translate(0 49.809)" fill="#183651"/>
        <rect id="Rectángulo_346746" data-name="Rectángulo 346746" width="2.806" height="2.806" transform="translate(8.418 49.809)" fill="#183651"/>
        <rect id="Rectángulo_346747" data-name="Rectángulo 346747" width="2.806" height="2.806" transform="translate(16.977 49.809)" fill="#183651"/>
        <path id="Trazado_729031" data-name="Trazado 729031" d="M137.447,22.651l-1.964-1.964,2.526-2.666-2.526-2.666,1.964-1.964,4.63,4.63Z" transform="translate(-120.61 -13.391)" fill="#183651"/>
        <rect id="Rectángulo_346748" data-name="Rectángulo 346748" width="8.699" height="2.806" transform="translate(10.663 3.227)" fill="#183651"/>
      </g>
      <rect id="Rectángulo_346749" data-name="Rectángulo 346749" width="18.521" height="11.365" transform="translate(35.638 77.029)" fill="#4fbf9f"/>
      <path id="Trazado_729032" data-name="Trazado 729032" d="M212.121,438.737H193.6a1.326,1.326,0,0,1-1.4-1.4V425.969a1.326,1.326,0,0,1,1.4-1.4h18.52a1.326,1.326,0,0,1,1.4,1.4v11.365A1.326,1.326,0,0,1,212.121,438.737ZM195,435.931h15.714v-8.559H195Z" transform="translate(-157.962 -348.94)" fill="#183651"/>
      <rect id="Rectángulo_346750" data-name="Rectángulo 346750" width="18.521" height="11.365" transform="translate(35.638 58.087)" fill="#e0e4e8"/>
      <path id="Trazado_729033" data-name="Trazado 729033" d="M212.121,332.4H193.6a1.326,1.326,0,0,1-1.4-1.4V319.631a1.326,1.326,0,0,1,1.4-1.4h18.52a1.326,1.326,0,0,1,1.4,1.4V331A1.326,1.326,0,0,1,212.121,332.4ZM195,329.593h15.714v-8.559H195Z" transform="translate(-157.962 -261.544)" fill="#183651"/>
      <rect id="Rectángulo_346751" data-name="Rectángulo 346751" width="18.521" height="11.365" transform="translate(35.638 39.286)" fill="#4fbf9f"/>
      <path id="Trazado_729034" data-name="Trazado 729034" d="M212.121,226.06H193.6a1.326,1.326,0,0,1-1.4-1.4V213.292a1.326,1.326,0,0,1,1.4-1.4h18.52a1.326,1.326,0,0,1,1.4,1.4v11.365A1.326,1.326,0,0,1,212.121,226.06ZM195,223.254h15.714V214.7H195Z" transform="translate(-157.962 -174.146)" fill="#183651"/>
      <rect id="Rectángulo_346752" data-name="Rectángulo 346752" width="18.521" height="11.365" transform="translate(35.638 20.344)" fill="#e0e4e8"/>
      <path id="Trazado_729035" data-name="Trazado 729035" d="M212.121,120.509H193.6a1.326,1.326,0,0,1-1.4-1.4V107.741a1.326,1.326,0,0,1,1.4-1.4h18.52a1.326,1.326,0,0,1,1.4,1.4v11.365A1.406,1.406,0,0,1,212.121,120.509ZM195,117.7h15.714v-8.559H195Z" transform="translate(-157.962 -87.397)" fill="#183651"/>
      <rect id="Rectángulo_346753" data-name="Rectángulo 346753" width="18.521" height="11.365" transform="translate(35.638 1.403)" fill="#4fbf9f"/>
      <g id="Grupo_987980" data-name="Grupo 987980" transform="translate(0.982)">
        <path id="Trazado_729036" data-name="Trazado 729036" d="M212.121,14.171H193.6a1.326,1.326,0,0,1-1.4-1.4V1.4A1.326,1.326,0,0,1,193.6,0h18.52a1.326,1.326,0,0,1,1.4,1.4V12.768A1.406,1.406,0,0,1,212.121,14.171ZM195,11.365h15.714V2.806H195Z" transform="translate(-158.944)" fill="#183651"/>
        <path id="Trazado_729037" data-name="Trazado 729037" d="M329.644,445.5l-1.964-1.964,2.525-2.526-2.525-2.666,1.964-1.964,4.49,4.63Z" transform="translate(-270.294 -358.652)" fill="#183651"/>
        <rect id="Rectángulo_346754" data-name="Rectángulo 346754" width="8.699" height="2.806" transform="translate(53.176 80.957)" fill="#183651"/>
        <path id="Trazado_729038" data-name="Trazado 729038" d="M143.1,441.7l-2.1-1.964,2.666-2.666L141,434.407l2.1-1.964,4.49,4.63Z" transform="translate(-116.864 -355.414)" fill="#183651"/>
        <path id="Trazado_729039" data-name="Trazado 729039" d="M34.137,371.148H15.9a10.314,10.314,0,1,1,.14-20.625H40.17v2.806H16.037a7.577,7.577,0,1,0,0,15.153h18.24v2.666h-.14Z" transform="translate(-5.514 -288.086)" fill="#183651"/>
        <path id="Trazado_729040" data-name="Trazado 729040" d="M143.1,229.674,141,227.71l2.666-2.525L141,222.518l2.1-1.964,4.49,4.63Z" transform="translate(-116.864 -181.268)" fill="#183651"/>
        <path id="Trazado_729041" data-name="Trazado 729041" d="M34.137,158.612H15.9A10.359,10.359,0,0,1,5.514,148.23a10.48,10.48,0,0,1,10.523-10.383H40.17v2.806H16.037a7.577,7.577,0,1,0,0,15.153h18.24v2.806h-.14Z" transform="translate(-5.514 -113.293)" fill="#183651"/>
        <path id="Trazado_729042" data-name="Trazado 729042" d="M330.595,339.951l-4.49-4.63,4.49-4.49,2.1,1.964-2.666,2.526,2.666,2.666Z" transform="translate(-269 -271.902)" fill="#183651"/>
        <path id="Trazado_729043" data-name="Trazado 729043" d="M328.182,264.865h-18.24v-2.806h18.24a7.545,7.545,0,0,0,7.577-7.577v-.7a7.545,7.545,0,0,0-7.577-7.577H304.049V243.4h24.133a10.359,10.359,0,0,1,10.383,10.383v.7A10.359,10.359,0,0,1,328.182,264.865Z" transform="translate(-250.873 -200.043)" fill="#183651"/>
        <path id="Trazado_729044" data-name="Trazado 729044" d="M330.595,127.414l-4.49-4.63,4.49-4.63,2.1,1.964-2.666,2.666,2.666,2.666Z" transform="translate(-269 -97.108)" fill="#183651"/>
        <path id="Trazado_729045" data-name="Trazado 729045" d="M328.182,52.975h-18.24V50.169h18.24a7.545,7.545,0,0,0,7.577-7.577v-.7a7.545,7.545,0,0,0-7.577-7.577H304.049V31.508h24.133a10.359,10.359,0,0,1,10.383,10.383v.7A10.359,10.359,0,0,1,328.182,52.975Z" transform="translate(-250.873 -25.896)" fill="#183651"/>
      </g>
      <rect id="Rectángulo_346755" data-name="Rectángulo 346755" width="18.521" height="11.365" transform="translate(69.873 77.029)" fill="#f06151"/>
      <path id="Trazado_729046" data-name="Trazado 729046" d="M404.318,438.737H385.8a1.326,1.326,0,0,1-1.4-1.4V425.969a1.326,1.326,0,0,1,1.4-1.4h18.521a1.326,1.326,0,0,1,1.4,1.4v11.365A1.326,1.326,0,0,1,404.318,438.737ZM387.2,435.931h15.715v-8.559H387.2Z" transform="translate(-315.924 -348.94)" fill="#183651"/>
      <rect id="Rectángulo_346756" data-name="Rectángulo 346756" width="18.521" height="11.365" transform="translate(1.403 1.403)" fill="#f06151"/>
      <path id="Trazado_729047" data-name="Trazado 729047" d="M19.924,14.171H1.4a1.326,1.326,0,0,1-1.4-1.4V1.4A1.326,1.326,0,0,1,1.4,0H19.924a1.326,1.326,0,0,1,1.4,1.4V12.768A1.406,1.406,0,0,1,19.924,14.171ZM2.806,11.365H18.521V2.806H2.806Z" fill="#183651"/>
    </g>
  </g>
</svg>
