<svg xmlns="http://www.w3.org/2000/svg" xmlns:xlink="http://www.w3.org/1999/xlink" width="100" height="100" viewBox="0 0 100 100">
  <defs>
    <clipPath id="clip-path">
      <rect id="Rectángulo_346510" data-name="Rectángulo 346510" width="67" height="69" transform="translate(-0.03 0.13)" fill="#9f0925"/>
    </clipPath>
  </defs>
  <g id="Grupo_1042487" data-name="Grupo 1042487" transform="translate(-220 -2008)">
    <g id="Grupo_987507" data-name="Grupo 987507" transform="translate(0 -1)">
      <circle id="Elipse_4717" data-name="Elipse 4717" cx="50" cy="50" r="50" transform="translate(220 2009)" fill="#b3eeef"/>
    </g>
    <g id="Grupo_987506" data-name="Grupo 987506" transform="translate(236.64 2024.323)">
      <g id="Grupo_987505" data-name="Grupo 987505" transform="translate(0.39 -0.453)" clip-path="url(#clip-path)">
        <path id="Trazado_727196" data-name="Trazado 727196" d="M65.092,53.582h-9.5V18.963a1.54,1.54,0,0,0-.531-1.164l-1.512-1.313,1.336-.858a1.535,1.535,0,0,0,.707-1.3v-7.5A6.718,6.718,0,0,0,49.005,0H27.287a1,1,0,0,0,0,2.01H49.005a4.655,4.655,0,0,1,4.5,3.972H48.249a1,1,0,1,0,0,2.01h5.329V9.228h-3.44a1,1,0,0,0,0,2.01h3.44v2.839l-1.647,1.058a1.541,1.541,0,0,0-.177,2.46l1.823,1.583v34.4H27.734a1.945,1.945,0,0,0-1.943,1.943v5.586a5.4,5.4,0,0,1-5.174,5.519,6.348,6.348,0,0,1-6.1-6.485l0-5.39h6.034a1,1,0,1,0,0-2.01H14.513V51.137h2.652a1,1,0,0,0,0-2.01H14.511l-.006-16.878L16.3,30.337a1.538,1.538,0,0,0,.227-1.794l-2.019-3.683V7.531c0-.008,0-.015,0-.022V7.254a7.231,7.231,0,0,0-2.25-5.243h8.712a1,1,0,0,0,0-2.01H7.247A7.261,7.261,0,0,0,0,7.254V8.64a1,1,0,1,0,2.01,0V7.254A5.249,5.249,0,0,1,7.253,2.011c.088,0,.175,0,.261.007a5.1,5.1,0,0,1,3.431,1.594,5.636,5.636,0,0,1,1.551,3.9V18.455H2.01V14.8A1,1,0,0,0,0,14.8v3.718a1.945,1.945,0,0,0,1.943,1.943H12.5v4.652a1,1,0,0,0,.124.483L14.6,29.21l-1.687,1.8a1.535,1.535,0,0,0-.417,1.054l.01,28.082a8.365,8.365,0,0,0,7.93,8.49,1,1,0,0,0,.112.007H59.887a7.3,7.3,0,0,0,7.147-7.42v-5.7a1.945,1.945,0,0,0-1.943-1.943m-.067,7.64a5.285,5.285,0,0,1-5.138,5.41H25.476A7.646,7.646,0,0,0,27.8,61.112V55.592H65.025Z" transform="translate(-0.465 0.54)" fill="#9f0925"/>
        <path id="Trazado_727197" data-name="Trazado 727197" d="M183.725,125.767H201.9a1,1,0,1,0,0-2.01H183.725a1,1,0,1,0,0,2.01" transform="translate(-158.688 -106.625)" fill="#9f0925"/>
        <path id="Trazado_727198" data-name="Trazado 727198" d="M156.941,169.557a1,1,0,0,0,1,1h11.949a1,1,0,1,0,0-2.01H157.946a1,1,0,0,0-1,1" transform="translate(-136.365 -145.415)" fill="#9f0925"/>
        <path id="Trazado_727199" data-name="Trazado 727199" d="M287.239,168.553h-8.954a1,1,0,0,0,0,2.01h8.954a1,1,0,0,0,0-2.01" transform="translate(-240.571 -145.416)" fill="#9f0925"/>
        <path id="Trazado_727200" data-name="Trazado 727200" d="M157.945,199.545h4.93a1,1,0,0,0,0-2.01h-4.93a1,1,0,0,0,0,2.01" transform="translate(-136.364 -170.512)" fill="#9f0925"/>
        <path id="Trazado_727201" data-name="Trazado 727201" d="M306.458,197.536H300.48a1,1,0,1,0,0,2.01h5.978a1,1,0,1,0,0-2.01" transform="translate(-259.79 -170.513)" fill="#9f0925"/>
        <path id="Trazado_727202" data-name="Trazado 727202" d="M157.945,228.528h7.184a1,1,0,0,0,0-2.01h-7.184a1,1,0,0,0,0,2.01" transform="translate(-136.364 -195.61)" fill="#9f0925"/>
        <path id="Trazado_727203" data-name="Trazado 727203" d="M257.129,226.519H243.514a1,1,0,1,0,0,2.01h13.615a1,1,0,0,0,0-2.01" transform="translate(-210.461 -195.61)" fill="#9f0925"/>
        <path id="Trazado_727204" data-name="Trazado 727204" d="M157.945,257.512h2.465a1,1,0,1,0,0-2.01h-2.465a1,1,0,1,0,0,2.01" transform="translate(-136.364 -220.708)" fill="#9f0925"/>
        <path id="Trazado_727205" data-name="Trazado 727205" d="M306.458,255.5H300.48a1,1,0,1,0,0,2.01h5.978a1,1,0,1,0,0-2.01" transform="translate(-259.79 -220.708)" fill="#9f0925"/>
        <path id="Trazado_727206" data-name="Trazado 727206" d="M170.9,285.49a1,1,0,0,0-1-1.005H157.946a1,1,0,1,0,0,2.01h11.949a1,1,0,0,0,1-1" transform="translate(-136.365 -245.805)" fill="#9f0925"/>
        <path id="Trazado_727207" data-name="Trazado 727207" d="M287.239,284.486h-8.954a1,1,0,0,0,0,2.01h8.954a1,1,0,0,0,0-2.01" transform="translate(-240.571 -245.806)" fill="#9f0925"/>
        <path id="Trazado_727208" data-name="Trazado 727208" d="M157.945,313.469a1,1,0,0,0,0,2.01h4.93a1,1,0,1,0,0-2.01Z" transform="translate(-136.364 -270.903)" fill="#9f0925"/>
        <path id="Trazado_727209" data-name="Trazado 727209" d="M232.9,315.478h15.038a1,1,0,0,0,0-2.01H232.9a1,1,0,0,0,0,2.01" transform="translate(-201.271 -270.902)" fill="#9f0925"/>
        <path id="Trazado_727210" data-name="Trazado 727210" d="M224.125,199.545h6.664a1,1,0,0,0,0-2.01h-6.664a1,1,0,1,0,0,2.01" transform="translate(-193.672 -170.512)" fill="#9f0925"/>
        <path id="Trazado_727211" data-name="Trazado 727211" d="M201.5,256.507a1,1,0,0,0,1,1h8.149a1,1,0,1,0,0-2.01h-8.149a1,1,0,0,0-1,1" transform="translate(-174.954 -220.708)" fill="#9f0925"/>
        <rect id="Rectángulo_346508" data-name="Rectángulo 346508" width="2.01" height="6.163" transform="translate(-0.465 9.18)" fill="#9f0925"/>
        <rect id="Rectángulo_346509" data-name="Rectángulo 346509" width="6.32" height="2.01" transform="translate(20.502 0.54)" fill="#9f0925"/>
      </g>
    </g>
  </g>
</svg>
