<svg xmlns="http://www.w3.org/2000/svg" xmlns:xlink="http://www.w3.org/1999/xlink" width="100" height="100" viewBox="0 0 100 100">
  <defs>
    <clipPath id="clip-path">
      <rect id="Rectángulo_346515" data-name="Rectángulo 346515" width="67.8" height="67.595" fill="#9f0925"/>
    </clipPath>
  </defs>
  <g id="Grupo_987548" data-name="Grupo 987548" transform="translate(-453 -614)">
    <circle id="Elipse_4711" data-name="Elipse 4711" cx="50" cy="50" r="50" transform="translate(453 614)" fill="#b3eeef"/>
    <g id="Grupo_987547" data-name="Grupo 987547" transform="translate(468.842 630.202)">
      <g id="Grupo_987546" data-name="Grupo 987546" clip-path="url(#clip-path)">
        <path id="Trazado_727215" data-name="Trazado 727215" d="M67.458,25.979,54.935,15.115a.99.99,0,0,0-1.639.748V21.52l-5.009,0h-.023a18.834,18.834,0,0,0-9.554,2.327V14.34h6.2a.99.99,0,0,0,.739-1.649L34.64.332a.991.991,0,0,0-1.479,0L22.152,12.691a.99.99,0,0,0,.739,1.649h6.2V18.7a.99.99,0,0,0,1.981,0V13.349a.99.99,0,0,0-.99-.99H25.1L33.9,2.48l8.8,9.879H37.719a.99.99,0,0,0-.99.99V25.111a18.975,18.975,0,0,0-1.99,1.671A18.553,18.553,0,0,0,31.073,31.7V22.662a.99.99,0,1,0-1.981,0v13.9a18.8,18.8,0,0,0-9.553-2.328h-.024l-5.011,0V28.581a.99.99,0,0,0-1.639-.748L.342,38.7a.99.99,0,0,0,0,1.5L4.2,43.539a.99.99,0,0,0,1.3-1.5L2.5,39.444l10.022-8.693v4.476a.99.99,0,0,0,.99.99l6.013,0h.053a16.781,16.781,0,0,1,12.107,4.707A16.287,16.287,0,0,1,36.727,52.6v2.348a.99.99,0,0,0,.99.99h0a.99.99,0,0,0,.99-.99v-2.2c0-.048,0-.1,0-.145V40.024A8.86,8.86,0,0,1,41.451,33.6a9.122,9.122,0,0,1,6.581-2.563.126.126,0,0,0,.021,0l5.242,0V37.59a.99.99,0,0,0,1.639.748L67.458,27.475a.99.99,0,0,0,0-1.5M55.276,35.42V30.043a.991.991,0,0,0-.99-.99h0l-6.223,0a11.117,11.117,0,0,0-7.987,3.118,10.823,10.823,0,0,0-3.349,7.852v4.409A18.563,18.563,0,0,0,33.062,39.5,19.043,19.043,0,0,0,31.2,37.926a16.192,16.192,0,0,1,4.909-9.717A16.768,16.768,0,0,1,48.231,23.5h.043l6.013,0a.99.99,0,0,0,.99-.99V18.034L65.3,26.727Z" fill="#9f0925"/>
        <path id="Trazado_727216" data-name="Trazado 727216" d="M82.6,331.576a.99.99,0,0,0-.99.99v6.707H75.956V326.4a10.823,10.823,0,0,0-3.349-7.852,11.1,11.1,0,0,0-7.987-3.118l-6.223,0h0a.991.991,0,0,0-.99.99V321.8l-4.034-3.5a.99.99,0,0,0-1.3,1.5l5.673,4.921a.99.99,0,0,0,1.639-.748V317.41l5.242,0h.021a9.134,9.134,0,0,1,6.581,2.563,8.859,8.859,0,0,1,2.743,6.426v13.862a.99.99,0,0,0,.99.99H82.6a.99.99,0,0,0,.99-.99v-7.7a.99.99,0,0,0-.99-.99" transform="translate(-44.883 -273.659)" fill="#9f0925"/>
        <rect id="Rectángulo_346513" data-name="Rectángulo 346513" width="1.981" height="3.963" transform="matrix(0.655, -0.755, 0.755, 0.655, 4.199, 43.538)" fill="#9f0925"/>
        <path id="Trazado_727217" data-name="Trazado 727217" d="M279.331,418.886v-3.962h-1.983l0,3.962Z" transform="translate(-240.622 -359.979)" fill="#9f0925"/>
        <rect id="Rectángulo_346514" data-name="Rectángulo 346514" width="1.981" height="3.962" transform="translate(29.092 18.7)" fill="#9f0925"/>
      </g>
    </g>
  </g>
</svg>
