<svg xmlns="http://www.w3.org/2000/svg" xmlns:xlink="http://www.w3.org/1999/xlink" width="100" height="100" viewBox="0 0 100 100">
  <defs>
    <clipPath id="clip-path">
      <rect id="Rectángulo_346535" data-name="Rectángulo 346535" width="60" height="60" fill="#9f0925"/>
    </clipPath>
  </defs>
  <g id="Grupo_987582" data-name="Grupo 987582" transform="translate(-453 -1676)">
    <circle id="Elipse_4711" data-name="Elipse 4711" cx="50" cy="50" r="50" transform="translate(453 1676)" fill="#0ce6ea"/>
    <g id="Grupo_987581" data-name="Grupo 987581" transform="translate(473 1696)">
      <g id="Grupo_987580" data-name="Grupo 987580" clip-path="url(#clip-path)">
        <path id="Trazado_727299" data-name="Trazado 727299" d="M115.011,224H113a1,1,0,0,0,0,2.007h2.007a1,1,0,0,0,0-2.007" transform="translate(-97.948 -195.896)" fill="#9f0925"/>
        <path id="Trazado_727300" data-name="Trazado 727300" d="M193,226.007h2.007a1,1,0,0,0,0-2.007H193a1,1,0,0,0,0,2.007" transform="translate(-167.911 -195.896)" fill="#9f0925"/>
        <path id="Trazado_727301" data-name="Trazado 727301" d="M161.054,236.33a1,1,0,1,0,1.9-.635l-1-3.011a1,1,0,0,0-1.9.635Z" transform="translate(-139.924 -202.89)" fill="#9f0925"/>
        <path id="Trazado_727302" data-name="Trazado 727302" d="M121,240a1,1,0,1,1-1,1,1,1,0,0,1,1-1" transform="translate(-104.944 -209.888)" fill="#9f0925"/>
        <path id="Trazado_727303" data-name="Trazado 727303" d="M201,240a1,1,0,1,1-1,1,1,1,0,0,1,1-1" transform="translate(-174.907 -209.888)" fill="#9f0925"/>
        <path id="Trazado_727304" data-name="Trazado 727304" d="M153,290.007h2.007a1,1,0,1,0,0-2.007H153a1,1,0,1,0,0,2.007" transform="translate(-132.929 -251.866)" fill="#9f0925"/>
        <path id="Trazado_727305" data-name="Trazado 727305" d="M34.983,143.345a14.714,14.714,0,0,0-6.914-2.208,3,3,0,0,0-.788-1.017l-1.452-1.21a10.069,10.069,0,0,0,5.081-6.835h.2a4.013,4.013,0,0,0,2.007-7.49v-3.136a4.43,4.43,0,0,0-4.431-4.431h-.1a2.252,2.252,0,0,0-.661-1.6l-.644-.644a9.485,9.485,0,0,0-13.414,0l-2.656,2.656a.244.244,0,0,1-.345,0,2.251,2.251,0,0,0-3.843,1.592v.882a6.1,6.1,0,0,0,1.8,4.345c.1.1.2.189.3.279a4.014,4.014,0,0,0,1.915,7.543h.2a10.069,10.069,0,0,0,4.928,6.75,2.845,2.845,0,0,0-.966,2.275c-.05,0-.1.009-.151.009h-.081A14.719,14.719,0,0,0,.695,152.256,23.293,23.293,0,0,0,0,157.9v.27H2.007v-.27a21.289,21.289,0,0,1,.635-5.157,12.644,12.644,0,0,1,5.387-7.56v4.957a1,1,0,0,0,1.377.932l1.335-.534-3.534,5.049,1.644,1.151,6.5-9.287L21.563,151a1,1,0,0,1,.374,1.369c-.016.028-.033.055-.052.082l-2.924,4.136,1.639,1.159,2.924-4.136a3.006,3.006,0,0,0-.092-3.6l4.331-5.774a3,3,0,0,0,.512-1.076c.184.016.367.037.55.06L26.8,152a27.491,27.491,0,0,0-.7,6.171H28.1a25.488,25.488,0,0,1,.651-5.72l.629-2.725,3.366,1.346a1,1,0,0,0,1.376-.932v-4.957a12.644,12.644,0,0,1,5.387,7.56,21.277,21.277,0,0,1,.635,5.157v.27h2.007v-.27a23.28,23.28,0,0,0-.695-5.644,14.648,14.648,0,0,0-6.478-8.912m-3.868-13.278v-4.015a2.007,2.007,0,0,1,0,4.015M9.033,119.026a.244.244,0,0,1,.416-.172,2.254,2.254,0,0,0,3.183,0l2.656-2.656a7.477,7.477,0,0,1,10.575,0h0l.643.644a.251.251,0,0,1,0,.355l-1.12,1.12a1,1,0,1,0,1.419,1.42l.71-.71h1.176a2.423,2.423,0,0,1,2.423,2.423v2.6H29.767a2.99,2.99,0,0,1-2.129-.882L24.8,120.323a1,1,0,0,0-1.419,0,12.621,12.621,0,0,1-8.983,3.721H13.17a4.137,4.137,0,0,1-4.137-4.137Zm0,9.033a2.01,2.01,0,0,1,2.007-2.007v4.015a2.01,2.01,0,0,1-2.007-2.007m4.015,2.007v-4.018c.041,0,.081,0,.122,0H14.4a14.6,14.6,0,0,0,9.669-3.623l2.153,2.153a4.977,4.977,0,0,0,2.889,1.426v4.059a8.044,8.044,0,0,1-5.007,7.441,3.009,3.009,0,0,0-4.093.887l-.211.317-.17-.113a2.874,2.874,0,0,0-.6-.306,1,1,0,0,0-.624-.654,8.044,8.044,0,0,1-5.353-7.573m2.007,13.048a4.023,4.023,0,0,0,.841-.089l.009.017-1.677,2.516-.269.384-.628-2.72a12.715,12.715,0,0,1,1.643-.108Zm-5.018,1a12.685,12.685,0,0,1,1.33-.476l.948,4.109-2.278.911Zm16.12-1.08-4.346,5.8-5.323-3.042,1.411-2.116a1,1,0,0,0,.063-1.006l-.663-1.325a.838.838,0,0,1,1.214-1.072l1,.67a1,1,0,0,0,1.392-.278l.768-1.152a1,1,0,0,1,1.392-.278.993.993,0,0,1,.086.064L26,141.661a1,1,0,0,1,.16,1.373m3.684,4.713.948-4.109a12.7,12.7,0,0,1,1.33.477v4.544Z" transform="translate(0 -97.947)" fill="#9f0925"/>
        <path id="Trazado_727306" data-name="Trazado 727306" d="M286.552,0H283.54a11.546,11.546,0,0,0-10,17.3l-1.487,4.461a1,1,0,0,0,1.117,1.307l5.736-.956a11.453,11.453,0,0,0,4.638.969h3.011a11.543,11.543,0,1,0,0-23.086m6.743,18.286a9.473,9.473,0,0,1-6.743,2.792H283.54a9.462,9.462,0,0,1-4.072-.91,1,1,0,0,0-.594-.083l-4.394.732,1.106-3.319a1,1,0,0,0-.1-.856A9.536,9.536,0,0,1,283.54,2.007h3.011a9.536,9.536,0,0,1,6.743,16.278" transform="translate(-237.871)" fill="#9f0925"/>
        <path id="Trazado_727307" data-name="Trazado 727307" d="M344.568,27.716a4.523,4.523,0,0,0-3.219,1.333l-.018.018-.469.494A2.778,2.778,0,0,0,344.8,33.48l.477-.477a1,1,0,0,0-1.42-1.42l-.477.477a.771.771,0,0,1-1.09-1.09l.018-.018.467-.492a2.545,2.545,0,0,1,3.591,3.607l-1.09,1.09a5.812,5.812,0,0,0-1.713,4.137,1,1,0,1,0,2.007,0,3.818,3.818,0,0,1,1.125-2.717l1.09-1.09a4.552,4.552,0,0,0-3.219-7.771" transform="translate(-297.393 -24.238)" fill="#9f0925"/>
        <path id="Trazado_727308" data-name="Trazado 727308" d="M369,136a1,1,0,1,1-1,1,1,1,0,0,1,1-1" transform="translate(-321.829 -118.937)" fill="#9f0925"/>
      </g>
    </g>
  </g>
</svg>
