<svg xmlns="http://www.w3.org/2000/svg" xmlns:xlink="http://www.w3.org/1999/xlink" width="100" height="100" viewBox="0 0 100 100">
  <defs>
    <clipPath id="clip-path">
      <rect id="Rectángulo_341307" data-name="Rectángulo 341307" width="71.497" height="71.5" fill="#9f0925"/>
    </clipPath>
  </defs>
  <g id="Grupo_985906" data-name="Grupo 985906" transform="translate(-220 -1233)">
    <circle id="Elipse_4717" data-name="Elipse 4717" cx="50" cy="50" r="50" transform="translate(220 1233)" fill="#b3eeef"/>
    <g id="Grupo_985905" data-name="Grupo 985905" transform="translate(234.252 1247.25)">
      <g id="Grupo_985904" data-name="Grupo 985904" clip-path="url(#clip-path)">
        <path id="Trazado_722479" data-name="Trazado 722479" d="M37.4,34.86l5.016,8.688a1.013,1.013,0,0,0,.877.507c.033,0,.067,0,.1-.005a1.013,1.013,0,0,0,.859-.685l1.884-5.6,5.793,1.169a1.013,1.013,0,0,0,1.078-1.5l-4.591-7.952a17.47,17.47,0,1,0-25.346,0l-4.41,7.639a1.013,1.013,0,0,0,1.078,1.5l5.793-1.169,1.884,5.6a1.013,1.013,0,0,0,.859.685q.051,0,.1.005a1.014,1.014,0,0,0,.877-.507l4.836-8.375c.545.052,1.1.079,1.655.079S36.858,34.912,37.4,34.86Zm8.263.74a1.014,1.014,0,0,0-1.161.67l-1.453,4.321-3.5-6.07A17.424,17.424,0,0,0,46.9,30.9l3.232,5.6ZM35.748,2.026A15.443,15.443,0,1,1,20.3,17.47,15.461,15.461,0,0,1,35.748,2.026M28.624,40.279l-1.453-4.321a1.013,1.013,0,0,0-1.161-.67l-4.469.9L24.593,30.9a17.423,17.423,0,0,0,7.355,3.618Zm7.124-9.73A13.079,13.079,0,1,0,22.668,17.47,13.094,13.094,0,0,0,35.748,30.549m0-24.132A11.053,11.053,0,1,1,24.695,17.47,11.066,11.066,0,0,1,35.748,6.416M30.032,24.5a1.013,1.013,0,0,0,1.525,1.108l4.191-2.67,4.191,2.67A1.013,1.013,0,0,0,41.464,24.5l-1.245-4.811,3.835-3.16a1.013,1.013,0,0,0-.583-1.793l-4.96-.3L36.691,9.812a1.013,1.013,0,0,0-1.885,0l-1.821,4.623-4.96.3a1.013,1.013,0,0,0-.583,1.793l3.835,3.16Zm.684-7.9,3.036-.185a1.013,1.013,0,0,0,.881-.64l1.115-2.83,1.115,2.83a1.013,1.013,0,0,0,.881.64l3.036.185-2.347,1.935a1.013,1.013,0,0,0-.336,1.035l.762,2.945-2.565-1.635a1.013,1.013,0,0,0-1.089,0l-2.565,1.635.762-2.945a1.013,1.013,0,0,0-.337-1.035ZM68.639,29.813c-.869-.326-3.883-.966-6.2,4.509l-3.425,8.084a3.953,3.953,0,0,0-2.939.693L50.93,46.793c-5.321,1.509-6.278,4.041-7.213,8.009-.606,2.572-1.261,5.181-1.894,7.7l-.128.508h-.112a2.44,2.44,0,0,0-2.436,2.434l0,3.611A2.43,2.43,0,0,0,41.581,71.5h14.69a2.44,2.44,0,0,0,2.436-2.434l0-3.611a2.43,2.43,0,0,0-2.437-2.439H55.6l.321-1.35a2.906,2.906,0,0,1,1.247-1.818l5.953-4.092c2.042-1.4,2.93-4.128,3.643-6.316.047-.146,4.506-13.68,4.506-13.68A4.933,4.933,0,0,0,68.639,29.813ZM56.566,65.159a.4.4,0,0,1,.118.292h0l0,3.611a.411.411,0,0,1-.41.41H41.58a.4.4,0,0,1-.41-.411l0-3.611a.411.411,0,0,1,.41-.41h14.69A.4.4,0,0,1,56.566,65.159ZM69.348,35.124S64.888,48.663,64.84,48.81c-.618,1.9-1.388,4.26-2.864,5.274l-5.953,4.092a4.951,4.951,0,0,0-2.07,3.019l-.433,1.82H43.785l0-.015c.635-2.53,1.292-5.147,1.9-7.733.839-3.563,1.443-5.331,5.954-6.569a1.014,1.014,0,0,0,.323-.154l5.289-3.8a1.939,1.939,0,1,1,2.262,3.149l-7.029,5.049a1.013,1.013,0,1,0,1.182,1.646L60.7,49.54a3.967,3.967,0,0,0,.167-6.315L64.3,35.113c1.09-2.574,2.445-3.845,3.624-3.4A2.929,2.929,0,0,1,69.348,35.124ZM29.913,63.016H29.8l-.128-.508c-.633-2.523-1.288-5.133-1.894-7.7-.934-3.968-1.892-6.5-7.213-8.009L15.424,43.1a3.951,3.951,0,0,0-2.939-.693L9.059,34.322c-2.319-5.475-5.334-4.836-6.2-4.509A4.933,4.933,0,0,0,.223,35.758s4.459,13.534,4.506,13.68c.713,2.189,1.6,4.913,3.643,6.316l5.953,4.092a2.907,2.907,0,0,1,1.247,1.818l.321,1.35h-.671a2.43,2.43,0,0,0-2.437,2.439l0,3.611A2.44,2.44,0,0,0,15.225,71.5H29.916a2.43,2.43,0,0,0,2.437-2.439l0-3.611a2.44,2.44,0,0,0-2.436-2.434M17.543,61.2a4.95,4.95,0,0,0-2.07-3.019L9.52,54.085C8.044,53.07,7.274,50.708,6.656,48.81c-.048-.148-4.508-13.687-4.508-13.687A2.93,2.93,0,0,1,3.57,31.71c1.178-.444,2.533.829,3.624,3.4l3.437,8.113A3.966,3.966,0,0,0,10.8,49.54l7.029,5.049a1.013,1.013,0,0,0,1.182-1.646l-7.029-5.049a1.939,1.939,0,1,1,2.262-3.149l5.289,3.8a1.014,1.014,0,0,0,.323.154c4.511,1.238,5.114,3.006,5.954,6.569.609,2.586,1.266,5.2,1.9,7.733l0,.015H17.976Zm12.665,8.16a.4.4,0,0,1-.293.118H15.226a.411.411,0,0,1-.41-.41l0-3.611h0a.4.4,0,0,1,.41-.411H29.913a.411.411,0,0,1,.41.41l0,3.611A.4.4,0,0,1,30.208,69.355Z" transform="translate(0)" fill="#9f0925"/>
      </g>
    </g>
  </g>
</svg>
