<svg xmlns="http://www.w3.org/2000/svg" xmlns:xlink="http://www.w3.org/1999/xlink" width="100" height="100" viewBox="0 0 100 100">
  <defs>
    <clipPath id="clip-path">
      <rect id="Rectángulo_346483" data-name="Rectángulo 346483" width="59" height="71" transform="translate(0.365 -0.123)" fill="none"/>
    </clipPath>
  </defs>
  <g id="Grupo_987493" data-name="Grupo 987493" transform="translate(-210 -919)">
    <circle id="Elipse_4712" data-name="Elipse 4712" cx="50" cy="50" r="50" transform="translate(210 919)" fill="#b3eeef"/>
    <g id="Grupo_987492" data-name="Grupo 987492" transform="translate(230.797 932.632)">
      <g id="Grupo_987491" data-name="Grupo 987491" transform="translate(-0.162 0.491)" clip-path="url(#clip-path)">
        <path id="Trazado_727106" data-name="Trazado 727106" d="M169.563,18.415a3.366,3.366,0,1,1-6.732,0,8.415,8.415,0,0,0-16.83,0h5.049a3.366,3.366,0,0,1,6.732,0,8.415,8.415,0,1,0,16.83,0Z" transform="translate(-130.516 -9.377)" fill="#8db0ff"/>
        <path id="Trazado_727107" data-name="Trazado 727107" d="M336.1,90a8.426,8.426,0,0,1-7.434,8.356,8.4,8.4,0,0,0,9.4-8.356Z" transform="translate(-293.967 -80.961)" fill="#669af7"/>
        <path id="Trazado_727108" data-name="Trazado 727108" d="M247.492,29.364a3.371,3.371,0,0,1-2.072-3.107,8.422,8.422,0,0,0-4.593-7.493,10.94,10.94,0,0,0-2.528,4.386,3.371,3.371,0,0,1,2.073,3.107,8.422,8.422,0,0,0,4.593,7.494,10.939,10.939,0,0,0,2.528-4.386" transform="translate(-213.105 -17.218)" fill="#669af7"/>
        <path id="Trazado_727109" data-name="Trazado 727109" d="M30.2,470l-11.979,3.327A11.22,11.22,0,0,0,10,484.138v6.479H67.223v-6.479a11.22,11.22,0,0,0-8.217-10.811L47.027,470Z" transform="translate(-8.822 -420.989)" fill="#ff933b"/>
        <path id="Trazado_727110" data-name="Trazado 727110" d="M445.382,493.162l-3.585-1a11.22,11.22,0,0,1,6.753,10.291v7.994H453.6v-6.479a11.22,11.22,0,0,0-8.217-10.811" transform="translate(-395.198 -440.824)" fill="#f27d27"/>
        <path id="Trazado_727111" data-name="Trazado 727111" d="M200.937,479.537a9.547,9.547,0,0,0,9.529-9.228l-1.114-.31h-16.83l-1.114.31a9.547,9.547,0,0,0,9.529,9.228" transform="translate(-171.147 -420.989)" fill="#f27d27"/>
        <path id="Trazado_727112" data-name="Trazado 727112" d="M244.1,424.667v4.769a5.049,5.049,0,1,1-10.1,0v-4.769Z" transform="translate(-209.259 -380.425)" fill="#f9b3a7"/>
        <path id="Trazado_727113" data-name="Trazado 727113" d="M166.2,10a8.425,8.425,0,0,0-8.415,8.415,3.366,3.366,0,1,1-6.732,0H146a8.415,8.415,0,0,0,16.83,0,3.366,3.366,0,0,1,6.732,0h5.049A8.425,8.425,0,0,0,166.2,10" transform="translate(-130.516 -9.377)" fill="#8db0ff"/>
        <rect id="Rectángulo_346481" data-name="Rectángulo 346481" width="3.647" height="4.628" transform="translate(42.974 21.802)" fill="#ffd664"/>
        <rect id="Rectángulo_346482" data-name="Rectángulo 346482" width="3.647" height="4.628" transform="translate(12.96 21.802)" fill="#ffd664"/>
        <path id="Trazado_727114" data-name="Trazado 727114" d="M112.805,262.907h2.805v-7.574h-2.805A2.805,2.805,0,0,0,110,258.138V260.1a2.805,2.805,0,0,0,2.805,2.805" transform="translate(-98.303 -228.903)" fill="#feccc1"/>
        <path id="Trazado_727115" data-name="Trazado 727115" d="M403.471,262.907h-2.805v-7.574h2.805a2.805,2.805,0,0,1,2.805,2.805V260.1a2.805,2.805,0,0,1-2.805,2.805" transform="translate(-358.393 -228.903)" fill="#f9b3a7"/>
        <path id="Trazado_727116" data-name="Trazado 727116" d="M169.851,211.333H156.667v10.1a13.184,13.184,0,1,0,26.368,0v-10.1Z" transform="translate(-140.061 -189.531)" fill="#feccc1"/>
        <path id="Trazado_727117" data-name="Trazado 727117" d="M274.553,211.333v10.1a13.187,13.187,0,0,1-11.22,13.038,13.192,13.192,0,0,0,15.147-13.038v-10.1Z" transform="translate(-235.506 -189.531)" fill="#f9b3a7"/>
        <path id="Trazado_727118" data-name="Trazado 727118" d="M329.649,10a8.427,8.427,0,0,0-.982.059,8.426,8.426,0,0,1,7.433,8.356h1.964A8.425,8.425,0,0,0,329.649,10" transform="translate(-293.968 -9.377)" fill="#669af7"/>
        <path id="Trazado_727119" data-name="Trazado 727119" d="M191.784,53.47a1.052,1.052,0,0,1-1.052-1.052,2.314,2.314,0,0,0-4.628,0,1.052,1.052,0,0,1-2.1,0,4.418,4.418,0,1,1,8.836,0A1.052,1.052,0,0,1,191.784,53.47Z" transform="translate(-164.518 -43.379)"/>
        <path id="Trazado_727120" data-name="Trazado 727120" d="M279.176,90.519a9.415,9.415,0,0,1-6.6-2.682,1.052,1.052,0,0,1,1.467-1.508,7.359,7.359,0,0,0,12.493-5.277,1.052,1.052,0,0,1,2.1,0A9.478,9.478,0,0,1,279.176,90.519Z" transform="translate(-243.495 -72.013)"/>
        <path id="Trazado_727121" data-name="Trazado 727121" d="M300.418,85.47A4.423,4.423,0,0,1,296,81.052a1.052,1.052,0,0,1,2.1,0,2.314,2.314,0,1,0,4.628,0,1.052,1.052,0,1,1,2.1,0A4.423,4.423,0,0,1,300.418,85.47Z" transform="translate(-264.737 -72.013)"/>
        <path id="Trazado_727122" data-name="Trazado 727122" d="M137.052,10.519A1.052,1.052,0,0,1,136,9.467a9.463,9.463,0,0,1,16.094-6.755,1.052,1.052,0,1,1-1.473,1.5A7.359,7.359,0,0,0,138.1,9.467,1.052,1.052,0,0,1,137.052,10.519Z" transform="translate(-121.568 -0.429)"/>
        <path id="Trazado_727123" data-name="Trazado 727123" d="M1.052,476.5A1.052,1.052,0,0,1,0,475.445v-.255a12.306,12.306,0,0,1,8.988-11.824l11.978-3.328a1.051,1.051,0,0,1,.282-.039h3.366a1.052,1.052,0,1,1,0,2.1H21.392l-11.841,3.29a10.2,10.2,0,0,0-7.447,9.8v.255A1.052,1.052,0,0,1,1.052,476.5Z" transform="translate(0.127 -412.041)"/>
        <path id="Trazado_727124" data-name="Trazado 727124" d="M344.614,476.5a1.052,1.052,0,0,1-1.052-1.052v-.255a10.2,10.2,0,0,0-7.447-9.8l-11.841-3.29h-3.222a1.052,1.052,0,0,1,0-2.1h3.366a1.052,1.052,0,0,1,.282.039l1.114.31,10.865,3.018a12.306,12.306,0,0,1,8.988,11.824v.255A1.052,1.052,0,0,1,344.614,476.5Z" transform="translate(-286.213 -412.041)"/>
        <path id="Trazado_727125" data-name="Trazado 727125" d="M58.275,603H1.052A1.052,1.052,0,0,1,0,601.944v-6.478a1.052,1.052,0,0,1,2.1,0v5.427h55.12V595.72a1.052,1.052,0,0,1,2.1,0v6.224A1.052,1.052,0,0,1,58.275,603Z" transform="translate(0.127 -532.316)"/>
        <path id="Trazado_727126" data-name="Trazado 727126" d="M191.994,471.641a10.54,10.54,0,0,1-10.58-10.245,1.052,1.052,0,0,1,.769-1.047l1.114-.31a1.052,1.052,0,0,1,.282-.039h3.366a1.052,1.052,0,0,1,0,2.1h-3.222l-.142.039a8.483,8.483,0,0,0,16.826,0l-.142-.039h-3.222a1.052,1.052,0,1,1,0-2.1h3.366a1.052,1.052,0,0,1,.282.039l1.114.31a1.052,1.052,0,0,1,.769,1.047A10.54,10.54,0,0,1,191.994,471.641Z" transform="translate(-162.204 -412.041)"/>
        <path id="Trazado_727127" data-name="Trazado 727127" d="M113.052,208.346A1.052,1.052,0,0,1,112,207.294v-4.909a1.052,1.052,0,0,1,1.052-1.052H116.7a1.052,1.052,0,1,1,0,2.1H114.1v3.857A1.052,1.052,0,0,1,113.052,208.346Z" transform="translate(-100.092 -180.584)"/>
        <path id="Trazado_727128" data-name="Trazado 727128" d="M147.719,201.333h26.368a1.052,1.052,0,0,1,1.052,1.052v10.1a14.236,14.236,0,0,1-28.471,0v-10.1A1.052,1.052,0,0,1,147.719,201.333Zm25.316,2.1H148.771v9.046a12.132,12.132,0,0,0,24.264,0Z" transform="translate(-131.113 -180.583)"/>
        <path id="Trazado_727129" data-name="Trazado 727129" d="M105.961,255.01h-2.1A3.861,3.861,0,0,1,100,251.153V249.19a3.861,3.861,0,0,1,3.857-3.857h2.1a1.052,1.052,0,0,1,0,2.1h-2.1a1.755,1.755,0,0,0-1.753,1.753v1.963a1.755,1.755,0,0,0,1.753,1.753h2.1a1.052,1.052,0,1,1,0,2.1Z" transform="translate(-89.354 -219.955)"/>
        <path id="Trazado_727130" data-name="Trazado 727130" d="M402.032,208.346a1.052,1.052,0,0,1-1.052-1.052v-3.857h-2.595a1.052,1.052,0,0,1,0-2.1h3.647a1.052,1.052,0,0,1,1.052,1.052v4.909A1.052,1.052,0,0,1,402.032,208.346Z" transform="translate(-355.411 -180.584)"/>
        <path id="Trazado_727131" data-name="Trazado 727131" d="M400.489,255.01h-2.1a1.052,1.052,0,0,1,0-2.1h2.1a1.755,1.755,0,0,0,1.753-1.753V249.19a1.755,1.755,0,0,0-1.753-1.753h-2.1a1.052,1.052,0,0,1,0-2.1h2.1a3.861,3.861,0,0,1,3.857,3.857v1.963A3.861,3.861,0,0,1,400.489,255.01Z" transform="translate(-355.411 -219.955)"/>
        <path id="Trazado_727132" data-name="Trazado 727132" d="M230.1,426.589a6.108,6.108,0,0,1-6.1-6.1v-4.769a1.052,1.052,0,0,1,2.1,0v4.769a4,4,0,0,0,7.994,0v-4.769a1.052,1.052,0,0,1,2.1,0v4.769A6.108,6.108,0,0,1,230.1,426.589Z" transform="translate(-200.311 -371.477)"/>
        <path id="Línea_215" data-name="Línea 215" d="M-8.948-2.707A1.052,1.052,0,0,1-10-3.759V-8.948A1.052,1.052,0,0,1-8.948-10,1.052,1.052,0,0,1-7.9-8.948v5.189A1.052,1.052,0,0,1-8.948-2.707Z" transform="translate(56.13 73.387)"/>
        <path id="Línea_216" data-name="Línea 216" d="M-8.948-2.707A1.052,1.052,0,0,1-10-3.759V-8.948A1.052,1.052,0,0,1-8.948-10,1.052,1.052,0,0,1-7.9-8.948v5.189A1.052,1.052,0,0,1-8.948-2.707Z" transform="translate(21.347 73.387)"/>
        <path id="Trazado_727133" data-name="Trazado 727133" d="M145.467,61.885A9.478,9.478,0,0,1,136,52.418a1.052,1.052,0,0,1,2.1,0,7.363,7.363,0,1,0,14.727,0,4.418,4.418,0,1,1,8.836,0,1.052,1.052,0,1,1-2.1,0,2.314,2.314,0,0,0-4.628,0A9.478,9.478,0,0,1,145.467,61.885Z" transform="translate(-121.568 -43.379)"/>
        <path id="Trazado_727134" data-name="Trazado 727134" d="M188.418,13.885A4.423,4.423,0,0,1,184,9.467a1.052,1.052,0,0,1,2.1,0,2.314,2.314,0,0,0,4.628,0,9.467,9.467,0,1,1,18.934,0,1.052,1.052,0,1,1-2.1,0,7.363,7.363,0,0,0-14.727,0A4.423,4.423,0,0,1,188.418,13.885Z" transform="translate(-164.518 -0.429)"/>
      </g>
    </g>
  </g>
</svg>
