<svg xmlns="http://www.w3.org/2000/svg" xmlns:xlink="http://www.w3.org/1999/xlink" width="100" height="100" viewBox="0 0 100 100">
  <defs>
    <clipPath id="clip-path">
      <rect id="Rect치ngulo_346603" data-name="Rect치ngulo 346603" width="67" height="61.283" fill="#9f0925"/>
    </clipPath>
  </defs>
  <g id="Grupo_987747" data-name="Grupo 987747" transform="translate(-344 -1337)">
    <rect id="Rect치ngulo_33840" data-name="Rect치ngulo 33840" width="100" height="100" transform="translate(344 1337)" fill="#b3eeef"/>
    <g id="Grupo_987701" data-name="Grupo 987701" transform="translate(360.5 1356)">
      <g id="Grupo_987700" data-name="Grupo 987700" clip-path="url(#clip-path)">
        <path id="Trazado_728504" data-name="Trazado 728504" d="M64.461,255.148a4.5,4.5,0,0,0-6.557-5.3l-8.731,5.183a4.413,4.413,0,0,0-.84.651l-1.007.07a4.11,4.11,0,0,0-1.944-4.228c-7.273-4.955-8.526-6.02-10.76-6.515-2.443-.533-4.147-.9-5.528-1.107a.981.981,0,0,0-.293,1.941c1.844.278,4.907.984,5.384,1.08,1.873.446,2.681,1.176,10.092,6.224a2.259,2.259,0,0,1,.83,3.124,2.225,2.225,0,0,1-2.471.666l-7.162-2.6a.981.981,0,1,0-.67,1.845l7.162,2.6a4.185,4.185,0,0,0,4.415-1c17.049-1.186,15.924-1.16,16.528-1.063,2.654.426,3.161,4.157-.39,5.114-.044.009-20.309,4.079-20.352,4.09a7.757,7.757,0,0,1-5.891-.94c-6.888-4.693-7.231-5.2-10.12-5.753a8.634,8.634,0,0,0-5.428.816l-4.851-11.78a48.27,48.27,0,0,1,8.651-2.425.981.981,0,0,0-.323-1.936,50.108,50.108,0,0,0-9.075,2.548l-.338-.822a2.381,2.381,0,0,0-3.11-1.3l-10.176,4.19A2.426,2.426,0,0,0,0,250.776v20.417A2.062,2.062,0,0,0,2.844,273.1l17.691-7.265a2.385,2.385,0,0,0,1.3-3.11h0l-.355-.862a6.752,6.752,0,0,1,4.314-.7c1.972.375,2.333.6,6.471,3.451.125.086,2.841,1.956,2.97,2.035a9.666,9.666,0,0,0,7.4,1.186l20.3-4.078.055-.013c5.353-1.4,4.826-7.09,1.472-8.593m-1.932-.437c-.312-.015-8.491.573-10.132.686l6.509-3.864a2.533,2.533,0,0,1,3.622,3.177m-42.741,9.309L2.1,271.284a.1.1,0,0,1-.136-.091V250.776a.467.467,0,0,1,.291-.434l10.176-4.19a.42.42,0,0,1,.548.228l7.038,17.093a.42.42,0,0,1-.227.547" transform="translate(0 -211.974)" fill="#9f0925"/>
        <path id="Trazado_728505" data-name="Trazado 728505" d="M223.2,8.758h-1.054a8.247,8.247,0,0,0-.672-1.622l.746-.746a1.431,1.431,0,0,0,0-2.022l-1.332-1.332a1.429,1.429,0,0,0-2.022,0l-.745.745a8.24,8.24,0,0,0-1.622-.672V2.056a1.431,1.431,0,0,0-1.43-1.43h-1.884a1.432,1.432,0,0,0-1.43,1.43V3.11a8.236,8.236,0,0,0-1.622.672l-.745-.745a1.429,1.429,0,0,0-2.022,0l-1.04,1.04c-.316-.11-.636-.208-.958-.292v-2.1A1.691,1.691,0,0,0,203.673,0H200.7a1.691,1.691,0,0,0-1.689,1.689v2.1a12.461,12.461,0,0,0-3.222,1.335l-1.481-1.482a1.688,1.688,0,0,0-2.389,0l-2.1,2.1a1.691,1.691,0,0,0,0,2.389L191.3,9.61a12.456,12.456,0,0,0-1.335,3.222h-2.1a1.691,1.691,0,0,0-1.689,1.689v2.973a1.691,1.691,0,0,0,1.689,1.689h2.1a12.46,12.46,0,0,0,1.335,3.222l-1.482,1.482a1.691,1.691,0,0,0,0,2.389l2.1,2.1a1.691,1.691,0,0,0,2.389,0l1.482-1.482a12.461,12.461,0,0,0,3.222,1.335v2.1a1.691,1.691,0,0,0,1.689,1.689h2.974a1.691,1.691,0,0,0,1.689-1.689v-2.1a12.461,12.461,0,0,0,3.222-1.335l1.482,1.482a1.688,1.688,0,0,0,2.389,0l2.1-2.1a1.691,1.691,0,0,0,0-2.388L213.075,22.4q.221-.376.416-.769h1.575a1.432,1.432,0,0,0,1.43-1.43V19.151a8.247,8.247,0,0,0,1.622-.672l.745.745a1.43,1.43,0,0,0,2.022,0l1.333-1.333a1.431,1.431,0,0,0,0-2.022l-.746-.746a8.256,8.256,0,0,0,.672-1.622H223.2a1.431,1.431,0,0,0,1.43-1.43V10.188a1.432,1.432,0,0,0-1.43-1.43M211.261,26.8l-1.843-1.843a.982.982,0,0,0-1.246-.118,10.551,10.551,0,0,1-3.974,1.647.981.981,0,0,0-.8.964v2.606h-2.425V27.446a.981.981,0,0,0-.8-.964,10.549,10.549,0,0,1-3.974-1.647.982.982,0,0,0-1.246.118L193.113,26.8,191.4,25.081l1.843-1.843a.982.982,0,0,0,.118-1.246,10.546,10.546,0,0,1-1.647-3.974.981.981,0,0,0-.964-.8h-2.607V14.795h2.607a.981.981,0,0,0,.964-.8,10.545,10.545,0,0,1,1.647-3.974.982.982,0,0,0-.118-1.246L191.4,6.934l1.715-1.715,1.843,1.843a.982.982,0,0,0,1.246.118,10.546,10.546,0,0,1,3.974-1.647.981.981,0,0,0,.8-.964V1.963H203.4V4.569a.981.981,0,0,0,.8.964,10.585,10.585,0,0,1,1.529.413,1.445,1.445,0,0,0,.3.444l.746.746a8.377,8.377,0,0,0-.672,1.622h-.987a7.818,7.818,0,1,0,4.15,10.571h0a1.439,1.439,0,0,0,.117-.1l.745-.745a8.244,8.244,0,0,0,1.622.672v1.054a1.625,1.625,0,0,0,.058.4,10.608,10.608,0,0,1-.794,1.384.981.981,0,0,0,.118,1.246l1.843,1.843Zm-5.232-8.9,1.161,1.161a5.857,5.857,0,1,1-3.571-8.723v1.742a1.431,1.431,0,0,0,1.43,1.43H206.1a8.242,8.242,0,0,0,.672,1.622l-.745.745a1.428,1.428,0,0,0,0,2.022m16.636-6.352h-1.293a.981.981,0,0,0-.964.8,6.326,6.326,0,0,1-.987,2.385.982.982,0,0,0,.118,1.246l.914.914-.579.579-.914-.914a.982.982,0,0,0-1.246-.118,6.325,6.325,0,0,1-2.385.987.981.981,0,0,0-.8.964v1.293h-.819V18.38a.982.982,0,0,0-.8-.964,6.327,6.327,0,0,1-2.385-.987.982.982,0,0,0-1.246.118l-.914.914-.579-.579.914-.914a.982.982,0,0,0,.118-1.246,6.327,6.327,0,0,1-.987-2.385.982.982,0,0,0-.964-.8H205.58v-.818h1.293a.982.982,0,0,0,.964-.8,6.417,6.417,0,0,1,.987-2.385.982.982,0,0,0-.118-1.246l-.914-.914.579-.579.914.914a.981.981,0,0,0,1.246.118,6.328,6.328,0,0,1,2.385-.987.982.982,0,0,0,.8-.964V2.589h.819V3.881a.981.981,0,0,0,.8.964,6.328,6.328,0,0,1,2.385.987.982.982,0,0,0,1.246-.118l.914-.914.579.579-.914.914a.982.982,0,0,0-.118,1.246,6.326,6.326,0,0,1,.987,2.385.982.982,0,0,0,.964.8h1.293Z" transform="translate(-161.816)" fill="#9f0925"/>
        <path id="Trazado_728506" data-name="Trazado 728506" d="M368.737,50.8a.982.982,0,0,0-1.318.437,3.352,3.352,0,1,1-.625-3.874,3.415,3.415,0,0,1,.29.332.981.981,0,1,0,1.557-1.2,5.38,5.38,0,0,0-.458-.524,5.315,5.315,0,1,0,.991,6.142.981.981,0,0,0-.437-1.317" transform="translate(-312.117 -38.606)" fill="#9f0925"/>
        <path id="Trazado_728507" data-name="Trazado 728507" d="M189.567,244.96a19.543,19.543,0,0,0-4.272,0l-.323-1.936a22.279,22.279,0,0,1,4.888-.007c1.846.327-.293,1.941-.293,1.941" transform="translate(-160.767 -211.092)" fill="#9f0925"/>
      </g>
    </g>
  </g>
</svg>
