<svg xmlns="http://www.w3.org/2000/svg" xmlns:xlink="http://www.w3.org/1999/xlink" width="100" height="100" viewBox="0 0 100 100">
  <defs>
    <clipPath id="clip-path">
      <rect id="Rectángulo_346516" data-name="Rectángulo 346516" width="48.254" height="61.102" fill="#9f0925"/>
    </clipPath>
  </defs>
  <g id="Grupo_987551" data-name="Grupo 987551" transform="translate(-1047 -614)">
    <circle id="Elipse_4713" data-name="Elipse 4713" cx="50" cy="50" r="50" transform="translate(1047 614)" fill="#b3eeef"/>
    <g id="Grupo_987550" data-name="Grupo 987550" transform="translate(1072.896 633.739)">
      <g id="Grupo_987549" data-name="Grupo 987549" clip-path="url(#clip-path)">
        <path id="Trazado_727218" data-name="Trazado 727218" d="M11.163,454.889A1.194,1.194,0,0,1,10.01,454l-1.792-6.687-6.716,1.8a1.194,1.194,0,0,1-1.343-1.75L8.4,433.1a1.194,1.194,0,0,1,2.067,1.194l-6.8,11.773L8.753,444.7a1.194,1.194,0,0,1,1.462.844L11.57,450.6l7.145-12.375a1.194,1.194,0,1,1,2.067,1.193L12.2,454.292A1.194,1.194,0,0,1,11.163,454.889Z" transform="translate(0.001 -393.787)" fill="#9f0925"/>
        <path id="Trazado_727219" data-name="Trazado 727219" d="M314.456,454.325a1.194,1.194,0,0,1-1.033-.6l-8.629-14.945a1.194,1.194,0,1,1,2.067-1.194l7.188,12.45,1.355-5.057a1.194,1.194,0,0,1,1.462-.844l5.086,1.363-6.829-11.828a1.194,1.194,0,1,1,2.067-1.194l8.27,14.324a1.194,1.194,0,0,1-1.343,1.75l-6.716-1.8-1.792,6.687a1.194,1.194,0,0,1-1.153.885Z" transform="translate(-277.365 -393.223)" fill="#9f0925"/>
        <path id="Trazado_727220" data-name="Trazado 727220" d="M30.119,0a6.874,6.874,0,0,1,2.616.515,4.5,4.5,0,0,0,1.713.337A4.5,4.5,0,0,0,36.161.516a6.909,6.909,0,0,1,8.082,2.166,4.5,4.5,0,0,0,2.968,1.713,6.931,6.931,0,0,1,5.917,5.917,4.5,4.5,0,0,0,1.713,2.968,6.93,6.93,0,0,1,2.166,8.082,4.5,4.5,0,0,0,0,3.427,6.93,6.93,0,0,1-2.166,8.082,4.5,4.5,0,0,0-1.713,2.968,6.931,6.931,0,0,1-5.917,5.917,4.5,4.5,0,0,0-2.968,1.713,6.909,6.909,0,0,1-8.082,2.166,4.523,4.523,0,0,0-3.427,0,6.909,6.909,0,0,1-8.082-2.166,4.5,4.5,0,0,0-2.968-1.713,6.93,6.93,0,0,1-5.917-5.917,4.5,4.5,0,0,0-1.713-2.968,6.93,6.93,0,0,1-2.166-8.082,4.5,4.5,0,0,0,0-3.427,6.93,6.93,0,0,1,2.166-8.082,4.5,4.5,0,0,0,1.713-2.968,6.93,6.93,0,0,1,5.916-5.917,4.5,4.5,0,0,0,2.968-1.713A6.866,6.866,0,0,1,30.119,0ZM34.448,3.24a6.878,6.878,0,0,1-2.618-.515A4.522,4.522,0,0,0,26.54,4.142,6.871,6.871,0,0,1,22.006,6.76a4.536,4.536,0,0,0-3.873,3.873,6.872,6.872,0,0,1-2.618,4.534A4.536,4.536,0,0,0,14.1,20.457a6.871,6.871,0,0,1,0,5.235,4.536,4.536,0,0,0,1.418,5.291,6.872,6.872,0,0,1,2.618,4.534,4.537,4.537,0,0,0,3.873,3.873,6.871,6.871,0,0,1,4.534,2.617,4.522,4.522,0,0,0,5.291,1.418,6.91,6.91,0,0,1,5.235,0,4.522,4.522,0,0,0,5.29-1.418A6.871,6.871,0,0,1,46.89,39.39a4.537,4.537,0,0,0,3.873-3.873,6.87,6.87,0,0,1,2.618-4.534A4.537,4.537,0,0,0,54.8,25.692a6.871,6.871,0,0,1,0-5.235,4.536,4.536,0,0,0-1.417-5.29,6.871,6.871,0,0,1-2.618-4.534A4.537,4.537,0,0,0,46.89,6.76a6.871,6.871,0,0,1-4.534-2.618,4.522,4.522,0,0,0-5.29-1.418A6.878,6.878,0,0,1,34.448,3.24Z" transform="translate(-10.358 0)" fill="#9f0925"/>
        <path id="Trazado_727221" data-name="Trazado 727221" d="M171.292,189.821a1.193,1.193,0,0,1-.844-.35l-6.964-6.965a1.194,1.194,0,0,1,0-1.688l3.713-3.713a1.194,1.194,0,0,1,1.688,0l2.407,2.407,5.14-5.14a1.194,1.194,0,0,1,.844-.35h0a1.194,1.194,0,0,1,.844.35l3.713,3.713a1.194,1.194,0,0,1,0,1.688l-9.7,9.7A1.194,1.194,0,0,1,171.292,189.821Zm-5.277-8.158,5.277,5.277,8.009-8.009-2.025-2.025-5.14,5.14a1.194,1.194,0,0,1-1.688,0l-2.407-2.407Z" transform="translate(-148.532 -158.446)" fill="#9f0925"/>
        <path id="Trazado_727222" data-name="Trazado 727222" d="M111.78,87.477h0a13.239,13.239,0,0,1,5.713,1.24A15.516,15.516,0,1,1,106,88.695,14.419,14.419,0,0,1,111.78,87.477Zm-.06,28.774a13.131,13.131,0,0,0,4.837-25.338,1.191,1.191,0,0,1-.129-.06,10.857,10.857,0,0,0-4.648-.989h0a12.108,12.108,0,0,0-4.86,1.034,13.132,13.132,0,0,0,4.8,25.353Z" transform="translate(-87.593 -79.647)" fill="#9f0925"/>
      </g>
    </g>
  </g>
</svg>
