<svg xmlns="http://www.w3.org/2000/svg" xmlns:xlink="http://www.w3.org/1999/xlink" width="100" height="100" viewBox="0 0 100 100">
  <defs>
    <clipPath id="clip-path">
      <rect id="Rectángulo_346606" data-name="Rectángulo 346606" width="83.5" height="63.4" fill="#9f0925"/>
    </clipPath>
  </defs>
  <g id="Grupo_1042468" data-name="Grupo 1042468" transform="translate(-457 -1678.602)">
    <path id="Trazado_728564" data-name="Trazado 728564" d="M0,0H100V100H0Z" transform="translate(457 1678.602)" fill="#b3eeef"/>
    <g id="Grupo_987703" data-name="Grupo 987703" transform="translate(465 1697.105)">
      <g id="Grupo_987702" data-name="Grupo 987702" clip-path="url(#clip-path)">
        <path id="Trazado_728508" data-name="Trazado 728508" d="M80.5,4.152A9.55,9.55,0,0,0,72.875,0H24.681a9.551,9.551,0,0,0-7.626,4.152,15.985,15.985,0,0,0-3,9.58,17.292,17.292,0,0,0,.891,5.525H10.625A9.551,9.551,0,0,0,3,23.409a15.984,15.984,0,0,0-3,9.58,15.986,15.986,0,0,0,3,9.58,11.86,11.86,0,0,0,1.754,1.88V59.568A3.836,3.836,0,0,0,8.584,63.4H56.21a3.836,3.836,0,0,0,3.832-3.832v-.855a1.223,1.223,0,1,0-2.445,0v.855a1.388,1.388,0,0,1-1.387,1.387H8.585A1.388,1.388,0,0,1,7.2,59.568V46a8.54,8.54,0,0,0,3.427.724H57.6V53.51a1.223,1.223,0,1,0,2.445,0V46.63a9.257,9.257,0,0,0,4.991-2.487h5.233A3.836,3.836,0,0,0,74.1,40.311V27.373a9.843,9.843,0,0,0,6.4-4.06,15.986,15.986,0,0,0,3-9.58A15.984,15.984,0,0,0,80.5,4.152ZM58.819,44.276H10.625c-4.51,0-8.18-5.063-8.18-11.287S6.115,21.7,10.625,21.7H22.3a1.223,1.223,0,1,0,0-2.445H17.555A14.607,14.607,0,0,1,16.5,13.732c0-6.224,3.669-11.287,8.18-11.287H66.8a11.986,11.986,0,0,0-1.555,1.707,15.986,15.986,0,0,0-3,9.58,16.838,16.838,0,0,0,1.515,7.087,8.745,8.745,0,0,0-4.945-1.563H27.436a1.223,1.223,0,0,0,0,2.445H52.748a11.993,11.993,0,0,0-1.555,1.707,15.985,15.985,0,0,0-3,9.58,16.485,16.485,0,0,0,2.054,8.135,1.223,1.223,0,1,0,2.127-1.207,14.041,14.041,0,0,1-1.735-6.928c0-6.224,3.669-11.287,8.18-11.287S67,26.765,67,32.989,63.33,44.276,58.819,44.276ZM70.266,41.7H67.044a16.309,16.309,0,0,0,2.4-8.709A16.841,16.841,0,0,0,67.93,25.9a8.891,8.891,0,0,0,3.723,1.471V40.311A1.388,1.388,0,0,1,70.266,41.7Zm2.609-16.679c-4.51,0-8.18-5.063-8.18-11.287s3.67-11.287,8.18-11.287,8.18,5.063,8.18,11.287-3.669,11.287-8.18,11.287" transform="translate(0)" fill="#9f0925"/>
        <path id="Trazado_728509" data-name="Trazado 728509" d="M409.845,33.223c-3.593,0-6.517,3.708-6.517,8.266s2.924,8.266,6.517,8.266,6.517-3.708,6.517-8.266-2.923-8.266-6.517-8.266m0,14.087c-2.207,0-4.072-2.666-4.072-5.821s1.865-5.821,4.072-5.821,4.071,2.666,4.071,5.821-1.865,5.821-4.071,5.821" transform="translate(-336.97 -27.757)" fill="#9f0925"/>
        <path id="Trazado_728510" data-name="Trazado 728510" d="M435.654,71.866c-.792,0-1.435.854-1.435,1.909s.642,1.909,1.435,1.909,1.435-.854,1.435-1.909-.642-1.909-1.435-1.909" transform="translate(-362.779 -60.042)" fill="#9f0925"/>
        <path id="Trazado_728511" data-name="Trazado 728511" d="M324.415,150.269c-3.593,0-6.517,3.708-6.517,8.266s2.924,8.266,6.517,8.266,6.517-3.708,6.517-8.266-2.923-8.266-6.517-8.266m0,14.087c-2.207,0-4.072-2.666-4.072-5.821s1.865-5.821,4.072-5.821,4.072,2.666,4.072,5.821S326.622,164.356,324.415,164.356Z" transform="translate(-265.595 -125.546)" fill="#9f0925"/>
        <path id="Trazado_728512" data-name="Trazado 728512" d="M350.224,188.913c-.792,0-1.435.854-1.435,1.909s.642,1.909,1.435,1.909,1.435-.854,1.435-1.909-.642-1.909-1.435-1.909" transform="translate(-291.404 -157.832)" fill="#9f0925"/>
        <rect id="Rectángulo_346604" data-name="Rectángulo 346604" width="5.135" height="2.445" transform="translate(22.3 19.257)" fill="#9f0925"/>
        <rect id="Rectángulo_346605" data-name="Rectángulo 346605" width="2.445" height="5.203" transform="translate(57.597 53.51)" fill="#9f0925"/>
        <path id="Trazado_728513" data-name="Trazado 728513" d="M313.981,246.975c-4.723.137-6.445-4.359-6.445-4.359l-2.127,1.207s2.633,6.036,8.572,5.68Z" transform="translate(-255.161 -202.699)" fill="#9f0925"/>
      </g>
    </g>
  </g>
</svg>
