<svg xmlns="http://www.w3.org/2000/svg" xmlns:xlink="http://www.w3.org/1999/xlink" width="100" height="100" viewBox="0 0 100 100">
  <defs>
    <clipPath id="clip-path">
      <rect id="Rectángulo_346536" data-name="Rectángulo 346536" width="48.076" height="59.194" fill="#9f0925"/>
    </clipPath>
  </defs>
  <g id="Grupo_987585" data-name="Grupo 987585" transform="translate(-1047 -1676)">
    <circle id="Elipse_4713" data-name="Elipse 4713" cx="50" cy="50" r="50" transform="translate(1047 1676)" fill="#0ce6ea"/>
    <g id="Grupo_987584" data-name="Grupo 987584" transform="translate(1073.025 1695.959)">
      <g id="Grupo_987583" data-name="Grupo 987583" clip-path="url(#clip-path)">
        <path id="Trazado_727309" data-name="Trazado 727309" d="M223.788,154.7a1.386,1.386,0,0,0-1.386,1.386v26.2a1.386,1.386,0,0,0,2.773,0v-26.2a1.386,1.386,0,0,0-1.386-1.386" transform="translate(-191.571 -133.258)" fill="#9f0925"/>
        <path id="Trazado_727310" data-name="Trazado 727310" d="M105.788,154.7a1.386,1.386,0,0,0-1.386,1.386v26.2a1.386,1.386,0,0,0,2.773,0v-26.2a1.386,1.386,0,0,0-1.386-1.386" transform="translate(-89.929 -133.258)" fill="#9f0925"/>
        <path id="Trazado_727311" data-name="Trazado 727311" d="M3.937,17.622V51.777A7.649,7.649,0,0,0,5.97,57.052a6.826,6.826,0,0,0,4.953,2.142H37.152a6.825,6.825,0,0,0,4.953-2.142,7.649,7.649,0,0,0,2.033-5.275V17.622A5.3,5.3,0,0,0,42.78,7.208h-7.1V5.476A5.445,5.445,0,0,0,30.193,0H17.883a5.445,5.445,0,0,0-5.49,5.476V7.208H5.3A5.3,5.3,0,0,0,3.937,17.622m33.215,38.8H10.923a4.39,4.39,0,0,1-4.214-4.644V17.744H41.366V51.777a4.39,4.39,0,0,1-4.214,4.644M15.166,5.476a2.671,2.671,0,0,1,2.717-2.7h12.31a2.671,2.671,0,0,1,2.717,2.7V7.208H15.166ZM5.3,9.981H42.78a2.5,2.5,0,1,1,0,4.991H5.3a2.5,2.5,0,0,1,0-4.991" transform="translate(0 0)" fill="#9f0925"/>
        <path id="Trazado_727312" data-name="Trazado 727312" d="M164.788,154.7a1.386,1.386,0,0,0-1.386,1.386v26.2a1.386,1.386,0,0,0,2.773,0v-26.2a1.386,1.386,0,0,0-1.386-1.386" transform="translate(-140.75 -133.258)" fill="#9f0925"/>
      </g>
    </g>
  </g>
</svg>
