<svg xmlns="http://www.w3.org/2000/svg" xmlns:xlink="http://www.w3.org/1999/xlink" width="100" height="100" viewBox="0 0 100 100">
  <defs>
    <clipPath id="clip-path">
      <rect id="Rectángulo_346486" data-name="Rectángulo 346486" width="62" height="62" transform="translate(0.448 0.448)" fill="none"/>
    </clipPath>
  </defs>
  <g id="Grupo_987496" data-name="Grupo 987496" transform="translate(-840 -919)">
    <path id="Trazado_727105" data-name="Trazado 727105" d="M50,0A50,50,0,1,1,0,50,50,50,0,0,1,50,0Z" transform="translate(840 919)" fill="#b3eeef"/>
    <g id="Grupo_987495" data-name="Grupo 987495" transform="translate(852.809 937.227)">
      <g id="Grupo_987494" data-name="Grupo 987494" transform="translate(-0.257 0.325)" clip-path="url(#clip-path)">
        <path id="Trazado_727119" data-name="Trazado 727119" d="M58.833,80.508h48.253a2.646,2.646,0,0,0,2.646-2.646V29.167H68.1L58.833,38.43Z" transform="translate(-50.847 -25.598)" fill="#f1e8dc"/>
        <path id="Trazado_727120" data-name="Trazado 727120" d="M386.756,48.668a.992.992,0,1,1-.992.992.992.992,0,0,1,.992-.992" transform="translate(-334.518 -42.519)" fill="#9a99a1"/>
        <path id="Trazado_727121" data-name="Trazado 727121" d="M307.756,48.668a.992.992,0,1,1-.992.992.992.992,0,0,1,.992-.992" transform="translate(-265.971 -42.519)" fill="#9a99a1"/>
        <path id="Trazado_727122" data-name="Trazado 727122" d="M228.756,48.668a.992.992,0,1,1-.992.992.992.992,0,0,1,.992-.992" transform="translate(-197.425 -42.519)" fill="#9a99a1"/>
        <path id="Trazado_727123" data-name="Trazado 727123" d="M149.756,48.668a.992.992,0,1,1-.992.992.992.992,0,0,1,.992-.992" transform="translate(-128.878 -42.519)" fill="#9a99a1"/>
        <path id="Trazado_727124" data-name="Trazado 727124" d="M253.541,189.88v6.881h-3.97a.662.662,0,0,1-.662-.662v-5.558a.662.662,0,0,1,.662-.662Z" transform="translate(-215.773 -165.045)" fill="#54c1ed"/>
        <path id="Trazado_727125" data-name="Trazado 727125" d="M358.541,111.542v16.011a.662.662,0,0,1-.662.662h-3.97V111.542a.662.662,0,0,1,.662-.662h3.308a.662.662,0,0,1,.662.662" transform="translate(-306.879 -96.499)" fill="#f4644d"/>
        <path id="Trazado_727126" data-name="Trazado 727126" d="M288.541,163.88V174.2H283.91v-9.659a.662.662,0,0,1,.662-.662Z" transform="translate(-246.141 -142.486)" fill="#8bc932"/>
        <path id="Trazado_727127" data-name="Trazado 727127" d="M323.541,136.88v13.894H318.91V137.542a.662.662,0,0,1,.662-.662Z" transform="translate(-276.51 -119.059)" fill="#f9d36b"/>
        <path id="Trazado_727128" data-name="Trazado 727128" d="M65.446,115.218H58.83V73.14l3.97-3.97v43.4a2.647,2.647,0,0,0,2.646,2.646" transform="translate(-50.844 -60.308)" fill="#efdbc6"/>
        <path id="Trazado_727129" data-name="Trazado 727129" d="M58.833,38.431h6.616A2.646,2.646,0,0,0,68.1,35.784V29.168Z" transform="translate(-50.847 -25.599)" fill="#e5cfbd"/>
        <path id="Trazado_727130" data-name="Trazado 727130" d="M113.082,164.153H98.526a.992.992,0,1,1,0-1.985h14.555a.992.992,0,0,1,0,1.985" transform="translate(-84.427 -141)" fill="#9a99a1"/>
        <path id="Trazado_727131" data-name="Trazado 727131" d="M144.426,198.154h-5.178a.992.992,0,0,1,0-1.985h5.178a.992.992,0,1,1,0,1.985" transform="translate(-119.76 -170.502)" fill="#9a99a1"/>
        <path id="Trazado_727132" data-name="Trazado 727132" d="M100.843,198.154H98.527a.992.992,0,0,1,0-1.985h2.316a.992.992,0,1,1,0,1.985" transform="translate(-84.428 -170.502)" fill="#9a99a1"/>
        <path id="Trazado_727133" data-name="Trazado 727133" d="M137.377,130.149h-10.85a.992.992,0,1,1,0-1.985h10.85a.992.992,0,1,1,0,1.985" transform="translate(-108.722 -111.496)" fill="#9a99a1"/>
        <path id="Trazado_727134" data-name="Trazado 727134" d="M106.026,128.168a.992.992,0,1,1-.992.992.992.992,0,0,1,.992-.992" transform="translate(-90.935 -111.499)" fill="#9a99a1"/>
        <path id="Trazado_727135" data-name="Trazado 727135" d="M201.026,196.168a.992.992,0,1,1-.992.992.992.992,0,0,1,.992-.992" transform="translate(-173.364 -170.501)" fill="#9a99a1"/>
        <path id="Trazado_727136" data-name="Trazado 727136" d="M276.958,323.985H262.4a.992.992,0,1,1,0-1.985h14.555a.992.992,0,0,1,0,1.985" transform="translate(-226.619 -279.683)" fill="#9a99a1"/>
        <path id="Trazado_727137" data-name="Trazado 727137" d="M308.3,357.985h-5.178a.992.992,0,0,1,0-1.985H308.3a.992.992,0,0,1,0,1.985" transform="translate(-261.952 -309.184)" fill="#9a99a1"/>
        <path id="Trazado_727138" data-name="Trazado 727138" d="M264.719,357.985H262.4a.992.992,0,0,1,0-1.985h2.316a.992.992,0,0,1,0,1.985" transform="translate(-226.62 -309.184)" fill="#9a99a1"/>
        <path id="Trazado_727139" data-name="Trazado 727139" d="M301.253,289.985H290.4a.992.992,0,0,1,0-1.985h10.85a.992.992,0,1,1,0,1.985" transform="translate(-250.914 -250.182)" fill="#9a99a1"/>
        <path id="Trazado_727140" data-name="Trazado 727140" d="M269.9,288a.992.992,0,1,1-.992.992A.992.992,0,0,1,269.9,288" transform="translate(-233.126 -250.18)" fill="#9a99a1"/>
        <path id="Trazado_727141" data-name="Trazado 727141" d="M364.9,356a.992.992,0,1,1-.992.992A.992.992,0,0,1,364.9,356" transform="translate(-315.556 -309.186)" fill="#9a99a1"/>
        <path id="Trazado_727142" data-name="Trazado 727142" d="M38.593,251v-3.915a1.323,1.323,0,0,0-1.2-1.318l-2.92-.266a11.824,11.824,0,0,0-.845-2.031l1.879-2.255a1.323,1.323,0,0,0-.081-1.783l-2.768-2.768a1.323,1.323,0,0,0-1.783-.081l-2.255,1.879a11.824,11.824,0,0,0-2.031-.845l-.266-2.92A1.323,1.323,0,0,0,25,233.5H21.088a1.323,1.323,0,0,0-1.318,1.2l-.266,2.92a11.824,11.824,0,0,0-2.031.845l-2.255-1.879a1.323,1.323,0,0,0-1.783.081l-2.768,2.768a1.323,1.323,0,0,0-.081,1.783l1.879,2.255a11.824,11.824,0,0,0-.845,2.031l-2.92.266a1.323,1.323,0,0,0-1.2,1.318V251a1.323,1.323,0,0,0,1.2,1.318l2.92.266a11.824,11.824,0,0,0,.845,2.031l-1.879,2.255a1.323,1.323,0,0,0,.081,1.783l2.768,2.768a1.323,1.323,0,0,0,1.783.081l2.255-1.879a11.823,11.823,0,0,0,2.031.845l.266,2.92a1.323,1.323,0,0,0,1.318,1.2H25a1.323,1.323,0,0,0,1.318-1.2l.266-2.92a11.822,11.822,0,0,0,2.031-.845l2.255,1.879a1.323,1.323,0,0,0,1.783-.081l2.768-2.768a1.323,1.323,0,0,0,.081-1.783l-1.879-2.255a11.824,11.824,0,0,0,.845-2.031l2.92-.266A1.323,1.323,0,0,0,38.593,251Zm-15.548,3.671a5.628,5.628,0,1,1,5.628-5.628,5.628,5.628,0,0,1-5.628,5.628" transform="translate(-6.304 -202.891)" fill="#46bee8"/>
        <path id="Trazado_727143" data-name="Trazado 727143" d="M31.68,254.91,28.91,257.68a1.323,1.323,0,0,0-.081,1.782l1.879,2.253a12,12,0,0,1,5.007-5.007l-2.253-1.879A1.323,1.323,0,0,0,31.68,254.91Z" transform="translate(-24.548 -221.135)" fill="#17afde"/>
        <path id="Trazado_727144" data-name="Trazado 727144" d="M30.708,393.12l-1.879,2.253a1.323,1.323,0,0,0,.081,1.782l2.769,2.768a1.323,1.323,0,0,0,1.782.082l2.253-1.879a12,12,0,0,1-5.007-5.007" transform="translate(-24.548 -341.392)" fill="#17afde"/>
        <path id="Trazado_727145" data-name="Trazado 727145" d="M11.086,327.781a11.952,11.952,0,0,1,.535-3.541l-2.918.266a1.322,1.322,0,0,0-1.2,1.318v3.914a1.322,1.322,0,0,0,1.2,1.318l2.918.266A11.952,11.952,0,0,1,11.086,327.781Z" transform="translate(-6.307 -281.627)" fill="#17afde"/>
        <path id="Trazado_727146" data-name="Trazado 727146" d="M77.278,296a7.278,7.278,0,1,0,7.278,7.278A7.278,7.278,0,0,0,77.278,296m0,10.586a3.308,3.308,0,1,1,3.308-3.308,3.308,3.308,0,0,1-3.308,3.308" transform="translate(-60.536 -257.123)" fill="#17afde"/>
        <path id="Trazado_727147" data-name="Trazado 727147" d="M418.5,82.5v27.3l2.708,5.819a.662.662,0,0,0,1.2,0l2.708-5.819V82.5Z" transform="translate(-362.922 -71.874)" fill="#ffb155"/>
        <path id="Trazado_727148" data-name="Trazado 727148" d="M425.116,13.454H418.5V10.808a3.308,3.308,0,1,1,6.616,0Z" transform="translate(-362.922 -6.798)" fill="#f4644d" fill-rule="evenodd"/>
        <rect id="Rectángulo_346484" data-name="Rectángulo 346484" width="6.616" height="3.97" transform="translate(55.578 6.656)" fill="#e6f0f6"/>
        <rect id="Rectángulo_346485" data-name="Rectángulo 346485" width="2.646" height="3.97" transform="translate(55.578 6.656)" fill="#aacfe2"/>
        <path id="Trazado_727149" data-name="Trazado 727149" d="M423.131,114.06l-.724,1.555a.662.662,0,0,1-1.2,0L418.5,109.8V82.5h2.646v27.3Z" transform="translate(-362.922 -71.874)" fill="#f19b40"/>
        <path id="Trazado_727150" data-name="Trazado 727150" d="M421.146,8v5.888H418.5V11.242A3.309,3.309,0,0,1,421.146,8" transform="translate(-362.922 -7.232)" fill="#e8533a" fill-rule="evenodd"/>
        <path id="Trazado_727151" data-name="Trazado 727151" d="M70.743,305.04a8.27,8.27,0,1,1,4.7-15.07.992.992,0,1,1-1.131,1.631,6.287,6.287,0,1,0,1.78,1.876.992.992,0,1,1,1.688-1.043,8.268,8.268,0,0,1-7.04,12.607m0-3.97a4.3,4.3,0,1,1,4.3-4.3,4.3,4.3,0,0,1-4.3,4.3m0-6.616a2.316,2.316,0,1,0,2.316,2.316,2.316,2.316,0,0,0-2.316-2.316" transform="translate(-54.002 -250.616)"/>
        <path id="Trazado_727152" data-name="Trazado 727152" d="M58.685,242.672a.992.992,0,0,0-.992.992v4.984a1.656,1.656,0,0,1-1.654,1.654H30.113a2.342,2.342,0,0,0-.351-.571L28.3,247.973q.22-.473.4-.963l2.278-.207A2.3,2.3,0,0,0,33.08,244.5v-3.915a2.3,2.3,0,0,0-2.106-2.306l-2.278-.207q-.18-.488-.4-.963l1.465-1.758a2.3,2.3,0,0,0-.141-3.12l-2.768-2.768a2.3,2.3,0,0,0-3.12-.142l-1.758,1.465q-.474-.22-.963-.4l-.207-2.278A2.3,2.3,0,0,0,18.5,226H14.583a2.3,2.3,0,0,0-2.306,2.106l-.207,2.278q-.488.18-.963.4l-1.758-1.465a2.3,2.3,0,0,0-3.12.142L3.46,232.229a2.3,2.3,0,0,0-.141,3.12l1.465,1.758q-.22.474-.4.963l-2.278.207A2.3,2.3,0,0,0,0,240.582V244.5A2.3,2.3,0,0,0,2.106,246.8l2.278.207q.18.488.4.963l-1.465,1.758a2.3,2.3,0,0,0,.141,3.12l2.768,2.768a2.3,2.3,0,0,0,3.12.142l1.758-1.465q.474.22.963.4l.207,2.278a2.3,2.3,0,0,0,2.306,2.106H18.5a2.3,2.3,0,0,0,2.306-2.106l.207-2.278q.488-.18.963-.4l1.758,1.465a2.3,2.3,0,0,0,3.12-.142l2.768-2.768a2.335,2.335,0,0,0,.415-.564h26a3.643,3.643,0,0,0,3.639-3.639v-4.984A.992.992,0,0,0,58.685,242.672Zm-30.468,8.776-2.768,2.768a.329.329,0,0,1-.446.02l-2.255-1.879a.993.993,0,0,0-1.1-.115,10.883,10.883,0,0,1-1.861.774.993.993,0,0,0-.694.858l-.266,2.92a.329.329,0,0,1-.329.3H14.583a.329.329,0,0,1-.329-.3l-.266-2.92a.992.992,0,0,0-.694-.858,10.882,10.882,0,0,1-1.861-.774.992.992,0,0,0-1.1.115l-2.255,1.879a.329.329,0,0,1-.446-.02l-2.768-2.768a.329.329,0,0,1-.02-.446l1.879-2.255a.992.992,0,0,0,.115-1.1,10.861,10.861,0,0,1-.774-1.861.992.992,0,0,0-.858-.694l-2.92-.266a.329.329,0,0,1-.3-.329v-3.915a.329.329,0,0,1,.3-.329l2.92-.266a.992.992,0,0,0,.858-.694,10.859,10.859,0,0,1,.774-1.861.993.993,0,0,0-.115-1.1l-1.879-2.255a.329.329,0,0,1,.02-.446l2.768-2.768a.329.329,0,0,1,.446-.02l2.255,1.879a.993.993,0,0,0,1.1.115,10.854,10.854,0,0,1,1.861-.774.993.993,0,0,0,.694-.858l.266-2.92a.329.329,0,0,1,.329-.3H18.5a.329.329,0,0,1,.329.3l.266,2.92a.993.993,0,0,0,.694.858,10.856,10.856,0,0,1,1.861.774.993.993,0,0,0,1.1-.115L25,230.844a.329.329,0,0,1,.446.02l2.768,2.768a.329.329,0,0,1,.02.446l-1.879,2.255a.992.992,0,0,0-.115,1.1,10.855,10.855,0,0,1,.774,1.861.993.993,0,0,0,.858.694l2.92.266a.329.329,0,0,1,.3.329V244.5a.329.329,0,0,1-.3.329l-2.92.266a.992.992,0,0,0-.858.694,10.861,10.861,0,0,1-.774,1.861.992.992,0,0,0,.115,1.1L28.236,251a.329.329,0,0,1-.02.446Z" transform="translate(0.201 -196.386)"/>
        <path id="Trazado_727153" data-name="Trazado 727153" d="M246.041,112.047v1.786h-2.977a1.656,1.656,0,0,0-1.654,1.654v5.558a1.656,1.656,0,0,0,1.654,1.654h17.2a1.656,1.656,0,0,0,1.654-1.654V105.034a1.656,1.656,0,0,0-1.654-1.654h-3.308a1.656,1.656,0,0,0-1.654,1.654v1.786h-2.977a1.656,1.656,0,0,0-1.654,1.654v1.919H247.7a1.656,1.656,0,0,0-1.654,1.654m0,8.667h-2.646v-4.9h2.646Zm11.247-12.9v-2.448h2.646v15.349h-2.646Zm-4.631,3.573v-2.58H255.3v11.909h-2.646Zm-4.631,3.44v-2.448h2.646v8.336h-2.646Z" transform="translate(-209.265 -89.991)"/>
        <path id="Trazado_727154" data-name="Trazado 727154" d="M386.756,48.669a.992.992,0,1,1-.992.992.992.992,0,0,1,.992-.992" transform="translate(-334.518 -42.52)"/>
        <path id="Trazado_727155" data-name="Trazado 727155" d="M307.756,48.669a.992.992,0,1,1-.992.992.992.992,0,0,1,.992-.992" transform="translate(-265.971 -42.52)"/>
        <path id="Trazado_727156" data-name="Trazado 727156" d="M228.756,48.669a.992.992,0,1,1-.992.992.992.992,0,0,1,.992-.992" transform="translate(-197.425 -42.52)"/>
        <path id="Trazado_727157" data-name="Trazado 727157" d="M149.756,48.669a.992.992,0,1,1-.992.992.992.992,0,0,1,.992-.992" transform="translate(-128.878 -42.52)"/>
        <path id="Trazado_727158" data-name="Trazado 727158" d="M97.534,163.16a.992.992,0,0,0,.992.992h14.555a.992.992,0,0,0,0-1.985H98.526a.992.992,0,0,0-.992.992" transform="translate(-84.427 -141)"/>
        <path id="Trazado_727159" data-name="Trazado 727159" d="M139.247,196.169a.992.992,0,0,0,0,1.985h5.178a.992.992,0,1,0,0-1.985Z" transform="translate(-119.76 -170.502)"/>
        <path id="Trazado_727160" data-name="Trazado 727160" d="M98.526,198.154h2.316a.992.992,0,1,0,0-1.985H98.526a.992.992,0,1,0,0,1.985" transform="translate(-84.427 -170.502)"/>
        <path id="Trazado_727161" data-name="Trazado 727161" d="M125.534,129.156a.992.992,0,0,0,.992.992h10.85a.992.992,0,1,0,0-1.985h-10.85a.992.992,0,0,0-.992.992" transform="translate(-108.722 -111.496)"/>
        <path id="Trazado_727162" data-name="Trazado 727162" d="M106.026,128.169a.992.992,0,1,1-.992.992.992.992,0,0,1,.992-.992" transform="translate(-90.935 -111.5)"/>
        <path id="Trazado_727163" data-name="Trazado 727163" d="M201.026,196.169a.992.992,0,1,1-.992.992.992.992,0,0,1,.992-.992" transform="translate(-173.364 -170.502)"/>
        <path id="Trazado_727164" data-name="Trazado 727164" d="M277.95,322.992a.992.992,0,0,0-.992-.992H262.4a.992.992,0,1,0,0,1.985h14.555a.992.992,0,0,0,.992-.992" transform="translate(-226.619 -279.683)"/>
        <path id="Trazado_727165" data-name="Trazado 727165" d="M303.124,356a.992.992,0,0,0,0,1.985H308.3a.992.992,0,0,0,0-1.985Z" transform="translate(-261.952 -309.184)"/>
        <path id="Trazado_727166" data-name="Trazado 727166" d="M262.4,356a.992.992,0,1,0,0,1.985h2.316a.992.992,0,1,0,0-1.985Z" transform="translate(-226.619 -309.184)"/>
        <path id="Trazado_727167" data-name="Trazado 727167" d="M301.253,288H290.4a.992.992,0,0,0,0,1.985h10.85a.992.992,0,1,0,0-1.985" transform="translate(-250.914 -250.182)"/>
        <path id="Trazado_727168" data-name="Trazado 727168" d="M269.9,289.985a.992.992,0,1,0-.992-.992.992.992,0,0,0,.992.992" transform="translate(-233.126 -250.182)"/>
        <path id="Trazado_727169" data-name="Trazado 727169" d="M363.91,356.992A.992.992,0,1,0,364.9,356a.992.992,0,0,0-.992.992" transform="translate(-315.556 -309.184)"/>
        <path id="Trazado_727170" data-name="Trazado 727170" d="M103.225,0a4.307,4.307,0,0,0-4.054,2.867H61.588a.993.993,0,0,0-.7.291l-9.263,9.263a.993.993,0,0,0-.291.7V30.771a.992.992,0,0,0,1.985,0V14.115h5.624a3.643,3.643,0,0,0,3.639-3.639V4.852H98.925V38.213a.993.993,0,0,0,.093.419l2.708,5.819a1.654,1.654,0,0,0,3,0l2.708-5.819a.993.993,0,0,0,.093-.419V4.3A4.305,4.305,0,0,0,103.225,0ZM58.942,12.13h-4.22L60.6,6.256v4.22a1.656,1.656,0,0,1-1.654,1.654m46.6,25.863-2.316,4.975-2.316-4.975V11.909h4.631Zm0-28.069H100.91V7.939h4.631Zm0-3.97H100.91V4.3a2.316,2.316,0,1,1,4.631,0Z" transform="translate(-44.339 -0.291)"/>
        <path id="Trazado_727171" data-name="Trazado 727171" d="M436,333.469V329.5h1.985v3.97" transform="translate(-378.107 -286.191)"/>
        <path id="Trazado_727172" data-name="Trazado 727172" d="M155.459,301.357a10.535,10.535,0,0,0-2.337-2.463c-1.064-.625-1.131,1.631-1.131,1.631a7.075,7.075,0,0,1,1.78,1.876c.463.913,1.688-1.043,1.688-1.043" transform="translate(-131.678 -259.539)"/>
        <path id="Trazado_727173" data-name="Trazado 727173" d="M53.318,232.549v2.908H51.333v-2.908" transform="translate(-44.34 -202.068)"/>
      </g>
    </g>
  </g>
</svg>
