<svg xmlns="http://www.w3.org/2000/svg" xmlns:xlink="http://www.w3.org/1999/xlink" width="100" height="100" viewBox="0 0 100 100">
  <defs>
    <clipPath id="clip-path">
      <rect id="Rectángulo_346517" data-name="Rectángulo 346517" width="53.222" height="62.865" fill="#9f0925"/>
    </clipPath>
  </defs>
  <g id="Grupo_987554" data-name="Grupo 987554" transform="translate(-341 11086)">
    <circle id="Elipse_4711" data-name="Elipse 4711" cx="50" cy="50" r="50" transform="translate(341 -11086)" fill="#b3eeef"/>
    <g id="Grupo_987553" data-name="Grupo 987553" transform="translate(364.131 -11067.433)">
      <g id="Grupo_987552" data-name="Grupo 987552" clip-path="url(#clip-path)">
        <path id="Trazado_727218" data-name="Trazado 727218" d="M22.956,181.592H18.387a.954.954,0,0,1-.847-.663l-1.4-5.749a12.566,12.566,0,0,1-2.8-1.253l-4.68,2.948a1,1,0,0,1-1.142-.11l-3.206-3.206a.81.81,0,0,1-.147-1.069l3.058-5.048a12.164,12.164,0,0,1-1.069-2.874l-5.417-1.29A.9.9,0,0,1,0,162.43v-4.569a.916.916,0,0,1,.663-.848l5.786-1.4a12.027,12.027,0,0,1,1.29-2.764L4.753,148.1A.954.954,0,0,1,4.9,146.99l3.243-3.206a.864.864,0,0,1,1.069-.184l5.048,3.1a14.439,14.439,0,0,1,2.874-1.105l1.216-5.417a.941.941,0,0,1,.884-.7H23.8a.917.917,0,0,1,.884.663l1.363,5.785a15.508,15.508,0,0,1,2.764,1.253l4.717-2.948a.941.941,0,0,1,1.105.111l3.243,3.206a.946.946,0,0,1,.147,1.142L34.969,153.7a18.285,18.285,0,0,1,1.105,2.911l6.559,1.474a.919.919,0,0,1,.663,1.069.939.939,0,0,1-1.069.663l-7.112-1.621a.821.821,0,0,1-.663-.663,11.052,11.052,0,0,0-1.327-3.427,1.014,1.014,0,0,1,0-.921l2.948-4.864-2.248-2.248-4.606,2.911a.775.775,0,0,1-.958,0,15.846,15.846,0,0,0-3.316-1.548.884.884,0,0,1-.626-.663L23.1,141.315H19.935l-1.216,5.27a.929.929,0,0,1-.663.663,13.747,13.747,0,0,0-3.427,1.253.721.721,0,0,1-.884-.037l-4.9-2.948L6.632,147.69,9.506,152.3a.9.9,0,0,1,0,.958A14.983,14.983,0,0,0,8,156.608a1.058,1.058,0,0,1-.663.59L1.8,158.524v3.169l5.306,1.253a.745.745,0,0,1,.663.663,12.246,12.246,0,0,0,1.29,3.427.94.94,0,0,1,0,.884l-2.985,4.864,2.248,2.248,4.606-2.911a.9.9,0,0,1,.958,0,16.114,16.114,0,0,0,3.353,1.548.891.891,0,0,1,.59.663l1.327,5.527h3.132l1.216-5.27a.821.821,0,0,1,.663-.663,14.115,14.115,0,0,0,3.39-1.29.9.9,0,1,1,.847,1.585,12.737,12.737,0,0,1-3.316,1.327l-1.216,5.417a.933.933,0,0,1-.921.626" transform="translate(0.001 -122.338)" fill="#9f0925" fill-rule="evenodd"/>
        <path id="Trazado_727219" data-name="Trazado 727219" d="M91.1,244.472a11.258,11.258,0,1,1,11.239-11.239A11.3,11.3,0,0,1,91.1,244.472m0-20.746a9.489,9.489,0,1,0,9.47,9.507,9.483,9.483,0,0,0-9.47-9.507" transform="translate(-69.982 -194.688)" fill="#9f0925" fill-rule="evenodd"/>
        <path id="Trazado_727220" data-name="Trazado 727220" d="M122.668,271.432a6.891,6.891,0,1,1,6.891-6.891,6.88,6.88,0,0,1-6.891,6.891m0-12.013a5.122,5.122,0,1,0,5.122,5.122,5.159,5.159,0,0,0-5.122-5.122" transform="translate(-101.553 -225.996)" fill="#9f0925" fill-rule="evenodd"/>
        <path id="Trazado_727221" data-name="Trazado 727221" d="M257.042,355.943A8.954,8.954,0,1,1,266,347.025a8.964,8.964,0,0,1-8.954,8.918m0-16.14a7.186,7.186,0,1,0,7.149,7.223,7.211,7.211,0,0,0-7.149-7.223" transform="translate(-217.576 -296.504)" fill="#9f0925" fill-rule="evenodd"/>
        <path id="Trazado_727222" data-name="Trazado 727222" d="M319.007,375.793a.93.93,0,0,1-.626-.221L316.1,373.25a.962.962,0,0,1-.258-.626v-4.275a.921.921,0,1,1,1.842,0v3.869l2.027,2.064a.891.891,0,0,1,0,1.29,1.52,1.52,0,0,1-.7.221" transform="translate(-277.035 -322.287)" fill="#9f0925" fill-rule="evenodd"/>
        <path id="Trazado_727223" data-name="Trazado 727223" d="M232.575,334.9a12.381,12.381,0,1,1,12.345-12.345A12.408,12.408,0,0,1,232.575,334.9m0-22.994a10.613,10.613,0,1,0,10.576,10.65,10.631,10.631,0,0,0-10.576-10.65" transform="translate(-193.109 -272.037)" fill="#9f0925" fill-rule="evenodd"/>
        <path id="Trazado_727224" data-name="Trazado 727224" d="M194.587,25.942a.936.936,0,0,1-.921-.921V12.787h-1.953a.811.811,0,0,1-.737-.442.836.836,0,0,1,0-.921L197.351.479A.932.932,0,0,1,198.125,0a.95.95,0,0,1,.774.479l6.375,10.981a1.014,1.014,0,0,1,0,.921.9.9,0,0,1-.774.479h-1.953v10.1a.912.912,0,0,1-.921.921.936.936,0,0,1-.921-.921V11.866a.936.936,0,0,1,.921-.921h1.327L198.125,2.69,193.3,10.944h1.29a.912.912,0,0,1,.921.921V25.021a.936.936,0,0,1-.921.921" transform="translate(-167.392)" fill="#9f0925" fill-rule="evenodd"/>
        <path id="Trazado_727225" data-name="Trazado 727225" d="M325.424,82.074a.912.912,0,0,1-.921-.921V56.095a.912.912,0,0,1,.921-.921h1.437L321.887,44.34l-4.975,10.834h1.437a.912.912,0,0,1,.921.921v19.53a.921.921,0,1,1-1.842,0V57.016h-1.916a.868.868,0,0,1-.774-.405.93.93,0,0,1-.074-.884l6.412-13.819a.895.895,0,0,1,1.621,0l6.412,13.819a1.232,1.232,0,0,1-.074.884.868.868,0,0,1-.774.405h-1.916V81.153a1.02,1.02,0,0,1-.921.921" transform="translate(-275.935 -36.307)" fill="#9f0925" fill-rule="evenodd"/>
      </g>
    </g>
  </g>
</svg>
