<svg xmlns="http://www.w3.org/2000/svg" xmlns:xlink="http://www.w3.org/1999/xlink" width="100" height="100" viewBox="0 0 100 100">
  <defs>
    <clipPath id="clip-path">
      <rect id="Rectángulo_346518" data-name="Rectángulo 346518" width="56" height="53.662" fill="#9f0925"/>
    </clipPath>
  </defs>
  <g id="Grupo_987557" data-name="Grupo 987557" transform="translate(-341 10743)">
    <circle id="Elipse_4713" data-name="Elipse 4713" cx="50" cy="50" r="50" transform="translate(341 -10743)" fill="#b3eeef"/>
    <g id="Grupo_987556" data-name="Grupo 987556" transform="translate(362.742 -10720)">
      <g id="Grupo_987555" data-name="Grupo 987555" clip-path="url(#clip-path)">
        <path id="Trazado_727226" data-name="Trazado 727226" d="M42.78,53.663a4.055,4.055,0,0,1-1.59-.326l-13.2-5.595-13.2,5.595a4.048,4.048,0,0,1-4.59-1,4.012,4.012,0,0,1-1.047-3.093l1.24-14.289L.984,24.122A4.066,4.066,0,0,1,3.137,17.5l13.971-3.236L24.5,1.97a4.066,4.066,0,0,1,6.967,0l7.395,12.289L52.835,17.5a4.066,4.066,0,0,1,2.153,6.627l-9.4,10.831,1.24,14.289a4.012,4.012,0,0,1-1.047,3.093A4.085,4.085,0,0,1,42.78,53.663Zm-14.794-8.2a1.094,1.094,0,0,1,.427.087l13.631,5.776a1.86,1.86,0,0,0,2.124-.466,1.848,1.848,0,0,0,.48-1.426l-1.28-14.75a1.094,1.094,0,0,1,.264-.812l9.7-11.181a1.879,1.879,0,0,0-.995-3.062L37.919,16.286a1.094,1.094,0,0,1-.69-.5L29.6,3.1a1.878,1.878,0,0,0-3.219,0L18.743,15.784a1.094,1.094,0,0,1-.69.5L3.63,19.626a1.879,1.879,0,0,0-.995,3.062l9.7,11.181a1.094,1.094,0,0,1,.264.812l-1.28,14.75a1.848,1.848,0,0,0,.48,1.426,1.86,1.86,0,0,0,2.124.466l13.631-5.776A1.094,1.094,0,0,1,27.986,45.46Z" transform="translate(0.014 -0.001)" fill="#9f0925"/>
        <path id="Elipse_4885" data-name="Elipse 4885" d="M7.05,0A7.05,7.05,0,1,1,0,7.05,7.058,7.058,0,0,1,7.05,0Zm0,11.912A4.862,4.862,0,1,0,2.188,7.05,4.868,4.868,0,0,0,7.05,11.912Z" transform="translate(18.03 19.396) rotate(-45)" fill="#9f0925"/>
        <path id="Trazado_727227" data-name="Trazado 727227" d="M249.517,305.291H233.9a1.094,1.094,0,0,1-1.094-1.094v-1.875a6.607,6.607,0,0,1,6.6-6.6h4.606a6.607,6.607,0,0,1,6.6,6.6V304.2A1.094,1.094,0,0,1,249.517,305.291ZM234.993,303.1h13.43v-.781a4.417,4.417,0,0,0-4.412-4.412h-4.606a4.417,4.417,0,0,0-4.412,4.412Z" transform="translate(-213.708 -271.464)" fill="#9f0925"/>
        <path id="Línea_220" data-name="Línea 220" d="M.457-11.146h-12.7a1.094,1.094,0,0,1-1.094-1.094,1.094,1.094,0,0,1,1.094-1.094H.457A1.094,1.094,0,0,1,1.551-12.24,1.094,1.094,0,0,1,.457-11.146Z" transform="translate(33.891 53.618)" fill="#9f0925"/>
        <path id="Línea_221" data-name="Línea 221" d="M-7.778-11.146H-12.24a1.094,1.094,0,0,1-1.094-1.094,1.094,1.094,0,0,1,1.094-1.094h4.462A1.094,1.094,0,0,1-6.684-12.24,1.094,1.094,0,0,1-7.778-11.146Z" transform="translate(30.833 49.309)" fill="#9f0925"/>
        <path id="Trazado_727228" data-name="Trazado 727228" d="M283.169,440.742H268.819a1.094,1.094,0,1,1,0-2.188h14.351a1.094,1.094,0,0,1,0,2.188Z" transform="translate(-245.763 -402.579)" fill="#9f0925"/>
      </g>
    </g>
  </g>
</svg>
